M48
; DRILL file {KiCad (6.0.9)} date Wed Dec 28 00:09:13 2022
; FORMAT={-:-/ absolute / inch / decimal}
; #@! TF.CreationDate,2022-12-28T00:09:13-03:00
; #@! TF.GenerationSoftware,Kicad,Pcbnew,(6.0.9)
; #@! TF.FileFunction,NonPlated,1,2,NPTH
FMAT,2
INCH
; #@! TA.AperFunction,NonPlated,NPTH,ComponentDrill
T1C0.0118
%
G90
G05
T1
X6.998Y-4.1211
X6.998Y-4.1444
X6.998Y-4.1678
X6.998Y-4.1912
X6.998Y-4.2146
X6.998Y-4.2379
X6.998Y-4.2613
X6.998Y-4.2847
X6.998Y-4.3081
X7.0Y-2.6526
X7.0Y-2.6759
X7.0Y-2.6993
X7.0Y-2.7227
X7.0Y-2.7461
X7.0Y-2.7694
X7.0Y-2.7928
X7.0Y-2.8162
X7.0Y-2.8396
X7.0Y-3.3061
X7.0Y-3.3295
X7.0Y-3.3529
X7.0Y-3.3762
X7.0Y-3.3996
X7.0Y-3.423
X7.0Y-3.4464
X7.0Y-3.4697
X7.0Y-3.4931
X7.0217Y-3.3061
X7.0217Y-3.3295
X7.0217Y-3.3529
X7.0217Y-3.3762
X7.0217Y-3.3996
X7.0217Y-3.423
X7.0217Y-3.4464
X7.0217Y-3.4697
X7.0217Y-3.4931
X7.0217Y-4.1211
X7.0217Y-4.1444
X7.0217Y-4.1678
X7.0217Y-4.1912
X7.0217Y-4.2146
X7.0217Y-4.2379
X7.0217Y-4.2613
X7.0217Y-4.2847
X7.0217Y-4.3081
X7.0236Y-2.6526
X7.0236Y-2.6759
X7.0236Y-2.6993
X7.0236Y-2.7227
X7.0236Y-2.7461
X7.0236Y-2.7694
X7.0236Y-2.7928
X7.0236Y-2.8162
X7.0236Y-2.8396
T0
M30
