M48
; DRILL file {KiCad (7.0.0)} date Mon Mar  6 15:53:14 2023
; FORMAT={-:-/ absolute / inch / decimal}
; #@! TF.CreationDate,2023-03-06T15:53:14-03:00
; #@! TF.GenerationSoftware,Kicad,Pcbnew,(7.0.0)
; #@! TF.FileFunction,NonPlated,1,2,NPTH
FMAT,2
INCH
; #@! TA.AperFunction,NonPlated,NPTH,ComponentDrill
T1C0.0197
; #@! TA.AperFunction,NonPlated,NPTH,ComponentDrill
T2C0.0295
; #@! TA.AperFunction,NonPlated,NPTH,ComponentDrill
T3C0.0354
; #@! TA.AperFunction,NonPlated,NPTH,ComponentDrill
T4C0.0670
; #@! TA.AperFunction,NonPlated,NPTH,ComponentDrill
T5C0.0748
; #@! TA.AperFunction,NonPlated,NPTH,ComponentDrill
T6C0.1181
; #@! TA.AperFunction,NonPlated,NPTH,ComponentDrill
T7C0.1350
; #@! TA.AperFunction,NonPlated,NPTH,ComponentDrill
T8C0.1570
; #@! TA.AperFunction,NonPlated,NPTH,ComponentDrill
T9C0.1614
%
G90
G05
T1
X5.6612Y-2.3541
X5.6612Y-2.3941
X5.6612Y-2.4341
X5.6612Y-2.4741
X5.6612Y-2.5141
X5.6614Y-4.285
X5.6614Y-4.325
X5.6614Y-4.365
X5.6614Y-4.405
X5.6614Y-4.445
X5.7412Y-2.3541
X5.7412Y-2.3941
X5.7412Y-2.4341
X5.7412Y-2.4741
X5.7412Y-2.5141
X5.7414Y-4.285
X5.7414Y-4.325
X5.7414Y-4.365
X5.7414Y-4.405
X5.7414Y-4.445
T2
X1.1934Y-4.1643
X1.3017Y-4.1643
X10.1082Y-4.1719
X10.2164Y-4.1719
T3
X1.2293Y-3.6787
X1.2293Y-3.8756
X10.1856Y-3.6866
X10.1856Y-3.8835
T4
X1.6961Y-4.9866
X1.7107Y-4.9787
X2.0549Y-3.7949
X2.0549Y-3.0445
X2.0549Y-2.2949
X2.0571Y-4.7787
X2.0712Y-4.7701
X2.0715Y-3.7953
X2.0715Y-3.0449
X2.0715Y-2.2953
X2.4519Y-4.6124
X2.468Y-4.6085
X2.4715Y-3.7953
X2.4715Y-3.0449
X2.4715Y-2.2953
X2.488Y-3.7949
X2.488Y-3.0445
X2.488Y-2.2949
X2.8049Y-2.1965
X2.8049Y-2.9465
X2.8049Y-3.6965
X2.8215Y-2.1968
X2.8215Y-2.9468
X2.8215Y-3.6968
X2.8544Y-4.5049
X2.8703Y-4.5003
X3.2215Y-2.1968
X3.2215Y-2.9468
X3.2215Y-3.6968
X3.238Y-2.1965
X3.238Y-2.9465
X3.238Y-3.6965
X3.2789Y-4.4465
X3.2954Y-4.4465
X3.5549Y-3.4402
X3.5549Y-2.6905
X3.5549Y-1.9402
X3.5715Y-3.4405
X3.5715Y-2.6909
X3.5715Y-1.9405
X3.6954Y-4.4465
X3.7119Y-4.4465
X3.9715Y-3.4405
X3.9715Y-2.6909
X3.9715Y-1.9405
X3.988Y-3.4402
X3.988Y-2.6905
X3.988Y-1.9402
X4.3049Y-2.9268
X4.3049Y-3.6768
X4.3049Y-2.1764
X4.3215Y-2.9272
X4.3215Y-3.6772
X4.3215Y-2.1768
X4.7215Y-2.9272
X4.7215Y-3.6772
X4.7215Y-2.1768
X4.738Y-2.9268
X4.738Y-3.6768
X4.738Y-2.1764
X5.0549Y-3.3992
X5.0549Y-4.1488
X5.0549Y-2.6492
X5.0715Y-3.3996
X5.0715Y-4.1492
X5.0715Y-2.6496
X5.4715Y-3.3996
X5.4715Y-4.1492
X5.4715Y-2.6496
X5.488Y-3.3992
X5.488Y-4.1488
X5.488Y-2.6492
X5.9156Y-2.6476
X5.9156Y-4.1476
X5.9156Y-3.3976
X5.9321Y-2.648
X5.9321Y-4.148
X5.9321Y-3.398
X6.3321Y-2.648
X6.3321Y-4.148
X6.3321Y-3.398
X6.3486Y-2.6476
X6.3486Y-4.1476
X6.3486Y-3.3976
X6.6656Y-2.1748
X6.6656Y-3.6748
X6.6656Y-2.9252
X6.6821Y-2.1752
X6.6821Y-3.6752
X6.6821Y-2.9256
X7.0821Y-2.1752
X7.0821Y-3.6752
X7.0821Y-2.9256
X7.0986Y-2.1748
X7.0986Y-3.6748
X7.0986Y-2.9252
X7.4156Y-1.9386
X7.4156Y-2.6889
X7.4156Y-3.4389
X7.4321Y-1.9389
X7.4321Y-2.6893
X7.4321Y-3.4393
X7.6916Y-4.4449
X7.7082Y-4.4453
X7.8321Y-1.9389
X7.8321Y-2.6893
X7.8321Y-3.4393
X7.8486Y-1.9386
X7.8486Y-2.6889
X7.8486Y-3.4389
X8.1082Y-4.4453
X8.1247Y-4.4449
X8.1656Y-3.6945
X8.1656Y-2.9449
X8.1656Y-2.1949
X8.1821Y-3.6949
X8.1821Y-2.9452
X8.1821Y-2.1952
X8.5332Y-4.4991
X8.5492Y-4.5033
X8.5821Y-3.6949
X8.5821Y-2.9452
X8.5821Y-2.1952
X8.5986Y-3.6945
X8.5986Y-2.9449
X8.5986Y-2.1949
X8.9156Y-2.2929
X8.9156Y-3.0433
X8.9156Y-3.7929
X8.9321Y-2.2933
X8.9321Y-3.0437
X8.9321Y-3.7933
X8.9355Y-4.6069
X8.9515Y-4.6111
X9.3321Y-2.2933
X9.3321Y-3.0437
X9.3321Y-3.7933
X9.3322Y-4.7688
X9.3465Y-4.7771
X9.3486Y-2.2929
X9.3486Y-3.0433
X9.3486Y-3.7929
X9.6929Y-4.9771
X9.7072Y-4.9854
T5
X1.7105Y-4.9784
X1.7105Y-4.9784
X2.0569Y-4.7784
X2.0569Y-4.7784
X2.0715Y-3.7949
X2.0715Y-3.0445
X2.0715Y-2.2949
X2.4679Y-4.6081
X2.4679Y-4.6081
X2.4715Y-3.7949
X2.4715Y-3.0445
X2.4715Y-2.2949
X2.8215Y-2.1965
X2.8215Y-2.9465
X2.8215Y-3.6965
X2.8543Y-4.5046
X2.8543Y-4.5046
X3.2215Y-2.1965
X3.2215Y-2.9465
X3.2215Y-3.6965
X3.2954Y-4.4461
X3.5715Y-3.4402
X3.5715Y-2.6905
X3.5715Y-1.9402
X3.6954Y-4.4461
X3.9715Y-3.4402
X3.9715Y-2.6905
X3.9715Y-1.9402
X4.3215Y-2.9268
X4.3215Y-3.6768
X4.3215Y-2.1764
X4.7215Y-2.9268
X4.7215Y-3.6768
X4.7215Y-2.1764
X5.0715Y-3.3992
X5.0715Y-4.1488
X5.0715Y-2.6492
X5.4715Y-3.3992
X5.4715Y-4.1488
X5.4715Y-2.6492
X5.9321Y-2.6476
X5.9321Y-4.1476
X5.9321Y-3.3976
X6.3321Y-2.6476
X6.3321Y-4.1476
X6.3321Y-3.3976
X6.6821Y-2.1748
X6.6821Y-3.6748
X6.6821Y-2.9252
X7.0821Y-2.1748
X7.0821Y-3.6748
X7.0821Y-2.9252
X7.4321Y-1.9386
X7.4321Y-2.6889
X7.4321Y-3.4389
X7.7082Y-4.4449
X7.8321Y-1.9386
X7.8321Y-2.6889
X7.8321Y-3.4389
X8.1082Y-4.4449
X8.1821Y-3.6945
X8.1821Y-2.9449
X8.1821Y-2.1949
X8.5493Y-4.503
X8.5493Y-4.503
X8.5821Y-3.6945
X8.5821Y-2.9449
X8.5821Y-2.1949
X8.9321Y-2.2929
X8.9321Y-3.0433
X8.9321Y-3.7929
X8.9356Y-4.6065
X8.9356Y-4.6065
X9.3321Y-2.2929
X9.3321Y-3.0433
X9.3321Y-3.7929
X9.3467Y-4.7768
X9.3467Y-4.7768
X9.6931Y-4.9768
X9.6931Y-4.9768
T6
X1.704Y-4.8671
X1.787Y-5.1046
X1.8705Y-4.6555
X2.0008Y-5.0812
X2.0746Y-3.9425
X2.0746Y-3.1921
X2.0746Y-2.4425
X2.1215Y-3.6953
X2.1215Y-2.9449
X2.1215Y-2.1953
X2.2715Y-4.0291
X2.2715Y-3.2787
X2.2715Y-2.5291
X2.3715Y-3.5953
X2.3715Y-2.8449
X2.3715Y-2.0953
X2.4904Y-4.4989
X2.5092Y-4.7499
X2.706Y-4.3376
X2.7217Y-4.7826
X2.8246Y-2.3441
X2.8246Y-3.0941
X2.8246Y-3.8441
X2.8715Y-2.0968
X2.8715Y-2.8468
X2.8715Y-3.5968
X3.0215Y-2.4307
X3.0215Y-3.1807
X3.0215Y-3.9307
X3.1215Y-1.9968
X3.1215Y-2.7468
X3.1215Y-3.4968
X3.2985Y-4.5941
X3.3454Y-4.3465
X3.4954Y-4.6807
X3.5746Y-3.5878
X3.5746Y-2.8382
X3.5746Y-2.0878
X3.5954Y-4.2465
X3.6215Y-3.3405
X3.6215Y-2.5909
X3.6215Y-1.8405
X3.7715Y-3.6744
X3.7715Y-2.9248
X3.7715Y-2.1744
X3.8715Y-3.2405
X3.8715Y-2.4909
X3.8715Y-1.7405
X4.3246Y-3.0744
X4.3246Y-3.8244
X4.3246Y-2.324
X4.3715Y-2.8272
X4.3715Y-3.5772
X4.3715Y-2.0768
X4.5215Y-3.161
X4.5215Y-3.911
X4.5215Y-2.4106
X4.6215Y-2.7272
X4.6215Y-3.4772
X4.6215Y-1.9768
X5.0746Y-3.5469
X5.0746Y-4.2965
X5.0746Y-2.7969
X5.1215Y-3.2996
X5.1215Y-4.0492
X5.1215Y-2.5496
X5.2715Y-3.6335
X5.2715Y-4.3831
X5.2715Y-2.8835
X5.3715Y-3.1996
X5.3715Y-3.9492
X5.3715Y-2.4496
X5.9352Y-2.7953
X5.9352Y-4.2953
X5.9352Y-3.5453
X5.9821Y-2.548
X5.9821Y-4.048
X5.9821Y-3.298
X6.1321Y-2.8819
X6.1321Y-4.3819
X6.1321Y-3.6319
X6.2321Y-2.448
X6.2321Y-3.948
X6.2321Y-3.198
X6.6852Y-2.3224
X6.6852Y-3.8224
X6.6852Y-3.0728
X6.7321Y-2.0752
X6.7321Y-3.5752
X6.7321Y-2.8256
X6.8821Y-2.409
X6.8821Y-3.909
X6.8821Y-3.1594
X6.9821Y-1.9752
X6.9821Y-3.4752
X6.9821Y-2.7256
X7.4352Y-2.0862
X7.4352Y-2.8366
X7.4352Y-3.5866
X7.4821Y-1.8389
X7.4821Y-2.5893
X7.4821Y-3.3393
X7.6321Y-2.1728
X7.6321Y-2.9232
X7.6321Y-3.6732
X7.7113Y-4.5925
X7.7321Y-1.7389
X7.7321Y-2.4893
X7.7321Y-3.2393
X7.7582Y-4.3453
X7.9082Y-4.6791
X8.0082Y-4.2453
X8.1852Y-3.8421
X8.1852Y-3.0925
X8.1852Y-2.3425
X8.2321Y-3.5949
X8.2321Y-2.8452
X8.2321Y-2.0952
X8.3821Y-3.9287
X8.3821Y-3.1791
X8.3821Y-2.4291
X8.4821Y-3.4949
X8.4821Y-2.7452
X8.4821Y-1.9952
X8.514Y-4.6468
X8.6233Y-4.4197
X8.6817Y-4.7814
X8.8907Y-4.3878
X8.9352Y-2.4405
X8.9352Y-3.1909
X8.9352Y-3.9405
X8.9821Y-2.1933
X8.9821Y-2.9437
X8.9821Y-3.6933
X9.1321Y-2.5271
X9.1321Y-3.2775
X9.1321Y-4.0271
X9.2321Y-2.0933
X9.2321Y-2.8437
X9.2321Y-3.5933
X9.2754Y-4.9065
X9.4026Y-5.08
X9.4398Y-4.7155
X9.7063Y-4.7539
T7
X1.8837Y-4.8784
X2.2715Y-3.7949
X2.2715Y-3.0445
X2.2715Y-2.2949
X2.6611Y-4.5563
X3.0215Y-2.1965
X3.0215Y-2.9465
X3.0215Y-3.6965
X3.4954Y-4.4465
X3.7715Y-3.4402
X3.7715Y-2.6905
X3.7715Y-1.9402
X4.5215Y-2.9268
X4.5215Y-3.6768
X4.5215Y-2.1764
X5.2715Y-3.3992
X5.2715Y-4.1488
X5.2715Y-2.6492
X6.1321Y-2.6476
X6.1321Y-4.1476
X6.1321Y-3.3976
X6.8821Y-2.1748
X6.8821Y-3.6748
X6.8821Y-2.9252
X7.6321Y-1.9386
X7.6321Y-2.6889
X7.6321Y-3.4389
X7.9082Y-4.4449
X8.3821Y-3.6945
X8.3821Y-2.9449
X8.3821Y-2.1949
X8.7423Y-4.5551
X9.1321Y-2.2929
X9.1321Y-3.0433
X9.1321Y-3.7929
X9.5197Y-4.8771
T8
X1.8839Y-4.8787
X2.2715Y-3.7953
X2.2715Y-3.0449
X2.2715Y-2.2953
X2.6612Y-4.5567
X3.0215Y-2.1968
X3.0215Y-2.9468
X3.0215Y-3.6968
X3.4954Y-4.4465
X3.7715Y-3.4405
X3.7715Y-2.6909
X3.7715Y-1.9405
X4.5215Y-2.9272
X4.5215Y-3.6772
X4.5215Y-2.1768
X5.2715Y-3.3996
X5.2715Y-4.1492
X5.2715Y-2.6496
X6.1321Y-2.648
X6.1321Y-4.148
X6.1321Y-3.398
X6.8821Y-2.1752
X6.8821Y-3.6752
X6.8821Y-2.9256
X7.6321Y-1.9389
X7.6321Y-2.6893
X7.6321Y-3.4393
X7.9082Y-4.4453
X8.3821Y-3.6949
X8.3821Y-2.9452
X8.3821Y-2.1952
X8.7423Y-4.5551
X9.1321Y-2.2933
X9.1321Y-3.0437
X9.1321Y-3.7933
X9.5197Y-4.8771
T9
X1.8837Y-4.8784
X1.8837Y-4.8784
X2.2715Y-3.7949
X2.2715Y-3.0445
X2.2715Y-2.2949
X2.6611Y-4.5563
X2.6611Y-4.5563
X3.0215Y-2.1965
X3.0215Y-2.9465
X3.0215Y-3.6965
X3.4954Y-4.4461
X3.7715Y-3.4402
X3.7715Y-2.6905
X3.7715Y-1.9402
X4.5215Y-2.9268
X4.5215Y-3.6768
X4.5215Y-2.1764
X5.2715Y-3.3992
X5.2715Y-4.1488
X5.2715Y-2.6492
X6.1321Y-2.6476
X6.1321Y-4.1476
X6.1321Y-3.3976
X6.8821Y-2.1748
X6.8821Y-3.6748
X6.8821Y-2.9252
X7.6321Y-1.9386
X7.6321Y-2.6889
X7.6321Y-3.4389
X7.9082Y-4.4449
X8.3821Y-3.6945
X8.3821Y-2.9449
X8.3821Y-2.1949
X8.7424Y-4.5547
X8.7424Y-4.5547
X9.1321Y-2.2929
X9.1321Y-3.0433
X9.1321Y-3.7929
X9.5199Y-4.8768
X9.5199Y-4.8768
T0
M30
