M48
; DRILL file {KiCad (7.0.0)} date Wed Mar  8 01:43:35 2023
; FORMAT={-:-/ absolute / metric / decimal}
; #@! TF.CreationDate,2023-03-08T01:43:35-03:00
; #@! TF.GenerationSoftware,Kicad,Pcbnew,(7.0.0)
; #@! TF.FileFunction,Plated,1,2,PTH
FMAT,2
METRIC
; #@! TA.AperFunction,Plated,PTH,ViaDrill
T1C0.400
; #@! TA.AperFunction,Plated,PTH,ComponentDrill
T2C0.813
; #@! TA.AperFunction,Plated,PTH,ComponentDrill
T3C1.000
; #@! TA.AperFunction,Plated,PTH,ComponentDrill
T4C1.016
; #@! TA.AperFunction,Plated,PTH,ComponentDrill
T5C1.300
; #@! TA.AperFunction,Plated,PTH,ComponentDrill
T6C2.200
; #@! TA.AperFunction,Plated,PTH,ComponentDrill
T7C3.500
; #@! TA.AperFunction,Plated,PTH,ComponentDrill
T8C4.000
%
G90
G05
T1
X33.84Y-108.413
X34.62Y-93.22
X35.981Y-103.15
X36.051Y-89.13
X36.641Y-93.46
X36.681Y-96.24
X38.971Y-95.31
X39.171Y-100.78
X39.191Y-76.75
X40.621Y-93.13
X42.341Y-82.97
X42.87Y-98.5
X43.05Y-69.92
X43.816Y-72.175
X44.78Y-95.02
X46.39Y-95.22
X48.37Y-68.115
X48.951Y-70.54
X50.757Y-116.375
X51.161Y-68.83
X54.06Y-119.815
X55.267Y-81.16
X59.69Y-79.84
X60.94Y-83.29
X60.98Y-64.25
X61.07Y-102.35
X63.985Y-91.32
X63.985Y-72.26
X63.985Y-53.22
X66.45Y-76.85
X70.43Y-112.88
X72.04Y-117.57
X79.96Y-99.91
X80.02Y-80.79
X80.07Y-61.71
X81.281Y-78.98
X83.035Y-50.72
X83.035Y-69.77
X83.035Y-88.82
X88.96Y-88.425
X90.24Y-82.28
X92.18Y-115.49
X93.34Y-100.44
X94.425Y-103.815
X95.073Y-107.86
X98.24Y-72.07
X98.99Y-93.47
X99.19Y-55.18
X102.085Y-82.31
X102.085Y-63.27
X102.085Y-44.21
X107.285Y-52.75
X118.15Y-99.32
X118.59Y-52.68
X118.6Y-77.09
X120.83Y-99.3
X121.135Y-69.27
X121.135Y-88.32
X121.135Y-50.21
X121.351Y-66.86
X125.17Y-96.71
X139.45Y-90.64
X139.65Y-72.13
X140.185Y-81.27
X140.185Y-100.31
X140.185Y-62.22
X140.36Y-110.33
X159.0Y-92.25
X159.01Y-111.33
X159.03Y-73.21
X162.045Y-62.18
X162.045Y-100.28
X162.045Y-81.23
X175.01Y-96.28
X177.98Y-61.29
X178.05Y-80.33
X178.07Y-99.32
X181.095Y-50.17
X181.095Y-88.27
X181.095Y-69.23
X183.16Y-99.2
X186.295Y-60.625
X194.16Y-121.33
X197.06Y-74.31
X197.09Y-55.31
X197.14Y-93.32
X200.145Y-44.169
X200.145Y-63.229
X200.145Y-82.279
X209.01Y-115.205
X214.63Y-83.14
X216.15Y-61.72
X216.19Y-99.79
X217.665Y-107.596
X218.36Y-79.38
X219.195Y-88.769
X219.195Y-69.729
X219.195Y-50.679
X222.189Y-96.73
X223.355Y-102.706
X226.06Y-84.52
X229.595Y-112.206
X229.76Y-99.18
X235.22Y-64.25
X235.23Y-102.289
X235.28Y-83.28
X238.245Y-53.169
X238.245Y-72.229
X238.245Y-91.269
X240.88Y-127.79
X243.526Y-93.893
X249.04Y-106.03
X249.045Y-83.516
X249.08Y-112.11
X249.09Y-96.68
X257.28Y-103.44
T2
X43.042Y-100.13
X46.427Y-100.145
X243.223Y-100.104
X246.608Y-100.089
T3
X31.358Y-71.936
X31.358Y-74.476
X31.358Y-77.016
X31.358Y-79.556
X31.358Y-82.096
X31.358Y-84.636
X31.358Y-87.176
X46.598Y-71.936
X46.598Y-74.476
X46.598Y-77.016
X46.598Y-79.556
X46.598Y-82.096
X46.598Y-84.636
X46.598Y-87.176
X243.052Y-71.895
X243.052Y-74.435
X243.052Y-76.975
X243.052Y-79.515
X243.052Y-82.055
X243.052Y-84.595
X243.052Y-87.135
X258.292Y-71.895
X258.292Y-74.435
X258.292Y-76.975
X258.292Y-79.515
X258.292Y-82.055
X258.292Y-84.595
X258.292Y-87.135
T4
X34.533Y-77.334
X34.533Y-79.239
X37.708Y-70.984
X37.708Y-73.524
X40.248Y-70.984
X40.248Y-73.524
X246.227Y-77.293
X246.227Y-79.198
X249.402Y-70.943
X249.402Y-73.483
X251.942Y-70.943
X251.942Y-73.483
T5
X32.53Y-113.97
X39.03Y-113.97
X250.7Y-113.81
X257.2Y-113.81
T6
X31.389Y-66.91
X35.567Y-117.692
X46.171Y-66.91
X243.479Y-66.87
X254.083Y-117.651
X258.261Y-66.869
T7
X88.56Y-99.18
X121.66Y-105.701
X168.122Y-105.677
X201.1Y-99.14
X222.43Y-65.274
T8
X53.15Y-108.625
X67.22Y-65.315
X127.248Y-54.901
X162.534Y-54.877
X236.483Y-108.629
T0
M30
