M48
; DRILL file {KiCad (7.0.0)} date Wed Mar  8 01:43:35 2023
; FORMAT={-:-/ absolute / metric / decimal}
; #@! TF.CreationDate,2023-03-08T01:43:35-03:00
; #@! TF.GenerationSoftware,Kicad,Pcbnew,(7.0.0)
; #@! TF.FileFunction,NonPlated,1,2,NPTH
FMAT,2
METRIC
; #@! TA.AperFunction,NonPlated,NPTH,ComponentDrill
T1C0.500
; #@! TA.AperFunction,NonPlated,NPTH,ComponentDrill
T2C0.750
; #@! TA.AperFunction,NonPlated,NPTH,ComponentDrill
T3C0.900
; #@! TA.AperFunction,NonPlated,NPTH,ComponentDrill
T4C1.702
; #@! TA.AperFunction,NonPlated,NPTH,ComponentDrill
T5C1.900
; #@! TA.AperFunction,NonPlated,NPTH,ComponentDrill
T6C3.000
; #@! TA.AperFunction,NonPlated,NPTH,ComponentDrill
T7C3.429
; #@! TA.AperFunction,NonPlated,NPTH,ComponentDrill
T8C3.988
; #@! TA.AperFunction,NonPlated,NPTH,ComponentDrill
T9C4.100
%
G90
G05
T1
X143.796Y-59.793
X143.796Y-60.809
X143.796Y-61.825
X143.796Y-62.841
X143.796Y-63.857
X143.801Y-108.838
X143.801Y-109.854
X143.801Y-110.87
X143.801Y-111.886
X143.801Y-112.902
X145.828Y-59.793
X145.828Y-60.809
X145.828Y-61.825
X145.828Y-62.841
X145.828Y-63.857
X145.833Y-108.838
X145.833Y-109.854
X145.833Y-110.87
X145.833Y-111.886
X145.833Y-112.902
T2
X30.312Y-105.772
X33.062Y-105.772
X256.748Y-105.968
X259.498Y-105.968
T3
X31.225Y-93.44
X31.225Y-98.44
X258.715Y-93.64
X258.715Y-98.64
T4
X43.082Y-126.66
X43.451Y-126.459
X52.195Y-96.39
X52.195Y-77.33
X52.195Y-58.29
X52.25Y-121.379
X52.608Y-121.16
X52.615Y-96.4
X52.615Y-77.34
X52.615Y-58.3
X62.279Y-117.154
X62.688Y-117.055
X62.775Y-96.4
X62.775Y-77.34
X62.775Y-58.3
X63.195Y-96.39
X63.195Y-77.33
X63.195Y-58.29
X71.245Y-55.79
X71.245Y-74.84
X71.245Y-93.89
X71.665Y-55.8
X71.665Y-74.85
X71.665Y-93.9
X72.502Y-114.425
X72.905Y-114.307
X81.825Y-55.8
X81.825Y-74.85
X81.825Y-93.9
X82.245Y-55.79
X82.245Y-74.84
X82.245Y-93.89
X83.283Y-112.94
X83.703Y-112.94
X90.295Y-87.38
X90.295Y-68.34
X90.295Y-49.28
X90.715Y-87.39
X90.715Y-68.35
X90.715Y-49.29
X93.863Y-112.94
X94.283Y-112.94
X100.875Y-87.39
X100.875Y-68.35
X100.875Y-49.29
X101.295Y-87.38
X101.295Y-68.34
X101.295Y-49.28
X109.345Y-74.34
X109.345Y-93.39
X109.345Y-55.28
X109.765Y-74.35
X109.765Y-93.4
X109.765Y-55.29
X119.925Y-74.35
X119.925Y-93.4
X119.925Y-55.29
X120.345Y-74.34
X120.345Y-93.39
X120.345Y-55.28
X128.395Y-86.34
X128.395Y-105.38
X128.395Y-67.29
X128.815Y-86.35
X128.815Y-105.39
X128.815Y-67.3
X138.975Y-86.35
X138.975Y-105.39
X138.975Y-67.3
X139.395Y-86.34
X139.395Y-105.38
X139.395Y-67.29
X150.255Y-67.25
X150.255Y-105.35
X150.255Y-86.3
X150.675Y-67.26
X150.675Y-105.36
X150.675Y-86.31
X160.835Y-67.26
X160.835Y-105.36
X160.835Y-86.31
X161.255Y-67.25
X161.255Y-105.35
X161.255Y-86.3
X169.305Y-55.24
X169.305Y-93.34
X169.305Y-74.3
X169.725Y-55.25
X169.725Y-93.35
X169.725Y-74.31
X179.885Y-55.25
X179.885Y-93.35
X179.885Y-74.31
X180.305Y-55.24
X180.305Y-93.34
X180.305Y-74.3
X188.355Y-49.239
X188.355Y-68.299
X188.355Y-87.349
X188.775Y-49.249
X188.775Y-68.309
X188.775Y-87.359
X195.367Y-112.9
X195.787Y-112.91
X198.935Y-49.249
X198.935Y-68.309
X198.935Y-87.359
X199.355Y-49.239
X199.355Y-68.299
X199.355Y-87.349
X205.947Y-112.91
X206.367Y-112.9
X207.405Y-93.839
X207.405Y-74.799
X207.405Y-55.749
X207.825Y-93.849
X207.825Y-74.809
X207.825Y-55.759
X216.743Y-114.276
X217.149Y-114.385
X217.985Y-93.849
X217.985Y-74.809
X217.985Y-55.759
X218.405Y-93.839
X218.405Y-74.799
X218.405Y-55.749
X226.455Y-58.239
X226.455Y-77.299
X226.455Y-96.339
X226.875Y-58.249
X226.875Y-77.309
X226.875Y-96.349
X226.962Y-117.014
X227.368Y-117.123
X237.035Y-58.249
X237.035Y-77.309
X237.035Y-96.349
X237.037Y-121.128
X237.401Y-121.338
X237.455Y-58.239
X237.455Y-77.299
X237.455Y-96.339
X246.199Y-126.418
X246.563Y-126.628
T5
X43.446Y-126.45
X43.446Y-126.45
X52.245Y-121.37
X52.245Y-121.37
X52.615Y-96.39
X52.615Y-77.33
X52.615Y-58.29
X62.685Y-117.045
X62.685Y-117.045
X62.775Y-96.39
X62.775Y-77.33
X62.775Y-58.29
X71.665Y-55.79
X71.665Y-74.84
X71.665Y-93.89
X72.499Y-114.416
X72.499Y-114.416
X81.825Y-55.79
X81.825Y-74.84
X81.825Y-93.89
X83.703Y-112.93
X90.715Y-87.38
X90.715Y-68.34
X90.715Y-49.28
X93.863Y-112.93
X100.875Y-87.38
X100.875Y-68.34
X100.875Y-49.28
X109.765Y-74.34
X109.765Y-93.39
X109.765Y-55.28
X119.925Y-74.34
X119.925Y-93.39
X119.925Y-55.28
X128.815Y-86.34
X128.815Y-105.38
X128.815Y-67.29
X138.975Y-86.34
X138.975Y-105.38
X138.975Y-67.29
X150.675Y-67.25
X150.675Y-105.35
X150.675Y-86.3
X160.835Y-67.25
X160.835Y-105.35
X160.835Y-86.3
X169.725Y-55.24
X169.725Y-93.34
X169.725Y-74.3
X179.885Y-55.24
X179.885Y-93.34
X179.885Y-74.3
X188.775Y-49.239
X188.775Y-68.299
X188.775Y-87.349
X195.787Y-112.9
X198.935Y-49.239
X198.935Y-68.299
X198.935Y-87.349
X205.947Y-112.9
X207.825Y-93.839
X207.825Y-74.799
X207.825Y-55.749
X217.151Y-114.375
X217.151Y-114.375
X217.985Y-93.839
X217.985Y-74.799
X217.985Y-55.749
X226.875Y-58.239
X226.875Y-77.299
X226.875Y-96.339
X226.965Y-117.005
X226.965Y-117.005
X237.035Y-58.239
X237.035Y-77.299
X237.035Y-96.339
X237.406Y-121.33
X237.406Y-121.33
X246.204Y-126.41
X246.204Y-126.41
T6
X43.281Y-123.624
X45.39Y-129.658
X47.51Y-118.25
X50.82Y-129.063
X52.695Y-100.14
X52.695Y-81.08
X52.695Y-62.04
X53.885Y-93.86
X53.885Y-74.8
X53.885Y-55.76
X57.695Y-102.34
X57.695Y-83.28
X57.695Y-64.24
X60.235Y-91.32
X60.235Y-72.26
X60.235Y-53.22
X63.257Y-114.273
X63.733Y-120.647
X68.733Y-110.176
X69.132Y-121.478
X71.745Y-59.54
X71.745Y-78.59
X71.745Y-97.64
X72.935Y-53.26
X72.935Y-72.31
X72.935Y-91.36
X76.745Y-61.74
X76.745Y-80.79
X76.745Y-99.84
X79.285Y-50.72
X79.285Y-69.77
X79.285Y-88.82
X83.783Y-116.69
X84.973Y-110.4
X88.783Y-118.89
X90.795Y-91.13
X90.795Y-72.09
X90.795Y-53.03
X91.323Y-107.86
X91.985Y-84.85
X91.985Y-65.81
X91.985Y-46.75
X95.795Y-93.33
X95.795Y-74.29
X95.795Y-55.23
X98.335Y-82.31
X98.335Y-63.27
X98.335Y-44.21
X109.845Y-78.09
X109.845Y-97.14
X109.845Y-59.03
X111.035Y-71.81
X111.035Y-90.86
X111.035Y-52.75
X114.845Y-80.29
X114.845Y-99.34
X114.845Y-61.23
X117.385Y-69.27
X117.385Y-88.32
X117.385Y-50.21
X128.895Y-90.09
X128.895Y-109.13
X128.895Y-71.04
X130.085Y-83.81
X130.085Y-102.85
X130.085Y-64.76
X133.895Y-92.29
X133.895Y-111.33
X133.895Y-73.24
X136.435Y-81.27
X136.435Y-100.31
X136.435Y-62.22
X150.755Y-71.0
X150.755Y-109.1
X150.755Y-90.05
X151.945Y-64.72
X151.945Y-102.82
X151.945Y-83.77
X155.755Y-73.2
X155.755Y-111.3
X155.755Y-92.25
X158.295Y-62.18
X158.295Y-100.28
X158.295Y-81.23
X169.805Y-58.99
X169.805Y-97.09
X169.805Y-78.05
X170.995Y-52.71
X170.995Y-90.81
X170.995Y-71.77
X174.805Y-61.19
X174.805Y-99.29
X174.805Y-80.25
X177.345Y-50.17
X177.345Y-88.27
X177.345Y-69.23
X188.855Y-52.989
X188.855Y-72.049
X188.855Y-91.099
X190.045Y-46.709
X190.045Y-65.769
X190.045Y-84.819
X193.855Y-55.189
X193.855Y-74.249
X193.855Y-93.299
X195.867Y-116.65
X196.395Y-44.169
X196.395Y-63.229
X196.395Y-82.279
X197.057Y-110.37
X200.867Y-118.85
X203.407Y-107.83
X207.905Y-97.589
X207.905Y-78.549
X207.905Y-59.499
X209.095Y-91.309
X209.095Y-72.269
X209.095Y-53.219
X212.905Y-99.789
X212.905Y-80.749
X212.905Y-61.699
X215.445Y-88.769
X215.445Y-69.729
X215.445Y-50.679
X216.255Y-118.028
X219.033Y-112.26
X220.515Y-121.447
X225.824Y-111.45
X226.955Y-61.989
X226.955Y-81.049
X226.955Y-100.089
X228.145Y-55.709
X228.145Y-74.769
X228.145Y-93.809
X231.955Y-64.189
X231.955Y-83.249
X231.955Y-102.289
X234.495Y-53.169
X234.495Y-72.229
X234.495Y-91.269
X235.595Y-124.626
X238.825Y-129.031
X239.77Y-119.774
X246.54Y-120.749
T7
X47.845Y-123.91
X57.695Y-96.39
X57.695Y-77.33
X57.695Y-58.29
X67.592Y-115.731
X76.745Y-55.79
X76.745Y-74.84
X76.745Y-93.89
X88.783Y-112.94
X95.795Y-87.38
X95.795Y-68.34
X95.795Y-49.28
X114.845Y-74.34
X114.845Y-93.39
X114.845Y-55.28
X133.895Y-86.34
X133.895Y-105.38
X133.895Y-67.29
X155.755Y-67.25
X155.755Y-105.35
X155.755Y-86.3
X174.805Y-55.24
X174.805Y-93.34
X174.805Y-74.3
X193.855Y-49.239
X193.855Y-68.299
X193.855Y-87.349
X200.867Y-112.9
X212.905Y-93.839
X212.905Y-74.799
X212.905Y-55.749
X222.055Y-115.7
X231.955Y-58.239
X231.955Y-77.299
X231.955Y-96.339
X241.8Y-123.878
T8
X47.85Y-123.919
X57.695Y-96.4
X57.695Y-77.34
X57.695Y-58.3
X67.595Y-115.74
X76.745Y-55.8
X76.745Y-74.85
X76.745Y-93.9
X88.783Y-112.94
X95.795Y-87.39
X95.795Y-68.35
X95.795Y-49.29
X114.845Y-74.35
X114.845Y-93.4
X114.845Y-55.29
X133.895Y-86.35
X133.895Y-105.39
X133.895Y-67.3
X155.755Y-67.26
X155.755Y-105.36
X155.755Y-86.31
X174.805Y-55.25
X174.805Y-93.35
X174.805Y-74.31
X193.855Y-49.249
X193.855Y-68.309
X193.855Y-87.359
X200.867Y-112.91
X212.905Y-93.849
X212.905Y-74.809
X212.905Y-55.759
X222.055Y-115.7
X231.955Y-58.249
X231.955Y-77.309
X231.955Y-96.349
X241.8Y-123.878
T9
X47.845Y-123.91
X47.845Y-123.91
X57.695Y-96.39
X57.695Y-77.33
X57.695Y-58.29
X67.592Y-115.731
X67.592Y-115.731
X76.745Y-55.79
X76.745Y-74.84
X76.745Y-93.89
X88.783Y-112.93
X95.795Y-87.38
X95.795Y-68.34
X95.795Y-49.28
X114.845Y-74.34
X114.845Y-93.39
X114.845Y-55.28
X133.895Y-86.34
X133.895Y-105.38
X133.895Y-67.29
X155.755Y-67.25
X155.755Y-105.35
X155.755Y-86.3
X174.805Y-55.24
X174.805Y-93.34
X174.805Y-74.3
X193.855Y-49.239
X193.855Y-68.299
X193.855Y-87.349
X200.867Y-112.9
X212.905Y-93.839
X212.905Y-74.799
X212.905Y-55.749
X222.058Y-115.69
X222.058Y-115.69
X231.955Y-58.239
X231.955Y-77.299
X231.955Y-96.339
X241.805Y-123.87
X241.805Y-123.87
T0
M30
