M48
; DRILL file {KiCad (7.0.0)} date Fri Mar 10 10:40:26 2023
; FORMAT={-:-/ absolute / metric / decimal}
; #@! TF.CreationDate,2023-03-10T10:40:26-03:00
; #@! TF.GenerationSoftware,Kicad,Pcbnew,(7.0.0)
; #@! TF.FileFunction,Plated,1,2,PTH
FMAT,2
METRIC
; #@! TA.AperFunction,Plated,PTH,ViaDrill
T1C0.400
; #@! TA.AperFunction,Plated,PTH,ComponentDrill
T2C0.813
; #@! TA.AperFunction,Plated,PTH,ComponentDrill
T3C1.000
; #@! TA.AperFunction,Plated,PTH,ComponentDrill
T4C1.016
; #@! TA.AperFunction,Plated,PTH,ComponentDrill
T5C1.300
; #@! TA.AperFunction,Plated,PTH,ComponentDrill
T6C2.200
; #@! TA.AperFunction,Plated,PTH,ComponentDrill
T7C3.500
; #@! TA.AperFunction,Plated,PTH,ComponentDrill
T8C4.000
%
G90
G05
T1
X34.636Y-108.01
X35.42Y-92.54
X36.051Y-89.13
X36.641Y-93.46
X36.711Y-96.729
X36.75Y-98.224
X38.94Y-98.59
X38.944Y-97.005
X39.191Y-76.75
X40.621Y-93.13
X42.341Y-82.97
X42.87Y-98.5
X43.05Y-69.92
X43.816Y-72.175
X44.78Y-95.02
X46.39Y-95.22
X48.37Y-68.115
X48.951Y-70.54
X51.161Y-68.83
X53.37Y-118.66
X55.267Y-81.16
X59.69Y-79.84
X62.8Y-93.92
X62.9Y-82.16
X63.66Y-55.88
X64.421Y-75.09
X66.16Y-82.945
X66.45Y-76.85
X70.43Y-112.88
X81.281Y-78.98
X81.36Y-52.86
X83.36Y-91.71
X83.93Y-72.53
X88.96Y-88.425
X90.24Y-82.28
X93.34Y-100.44
X93.59Y-110.18
X94.425Y-103.815
X99.518Y-65.838
X100.083Y-46.213
X102.521Y-85.19
X107.285Y-50.72
X119.278Y-52.068
X119.438Y-70.968
X120.83Y-99.3
X121.351Y-66.86
X122.1Y-91.33
X125.611Y-98.16
X140.13Y-102.95
X140.621Y-64.94
X141.24Y-83.64
X160.35Y-102.52
X160.45Y-83.41
X162.89Y-64.74
X175.01Y-96.28
X179.37Y-90.85
X181.531Y-72.24
X181.79Y-52.66
X183.16Y-99.2
X186.295Y-60.625
X194.16Y-121.33
X198.39Y-46.54
X198.39Y-84.82
X200.581Y-66.06
X206.84Y-115.205
X217.665Y-107.596
X219.0Y-52.87
X219.195Y-72.13
X220.04Y-91.18
X222.189Y-97.46
X223.355Y-102.706
X226.06Y-84.52
X226.15Y-114.75
X229.76Y-99.18
X236.247Y-74.227
X238.681Y-56.21
X238.744Y-93.08
X240.88Y-127.79
X243.526Y-93.893
X248.0Y-98.68
X249.04Y-106.03
X249.045Y-83.516
X249.08Y-112.11
X257.28Y-103.44
T2
X43.042Y-100.13
X46.427Y-100.145
X243.223Y-100.104
X246.608Y-100.089
T3
X31.358Y-71.936
X31.358Y-74.476
X31.358Y-77.016
X31.358Y-79.556
X31.358Y-82.096
X31.358Y-84.636
X31.358Y-87.176
X46.598Y-71.936
X46.598Y-74.476
X46.598Y-77.016
X46.598Y-79.556
X46.598Y-82.096
X46.598Y-84.636
X46.598Y-87.176
X243.052Y-71.895
X243.052Y-74.435
X243.052Y-76.975
X243.052Y-79.515
X243.052Y-82.055
X243.052Y-84.595
X243.052Y-87.135
X258.292Y-71.895
X258.292Y-74.435
X258.292Y-76.975
X258.292Y-79.515
X258.292Y-82.055
X258.292Y-84.595
X258.292Y-87.135
T4
X34.533Y-77.334
X34.533Y-79.239
X37.708Y-70.984
X37.708Y-73.524
X40.248Y-70.984
X40.248Y-73.524
X246.227Y-77.293
X246.227Y-79.198
X249.402Y-70.943
X249.402Y-73.483
X251.942Y-70.943
X251.942Y-73.483
T5
X32.53Y-113.97
X39.03Y-113.97
X250.7Y-113.81
X257.2Y-113.81
T6
X31.389Y-66.91
X35.567Y-117.692
X46.171Y-66.91
X243.479Y-66.87
X254.083Y-117.651
X258.261Y-66.869
T7
X88.56Y-99.18
X121.66Y-105.701
X162.534Y-54.877
X168.122Y-105.677
X201.1Y-99.14
X222.43Y-65.274
T8
X53.15Y-108.625
X67.22Y-65.315
X127.248Y-54.901
X236.483Y-108.629
T0
M30
