M48
; DRILL file {KiCad (7.0.0)} date Mon Mar  6 20:10:25 2023
; FORMAT={-:-/ absolute / inch / decimal}
; #@! TF.CreationDate,2023-03-06T20:10:25-03:00
; #@! TF.GenerationSoftware,Kicad,Pcbnew,(7.0.0)
; #@! TF.FileFunction,Plated,1,2,PTH
FMAT,2
INCH
; #@! TA.AperFunction,Plated,PTH,ViaDrill
T1C0.0157
; #@! TA.AperFunction,Plated,PTH,ComponentDrill
T2C0.0320
; #@! TA.AperFunction,Plated,PTH,ComponentDrill
T3C0.0394
; #@! TA.AperFunction,Plated,PTH,ComponentDrill
T4C0.0400
; #@! TA.AperFunction,Plated,PTH,ComponentDrill
T5C0.0512
; #@! TA.AperFunction,Plated,PTH,ComponentDrill
T6C0.0866
; #@! TA.AperFunction,Plated,PTH,ComponentDrill
T7C0.1378
; #@! TA.AperFunction,Plated,PTH,ComponentDrill
T8C0.1575
%
G90
G05
T1
X1.3323Y-4.2682
X1.363Y-3.6701
X1.4166Y-4.061
X1.4193Y-3.509
X1.4425Y-3.6795
X1.4441Y-3.789
X1.5343Y-3.7524
X1.5422Y-3.9677
X1.5429Y-3.0216
X1.5992Y-3.6665
X1.667Y-3.2665
X1.6949Y-2.7528
X1.725Y-2.8415
X1.763Y-3.7409
X1.9043Y-2.6817
X1.9272Y-2.7772
X1.9983Y-4.5817
X2.0142Y-2.7098
X2.1283Y-4.7171
X2.1759Y-3.1953
X2.35Y-3.1433
X2.3992Y-3.2791
X2.4008Y-2.5295
X2.4043Y-4.0295
X2.5191Y-3.5953
X2.5191Y-2.8449
X2.5191Y-2.0953
X2.6161Y-3.0256
X2.7728Y-4.4441
X2.8362Y-4.6287
X3.148Y-3.9335
X3.1504Y-3.1807
X3.1524Y-2.4295
X3.2Y-3.1094
X3.2691Y-1.9968
X3.2691Y-2.7468
X3.2691Y-3.4968
X3.5023Y-3.4813
X3.5528Y-3.2394
X3.6291Y-4.5469
X3.6748Y-3.9543
X3.7175Y-4.0872
X3.743Y-4.2465
X3.8677Y-2.8374
X3.8972Y-3.6799
X3.9051Y-2.1724
X4.0191Y-3.2405
X4.0191Y-2.4909
X4.0191Y-1.7405
X4.2238Y-2.0768
X4.6516Y-3.9102
X4.6689Y-2.074
X4.6693Y-3.035
X4.7571Y-3.9094
X4.7691Y-2.7272
X4.7691Y-3.4772
X4.7691Y-1.9768
X4.7776Y-2.6323
X4.928Y-3.8075
X5.4902Y-3.5685
X5.498Y-2.8398
X5.5191Y-3.1996
X5.5191Y-3.9492
X5.5191Y-2.4496
X5.526Y-4.3437
X6.2598Y-3.6319
X6.2602Y-4.3831
X6.261Y-2.8823
X6.3797Y-2.448
X6.3797Y-3.948
X6.3797Y-3.198
X6.8902Y-3.7906
X7.0071Y-2.413
X7.0098Y-3.1626
X7.0106Y-3.9102
X7.1297Y-1.9752
X7.1297Y-3.4752
X7.1297Y-2.7256
X7.211Y-3.9055
X7.3344Y-2.3868
X7.6441Y-4.7768
X7.7583Y-2.9256
X7.7594Y-2.1776
X7.7614Y-3.674
X7.8797Y-1.7389
X7.8797Y-2.4893
X7.8797Y-3.2393
X8.2287Y-4.5356
X8.45Y-3.2732
X8.5098Y-2.4299
X8.5114Y-3.9287
X8.5695Y-4.2361
X8.5969Y-3.1252
X8.6297Y-3.4949
X8.6297Y-2.7452
X8.6297Y-1.9952
X8.7476Y-3.8083
X8.7935Y-4.0435
X8.9Y-3.3276
X9.0392Y-4.4175
X9.0457Y-3.9047
X9.2606Y-2.5295
X9.261Y-4.0271
X9.263Y-3.2787
X9.3797Y-2.0933
X9.3797Y-2.8437
X9.3797Y-3.5933
X9.4835Y-5.0311
X9.8047Y-4.1744
X9.8049Y-3.288
X9.8063Y-4.4138
X10.1291Y-4.0724
T2
X1.6946Y-3.9421
X1.8278Y-3.9427
X9.5757Y-3.9411
X9.709Y-3.9405
T3
X1.2346Y-2.8321
X1.2346Y-2.9321
X1.2346Y-3.0321
X1.2346Y-3.1321
X1.2346Y-3.2321
X1.2346Y-3.3321
X1.2346Y-3.4321
X1.8346Y-2.8321
X1.8346Y-2.9321
X1.8346Y-3.0321
X1.8346Y-3.1321
X1.8346Y-3.2321
X1.8346Y-3.3321
X1.8346Y-3.4321
X9.569Y-2.8305
X9.569Y-2.9305
X9.569Y-3.0305
X9.569Y-3.1305
X9.569Y-3.2305
X9.569Y-3.3305
X9.569Y-3.4305
X10.169Y-2.8305
X10.169Y-2.9305
X10.169Y-3.0305
X10.169Y-3.1305
X10.169Y-3.2305
X10.169Y-3.3305
X10.169Y-3.4305
T4
X1.3596Y-3.0446
X1.3596Y-3.1196
X1.4846Y-2.7946
X1.4846Y-2.8946
X1.5846Y-2.7946
X1.5846Y-2.8946
X9.694Y-3.043
X9.694Y-3.118
X9.819Y-2.793
X9.819Y-2.893
X9.919Y-2.793
X9.919Y-2.893
T5
X1.2807Y-4.487
X1.5366Y-4.487
X9.8701Y-4.4807
X10.126Y-4.4807
T6
X1.2358Y-2.6343
X1.4003Y-4.6335
X1.8177Y-2.6343
X9.5858Y-2.6327
X10.0033Y-4.6319
X10.1677Y-2.6327
T7
X3.4866Y-3.9047
X4.7898Y-4.1615
X6.619Y-4.1605
X7.9173Y-3.9031
X8.7571Y-2.5699
T8
X2.0925Y-4.2766
X2.6465Y-2.5715
X5.0098Y-2.1615
X6.399Y-2.1605
X9.3103Y-4.2767
T0
M30
