G04 #@! TF.GenerationSoftware,KiCad,Pcbnew,(7.0.0)*
G04 #@! TF.CreationDate,2023-03-06T20:10:27-03:00*
G04 #@! TF.ProjectId,totem swoop,746f7465-6d20-4737-976f-6f702e6b6963,0.2*
G04 #@! TF.SameCoordinates,Original*
G04 #@! TF.FileFunction,Soldermask,Bot*
G04 #@! TF.FilePolarity,Negative*
%FSLAX46Y46*%
G04 Gerber Fmt 4.6, Leading zero omitted, Abs format (unit mm)*
G04 Created by KiCad (PCBNEW (7.0.0)) date 2023-03-06 20:10:27*
%MOMM*%
%LPD*%
G01*
G04 APERTURE LIST*
G04 Aperture macros list*
%AMRotRect*
0 Rectangle, with rotation*
0 The origin of the aperture is its center*
0 $1 length*
0 $2 width*
0 $3 Rotation angle, in degrees counterclockwise*
0 Add horizontal line*
21,1,$1,$2,0,0,$3*%
%AMOutline5P*
0 Free polygon, 5 corners , with rotation*
0 The origin of the aperture is its center*
0 number of corners: always 5*
0 $1 to $10 corner X, Y*
0 $11 Rotation angle, in degrees counterclockwise*
0 create outline with 5 corners*
4,1,5,$1,$2,$3,$4,$5,$6,$7,$8,$9,$10,$1,$2,$11*%
%AMOutline6P*
0 Free polygon, 6 corners , with rotation*
0 The origin of the aperture is its center*
0 number of corners: always 6*
0 $1 to $12 corner X, Y*
0 $13 Rotation angle, in degrees counterclockwise*
0 create outline with 6 corners*
4,1,6,$1,$2,$3,$4,$5,$6,$7,$8,$9,$10,$11,$12,$1,$2,$13*%
%AMOutline7P*
0 Free polygon, 7 corners , with rotation*
0 The origin of the aperture is its center*
0 number of corners: always 7*
0 $1 to $14 corner X, Y*
0 $15 Rotation angle, in degrees counterclockwise*
0 create outline with 7 corners*
4,1,7,$1,$2,$3,$4,$5,$6,$7,$8,$9,$10,$11,$12,$13,$14,$1,$2,$15*%
%AMOutline8P*
0 Free polygon, 8 corners , with rotation*
0 The origin of the aperture is its center*
0 number of corners: always 8*
0 $1 to $16 corner X, Y*
0 $17 Rotation angle, in degrees counterclockwise*
0 create outline with 8 corners*
4,1,8,$1,$2,$3,$4,$5,$6,$7,$8,$9,$10,$11,$12,$13,$14,$15,$16,$1,$2,$17*%
G04 Aperture macros list end*
%ADD10C,1.397000*%
%ADD11C,1.900000*%
%ADD12C,1.701800*%
%ADD13C,3.000000*%
%ADD14C,4.100000*%
%ADD15C,3.987800*%
%ADD16R,2.550000X2.500000*%
%ADD17C,3.429000*%
%ADD18Outline5P,-1.300000X1.300000X0.130000X1.300000X1.300000X0.130000X1.300000X-1.300000X-1.300000X-1.300000X0.000000*%
%ADD19Outline5P,-1.250000X0.000000X-0.285000X0.965000X1.250000X0.965000X1.250000X-0.965000X-1.250000X-0.965000X90.000000*%
%ADD20C,2.000000*%
%ADD21C,3.800000*%
%ADD22O,2.590000X1.790000*%
%ADD23O,2.580000X1.820000*%
%ADD24O,2.580000X1.810000*%
%ADD25O,2.580000X1.750000*%
%ADD26O,2.590000X1.780000*%
%ADD27O,2.580000X1.800000*%
%ADD28O,2.580000X1.830000*%
%ADD29O,2.490000X1.800000*%
%ADD30O,2.470000X1.810000*%
%ADD31O,2.450000X1.770000*%
%ADD32O,2.450000X1.730000*%
%ADD33O,2.430000X1.750000*%
%ADD34O,2.480000X1.800000*%
%ADD35O,2.490000X1.850000*%
%ADD36R,0.950000X1.300000*%
%ADD37C,0.500000*%
%ADD38C,5.000000*%
%ADD39R,1.640000X1.475000*%
%ADD40Outline5P,-1.300000X1.300000X0.130000X1.300000X1.300000X0.130000X1.300000X-1.300000X-1.300000X-1.300000X330.000000*%
%ADD41RotRect,2.550000X2.500000X330.000000*%
%ADD42Outline5P,-1.250000X0.000000X-0.285000X0.965000X1.250000X0.965000X1.250000X-0.965000X-1.250000X-0.965000X60.000000*%
%ADD43Outline5P,-1.025000X0.275000X0.000000X1.300000X1.025000X1.300000X1.025000X-1.300000X-1.025000X-1.300000X0.000000*%
%ADD44Outline5P,-1.300000X1.300000X0.130000X1.300000X1.300000X0.130000X1.300000X-1.300000X-1.300000X-1.300000X345.000000*%
%ADD45RotRect,2.550000X2.500000X345.000000*%
%ADD46Outline5P,-1.250000X0.000000X-0.285000X0.965000X1.250000X0.965000X1.250000X-0.965000X-1.250000X-0.965000X75.000000*%
%ADD47C,3.500000*%
%ADD48C,0.750000*%
%ADD49C,4.000000*%
%ADD50C,0.900000*%
%ADD51RotRect,2.550000X2.500000X195.000000*%
%ADD52Outline5P,-1.300000X1.300000X1.300000X1.300000X1.300000X-1.300000X-0.130000X-1.300000X-1.300000X-0.130000X195.000000*%
%ADD53Outline5P,-1.025000X1.300000X1.025000X1.300000X1.025000X-0.275000X0.000000X-1.300000X-1.025000X-1.300000X195.000000*%
%ADD54RotRect,2.550000X2.500000X210.000000*%
%ADD55Outline5P,-1.300000X1.300000X1.300000X1.300000X1.300000X-1.300000X-0.130000X-1.300000X-1.300000X-0.130000X210.000000*%
%ADD56Outline5P,-1.025000X1.300000X1.025000X1.300000X1.025000X-0.275000X0.000000X-1.300000X-1.025000X-1.300000X210.000000*%
G04 APERTURE END LIST*
D10*
X243223449Y-100103917D03*
D11*
X188774995Y-68299298D03*
D12*
X188774995Y-68309298D03*
D13*
X190044995Y-65769298D03*
D14*
X193854995Y-68299298D03*
D15*
X193854995Y-68309298D03*
D13*
X196394995Y-63229298D03*
D11*
X198934995Y-68299298D03*
D12*
X198934995Y-68309298D03*
D16*
X200144994Y-63229297D03*
X186294994Y-65769297D03*
D12*
X71245128Y-55789909D03*
D13*
X71745128Y-59539909D03*
D17*
X76745128Y-55789909D03*
D13*
X76745128Y-61739909D03*
D12*
X82245128Y-55789909D03*
D18*
X80020127Y-61739908D03*
D19*
X68790127Y-59549908D03*
D20*
X250700000Y-113810000D03*
X257200000Y-113810000D03*
D12*
X150254991Y-67249796D03*
D13*
X150754991Y-70999796D03*
D17*
X155754991Y-67249796D03*
D13*
X155754991Y-73199796D03*
D12*
X161254991Y-67249796D03*
D18*
X159029990Y-73199795D03*
D19*
X147799990Y-71009795D03*
D12*
X109345130Y-93390407D03*
D13*
X109845130Y-97140407D03*
D17*
X114845130Y-93390407D03*
D13*
X114845130Y-99340407D03*
D12*
X120345130Y-93390407D03*
D18*
X118120129Y-99340406D03*
D19*
X106890129Y-97150406D03*
D12*
X52195128Y-77329906D03*
D13*
X52695128Y-81079906D03*
D17*
X57695128Y-77329906D03*
D13*
X57695128Y-83279906D03*
D12*
X63195128Y-77329906D03*
D18*
X60970127Y-83279905D03*
D19*
X49740127Y-81089905D03*
D12*
X226455001Y-96339295D03*
D13*
X226955001Y-100089295D03*
D17*
X231955001Y-96339295D03*
D13*
X231955001Y-102289295D03*
D12*
X237455001Y-96339295D03*
D18*
X235230000Y-102289294D03*
D19*
X224000000Y-100099294D03*
D11*
X128815130Y-105380403D03*
D12*
X128815130Y-105390403D03*
D13*
X130085130Y-102850403D03*
D14*
X133895130Y-105380403D03*
D15*
X133895130Y-105390403D03*
D13*
X136435130Y-100310403D03*
D11*
X138975130Y-105380403D03*
D12*
X138975130Y-105390403D03*
D16*
X140185129Y-100310402D03*
X126335129Y-102850402D03*
D12*
X169304999Y-74299793D03*
D13*
X169804999Y-78049793D03*
D17*
X174804999Y-74299793D03*
D13*
X174804999Y-80249793D03*
D12*
X180304999Y-74299793D03*
D18*
X178079998Y-80249792D03*
D19*
X166849998Y-78059792D03*
D12*
X207405000Y-55749299D03*
D13*
X207905000Y-59499299D03*
D17*
X212905000Y-55749299D03*
D13*
X212905000Y-61699299D03*
D12*
X218405000Y-55749299D03*
D18*
X216179999Y-61699298D03*
D19*
X204949999Y-59509298D03*
D11*
X207825000Y-55749299D03*
D12*
X207825000Y-55759299D03*
D13*
X209095000Y-53219299D03*
D14*
X212905000Y-55749299D03*
D15*
X212905000Y-55759299D03*
D13*
X215445000Y-50679299D03*
D11*
X217985000Y-55749299D03*
D12*
X217985000Y-55759299D03*
D16*
X219194999Y-50679298D03*
X205344999Y-53219298D03*
D21*
X168122449Y-105676917D03*
D12*
X226455000Y-77299296D03*
D13*
X226955000Y-81049296D03*
D17*
X231955000Y-77299296D03*
D13*
X231955000Y-83249296D03*
D12*
X237455000Y-77299296D03*
D18*
X235229999Y-83249295D03*
D19*
X223999999Y-81059295D03*
D11*
X226875001Y-96339295D03*
D12*
X226875001Y-96349295D03*
D13*
X228145001Y-93809295D03*
D14*
X231955001Y-96339295D03*
D15*
X231955001Y-96349295D03*
D13*
X234495001Y-91269295D03*
D11*
X237035001Y-96339295D03*
D12*
X237035001Y-96349295D03*
D16*
X238245000Y-91269294D03*
X224395000Y-93809294D03*
D12*
X150254998Y-105349793D03*
D13*
X150754998Y-109099793D03*
D17*
X155754998Y-105349793D03*
D13*
X155754998Y-111299793D03*
D12*
X161254998Y-105349793D03*
D18*
X159029997Y-111299792D03*
D19*
X147799997Y-109109792D03*
D11*
X52615128Y-77329906D03*
D12*
X52615128Y-77339906D03*
D13*
X53885128Y-74799906D03*
D14*
X57695128Y-77329906D03*
D15*
X57695128Y-77339906D03*
D13*
X60235128Y-72259906D03*
D11*
X62775128Y-77329906D03*
D12*
X62775128Y-77339906D03*
D16*
X63985127Y-72259905D03*
X50135127Y-74799905D03*
D22*
X242657448Y-71889916D03*
D23*
X242662448Y-74444916D03*
D24*
X242662448Y-76979916D03*
D25*
X242662448Y-79489916D03*
D26*
X242657448Y-82044916D03*
D27*
X242662448Y-84594916D03*
D28*
X242662448Y-87149916D03*
D29*
X258637448Y-87134916D03*
D30*
X258627448Y-84599916D03*
D31*
X258617448Y-82039916D03*
D32*
X258617448Y-79479916D03*
D33*
X258607448Y-76949916D03*
D34*
X258632448Y-74434916D03*
D35*
X258637448Y-71919916D03*
D10*
X249402449Y-70942917D03*
X251942449Y-70942917D03*
X249402449Y-73482917D03*
X251942449Y-73482917D03*
X246227449Y-79197917D03*
X246227449Y-77292917D03*
D11*
X90715129Y-87379902D03*
D12*
X90715129Y-87389902D03*
D13*
X91985129Y-84849902D03*
D14*
X95795129Y-87379902D03*
D15*
X95795129Y-87389902D03*
D13*
X98335129Y-82309902D03*
D11*
X100875129Y-87379902D03*
D12*
X100875129Y-87389902D03*
D16*
X102085128Y-82309901D03*
X88235128Y-84849901D03*
D12*
X128395128Y-86340400D03*
D13*
X128895128Y-90090400D03*
D17*
X133895128Y-86340400D03*
D13*
X133895128Y-92290400D03*
D12*
X139395128Y-86340400D03*
D18*
X137170127Y-92290399D03*
D19*
X125940127Y-90100399D03*
D11*
X207824995Y-93839293D03*
D12*
X207824995Y-93849293D03*
D13*
X209094995Y-91309293D03*
D14*
X212904995Y-93839293D03*
D15*
X212904995Y-93849293D03*
D13*
X215444995Y-88769293D03*
D11*
X217984995Y-93839293D03*
D12*
X217984995Y-93849293D03*
D16*
X219194994Y-88769292D03*
X205344994Y-91309292D03*
D36*
X211639999Y-111654999D03*
X211639999Y-115204999D03*
D12*
X71245129Y-74839901D03*
D13*
X71745129Y-78589901D03*
D17*
X76745129Y-74839901D03*
D13*
X76745129Y-80789901D03*
D12*
X82245129Y-74839901D03*
D18*
X80020128Y-80789900D03*
D19*
X68790128Y-78599900D03*
D37*
X143800735Y-108838000D03*
X143800735Y-109854000D03*
X143800735Y-110870000D03*
X143800735Y-111886000D03*
X143800735Y-112902000D03*
X145832735Y-108838000D03*
X145832735Y-109854000D03*
X145832735Y-110870000D03*
X145832735Y-111886000D03*
X145832735Y-112902000D03*
D12*
X128395137Y-67290406D03*
D13*
X128895137Y-71040406D03*
D17*
X133895137Y-67290406D03*
D13*
X133895137Y-73240406D03*
D12*
X139395137Y-67290406D03*
D18*
X137170136Y-73240405D03*
D19*
X125940136Y-71050405D03*
D12*
X52195127Y-96389905D03*
D13*
X52695127Y-100139905D03*
D17*
X57695127Y-96389905D03*
D13*
X57695127Y-102339905D03*
D12*
X63195127Y-96389905D03*
D18*
X60970126Y-102339904D03*
D19*
X49740126Y-100149904D03*
D11*
X207824999Y-74799291D03*
D12*
X207824999Y-74809291D03*
D13*
X209094999Y-72269291D03*
D14*
X212904999Y-74799291D03*
D15*
X212904999Y-74809291D03*
D13*
X215444999Y-69729291D03*
D11*
X217984999Y-74799291D03*
D12*
X217984999Y-74809291D03*
D16*
X219194998Y-69729290D03*
X205344998Y-72269290D03*
D12*
X207404995Y-93839293D03*
D13*
X207904995Y-97589293D03*
D17*
X212904995Y-93839293D03*
D13*
X212904995Y-99789293D03*
D12*
X218404995Y-93839293D03*
D18*
X216179994Y-99789292D03*
D19*
X204949994Y-97599292D03*
D38*
X162534449Y-54876917D03*
D11*
X71665128Y-55789909D03*
D12*
X71665128Y-55799909D03*
D13*
X72935128Y-53259909D03*
D14*
X76745128Y-55789909D03*
D15*
X76745128Y-55799909D03*
D13*
X79285128Y-50719909D03*
D11*
X81825128Y-55789909D03*
D12*
X81825128Y-55799909D03*
D16*
X83035127Y-50719908D03*
X69185127Y-53259908D03*
D38*
X236482810Y-108628641D03*
D11*
X128815128Y-86340400D03*
D12*
X128815128Y-86350400D03*
D13*
X130085128Y-83810400D03*
D14*
X133895128Y-86340400D03*
D15*
X133895128Y-86350400D03*
D13*
X136435128Y-81270400D03*
D11*
X138975128Y-86340400D03*
D12*
X138975128Y-86350400D03*
D16*
X140185127Y-81270399D03*
X126335127Y-83810399D03*
D11*
X71665129Y-74839901D03*
D12*
X71665129Y-74849901D03*
D13*
X72935129Y-72309901D03*
D14*
X76745129Y-74839901D03*
D15*
X76745129Y-74849901D03*
D13*
X79285129Y-69769901D03*
D11*
X81825129Y-74839901D03*
D12*
X81825129Y-74849901D03*
D16*
X83035128Y-69769900D03*
X69185128Y-72309900D03*
D39*
X46449999Y-96999999D03*
D12*
X237036822Y-121128345D03*
D11*
X237405553Y-121329685D03*
X237405553Y-121329685D03*
D12*
X237400553Y-121338345D03*
D13*
X235594835Y-124625941D03*
X239770405Y-119773641D03*
D14*
X241804962Y-123869685D03*
X241804962Y-123869685D03*
D17*
X241799962Y-123878345D03*
D15*
X241799962Y-123878345D03*
D13*
X238824962Y-129031196D03*
X246539667Y-120748936D03*
D11*
X246204371Y-126409685D03*
X246204371Y-126409685D03*
D12*
X246199371Y-126418345D03*
X246563102Y-126628345D03*
D40*
X241661194Y-130668695D03*
D41*
X249787261Y-122623935D03*
D42*
X233030729Y-123157100D03*
D41*
X236522809Y-117898640D03*
D12*
X83283003Y-112940386D03*
D11*
X83703003Y-112930386D03*
D12*
X83703003Y-112940386D03*
D13*
X83783003Y-116690386D03*
X84973003Y-110400386D03*
D14*
X88783003Y-112930386D03*
D17*
X88783003Y-112940386D03*
D15*
X88783003Y-112940386D03*
D13*
X88783003Y-118890386D03*
X91323003Y-107860386D03*
D11*
X93863003Y-112930386D03*
D12*
X93863003Y-112940386D03*
X94283003Y-112940386D03*
D18*
X92058002Y-118890385D03*
D16*
X95073002Y-107860385D03*
D43*
X80833002Y-116690385D03*
D16*
X81223002Y-110400385D03*
D11*
X150674991Y-67249796D03*
D12*
X150674991Y-67259796D03*
D13*
X151944991Y-64719796D03*
D14*
X155754991Y-67249796D03*
D15*
X155754991Y-67259796D03*
D13*
X158294991Y-62179796D03*
D11*
X160834991Y-67249796D03*
D12*
X160834991Y-67259796D03*
D16*
X162044990Y-62179795D03*
X148194990Y-64719795D03*
D12*
X52195130Y-58289904D03*
D13*
X52695130Y-62039904D03*
D17*
X57695130Y-58289904D03*
D13*
X57695130Y-64239904D03*
D12*
X63195130Y-58289904D03*
D18*
X60970129Y-64239903D03*
D19*
X49740129Y-62049903D03*
D11*
X226874998Y-58239294D03*
D12*
X226874998Y-58249294D03*
D13*
X228144998Y-55709294D03*
D14*
X231954998Y-58239294D03*
D15*
X231954998Y-58249294D03*
D13*
X234494998Y-53169294D03*
D11*
X237034998Y-58239294D03*
D12*
X237034998Y-58249294D03*
D16*
X238244997Y-53169293D03*
X224394997Y-55709293D03*
D11*
X169724998Y-93339797D03*
D12*
X169724998Y-93349797D03*
D13*
X170994998Y-90809797D03*
D14*
X174804998Y-93339797D03*
D15*
X174804998Y-93349797D03*
D13*
X177344998Y-88269797D03*
D11*
X179884998Y-93339797D03*
D12*
X179884998Y-93349797D03*
D16*
X181094997Y-88269796D03*
X167244997Y-90809796D03*
D12*
X195367125Y-112899776D03*
D13*
X195867125Y-116649776D03*
D17*
X200867125Y-112899776D03*
D13*
X200867125Y-118849776D03*
D12*
X206367125Y-112899776D03*
D18*
X204142124Y-118849775D03*
D19*
X192912124Y-116659775D03*
D11*
X188774999Y-87349292D03*
D12*
X188774999Y-87359292D03*
D13*
X190044999Y-84819292D03*
D14*
X193854999Y-87349292D03*
D15*
X193854999Y-87359292D03*
D13*
X196394999Y-82279292D03*
D11*
X198934999Y-87349292D03*
D12*
X198934999Y-87359292D03*
D16*
X200144998Y-82279291D03*
X186294998Y-84819291D03*
D36*
X56079999Y-116264999D03*
X56079999Y-119814999D03*
D11*
X90715133Y-68339908D03*
D12*
X90715133Y-68349908D03*
D13*
X91985133Y-65809908D03*
D14*
X95795133Y-68339908D03*
D15*
X95795133Y-68349908D03*
D13*
X98335133Y-63269908D03*
D11*
X100875133Y-68339908D03*
D12*
X100875133Y-68349908D03*
D16*
X102085132Y-63269907D03*
X88235132Y-65809907D03*
D12*
X169304994Y-55239798D03*
D13*
X169804994Y-58989798D03*
D17*
X174804994Y-55239798D03*
D13*
X174804994Y-61189798D03*
D12*
X180304994Y-55239798D03*
D18*
X178079993Y-61189797D03*
D19*
X166849993Y-58999797D03*
D12*
X90295137Y-49279905D03*
D13*
X90795137Y-53029905D03*
D17*
X95795137Y-49279905D03*
D13*
X95795137Y-55229905D03*
D12*
X101295137Y-49279905D03*
D18*
X99070136Y-55229904D03*
D19*
X87840136Y-53039904D03*
D12*
X169304998Y-93339797D03*
D13*
X169804998Y-97089797D03*
D17*
X174804998Y-93339797D03*
D13*
X174804998Y-99289797D03*
D12*
X180304998Y-93339797D03*
D18*
X178079997Y-99289796D03*
D19*
X166849997Y-97099796D03*
D11*
X109765129Y-74340403D03*
D12*
X109765129Y-74350403D03*
D13*
X111035129Y-71810403D03*
D14*
X114845129Y-74340403D03*
D15*
X114845129Y-74350403D03*
D13*
X117385129Y-69270403D03*
D11*
X119925129Y-74340403D03*
D12*
X119925129Y-74350403D03*
D16*
X121135128Y-69270402D03*
X107285128Y-71810402D03*
D12*
X90295133Y-68339908D03*
D13*
X90795133Y-72089908D03*
D17*
X95795133Y-68339908D03*
D13*
X95795133Y-74289908D03*
D12*
X101295133Y-68339908D03*
D18*
X99070132Y-74289907D03*
D19*
X87840132Y-72099907D03*
D12*
X216742859Y-114276150D03*
D11*
X217151136Y-114375194D03*
X217151136Y-114375194D03*
D12*
X217148548Y-114384854D03*
D13*
X216255250Y-118027781D03*
X219032674Y-112260102D03*
D14*
X222058039Y-115689995D03*
X222058039Y-115689995D03*
D17*
X222055451Y-115699654D03*
D15*
X222055451Y-115699654D03*
D13*
X220515477Y-121446913D03*
X225823703Y-111450151D03*
D11*
X226964942Y-117004796D03*
X226964942Y-117004796D03*
D12*
X226962354Y-117014455D03*
X227368043Y-117123159D03*
D44*
X223678884Y-122294544D03*
D45*
X229445924Y-112420722D03*
D46*
X213398350Y-117272629D03*
D45*
X215410451Y-111289530D03*
D12*
X90295129Y-87379902D03*
D13*
X90795129Y-91129902D03*
D17*
X95795129Y-87379902D03*
D13*
X95795129Y-93329902D03*
D12*
X101295129Y-87379902D03*
D18*
X99070128Y-93329901D03*
D19*
X87840128Y-91139901D03*
D12*
X226454998Y-58239294D03*
D13*
X226954998Y-61989294D03*
D17*
X231954998Y-58239294D03*
D13*
X231954998Y-64189294D03*
D12*
X237454998Y-58239294D03*
D18*
X235229997Y-64189293D03*
D19*
X223999997Y-61999293D03*
D36*
X209009999Y-111654999D03*
X209009999Y-115204999D03*
D47*
X254083332Y-117651122D03*
D11*
X109765130Y-93390407D03*
D12*
X109765130Y-93400407D03*
D13*
X111035130Y-90860407D03*
D14*
X114845130Y-93390407D03*
D15*
X114845130Y-93400407D03*
D13*
X117385130Y-88320407D03*
D11*
X119925130Y-93390407D03*
D12*
X119925130Y-93400407D03*
D16*
X121135129Y-88320406D03*
X107285129Y-90860406D03*
D12*
X188354991Y-49239295D03*
D13*
X188854991Y-52989295D03*
D17*
X193854991Y-49239295D03*
D13*
X193854991Y-55189295D03*
D12*
X199354991Y-49239295D03*
D18*
X197129990Y-55189294D03*
D19*
X185899990Y-52999294D03*
D12*
X71245133Y-93889903D03*
D13*
X71745133Y-97639903D03*
D17*
X76745133Y-93889903D03*
D13*
X76745133Y-99839903D03*
D12*
X82245133Y-93889903D03*
D18*
X80020132Y-99839902D03*
D19*
X68790132Y-97649902D03*
D36*
X78569999Y-110674999D03*
X78569999Y-114224999D03*
D11*
X195787125Y-112899776D03*
D12*
X195787125Y-112909776D03*
D13*
X197057125Y-110369776D03*
D14*
X200867125Y-112899776D03*
D15*
X200867125Y-112909776D03*
D13*
X203407125Y-107829776D03*
D11*
X205947125Y-112899776D03*
D12*
X205947125Y-112909776D03*
D16*
X207157124Y-107829775D03*
X193307124Y-110369775D03*
D48*
X30312500Y-105772500D03*
X33062500Y-105772500D03*
D39*
X242999999Y-96649999D03*
D49*
X222429999Y-65274291D03*
D50*
X31225000Y-93440000D03*
X31225000Y-98440000D03*
D22*
X30962678Y-71930526D03*
D23*
X30967678Y-74485526D03*
D24*
X30967678Y-77020526D03*
D25*
X30967678Y-79530526D03*
D26*
X30962678Y-82085526D03*
D27*
X30967678Y-84635526D03*
D28*
X30967678Y-87190526D03*
D29*
X46942678Y-87175526D03*
D30*
X46932678Y-84640526D03*
D31*
X46922678Y-82080526D03*
D32*
X46922678Y-79520526D03*
D33*
X46912678Y-76990526D03*
D34*
X46937678Y-74475526D03*
D35*
X46942678Y-71960526D03*
D10*
X37707679Y-70983527D03*
X40247679Y-70983527D03*
X37707679Y-73523527D03*
X40247679Y-73523527D03*
X34532679Y-79238527D03*
X34532679Y-77333527D03*
D39*
X246639999Y-96669999D03*
D12*
X109345134Y-55280408D03*
D13*
X109845134Y-59030408D03*
D17*
X114845134Y-55280408D03*
D13*
X114845134Y-61230408D03*
D12*
X120345134Y-55280408D03*
D18*
X118120133Y-61230407D03*
D19*
X106890133Y-59040407D03*
D47*
X258260774Y-66869377D03*
D11*
X90715137Y-49279905D03*
D12*
X90715137Y-49289905D03*
D13*
X91985137Y-46749905D03*
D14*
X95795137Y-49279905D03*
D15*
X95795137Y-49289905D03*
D13*
X98335137Y-44209905D03*
D11*
X100875137Y-49279905D03*
D12*
X100875137Y-49289905D03*
D16*
X102085136Y-44209904D03*
X88235136Y-46749904D03*
D11*
X169724999Y-74299793D03*
D12*
X169724999Y-74309793D03*
D13*
X170994999Y-71769793D03*
D14*
X174804999Y-74299793D03*
D15*
X174804999Y-74309793D03*
D13*
X177344999Y-69229793D03*
D11*
X179884999Y-74299793D03*
D12*
X179884999Y-74309793D03*
D16*
X181094998Y-69229792D03*
X167244998Y-71769792D03*
D49*
X201100000Y-99140000D03*
D48*
X259497500Y-105967500D03*
X256747500Y-105967500D03*
D50*
X258715000Y-98640000D03*
X258715000Y-93640000D03*
D11*
X109765134Y-55280408D03*
D12*
X109765134Y-55290408D03*
D13*
X111035134Y-52750408D03*
D14*
X114845134Y-55280408D03*
D15*
X114845134Y-55290408D03*
D13*
X117385134Y-50210408D03*
D11*
X119925134Y-55280408D03*
D12*
X119925134Y-55290408D03*
D16*
X121135133Y-50210407D03*
X107285133Y-52750407D03*
D12*
X150255000Y-86299790D03*
D13*
X150755000Y-90049790D03*
D17*
X155755000Y-86299790D03*
D13*
X155755000Y-92249790D03*
D12*
X161255000Y-86299790D03*
D18*
X159029999Y-92249789D03*
D19*
X147799999Y-90059789D03*
D12*
X188354995Y-68299298D03*
D13*
X188854995Y-72049298D03*
D17*
X193854995Y-68299298D03*
D13*
X193854995Y-74249298D03*
D12*
X199354995Y-68299298D03*
D18*
X197129994Y-74249297D03*
D19*
X185899994Y-72059297D03*
D11*
X52615127Y-96389905D03*
D12*
X52615127Y-96399905D03*
D13*
X53885127Y-93859905D03*
D14*
X57695127Y-96389905D03*
D15*
X57695127Y-96399905D03*
D13*
X60235127Y-91319905D03*
D11*
X62775127Y-96389905D03*
D12*
X62775127Y-96399905D03*
D16*
X63985126Y-91319904D03*
X50135126Y-93859904D03*
D39*
X42869999Y-96969999D03*
D11*
X52615130Y-58289904D03*
D12*
X52615130Y-58299904D03*
D13*
X53885130Y-55759904D03*
D14*
X57695130Y-58289904D03*
D15*
X57695130Y-58299904D03*
D13*
X60235130Y-53219904D03*
D11*
X62775130Y-58289904D03*
D12*
X62775130Y-58299904D03*
D16*
X63985129Y-53219903D03*
X50135129Y-55759903D03*
D11*
X226875000Y-77299296D03*
D12*
X226875000Y-77309296D03*
D13*
X228145000Y-74769296D03*
D14*
X231955000Y-77299296D03*
D15*
X231955000Y-77309296D03*
D13*
X234495000Y-72229296D03*
D11*
X237035000Y-77299296D03*
D12*
X237035000Y-77309296D03*
D16*
X238244999Y-72229295D03*
X224394999Y-74769295D03*
D11*
X71665133Y-93889903D03*
D12*
X71665133Y-93899903D03*
D13*
X72935133Y-91359903D03*
D14*
X76745133Y-93889903D03*
D15*
X76745133Y-93899903D03*
D13*
X79285133Y-88819903D03*
D11*
X81825133Y-93889903D03*
D12*
X81825133Y-93899903D03*
D16*
X83035132Y-88819902D03*
X69185132Y-91359902D03*
D37*
X143795735Y-59793202D03*
X143795735Y-60809202D03*
X143795735Y-61825202D03*
X143795735Y-62841202D03*
X143795735Y-63857202D03*
X145827735Y-59793202D03*
X145827735Y-60809202D03*
X145827735Y-61825202D03*
X145827735Y-62841202D03*
X145827735Y-63857202D03*
D11*
X150675000Y-86299790D03*
D12*
X150675000Y-86309790D03*
D13*
X151945000Y-83769790D03*
D14*
X155755000Y-86299790D03*
D15*
X155755000Y-86309790D03*
D13*
X158295000Y-81229790D03*
D11*
X160835000Y-86299790D03*
D12*
X160835000Y-86309790D03*
D16*
X162044999Y-81229789D03*
X148194999Y-83769789D03*
D10*
X246608449Y-100088917D03*
D11*
X169724994Y-55239798D03*
D12*
X169724994Y-55249798D03*
D13*
X170994994Y-52709798D03*
D14*
X174804994Y-55239798D03*
D15*
X174804994Y-55249798D03*
D13*
X177344994Y-50169798D03*
D11*
X179884994Y-55239798D03*
D12*
X179884994Y-55249798D03*
D16*
X181094993Y-50169797D03*
X167244993Y-52709797D03*
D11*
X188774991Y-49239295D03*
D12*
X188774991Y-49249295D03*
D13*
X190044991Y-46709295D03*
D14*
X193854991Y-49239295D03*
D15*
X193854991Y-49249295D03*
D13*
X196394991Y-44169295D03*
D11*
X198934991Y-49239295D03*
D12*
X198934991Y-49249295D03*
D16*
X200144990Y-44169294D03*
X186294990Y-46709294D03*
D12*
X188354999Y-87349292D03*
D13*
X188854999Y-91099292D03*
D17*
X193854999Y-87349292D03*
D13*
X193854999Y-93299292D03*
D12*
X199354999Y-87349292D03*
D18*
X197129998Y-93299291D03*
D19*
X185899998Y-91109291D03*
D11*
X128815137Y-67290406D03*
D12*
X128815137Y-67300406D03*
D13*
X130085137Y-64760406D03*
D14*
X133895137Y-67290406D03*
D15*
X133895137Y-67300406D03*
D13*
X136435137Y-62220406D03*
D11*
X138975137Y-67290406D03*
D12*
X138975137Y-67300406D03*
D16*
X140185136Y-62220405D03*
X126335136Y-64760405D03*
D12*
X109345129Y-74340403D03*
D13*
X109845129Y-78090403D03*
D17*
X114845129Y-74340403D03*
D13*
X114845129Y-80290403D03*
D12*
X120345129Y-74340403D03*
D18*
X118120128Y-80290402D03*
D19*
X106890128Y-78100402D03*
D12*
X128395130Y-105380403D03*
D13*
X128895130Y-109130403D03*
D17*
X133895130Y-105380403D03*
D13*
X133895130Y-111330403D03*
D12*
X139395130Y-105380403D03*
D18*
X137170129Y-111330402D03*
D19*
X125940129Y-109140402D03*
D12*
X207404999Y-74799291D03*
D13*
X207904999Y-78549291D03*
D17*
X212904999Y-74799291D03*
D13*
X212904999Y-80749291D03*
D12*
X218404999Y-74799291D03*
D18*
X216179998Y-80749290D03*
D19*
X204949998Y-78559290D03*
D11*
X150674998Y-105349793D03*
D12*
X150674998Y-105359793D03*
D13*
X151944998Y-102819793D03*
D14*
X155754998Y-105349793D03*
D15*
X155754998Y-105359793D03*
D13*
X158294998Y-100279793D03*
D11*
X160834998Y-105349793D03*
D12*
X160834998Y-105359793D03*
D16*
X162044997Y-100279792D03*
X148194997Y-102819792D03*
D36*
X76199999Y-110734999D03*
X76199999Y-114284999D03*
D47*
X243479449Y-66869832D03*
X31389354Y-66909987D03*
D49*
X88560000Y-99180000D03*
D10*
X43041679Y-100129527D03*
D12*
X72904681Y-114307100D03*
X72501580Y-114425464D03*
D11*
X72498992Y-114415804D03*
X72498992Y-114415804D03*
D13*
X68733328Y-110175961D03*
X69132062Y-121477864D03*
D15*
X67594677Y-115740264D03*
D17*
X67592089Y-115730605D03*
D14*
X67592089Y-115730605D03*
X67592089Y-115730605D03*
D13*
X63257099Y-114272913D03*
X63733031Y-120646922D03*
D12*
X62687774Y-117055065D03*
D11*
X62685186Y-117045406D03*
X62685186Y-117045406D03*
D12*
X62279497Y-117154110D03*
D51*
X72355549Y-109205388D03*
D52*
X72295468Y-120630230D03*
D51*
X59634877Y-115243484D03*
D53*
X60883549Y-121410437D03*
D12*
X52608306Y-121160295D03*
X52249575Y-121378955D03*
D11*
X52244575Y-121370295D03*
X52244575Y-121370295D03*
D13*
X47509871Y-118249546D03*
X50820166Y-129063146D03*
D15*
X47850166Y-123918955D03*
D17*
X47845166Y-123910295D03*
D14*
X47845166Y-123910295D03*
X47845166Y-123910295D03*
D13*
X43280609Y-123624251D03*
X45390039Y-129657890D03*
D12*
X43450757Y-126458955D03*
D11*
X43445757Y-126450295D03*
X43445757Y-126450295D03*
D12*
X43082026Y-126660295D03*
D54*
X50757465Y-116374545D03*
D55*
X53656398Y-127425645D03*
D54*
X40033013Y-125499250D03*
D56*
X42835263Y-131132889D03*
D10*
X46426679Y-100144527D03*
D20*
X39030000Y-113970000D03*
X32530000Y-113970000D03*
D38*
X127248349Y-54901017D03*
D47*
X46170679Y-66910442D03*
D38*
X53150000Y-108624798D03*
D47*
X35566796Y-117691732D03*
D21*
X121660349Y-105701017D03*
D38*
X67220129Y-65314901D03*
M02*
