G04 #@! TF.GenerationSoftware,KiCad,Pcbnew,(7.0.0)*
G04 #@! TF.CreationDate,2023-03-06T20:10:27-03:00*
G04 #@! TF.ProjectId,totem swoop,746f7465-6d20-4737-976f-6f702e6b6963,0.2*
G04 #@! TF.SameCoordinates,Original*
G04 #@! TF.FileFunction,Copper,L2,Bot*
G04 #@! TF.FilePolarity,Positive*
%FSLAX46Y46*%
G04 Gerber Fmt 4.6, Leading zero omitted, Abs format (unit mm)*
G04 Created by KiCad (PCBNEW (7.0.0)) date 2023-03-06 20:10:27*
%MOMM*%
%LPD*%
G01*
G04 APERTURE LIST*
G04 Aperture macros list*
%AMRotRect*
0 Rectangle, with rotation*
0 The origin of the aperture is its center*
0 $1 length*
0 $2 width*
0 $3 Rotation angle, in degrees counterclockwise*
0 Add horizontal line*
21,1,$1,$2,0,0,$3*%
%AMOutline5P*
0 Free polygon, 5 corners , with rotation*
0 The origin of the aperture is its center*
0 number of corners: always 5*
0 $1 to $10 corner X, Y*
0 $11 Rotation angle, in degrees counterclockwise*
0 create outline with 5 corners*
4,1,5,$1,$2,$3,$4,$5,$6,$7,$8,$9,$10,$1,$2,$11*%
%AMOutline6P*
0 Free polygon, 6 corners , with rotation*
0 The origin of the aperture is its center*
0 number of corners: always 6*
0 $1 to $12 corner X, Y*
0 $13 Rotation angle, in degrees counterclockwise*
0 create outline with 6 corners*
4,1,6,$1,$2,$3,$4,$5,$6,$7,$8,$9,$10,$11,$12,$1,$2,$13*%
%AMOutline7P*
0 Free polygon, 7 corners , with rotation*
0 The origin of the aperture is its center*
0 number of corners: always 7*
0 $1 to $14 corner X, Y*
0 $15 Rotation angle, in degrees counterclockwise*
0 create outline with 7 corners*
4,1,7,$1,$2,$3,$4,$5,$6,$7,$8,$9,$10,$11,$12,$13,$14,$1,$2,$15*%
%AMOutline8P*
0 Free polygon, 8 corners , with rotation*
0 The origin of the aperture is its center*
0 number of corners: always 8*
0 $1 to $16 corner X, Y*
0 $17 Rotation angle, in degrees counterclockwise*
0 create outline with 8 corners*
4,1,8,$1,$2,$3,$4,$5,$6,$7,$8,$9,$10,$11,$12,$13,$14,$15,$16,$1,$2,$17*%
G04 Aperture macros list end*
G04 #@! TA.AperFunction,ComponentPad*
%ADD10C,1.397000*%
G04 #@! TD*
G04 #@! TA.AperFunction,SMDPad,CuDef*
%ADD11R,2.550000X2.500000*%
G04 #@! TD*
G04 #@! TA.AperFunction,SMDPad,CuDef*
%ADD12Outline5P,-1.300000X1.300000X0.130000X1.300000X1.300000X0.130000X1.300000X-1.300000X-1.300000X-1.300000X0.000000*%
G04 #@! TD*
G04 #@! TA.AperFunction,SMDPad,CuDef*
%ADD13Outline5P,-1.250000X0.000000X-0.285000X0.965000X1.250000X0.965000X1.250000X-0.965000X-1.250000X-0.965000X90.000000*%
G04 #@! TD*
G04 #@! TA.AperFunction,ComponentPad*
%ADD14C,2.000000*%
G04 #@! TD*
G04 #@! TA.AperFunction,ComponentPad*
%ADD15C,3.800000*%
G04 #@! TD*
G04 #@! TA.AperFunction,ComponentPad*
%ADD16O,2.590000X1.790000*%
G04 #@! TD*
G04 #@! TA.AperFunction,ComponentPad*
%ADD17O,2.580000X1.820000*%
G04 #@! TD*
G04 #@! TA.AperFunction,ComponentPad*
%ADD18O,2.580000X1.810000*%
G04 #@! TD*
G04 #@! TA.AperFunction,ComponentPad*
%ADD19O,2.580000X1.750000*%
G04 #@! TD*
G04 #@! TA.AperFunction,ComponentPad*
%ADD20O,2.590000X1.780000*%
G04 #@! TD*
G04 #@! TA.AperFunction,ComponentPad*
%ADD21O,2.580000X1.800000*%
G04 #@! TD*
G04 #@! TA.AperFunction,ComponentPad*
%ADD22O,2.580000X1.830000*%
G04 #@! TD*
G04 #@! TA.AperFunction,ComponentPad*
%ADD23O,2.490000X1.800000*%
G04 #@! TD*
G04 #@! TA.AperFunction,ComponentPad*
%ADD24O,2.470000X1.810000*%
G04 #@! TD*
G04 #@! TA.AperFunction,ComponentPad*
%ADD25O,2.450000X1.770000*%
G04 #@! TD*
G04 #@! TA.AperFunction,ComponentPad*
%ADD26O,2.450000X1.730000*%
G04 #@! TD*
G04 #@! TA.AperFunction,ComponentPad*
%ADD27O,2.430000X1.750000*%
G04 #@! TD*
G04 #@! TA.AperFunction,ComponentPad*
%ADD28O,2.480000X1.800000*%
G04 #@! TD*
G04 #@! TA.AperFunction,ComponentPad*
%ADD29O,2.490000X1.850000*%
G04 #@! TD*
G04 #@! TA.AperFunction,SMDPad,CuDef*
%ADD30R,0.950000X1.300000*%
G04 #@! TD*
G04 #@! TA.AperFunction,ComponentPad*
%ADD31C,5.000000*%
G04 #@! TD*
G04 #@! TA.AperFunction,SMDPad,CuDef*
%ADD32R,1.640000X1.475000*%
G04 #@! TD*
G04 #@! TA.AperFunction,SMDPad,CuDef*
%ADD33Outline5P,-1.300000X1.300000X0.130000X1.300000X1.300000X0.130000X1.300000X-1.300000X-1.300000X-1.300000X330.000000*%
G04 #@! TD*
G04 #@! TA.AperFunction,SMDPad,CuDef*
%ADD34RotRect,2.550000X2.500000X330.000000*%
G04 #@! TD*
G04 #@! TA.AperFunction,SMDPad,CuDef*
%ADD35Outline5P,-1.250000X0.000000X-0.285000X0.965000X1.250000X0.965000X1.250000X-0.965000X-1.250000X-0.965000X60.000000*%
G04 #@! TD*
G04 #@! TA.AperFunction,SMDPad,CuDef*
%ADD36Outline5P,-1.025000X0.275000X0.000000X1.300000X1.025000X1.300000X1.025000X-1.300000X-1.025000X-1.300000X0.000000*%
G04 #@! TD*
G04 #@! TA.AperFunction,SMDPad,CuDef*
%ADD37Outline5P,-1.300000X1.300000X0.130000X1.300000X1.300000X0.130000X1.300000X-1.300000X-1.300000X-1.300000X345.000000*%
G04 #@! TD*
G04 #@! TA.AperFunction,SMDPad,CuDef*
%ADD38RotRect,2.550000X2.500000X345.000000*%
G04 #@! TD*
G04 #@! TA.AperFunction,SMDPad,CuDef*
%ADD39Outline5P,-1.250000X0.000000X-0.285000X0.965000X1.250000X0.965000X1.250000X-0.965000X-1.250000X-0.965000X75.000000*%
G04 #@! TD*
G04 #@! TA.AperFunction,ComponentPad*
%ADD40C,3.500000*%
G04 #@! TD*
G04 #@! TA.AperFunction,ComponentPad*
%ADD41C,4.000000*%
G04 #@! TD*
G04 #@! TA.AperFunction,SMDPad,CuDef*
%ADD42RotRect,2.550000X2.500000X195.000000*%
G04 #@! TD*
G04 #@! TA.AperFunction,SMDPad,CuDef*
%ADD43Outline5P,-1.300000X1.300000X1.300000X1.300000X1.300000X-1.300000X-0.130000X-1.300000X-1.300000X-0.130000X195.000000*%
G04 #@! TD*
G04 #@! TA.AperFunction,SMDPad,CuDef*
%ADD44Outline5P,-1.025000X1.300000X1.025000X1.300000X1.025000X-0.275000X0.000000X-1.300000X-1.025000X-1.300000X195.000000*%
G04 #@! TD*
G04 #@! TA.AperFunction,SMDPad,CuDef*
%ADD45RotRect,2.550000X2.500000X210.000000*%
G04 #@! TD*
G04 #@! TA.AperFunction,SMDPad,CuDef*
%ADD46Outline5P,-1.300000X1.300000X1.300000X1.300000X1.300000X-1.300000X-0.130000X-1.300000X-1.300000X-0.130000X210.000000*%
G04 #@! TD*
G04 #@! TA.AperFunction,SMDPad,CuDef*
%ADD47Outline5P,-1.025000X1.300000X1.025000X1.300000X1.025000X-0.275000X0.000000X-1.300000X-1.025000X-1.300000X210.000000*%
G04 #@! TD*
G04 #@! TA.AperFunction,ViaPad*
%ADD48C,0.800000*%
G04 #@! TD*
G04 #@! TA.AperFunction,Conductor*
%ADD49C,0.250000*%
G04 #@! TD*
G04 APERTURE END LIST*
D10*
X243223449Y-100103917D03*
D11*
X200144994Y-63229297D03*
X186294994Y-65769297D03*
D12*
X80020127Y-61739908D03*
D13*
X68790127Y-59549908D03*
D14*
X250700000Y-113810000D03*
X257200000Y-113810000D03*
D12*
X159029990Y-73199795D03*
D13*
X147799990Y-71009795D03*
D12*
X118120129Y-99340406D03*
D13*
X106890129Y-97150406D03*
D12*
X60970127Y-83279905D03*
D13*
X49740127Y-81089905D03*
D12*
X235230000Y-102289294D03*
D13*
X224000000Y-100099294D03*
D11*
X140185129Y-100310402D03*
X126335129Y-102850402D03*
D12*
X178079998Y-80249792D03*
D13*
X166849998Y-78059792D03*
D12*
X216179999Y-61699298D03*
D13*
X204949999Y-59509298D03*
D11*
X219194999Y-50679298D03*
X205344999Y-53219298D03*
D15*
X168122449Y-105676917D03*
D12*
X235229999Y-83249295D03*
D13*
X223999999Y-81059295D03*
D11*
X238245000Y-91269294D03*
X224395000Y-93809294D03*
D12*
X159029997Y-111299792D03*
D13*
X147799997Y-109109792D03*
D11*
X63985127Y-72259905D03*
X50135127Y-74799905D03*
D16*
X242657448Y-71889916D03*
D17*
X242662448Y-74444916D03*
D18*
X242662448Y-76979916D03*
D19*
X242662448Y-79489916D03*
D20*
X242657448Y-82044916D03*
D21*
X242662448Y-84594916D03*
D22*
X242662448Y-87149916D03*
D23*
X258637448Y-87134916D03*
D24*
X258627448Y-84599916D03*
D25*
X258617448Y-82039916D03*
D26*
X258617448Y-79479916D03*
D27*
X258607448Y-76949916D03*
D28*
X258632448Y-74434916D03*
D29*
X258637448Y-71919916D03*
D10*
X249402449Y-70942917D03*
X251942449Y-70942917D03*
X249402449Y-73482917D03*
X251942449Y-73482917D03*
X246227449Y-79197917D03*
X246227449Y-77292917D03*
D11*
X102085128Y-82309901D03*
X88235128Y-84849901D03*
D12*
X137170127Y-92290399D03*
D13*
X125940127Y-90100399D03*
D11*
X219194994Y-88769292D03*
X205344994Y-91309292D03*
D30*
X211639999Y-111654999D03*
X211639999Y-115204999D03*
D12*
X80020128Y-80789900D03*
D13*
X68790128Y-78599900D03*
D12*
X137170136Y-73240405D03*
D13*
X125940136Y-71050405D03*
D12*
X60970126Y-102339904D03*
D13*
X49740126Y-100149904D03*
D11*
X219194998Y-69729290D03*
X205344998Y-72269290D03*
D12*
X216179994Y-99789292D03*
D13*
X204949994Y-97599292D03*
D31*
X162534449Y-54876917D03*
D11*
X83035127Y-50719908D03*
X69185127Y-53259908D03*
D31*
X236482810Y-108628641D03*
D11*
X140185127Y-81270399D03*
X126335127Y-83810399D03*
X83035128Y-69769900D03*
X69185128Y-72309900D03*
D32*
X46449999Y-96999999D03*
D33*
X241661194Y-130668695D03*
D34*
X249787261Y-122623935D03*
D35*
X233030729Y-123157100D03*
D34*
X236522809Y-117898640D03*
D12*
X92058002Y-118890385D03*
D11*
X95073002Y-107860385D03*
D36*
X80833002Y-116690385D03*
D11*
X81223002Y-110400385D03*
X162044990Y-62179795D03*
X148194990Y-64719795D03*
D12*
X60970129Y-64239903D03*
D13*
X49740129Y-62049903D03*
D11*
X238244997Y-53169293D03*
X224394997Y-55709293D03*
X181094997Y-88269796D03*
X167244997Y-90809796D03*
D12*
X204142124Y-118849775D03*
D13*
X192912124Y-116659775D03*
D11*
X200144998Y-82279291D03*
X186294998Y-84819291D03*
D30*
X56079999Y-116264999D03*
X56079999Y-119814999D03*
D11*
X102085132Y-63269907D03*
X88235132Y-65809907D03*
D12*
X178079993Y-61189797D03*
D13*
X166849993Y-58999797D03*
D12*
X99070136Y-55229904D03*
D13*
X87840136Y-53039904D03*
D12*
X178079997Y-99289796D03*
D13*
X166849997Y-97099796D03*
D11*
X121135128Y-69270402D03*
X107285128Y-71810402D03*
D12*
X99070132Y-74289907D03*
D13*
X87840132Y-72099907D03*
D37*
X223678884Y-122294544D03*
D38*
X229445924Y-112420722D03*
D39*
X213398350Y-117272629D03*
D38*
X215410451Y-111289530D03*
D12*
X99070128Y-93329901D03*
D13*
X87840128Y-91139901D03*
D12*
X235229997Y-64189293D03*
D13*
X223999997Y-61999293D03*
D30*
X209009999Y-111654999D03*
X209009999Y-115204999D03*
D40*
X254083332Y-117651122D03*
D11*
X121135129Y-88320406D03*
X107285129Y-90860406D03*
D12*
X197129990Y-55189294D03*
D13*
X185899990Y-52999294D03*
D12*
X80020132Y-99839902D03*
D13*
X68790132Y-97649902D03*
D30*
X78569999Y-110674999D03*
X78569999Y-114224999D03*
D11*
X207157124Y-107829775D03*
X193307124Y-110369775D03*
D32*
X242999999Y-96649999D03*
D41*
X222429999Y-65274291D03*
D16*
X30962678Y-71930526D03*
D17*
X30967678Y-74485526D03*
D18*
X30967678Y-77020526D03*
D19*
X30967678Y-79530526D03*
D20*
X30962678Y-82085526D03*
D21*
X30967678Y-84635526D03*
D22*
X30967678Y-87190526D03*
D23*
X46942678Y-87175526D03*
D24*
X46932678Y-84640526D03*
D25*
X46922678Y-82080526D03*
D26*
X46922678Y-79520526D03*
D27*
X46912678Y-76990526D03*
D28*
X46937678Y-74475526D03*
D29*
X46942678Y-71960526D03*
D10*
X37707679Y-70983527D03*
X40247679Y-70983527D03*
X37707679Y-73523527D03*
X40247679Y-73523527D03*
X34532679Y-79238527D03*
X34532679Y-77333527D03*
D32*
X246639999Y-96669999D03*
D12*
X118120133Y-61230407D03*
D13*
X106890133Y-59040407D03*
D40*
X258260774Y-66869377D03*
D11*
X102085136Y-44209904D03*
X88235136Y-46749904D03*
X181094998Y-69229792D03*
X167244998Y-71769792D03*
D41*
X201100000Y-99140000D03*
D11*
X121135133Y-50210407D03*
X107285133Y-52750407D03*
D12*
X159029999Y-92249789D03*
D13*
X147799999Y-90059789D03*
D12*
X197129994Y-74249297D03*
D13*
X185899994Y-72059297D03*
D11*
X63985126Y-91319904D03*
X50135126Y-93859904D03*
D32*
X42869999Y-96969999D03*
D11*
X63985129Y-53219903D03*
X50135129Y-55759903D03*
X238244999Y-72229295D03*
X224394999Y-74769295D03*
X83035132Y-88819902D03*
X69185132Y-91359902D03*
X162044999Y-81229789D03*
X148194999Y-83769789D03*
D10*
X246608449Y-100088917D03*
D11*
X181094993Y-50169797D03*
X167244993Y-52709797D03*
X200144990Y-44169294D03*
X186294990Y-46709294D03*
D12*
X197129998Y-93299291D03*
D13*
X185899998Y-91109291D03*
D11*
X140185136Y-62220405D03*
X126335136Y-64760405D03*
D12*
X118120128Y-80290402D03*
D13*
X106890128Y-78100402D03*
D12*
X137170129Y-111330402D03*
D13*
X125940129Y-109140402D03*
D12*
X216179998Y-80749290D03*
D13*
X204949998Y-78559290D03*
D11*
X162044997Y-100279792D03*
X148194997Y-102819792D03*
D30*
X76199999Y-110734999D03*
X76199999Y-114284999D03*
D40*
X243479449Y-66869832D03*
X31389354Y-66909987D03*
D41*
X88560000Y-99180000D03*
D10*
X43041679Y-100129527D03*
D42*
X72355549Y-109205388D03*
D43*
X72295468Y-120630230D03*
D42*
X59634877Y-115243484D03*
D44*
X60883549Y-121410437D03*
D45*
X50757465Y-116374545D03*
D46*
X53656398Y-127425645D03*
D45*
X40033013Y-125499250D03*
D47*
X42835263Y-131132889D03*
D10*
X46426679Y-100144527D03*
D14*
X39030000Y-113970000D03*
X32530000Y-113970000D03*
D31*
X127248349Y-54901017D03*
D40*
X46170679Y-66910442D03*
D31*
X53150000Y-108624798D03*
D40*
X35566796Y-117691732D03*
D15*
X121660349Y-105701017D03*
D31*
X67220129Y-65314901D03*
D48*
X43050000Y-69920000D03*
X159030000Y-73210000D03*
X162044991Y-62179796D03*
X181094994Y-50169798D03*
X177980000Y-61290000D03*
X197090000Y-55310000D03*
X200144991Y-44169295D03*
X216150000Y-61720000D03*
X219195000Y-50679299D03*
X238244998Y-53169294D03*
X235220000Y-64250000D03*
X159000000Y-92250000D03*
X162045000Y-81229790D03*
X181094999Y-69229793D03*
X178050000Y-80330000D03*
X197060000Y-74310000D03*
X200144995Y-63229298D03*
X218360000Y-79380000D03*
X219194999Y-69729291D03*
X214630000Y-83140000D03*
X235280000Y-83280000D03*
X238245000Y-72229296D03*
X175010000Y-96280000D03*
X183160000Y-99200000D03*
X159010000Y-111330000D03*
X162044998Y-100279793D03*
X178070000Y-99320000D03*
X181094998Y-88269797D03*
X197140000Y-93320000D03*
X200144999Y-82279292D03*
X219194995Y-88769293D03*
X216190000Y-99790000D03*
X235230001Y-102289295D03*
X238245001Y-91269295D03*
X217664735Y-107595747D03*
X223354735Y-102705747D03*
X229594735Y-112205747D03*
X240880000Y-127790000D03*
X48370000Y-68114798D03*
X51160635Y-68829847D03*
X140185137Y-62220406D03*
X139650000Y-72130000D03*
X121135134Y-50210408D03*
X118590000Y-52680000D03*
X102085137Y-44209905D03*
X99190000Y-55180000D03*
X80070000Y-61710000D03*
X83035128Y-50719909D03*
X60980000Y-64250000D03*
X63985130Y-53219904D03*
X42340635Y-82969847D03*
X39190635Y-76749847D03*
X139450000Y-90640000D03*
X140185128Y-81270400D03*
X121135129Y-69270403D03*
X118600000Y-77090000D03*
X102085133Y-63269908D03*
X98240000Y-72070000D03*
X83035129Y-69769901D03*
X80020129Y-80789901D03*
X60940000Y-83290000D03*
X63985128Y-72259906D03*
X38970635Y-95309847D03*
X39170635Y-100779847D03*
X125170000Y-96710000D03*
X120830000Y-99300000D03*
X140185130Y-100310403D03*
X140360000Y-110330000D03*
X121135130Y-88320407D03*
X118150000Y-99320000D03*
X102085129Y-82309902D03*
X98990000Y-93470000D03*
X83035133Y-88819903D03*
X79960000Y-99910000D03*
X63985127Y-91319905D03*
X61070000Y-102350000D03*
X36640635Y-93459847D03*
X35980635Y-103149847D03*
X36050635Y-89129847D03*
X36680635Y-96239847D03*
X70430000Y-112880000D03*
X72040000Y-117570000D03*
X50757466Y-116374546D03*
X54060000Y-119815000D03*
X249080000Y-112110000D03*
X249040000Y-106030000D03*
X94425000Y-103815000D03*
X44780000Y-95020000D03*
X90240000Y-82280000D03*
X249044735Y-83515747D03*
X257280000Y-103440000D03*
X194160000Y-121330000D03*
X40620635Y-93129847D03*
X34620000Y-93220000D03*
X186294995Y-60625487D03*
X226060000Y-84520000D03*
X229760000Y-99180000D03*
X222189235Y-96730000D03*
X48950635Y-70539847D03*
X121350635Y-66859847D03*
X43815635Y-72174847D03*
X107285134Y-52750408D03*
X59690000Y-79840000D03*
X66450000Y-76850000D03*
X81280635Y-78979847D03*
X55266684Y-81160000D03*
X88959629Y-88425000D03*
X33840000Y-108413163D03*
X93340000Y-100440000D03*
X209010000Y-115205000D03*
X95073003Y-107860386D03*
X92180000Y-115490000D03*
D49*
X240044735Y-79047203D02*
X243052449Y-82054917D01*
X239464735Y-50900000D02*
X240044735Y-51480000D01*
X229505384Y-50900000D02*
X239464735Y-50900000D01*
X228705384Y-50100000D02*
X229505384Y-50900000D01*
X223556396Y-50100000D02*
X228705384Y-50100000D01*
X214203604Y-47550000D02*
X219276396Y-47550000D01*
X203976802Y-47776802D02*
X204790000Y-48590000D01*
X203973198Y-47776802D02*
X203976802Y-47776802D01*
X203200000Y-47003604D02*
X203973198Y-47776802D01*
X203200000Y-42679351D02*
X203200000Y-47003604D01*
X201630000Y-41109351D02*
X203200000Y-42679351D01*
X201630000Y-40925747D02*
X201630000Y-41109351D01*
X184050000Y-44673604D02*
X187797857Y-40925747D01*
X184050000Y-47330000D02*
X184050000Y-44673604D01*
X183840000Y-47540000D02*
X184050000Y-47330000D01*
X187797857Y-40925747D02*
X201630000Y-40925747D01*
X213163604Y-48590000D02*
X214203604Y-47550000D01*
X168400000Y-47540000D02*
X183840000Y-47540000D01*
X219276396Y-47550000D02*
X219786396Y-48060000D01*
X165060000Y-50880000D02*
X168400000Y-47540000D01*
X219786396Y-48060000D02*
X221516396Y-48060000D01*
X161190000Y-51220000D02*
X165060000Y-51220000D01*
X159080000Y-53330000D02*
X161190000Y-51220000D01*
X159080000Y-57940000D02*
X159080000Y-53330000D01*
X240044735Y-51480000D02*
X240044735Y-79047203D01*
X157399759Y-59620241D02*
X159080000Y-57940000D01*
X150340241Y-59620241D02*
X157399759Y-59620241D01*
X165060000Y-51220000D02*
X165060000Y-50880000D01*
X221516396Y-48060000D02*
X223556396Y-50100000D01*
X148194991Y-61765491D02*
X150340241Y-59620241D01*
X204790000Y-48590000D02*
X213163604Y-48590000D01*
X148194991Y-64719796D02*
X148194991Y-61765491D01*
X234934735Y-77072867D02*
X242456786Y-84594917D01*
X234934735Y-76135747D02*
X234934735Y-77072867D01*
X230079998Y-71281010D02*
X234934735Y-76135747D01*
X230079998Y-63412644D02*
X230079998Y-71281010D01*
X231178348Y-62314294D02*
X230079998Y-63412644D01*
X232731648Y-62314294D02*
X231178348Y-62314294D01*
X233038918Y-62621564D02*
X232731648Y-62314294D01*
X235124735Y-60535747D02*
X233038918Y-62621564D01*
X235124735Y-56185747D02*
X235124735Y-60535747D01*
X233983283Y-55044295D02*
X235124735Y-56185747D01*
X233013283Y-55044295D02*
X233983283Y-55044295D01*
X228518988Y-50550000D02*
X233013283Y-55044295D01*
X223370000Y-50550000D02*
X228518988Y-50550000D01*
X221330000Y-48510000D02*
X223370000Y-50550000D01*
X219090000Y-48000000D02*
X219600000Y-48510000D01*
X214390000Y-48000000D02*
X219090000Y-48000000D01*
X213350000Y-49040000D02*
X214390000Y-48000000D01*
X204600000Y-49040000D02*
X213350000Y-49040000D01*
X202720000Y-47160000D02*
X204600000Y-49040000D01*
X201690000Y-41805747D02*
X202720000Y-42835747D01*
X242456786Y-84594917D02*
X243052449Y-84594917D01*
X187554253Y-41805747D02*
X201690000Y-41805747D01*
X202720000Y-42835747D02*
X202720000Y-47160000D01*
X184500000Y-44860000D02*
X187554253Y-41805747D01*
X184500000Y-47570000D02*
X184500000Y-44860000D01*
X184060000Y-48010000D02*
X184500000Y-47570000D01*
X219600000Y-48510000D02*
X221330000Y-48510000D01*
X175560000Y-48010000D02*
X184060000Y-48010000D01*
X174032604Y-49537396D02*
X175560000Y-48010000D01*
X170417396Y-49537396D02*
X174032604Y-49537396D01*
X167244994Y-52709798D02*
X170417396Y-49537396D01*
X43000000Y-69870000D02*
X43050000Y-69920000D01*
X43000000Y-67160000D02*
X43000000Y-69870000D01*
X42650000Y-66810000D02*
X43000000Y-67160000D01*
X36870000Y-66810000D02*
X42650000Y-66810000D01*
X46930635Y-70539847D02*
X48950635Y-70539847D01*
X45595394Y-69694606D02*
X46085394Y-69694606D01*
X44180000Y-71110000D02*
X45595394Y-69694606D01*
X42110000Y-71110000D02*
X44180000Y-71110000D01*
X41730000Y-70730000D02*
X42110000Y-71110000D01*
X41730000Y-69569847D02*
X41730000Y-70730000D01*
X37460635Y-69569847D02*
X41730000Y-69569847D01*
X35920635Y-71090801D02*
X37428121Y-69583315D01*
X35920635Y-75309847D02*
X35920635Y-71090801D01*
X37440635Y-76829847D02*
X35920635Y-75309847D01*
X46085394Y-69694606D02*
X46930635Y-70539847D01*
X37440635Y-81179847D02*
X37440635Y-76829847D01*
X36524955Y-82095527D02*
X37440635Y-81179847D01*
X31357679Y-82095527D02*
X36524955Y-82095527D01*
X37460635Y-69569864D02*
G75*
G03*
X37428121Y-69583315I-35J-45936D01*
G01*
X34532679Y-69147321D02*
X36870000Y-66810000D01*
X34532679Y-77333527D02*
X34532679Y-69147321D01*
X218295366Y-79380000D02*
X214630000Y-83045366D01*
X180240000Y-96280000D02*
X183160000Y-99200000D01*
X175010000Y-96280000D02*
X180240000Y-96280000D01*
X218464735Y-107595747D02*
X217664735Y-107595747D01*
X223354735Y-102705747D02*
X218464735Y-107595747D01*
X223678885Y-118187763D02*
X229445925Y-112420723D01*
X223678885Y-122294545D02*
X223678885Y-118187763D01*
X245072144Y-129415747D02*
X245138945Y-129348945D01*
X240880000Y-127790000D02*
X242438945Y-129348945D01*
X244780000Y-129348945D02*
X245138945Y-129348945D01*
X246781055Y-129348945D02*
X249110000Y-127020000D01*
X244780000Y-129348945D02*
X246781055Y-129348945D01*
X241661195Y-130668696D02*
X241661195Y-130126695D01*
X241661195Y-130126695D02*
X242438945Y-129348945D01*
X242438945Y-129348945D02*
X244780000Y-129348945D01*
X249787262Y-124700629D02*
X249787262Y-122623936D01*
X249110000Y-127020000D02*
X249110000Y-125377890D01*
X249110000Y-125377890D02*
X249538945Y-124948945D01*
X249538945Y-124948945D02*
X249787262Y-124700629D01*
X49249750Y-68994548D02*
X50833633Y-68994548D01*
X48370000Y-68114798D02*
X49249750Y-68994548D01*
X50833638Y-68994581D02*
G75*
G03*
X51160635Y-68829847I-93738J592981D01*
G01*
X137170137Y-73240406D02*
X138539594Y-73240406D01*
X138539594Y-73240406D02*
X139650000Y-72130000D01*
X118120134Y-61230408D02*
X118120134Y-53149866D01*
X118120134Y-53149866D02*
X118590000Y-52680000D01*
X41100635Y-76749847D02*
X42340635Y-77989847D01*
X42340635Y-77989847D02*
X42340635Y-82969847D01*
X39190635Y-76749847D02*
X41090635Y-76749847D01*
X41090635Y-76749847D02*
X41100635Y-76749847D01*
X137170128Y-92290400D02*
X138820528Y-90640000D01*
X138820528Y-90640000D02*
X139450000Y-90640000D01*
X118120129Y-77569871D02*
X118600000Y-77090000D01*
X118120129Y-80290403D02*
X118120129Y-77569871D01*
X117627565Y-80262435D02*
X117812435Y-80077565D01*
X99070133Y-74289908D02*
X99070133Y-72900133D01*
X99070133Y-72900133D02*
X98240000Y-72070000D01*
X39170635Y-100779847D02*
X41345635Y-98604847D01*
X125170000Y-98110000D02*
X125170000Y-96710000D01*
X123980000Y-99300000D02*
X124070000Y-99210000D01*
X41345635Y-97684847D02*
X38970635Y-95309847D01*
X120830000Y-99300000D02*
X123980000Y-99300000D01*
X41345635Y-98604847D02*
X41345635Y-97684847D01*
X124070000Y-99210000D02*
X125170000Y-98110000D01*
X139359597Y-111330403D02*
X140360000Y-110330000D01*
X137170130Y-111330403D02*
X139359597Y-111330403D01*
X36640635Y-89719847D02*
X36640635Y-93459847D01*
X36680635Y-96239847D02*
X36680635Y-102449847D01*
X36680635Y-102449847D02*
X35980635Y-103149847D01*
X36050635Y-89129847D02*
X36640635Y-89719847D01*
X72295469Y-120630231D02*
X72295469Y-117825469D01*
X70430000Y-112880000D02*
X70430000Y-111130939D01*
X72295469Y-117825469D02*
X72040000Y-117570000D01*
X70430000Y-111130939D02*
X72355550Y-109205389D01*
X54060000Y-127022045D02*
X54060000Y-119815000D01*
X53656399Y-127425646D02*
X54060000Y-127022045D01*
X249080000Y-106070000D02*
X249040000Y-106030000D01*
X249080000Y-112110000D02*
X249080000Y-106070000D01*
X94310000Y-82610000D02*
X93980000Y-82280000D01*
X94425000Y-94611423D02*
X93370128Y-93556551D01*
X93980000Y-82280000D02*
X90240000Y-82280000D01*
X94425000Y-103815000D02*
X94425000Y-94611423D01*
X93370128Y-93556551D02*
X93370128Y-86116555D01*
X44780000Y-98391206D02*
X43041679Y-100129527D01*
X94310000Y-85176683D02*
X94310000Y-82610000D01*
X44780000Y-95020000D02*
X44780000Y-98391206D01*
X93370128Y-86116555D02*
X94310000Y-85176683D01*
X249402449Y-83158033D02*
X249402449Y-73482917D01*
X249044735Y-83515747D02*
X249402449Y-83158033D01*
X228908287Y-124211713D02*
X229470000Y-123650000D01*
X249560000Y-125630000D02*
X252980000Y-122210000D01*
X257315747Y-103435747D02*
X257360000Y-103480000D01*
X252980000Y-120230000D02*
X250700000Y-117950000D01*
X250700000Y-104390000D02*
X251654253Y-103435747D01*
X252754253Y-103435747D02*
X257275747Y-103435747D01*
X252980000Y-122210000D02*
X252980000Y-120230000D01*
X243223449Y-100103917D02*
X243223449Y-102027033D01*
X257275747Y-103435747D02*
X257280000Y-103440000D01*
X245360471Y-132769529D02*
X249560000Y-128570000D01*
X252754253Y-103435747D02*
X253604253Y-103435747D01*
X238589529Y-132769529D02*
X245360471Y-132769529D01*
X257280000Y-103440000D02*
X257284253Y-103435747D01*
X246406021Y-102027033D02*
X247814735Y-103435747D01*
X229470000Y-123650000D02*
X238589529Y-132769529D01*
X243193449Y-100133917D02*
X243223449Y-100103917D01*
X213930000Y-121460000D02*
X215550000Y-123080000D01*
X243223449Y-102027033D02*
X246406021Y-102027033D01*
X194160000Y-121330000D02*
X194290000Y-121460000D01*
X247814735Y-103435747D02*
X251654253Y-103435747D01*
X215550000Y-123080000D02*
X219496914Y-123080000D01*
X194290000Y-121460000D02*
X213930000Y-121460000D01*
X257284253Y-103435747D02*
X257315747Y-103435747D01*
X219496914Y-123080000D02*
X220628627Y-124211713D01*
X250700000Y-117950000D02*
X250700000Y-104390000D01*
X220628627Y-124211713D02*
X228908287Y-124211713D01*
X249560000Y-128570000D02*
X249560000Y-125630000D01*
X251654253Y-103435747D02*
X252754253Y-103435747D01*
X34590000Y-93220000D02*
X34570000Y-93200000D01*
X34620000Y-93250000D02*
X34620000Y-93220000D01*
X38270635Y-93129847D02*
X36940635Y-94459847D01*
X36940635Y-94459847D02*
X35829847Y-94459847D01*
X35829847Y-94459847D02*
X34620000Y-93250000D01*
X34620000Y-93220000D02*
X34590000Y-93220000D01*
X40620635Y-93129847D02*
X38270635Y-93129847D01*
X148194998Y-102819793D02*
X148194998Y-83769792D01*
X147799998Y-109109793D02*
X147799998Y-103214793D01*
X148195000Y-64719805D02*
X148194991Y-64719796D01*
X148195000Y-83769790D02*
X148195000Y-64719805D01*
X147799998Y-103214793D02*
X148194998Y-102819793D01*
X148194998Y-83769792D02*
X148195000Y-83769790D01*
X166849998Y-97099797D02*
X166849998Y-91204797D01*
X166849998Y-91204797D02*
X167244998Y-90809797D01*
X167244999Y-71769793D02*
X167244998Y-90809797D01*
X167244994Y-52709798D02*
X167244994Y-71769788D01*
X167244994Y-71769788D02*
X167244999Y-71769793D01*
X186294999Y-84819292D02*
X186294999Y-65769302D01*
X193307125Y-110369776D02*
X193307125Y-104857127D01*
X192912125Y-116659776D02*
X192912125Y-110764776D01*
X237816453Y-87665747D02*
X240875594Y-90724888D01*
X226060000Y-84520000D02*
X227299494Y-85759494D01*
X186294995Y-60625487D02*
X186294995Y-46709299D01*
X186294999Y-65769302D02*
X186294995Y-65769298D01*
X192912125Y-110764776D02*
X193307125Y-110369776D01*
X227589494Y-85759494D02*
X229510000Y-87680000D01*
X240875594Y-90724888D02*
X246335594Y-90724888D01*
X229524253Y-87665747D02*
X237816453Y-87665747D01*
X186294999Y-97845001D02*
X186294999Y-84819292D01*
X257545565Y-79514917D02*
X258292449Y-79514917D01*
X246335594Y-90724888D02*
X257545565Y-79514917D01*
X227299494Y-85759494D02*
X227589494Y-85759494D01*
X193307125Y-104857127D02*
X186294999Y-97845001D01*
X186294995Y-46709299D02*
X186294991Y-46709295D01*
X229510000Y-87680000D02*
X229524253Y-87665747D01*
X186294995Y-65769298D02*
X186294995Y-60625487D01*
X205344995Y-97680943D02*
X205344995Y-91309293D01*
X204949995Y-97599293D02*
X204880000Y-97669288D01*
X211830693Y-97219307D02*
X207620000Y-101430000D01*
X239954735Y-94325747D02*
X241694735Y-92585747D01*
X236234253Y-94325747D02*
X239954735Y-94325747D01*
X209800000Y-105679079D02*
X210310460Y-106189540D01*
X207128345Y-99464293D02*
X205344995Y-97680943D01*
X207620000Y-101430000D02*
X207128345Y-100938345D01*
X241694735Y-92585747D02*
X247761619Y-92585747D01*
X205270000Y-101030000D02*
X205270000Y-101149080D01*
X207128345Y-100938345D02*
X207128345Y-99464293D01*
X234704065Y-97894065D02*
X234704065Y-95855935D01*
X205150920Y-101030000D02*
X205270000Y-101030000D01*
X221699928Y-97219307D02*
X211830693Y-97219307D01*
X210310460Y-106189540D02*
X215410452Y-111289531D01*
X247761619Y-92585747D02*
X258292449Y-82054917D01*
X204880000Y-100759080D02*
X205150920Y-101030000D01*
X205344999Y-91309289D02*
X205344995Y-91309293D01*
X234704065Y-95855935D02*
X236234253Y-94325747D01*
X204880000Y-97669288D02*
X204880000Y-100759080D01*
X205270000Y-101149080D02*
X210310460Y-106189540D01*
X229760000Y-99180000D02*
X233418129Y-99180000D01*
X205344999Y-72269291D02*
X205344999Y-91309289D01*
X205344995Y-91309293D02*
X204949995Y-91704293D01*
X205345000Y-53219299D02*
X205344999Y-72269291D01*
X233418129Y-99180000D02*
X234704065Y-97894065D01*
X213398351Y-117272630D02*
X215410452Y-115260529D01*
X222189235Y-96730000D02*
X221699928Y-97219307D01*
X215410452Y-115260529D02*
X215410452Y-111289531D01*
X224000001Y-100099295D02*
X224000001Y-94204295D01*
X223999998Y-56104294D02*
X224394998Y-55709294D01*
X224000001Y-94204295D02*
X224395001Y-93809295D01*
X235828780Y-100055747D02*
X239017263Y-96867263D01*
X241767933Y-93148945D02*
X247921537Y-93148945D01*
X247921537Y-93148945D02*
X256475565Y-84594917D01*
X224155381Y-101964295D02*
X224000001Y-101808915D01*
X228275705Y-101964295D02*
X230184253Y-100055747D01*
X224155381Y-101964295D02*
X228275705Y-101964295D01*
X230184253Y-100055747D02*
X235828780Y-100055747D01*
X241541660Y-112879790D02*
X241541660Y-109692337D01*
X224395000Y-74769296D02*
X223999998Y-74374294D01*
X224395001Y-93809295D02*
X224395000Y-74769296D01*
X223999998Y-63556243D02*
X223999998Y-56104294D01*
X239017263Y-96867263D02*
X240404735Y-95479791D01*
X237474661Y-98409865D02*
X239017263Y-96867263D01*
X224754999Y-66237338D02*
X224754999Y-64311244D01*
X241541660Y-109692337D02*
X237474661Y-105625339D01*
X256475565Y-84594917D02*
X258292449Y-84594917D01*
X233030730Y-123157101D02*
X236522810Y-119665021D01*
X224754999Y-64311244D02*
X223999998Y-63556243D01*
X236522810Y-117898641D02*
X241541660Y-112879790D01*
X236522810Y-119665021D02*
X236522810Y-117898641D01*
X237474661Y-105625339D02*
X237474661Y-98409865D01*
X223999998Y-74374294D02*
X223999998Y-66992339D01*
X223999998Y-66992339D02*
X224754999Y-66237338D01*
X224000001Y-101808915D02*
X224000001Y-100099295D01*
X240404735Y-94512143D02*
X241767933Y-93148945D01*
X240404735Y-95479791D02*
X240404735Y-94512143D01*
X126335130Y-83810402D02*
X126335128Y-83810400D01*
X125940130Y-109140403D02*
X125940130Y-103245403D01*
X126335128Y-83810400D02*
X126335128Y-64760415D01*
X126275742Y-64819801D02*
X126335137Y-64760406D01*
X125940130Y-103245403D02*
X126335130Y-102850403D01*
X126335130Y-102850403D02*
X126335130Y-83810402D01*
X126335128Y-64760415D02*
X126335137Y-64760406D01*
X121350635Y-66859873D02*
G75*
G03*
X126275742Y-64819801I-35J6965173D01*
G01*
X43670635Y-72319847D02*
X43670635Y-83349847D01*
X107340000Y-94380000D02*
X107340000Y-94050000D01*
X107285130Y-88590000D02*
X107285129Y-71810403D01*
X107285129Y-71810403D02*
X107285129Y-52750413D01*
X43815635Y-72174847D02*
X43670635Y-72319847D01*
X107285130Y-90860407D02*
X107285130Y-88590000D01*
X106890130Y-97150407D02*
X107340000Y-96700537D01*
X107285130Y-94325130D02*
X107340000Y-94380000D01*
X43670635Y-83349847D02*
X42384955Y-84635527D01*
X42384955Y-84635527D02*
X31357679Y-84635527D01*
X107285129Y-52750413D02*
X107285134Y-52750408D01*
X107340000Y-96700537D02*
X107340000Y-94380000D01*
X107285130Y-90860407D02*
X107285130Y-94325130D01*
X81223003Y-101670000D02*
X81249656Y-101670000D01*
X80833003Y-116690386D02*
X80833003Y-110790386D01*
X88235129Y-92865353D02*
X88235129Y-84849902D01*
X88235133Y-65809908D02*
X88235133Y-46749909D01*
X88235133Y-46749909D02*
X88235137Y-46749905D01*
X81223003Y-110400386D02*
X81223003Y-101670000D01*
X80833003Y-110790386D02*
X81223003Y-110400386D01*
X86090241Y-95010241D02*
X88235129Y-92865353D01*
X81280635Y-78979847D02*
X82770635Y-78979847D01*
X88235129Y-65809912D02*
X88235133Y-65809908D01*
X63460000Y-79840000D02*
X66450000Y-76850000D01*
X81249656Y-101670000D02*
X86090241Y-96829415D01*
X86090241Y-96829415D02*
X86090241Y-95010241D01*
X82770635Y-78979847D02*
X87948354Y-84157566D01*
X59690000Y-79840000D02*
X63460000Y-79840000D01*
X88235129Y-84849902D02*
X88235129Y-65809912D01*
X88235134Y-84849902D02*
G75*
G03*
X87948354Y-84157566I-979334J-98D01*
G01*
X60883550Y-121410438D02*
X60883550Y-116492157D01*
X62643300Y-83063458D02*
X62643300Y-83947813D01*
X69185133Y-72309905D02*
X69185129Y-72309901D01*
X62643300Y-83947813D02*
X63129525Y-84064544D01*
X64121910Y-84181996D02*
X64371931Y-84184345D01*
X60883550Y-116492157D02*
X59634878Y-115243485D01*
X63129525Y-84064544D02*
X63623410Y-84142766D01*
X55266684Y-81160000D02*
X60739842Y-81160000D01*
X63623410Y-84142766D02*
X64121910Y-84181996D01*
X69185133Y-84184345D02*
X69185133Y-72309905D01*
X71650635Y-66389847D02*
X71650635Y-64160863D01*
X68790128Y-61300356D02*
X68790128Y-53654909D01*
X64371931Y-84184345D02*
X69185133Y-84184345D01*
X68790128Y-53654909D02*
X69185128Y-53259909D01*
X70045129Y-71449901D02*
X70045129Y-67995353D01*
X69185133Y-105693230D02*
X59634878Y-115243485D01*
X69185133Y-91359903D02*
X69185133Y-84184345D01*
X71650635Y-64160863D02*
X68790128Y-61300356D01*
X70045129Y-67995353D02*
X71650635Y-66389847D01*
X60739842Y-81160000D02*
X62643300Y-83063458D01*
X69185129Y-72309901D02*
X70045129Y-71449901D01*
X69185133Y-91359903D02*
X69185133Y-105693230D01*
X52580635Y-72799847D02*
X50895556Y-74484926D01*
X49270635Y-112519847D02*
X49270635Y-112299847D01*
X50135127Y-93859905D02*
X50135127Y-85344339D01*
X52580635Y-69134821D02*
X52580635Y-72799847D01*
X50135127Y-85344339D02*
X48308902Y-85344339D01*
X42835264Y-128301501D02*
X40033014Y-125499251D01*
X50141482Y-66200694D02*
X52230635Y-68289847D01*
X50135128Y-66185354D02*
X50135128Y-55759906D01*
X50135127Y-111435355D02*
X50135127Y-93859905D01*
X50135128Y-55759906D02*
X50135130Y-55759904D01*
X40033014Y-121757468D02*
X49270635Y-112519847D01*
X40033014Y-125499251D02*
X40033014Y-121757468D01*
X42835264Y-131132890D02*
X42835264Y-128301501D01*
X50135127Y-85344339D02*
X50135128Y-74799906D01*
X49270635Y-112299847D02*
X50135127Y-111435355D01*
X50135155Y-66185354D02*
G75*
G03*
X50141483Y-66200693I21645J-46D01*
G01*
X50135128Y-74799925D02*
G75*
G03*
X50895555Y-74484925I-28J1075425D01*
G01*
X52580631Y-69134821D02*
G75*
G03*
X52230635Y-68289847I-1194931J21D01*
G01*
X46597677Y-84635529D02*
G75*
G03*
X48308902Y-85344339I1711223J1711229D01*
G01*
X39030000Y-113970000D02*
X42227319Y-110772681D01*
X42227319Y-108413163D02*
X33840000Y-108413163D01*
X89494629Y-88960000D02*
X92000000Y-88960000D01*
X92920128Y-100020128D02*
X93340000Y-100440000D01*
X46426679Y-104213803D02*
X42227319Y-108413163D01*
X88959629Y-88425000D02*
X89494629Y-88960000D01*
X92920128Y-89880128D02*
X92920128Y-100020128D01*
X33840000Y-108413163D02*
X33710000Y-108413163D01*
X42227319Y-109697319D02*
X42227319Y-108413163D01*
X46426679Y-100144527D02*
X46426679Y-104213803D01*
X92000000Y-88960000D02*
X92920128Y-89880128D01*
X42227319Y-110772681D02*
X42227319Y-109350000D01*
X205700000Y-115330000D02*
X205825000Y-115205000D01*
X204622124Y-110364777D02*
X204622124Y-114252124D01*
X207157125Y-107829776D02*
X204622124Y-110364777D01*
X204622124Y-114252124D02*
X205700000Y-115330000D01*
X204142125Y-118849776D02*
X204142125Y-116887875D01*
X205825000Y-115205000D02*
X209010000Y-115205000D01*
X204142125Y-116887875D02*
X205825000Y-115205000D01*
X92058003Y-118890386D02*
X92058003Y-115611997D01*
X92058003Y-115611997D02*
X92180000Y-115490000D01*
M02*
