G04 #@! TF.GenerationSoftware,KiCad,Pcbnew,(7.0.0)*
G04 #@! TF.CreationDate,2023-03-06T20:10:27-03:00*
G04 #@! TF.ProjectId,totem swoop,746f7465-6d20-4737-976f-6f702e6b6963,0.2*
G04 #@! TF.SameCoordinates,Original*
G04 #@! TF.FileFunction,Other,ECO2*
%FSLAX46Y46*%
G04 Gerber Fmt 4.6, Leading zero omitted, Abs format (unit mm)*
G04 Created by KiCad (PCBNEW (7.0.0)) date 2023-03-06 20:10:27*
%MOMM*%
%LPD*%
G01*
G04 APERTURE LIST*
%ADD10C,0.150000*%
G04 APERTURE END LIST*
D10*
X186954995Y-75209298D02*
X186954995Y-61409298D01*
X186954995Y-75209298D02*
X200754995Y-75209298D01*
X200754995Y-61409298D02*
X186954995Y-61409298D01*
X200754995Y-61409298D02*
X200754995Y-75209298D01*
X69845128Y-62689909D02*
X69845128Y-48889909D01*
X69845128Y-62689909D02*
X83645128Y-62689909D01*
X83645128Y-48889909D02*
X69845128Y-48889909D01*
X83645128Y-48889909D02*
X83645128Y-62689909D01*
X148854991Y-74149796D02*
X148854991Y-60349796D01*
X148854991Y-74149796D02*
X162654991Y-74149796D01*
X162654991Y-60349796D02*
X148854991Y-60349796D01*
X162654991Y-60349796D02*
X162654991Y-74149796D01*
X107945130Y-100290407D02*
X107945130Y-86490407D01*
X107945130Y-100290407D02*
X121745130Y-100290407D01*
X121745130Y-86490407D02*
X107945130Y-86490407D01*
X121745130Y-86490407D02*
X121745130Y-100290407D01*
X50795128Y-84229906D02*
X50795128Y-70429906D01*
X50795128Y-84229906D02*
X64595128Y-84229906D01*
X64595128Y-70429906D02*
X50795128Y-70429906D01*
X64595128Y-70429906D02*
X64595128Y-84229906D01*
X225055001Y-103239295D02*
X225055001Y-89439295D01*
X225055001Y-103239295D02*
X238855001Y-103239295D01*
X238855001Y-89439295D02*
X225055001Y-89439295D01*
X238855001Y-89439295D02*
X238855001Y-103239295D01*
X126995130Y-112290403D02*
X126995130Y-98490403D01*
X126995130Y-112290403D02*
X140795130Y-112290403D01*
X140795130Y-98490403D02*
X126995130Y-98490403D01*
X140795130Y-98490403D02*
X140795130Y-112290403D01*
X167904999Y-81199793D02*
X167904999Y-67399793D01*
X167904999Y-81199793D02*
X181704999Y-81199793D01*
X181704999Y-67399793D02*
X167904999Y-67399793D01*
X181704999Y-67399793D02*
X181704999Y-81199793D01*
X206005000Y-62649299D02*
X206005000Y-48849299D01*
X206005000Y-62649299D02*
X219805000Y-62649299D01*
X219805000Y-48849299D02*
X206005000Y-48849299D01*
X219805000Y-48849299D02*
X219805000Y-62649299D01*
X206005000Y-62659299D02*
X206005000Y-48859299D01*
X206005000Y-62659299D02*
X219805000Y-62659299D01*
X219805000Y-48859299D02*
X206005000Y-48859299D01*
X219805000Y-48859299D02*
X219805000Y-62659299D01*
X225055000Y-84199296D02*
X225055000Y-70399296D01*
X225055000Y-84199296D02*
X238855000Y-84199296D01*
X238855000Y-70399296D02*
X225055000Y-70399296D01*
X238855000Y-70399296D02*
X238855000Y-84199296D01*
X225055001Y-103249295D02*
X225055001Y-89449295D01*
X225055001Y-103249295D02*
X238855001Y-103249295D01*
X238855001Y-89449295D02*
X225055001Y-89449295D01*
X238855001Y-89449295D02*
X238855001Y-103249295D01*
X148854998Y-112249793D02*
X148854998Y-98449793D01*
X148854998Y-112249793D02*
X162654998Y-112249793D01*
X162654998Y-98449793D02*
X148854998Y-98449793D01*
X162654998Y-98449793D02*
X162654998Y-112249793D01*
X50795128Y-84239906D02*
X50795128Y-70439906D01*
X50795128Y-84239906D02*
X64595128Y-84239906D01*
X64595128Y-70439906D02*
X50795128Y-70439906D01*
X64595128Y-70439906D02*
X64595128Y-84239906D01*
X88895129Y-94289902D02*
X88895129Y-80489902D01*
X88895129Y-94289902D02*
X102695129Y-94289902D01*
X102695129Y-80489902D02*
X88895129Y-80489902D01*
X102695129Y-80489902D02*
X102695129Y-94289902D01*
X126995128Y-93240400D02*
X126995128Y-79440400D01*
X126995128Y-93240400D02*
X140795128Y-93240400D01*
X140795128Y-79440400D02*
X126995128Y-79440400D01*
X140795128Y-79440400D02*
X140795128Y-93240400D01*
X206004995Y-100749293D02*
X206004995Y-86949293D01*
X206004995Y-100749293D02*
X219804995Y-100749293D01*
X219804995Y-86949293D02*
X206004995Y-86949293D01*
X219804995Y-86949293D02*
X219804995Y-100749293D01*
X69845129Y-81739901D02*
X69845129Y-67939901D01*
X69845129Y-81739901D02*
X83645129Y-81739901D01*
X83645129Y-67939901D02*
X69845129Y-67939901D01*
X83645129Y-67939901D02*
X83645129Y-81739901D01*
X126995137Y-74190406D02*
X126995137Y-60390406D01*
X126995137Y-74190406D02*
X140795137Y-74190406D01*
X140795137Y-60390406D02*
X126995137Y-60390406D01*
X140795137Y-60390406D02*
X140795137Y-74190406D01*
X50795127Y-103289905D02*
X50795127Y-89489905D01*
X50795127Y-103289905D02*
X64595127Y-103289905D01*
X64595127Y-89489905D02*
X50795127Y-89489905D01*
X64595127Y-89489905D02*
X64595127Y-103289905D01*
X206004999Y-81709291D02*
X206004999Y-67909291D01*
X206004999Y-81709291D02*
X219804999Y-81709291D01*
X219804999Y-67909291D02*
X206004999Y-67909291D01*
X219804999Y-67909291D02*
X219804999Y-81709291D01*
X206004995Y-100739293D02*
X206004995Y-86939293D01*
X206004995Y-100739293D02*
X219804995Y-100739293D01*
X219804995Y-86939293D02*
X206004995Y-86939293D01*
X219804995Y-86939293D02*
X219804995Y-100739293D01*
X69845128Y-62699909D02*
X69845128Y-48899909D01*
X69845128Y-62699909D02*
X83645128Y-62699909D01*
X83645128Y-48899909D02*
X69845128Y-48899909D01*
X83645128Y-48899909D02*
X83645128Y-62699909D01*
X126995128Y-93250400D02*
X126995128Y-79450400D01*
X126995128Y-93250400D02*
X140795128Y-93250400D01*
X140795128Y-79450400D02*
X126995128Y-79450400D01*
X140795128Y-79450400D02*
X140795128Y-93250400D01*
X69845129Y-81749901D02*
X69845129Y-67949901D01*
X69845129Y-81749901D02*
X83645129Y-81749901D01*
X83645129Y-67949901D02*
X69845129Y-67949901D01*
X83645129Y-67949901D02*
X83645129Y-81749901D01*
X232374387Y-126403921D02*
X239274387Y-114452770D01*
X232374387Y-126403921D02*
X239274387Y-114452770D01*
X232374387Y-126403921D02*
X244325537Y-133303921D01*
X232374387Y-126403921D02*
X244325537Y-133303921D01*
X251225537Y-121352770D02*
X239274387Y-114452770D01*
X251225537Y-121352770D02*
X239274387Y-114452770D01*
X251225537Y-121352770D02*
X244325537Y-133303921D01*
X251225537Y-121352770D02*
X244325537Y-133303921D01*
X81883003Y-119840386D02*
X81883003Y-106040386D01*
X81883003Y-119840386D02*
X81883003Y-106040386D01*
X81883003Y-119840386D02*
X95683003Y-119840386D01*
X81883003Y-119840386D02*
X95683003Y-119840386D01*
X95683003Y-106040386D02*
X81883003Y-106040386D01*
X95683003Y-106040386D02*
X81883003Y-106040386D01*
X95683003Y-106040386D02*
X95683003Y-119840386D01*
X95683003Y-106040386D02*
X95683003Y-119840386D01*
X148854991Y-74159796D02*
X148854991Y-60359796D01*
X148854991Y-74159796D02*
X162654991Y-74159796D01*
X162654991Y-60359796D02*
X148854991Y-60359796D01*
X162654991Y-60359796D02*
X162654991Y-74159796D01*
X50795130Y-65189904D02*
X50795130Y-51389904D01*
X50795130Y-65189904D02*
X64595130Y-65189904D01*
X64595130Y-51389904D02*
X50795130Y-51389904D01*
X64595130Y-51389904D02*
X64595130Y-65189904D01*
X225054998Y-65149294D02*
X225054998Y-51349294D01*
X225054998Y-65149294D02*
X238854998Y-65149294D01*
X238854998Y-51349294D02*
X225054998Y-51349294D01*
X238854998Y-51349294D02*
X238854998Y-65149294D01*
X167904998Y-100249797D02*
X167904998Y-86449797D01*
X167904998Y-100249797D02*
X181704998Y-100249797D01*
X181704998Y-86449797D02*
X167904998Y-86449797D01*
X181704998Y-86449797D02*
X181704998Y-100249797D01*
X193967125Y-119799776D02*
X193967125Y-105999776D01*
X193967125Y-119799776D02*
X207767125Y-119799776D01*
X207767125Y-105999776D02*
X193967125Y-105999776D01*
X207767125Y-105999776D02*
X207767125Y-119799776D01*
X186954999Y-94259292D02*
X186954999Y-80459292D01*
X186954999Y-94259292D02*
X200754999Y-94259292D01*
X200754999Y-80459292D02*
X186954999Y-80459292D01*
X200754999Y-80459292D02*
X200754999Y-94259292D01*
X88895133Y-75249908D02*
X88895133Y-61449908D01*
X88895133Y-75249908D02*
X102695133Y-75249908D01*
X102695133Y-61449908D02*
X88895133Y-61449908D01*
X102695133Y-61449908D02*
X102695133Y-75249908D01*
X167904994Y-62139798D02*
X167904994Y-48339798D01*
X167904994Y-62139798D02*
X181704994Y-62139798D01*
X181704994Y-48339798D02*
X167904994Y-48339798D01*
X181704994Y-48339798D02*
X181704994Y-62139798D01*
X88895137Y-56179905D02*
X88895137Y-42379905D01*
X88895137Y-56179905D02*
X102695137Y-56179905D01*
X102695137Y-42379905D02*
X88895137Y-42379905D01*
X102695137Y-42379905D02*
X102695137Y-56179905D01*
X167904998Y-100239797D02*
X167904998Y-86439797D01*
X167904998Y-100239797D02*
X181704998Y-100239797D01*
X181704998Y-86439797D02*
X167904998Y-86439797D01*
X181704998Y-86439797D02*
X181704998Y-100239797D01*
X107945129Y-81250403D02*
X107945129Y-67450403D01*
X107945129Y-81250403D02*
X121745129Y-81250403D01*
X121745129Y-67450403D02*
X107945129Y-67450403D01*
X121745129Y-67450403D02*
X121745129Y-81250403D01*
X88895133Y-75239908D02*
X88895133Y-61439908D01*
X88895133Y-75239908D02*
X102695133Y-75239908D01*
X102695133Y-61439908D02*
X88895133Y-61439908D01*
X102695133Y-61439908D02*
X102695133Y-75239908D01*
X213604711Y-120578691D02*
X217176414Y-107248915D01*
X213604711Y-120578691D02*
X217176414Y-107248915D01*
X213604711Y-120578691D02*
X226934488Y-124150394D01*
X213604711Y-120578691D02*
X226934488Y-124150394D01*
X230506190Y-110820617D02*
X217176414Y-107248915D01*
X230506190Y-110820617D02*
X217176414Y-107248915D01*
X230506190Y-110820617D02*
X226934488Y-124150394D01*
X230506190Y-110820617D02*
X226934488Y-124150394D01*
X88895129Y-94279902D02*
X88895129Y-80479902D01*
X88895129Y-94279902D02*
X102695129Y-94279902D01*
X102695129Y-80479902D02*
X88895129Y-80479902D01*
X102695129Y-80479902D02*
X102695129Y-94279902D01*
X225054998Y-65139294D02*
X225054998Y-51339294D01*
X225054998Y-65139294D02*
X238854998Y-65139294D01*
X238854998Y-51339294D02*
X225054998Y-51339294D01*
X238854998Y-51339294D02*
X238854998Y-65139294D01*
X107945130Y-100300407D02*
X107945130Y-86500407D01*
X107945130Y-100300407D02*
X121745130Y-100300407D01*
X121745130Y-86500407D02*
X107945130Y-86500407D01*
X121745130Y-86500407D02*
X121745130Y-100300407D01*
X186954991Y-56139295D02*
X186954991Y-42339295D01*
X186954991Y-56139295D02*
X200754991Y-56139295D01*
X200754991Y-42339295D02*
X186954991Y-42339295D01*
X200754991Y-42339295D02*
X200754991Y-56139295D01*
X69845133Y-100789903D02*
X69845133Y-86989903D01*
X69845133Y-100789903D02*
X83645133Y-100789903D01*
X83645133Y-86989903D02*
X69845133Y-86989903D01*
X83645133Y-86989903D02*
X83645133Y-100789903D01*
X193967125Y-119809776D02*
X193967125Y-106009776D01*
X193967125Y-119809776D02*
X207767125Y-119809776D01*
X207767125Y-106009776D02*
X193967125Y-106009776D01*
X207767125Y-106009776D02*
X207767125Y-119809776D01*
X107945134Y-62180408D02*
X107945134Y-48380408D01*
X107945134Y-62180408D02*
X121745134Y-62180408D01*
X121745134Y-48380408D02*
X107945134Y-48380408D01*
X121745134Y-48380408D02*
X121745134Y-62180408D01*
X88895137Y-56189905D02*
X88895137Y-42389905D01*
X88895137Y-56189905D02*
X102695137Y-56189905D01*
X102695137Y-42389905D02*
X88895137Y-42389905D01*
X102695137Y-42389905D02*
X102695137Y-56189905D01*
X167904999Y-81209793D02*
X167904999Y-67409793D01*
X167904999Y-81209793D02*
X181704999Y-81209793D01*
X181704999Y-67409793D02*
X167904999Y-67409793D01*
X181704999Y-67409793D02*
X181704999Y-81209793D01*
X107945134Y-62190408D02*
X107945134Y-48390408D01*
X107945134Y-62190408D02*
X121745134Y-62190408D01*
X121745134Y-48390408D02*
X107945134Y-48390408D01*
X121745134Y-48390408D02*
X121745134Y-62190408D01*
X148855000Y-93199790D02*
X148855000Y-79399790D01*
X148855000Y-93199790D02*
X162655000Y-93199790D01*
X162655000Y-79399790D02*
X148855000Y-79399790D01*
X162655000Y-79399790D02*
X162655000Y-93199790D01*
X186954995Y-75199298D02*
X186954995Y-61399298D01*
X186954995Y-75199298D02*
X200754995Y-75199298D01*
X200754995Y-61399298D02*
X186954995Y-61399298D01*
X200754995Y-61399298D02*
X200754995Y-75199298D01*
X50795127Y-103299905D02*
X50795127Y-89499905D01*
X50795127Y-103299905D02*
X64595127Y-103299905D01*
X64595127Y-89499905D02*
X50795127Y-89499905D01*
X64595127Y-89499905D02*
X64595127Y-103299905D01*
X50795130Y-65199904D02*
X50795130Y-51399904D01*
X50795130Y-65199904D02*
X64595130Y-65199904D01*
X64595130Y-51399904D02*
X50795130Y-51399904D01*
X64595130Y-51399904D02*
X64595130Y-65199904D01*
X225055000Y-84209296D02*
X225055000Y-70409296D01*
X225055000Y-84209296D02*
X238855000Y-84209296D01*
X238855000Y-70409296D02*
X225055000Y-70409296D01*
X238855000Y-70409296D02*
X238855000Y-84209296D01*
X69845133Y-100799903D02*
X69845133Y-86999903D01*
X69845133Y-100799903D02*
X83645133Y-100799903D01*
X83645133Y-86999903D02*
X69845133Y-86999903D01*
X83645133Y-86999903D02*
X83645133Y-100799903D01*
X148855000Y-93209790D02*
X148855000Y-79409790D01*
X148855000Y-93209790D02*
X162655000Y-93209790D01*
X162655000Y-79409790D02*
X148855000Y-79409790D01*
X162655000Y-79409790D02*
X162655000Y-93209790D01*
X167904994Y-62149798D02*
X167904994Y-48349798D01*
X167904994Y-62149798D02*
X181704994Y-62149798D01*
X181704994Y-48349798D02*
X167904994Y-48349798D01*
X181704994Y-48349798D02*
X181704994Y-62149798D01*
X186954991Y-56149295D02*
X186954991Y-42349295D01*
X186954991Y-56149295D02*
X200754991Y-56149295D01*
X200754991Y-42349295D02*
X186954991Y-42349295D01*
X200754991Y-42349295D02*
X200754991Y-56149295D01*
X186954999Y-94249292D02*
X186954999Y-80449292D01*
X186954999Y-94249292D02*
X200754999Y-94249292D01*
X200754999Y-80449292D02*
X186954999Y-80449292D01*
X200754999Y-80449292D02*
X200754999Y-94249292D01*
X126995137Y-74200406D02*
X126995137Y-60400406D01*
X126995137Y-74200406D02*
X140795137Y-74200406D01*
X140795137Y-60400406D02*
X126995137Y-60400406D01*
X140795137Y-60400406D02*
X140795137Y-74200406D01*
X107945129Y-81240403D02*
X107945129Y-67440403D01*
X107945129Y-81240403D02*
X121745129Y-81240403D01*
X121745129Y-67440403D02*
X107945129Y-67440403D01*
X121745129Y-67440403D02*
X121745129Y-81240403D01*
X126995130Y-112280403D02*
X126995130Y-98480403D01*
X126995130Y-112280403D02*
X140795130Y-112280403D01*
X140795130Y-98480403D02*
X126995130Y-98480403D01*
X140795130Y-98480403D02*
X140795130Y-112280403D01*
X206004999Y-81699291D02*
X206004999Y-67899291D01*
X206004999Y-81699291D02*
X219804999Y-81699291D01*
X219804999Y-67899291D02*
X206004999Y-67899291D01*
X219804999Y-67899291D02*
X219804999Y-81699291D01*
X148854998Y-112259793D02*
X148854998Y-98459793D01*
X148854998Y-112259793D02*
X162654998Y-112259793D01*
X162654998Y-98459793D02*
X148854998Y-98459793D01*
X162654998Y-98459793D02*
X162654998Y-112259793D01*
X72473714Y-107289525D02*
X76045417Y-120619301D01*
X72473714Y-107289525D02*
X59143938Y-110861227D01*
X72471126Y-107279865D02*
X76042829Y-120609642D01*
X72471126Y-107279865D02*
X59141349Y-110851568D01*
X69301157Y-112063305D02*
X68472936Y-108972343D01*
X68472936Y-108972343D02*
X63450122Y-110318202D01*
X64278343Y-113409164D02*
X69301157Y-112063305D01*
X64278343Y-113409164D02*
X63450122Y-110318202D01*
X62715640Y-124191004D02*
X76045417Y-120619301D01*
X62715640Y-124191004D02*
X59143938Y-110861227D01*
X62713052Y-124181345D02*
X76042829Y-120609642D01*
X62713052Y-124181345D02*
X59141349Y-110851568D01*
X50375741Y-114493380D02*
X57275741Y-126444531D01*
X50375741Y-114493380D02*
X38424591Y-121393380D01*
X50370741Y-114484720D02*
X57270741Y-126435870D01*
X50370741Y-114484720D02*
X38419591Y-121384720D01*
X45324591Y-133344531D02*
X57275741Y-126444531D01*
X45324591Y-133344531D02*
X38424591Y-121393380D01*
X45319591Y-133335870D02*
X57270741Y-126435870D01*
X45319591Y-133335870D02*
X38419591Y-121384720D01*
M02*
