M48
; DRILL file {KiCad (6.0.10)} date Thu Feb  2 08:57:23 2023
; FORMAT={-:-/ absolute / inch / decimal}
; #@! TF.CreationDate,2023-02-02T08:57:23-03:00
; #@! TF.GenerationSoftware,Kicad,Pcbnew,(6.0.10)
; #@! TF.FileFunction,NonPlated,1,2,NPTH
FMAT,2
INCH
; #@! TA.AperFunction,NonPlated,NPTH,ComponentDrill
T1C0.0197
; #@! TA.AperFunction,NonPlated,NPTH,ComponentDrill
T2C0.0276
; #@! TA.AperFunction,NonPlated,NPTH,ComponentDrill
T3C0.0670
; #@! TA.AperFunction,NonPlated,NPTH,ComponentDrill
T4C0.0748
; #@! TA.AperFunction,NonPlated,NPTH,ComponentDrill
T5C0.1181
; #@! TA.AperFunction,NonPlated,NPTH,ComponentDrill
T6C0.1570
; #@! TA.AperFunction,NonPlated,NPTH,ComponentDrill
T7C0.1614
%
G90
G05
T1
X5.4777Y-3.6011
X5.4777Y-3.6411
X5.4777Y-3.6811
X5.4777Y-3.7211
X5.4777Y-3.7611
X5.4797Y-1.9558
X5.4797Y-1.9958
X5.4797Y-2.0358
X5.4797Y-2.0758
X5.4797Y-2.1158
X5.5577Y-3.6011
X5.5577Y-3.6411
X5.5577Y-3.6811
X5.5577Y-3.7211
X5.5577Y-3.7611
X5.5597Y-1.9558
X5.5597Y-1.9958
X5.5597Y-2.0358
X5.5597Y-2.0758
X5.5597Y-2.1158
T2
X5.4018Y-3.0266
X5.4038Y-2.9085
X5.6386Y-2.9923
X5.6405Y-2.8742
T3
X1.0291Y-2.698
X1.0291Y-4.198
X1.0291Y-3.448
X1.4291Y-2.698
X1.4291Y-4.198
X1.4291Y-3.448
X1.7791Y-2.2256
X1.7791Y-3.7256
X1.7791Y-2.9756
X2.1791Y-2.2256
X2.1791Y-3.7256
X2.1791Y-2.9756
X2.5282Y-2.7398
X2.5291Y-1.9894
X2.5291Y-3.4894
X2.8052Y-4.4953
X2.9282Y-2.7398
X2.9291Y-1.9894
X2.9291Y-3.4894
X3.2052Y-4.4953
X3.2791Y-3.7453
X3.2791Y-2.9953
X3.2791Y-2.2453
X3.6462Y-4.5534
X3.6791Y-3.7453
X3.6791Y-2.9953
X3.6791Y-2.2453
X4.0291Y-2.3437
X4.0291Y-3.0937
X4.0291Y-3.8437
X4.0325Y-4.6569
X4.4291Y-2.3437
X4.4291Y-3.0937
X4.4291Y-3.8437
X4.4435Y-4.8271
X4.7899Y-5.0271
X6.2494Y-5.0184
X6.5958Y-4.8184
X6.6102Y-3.835
X6.6102Y-3.085
X6.6102Y-2.335
X7.0067Y-4.6482
X7.0102Y-3.835
X7.0102Y-3.085
X7.0102Y-2.335
X7.3602Y-2.2366
X7.3602Y-2.9866
X7.3602Y-3.7366
X7.3931Y-4.5447
X7.7602Y-2.2366
X7.7602Y-2.9866
X7.7602Y-3.7366
X7.8341Y-4.4866
X8.1102Y-3.4807
X8.1102Y-1.9807
X8.111Y-2.7311
X8.2341Y-4.4866
X8.5102Y-3.4807
X8.5102Y-1.9807
X8.511Y-2.7311
X8.8602Y-2.9669
X8.8602Y-3.7169
X8.8602Y-2.2169
X9.2602Y-2.9669
X9.2602Y-3.7169
X9.2602Y-2.2169
X9.6102Y-3.4394
X9.6102Y-4.1894
X9.6102Y-2.6894
X10.0102Y-3.4394
X10.0102Y-4.1894
X10.0102Y-2.6894
T4
X1.0291Y-2.6977
X1.0291Y-4.1977
X1.0291Y-3.4477
X1.4291Y-2.6977
X1.4291Y-4.1977
X1.4291Y-3.4477
X1.7791Y-2.2252
X1.7791Y-3.7252
X1.7791Y-2.9752
X2.1791Y-2.2252
X2.1791Y-3.7252
X2.1791Y-2.9752
X2.5282Y-2.7394
X2.5291Y-1.989
X2.5291Y-3.489
X2.8052Y-4.4949
X2.9282Y-2.7394
X2.9291Y-1.989
X2.9291Y-3.489
X3.2052Y-4.4949
X3.2791Y-3.7449
X3.2791Y-2.9949
X3.2791Y-2.2449
X3.6463Y-4.553
X3.6463Y-4.553
X3.6791Y-3.7449
X3.6791Y-2.9949
X3.6791Y-2.2449
X4.0291Y-2.3433
X4.0291Y-3.0933
X4.0291Y-3.8433
X4.0326Y-4.6565
X4.0326Y-4.6565
X4.4291Y-2.3433
X4.4291Y-3.0933
X4.4291Y-3.8433
X4.4437Y-4.8268
X4.4437Y-4.8268
X4.7901Y-5.0268
X4.7901Y-5.0268
X6.2492Y-5.0181
X6.2492Y-5.0181
X6.5956Y-4.8181
X6.5956Y-4.8181
X6.6102Y-3.8346
X6.6102Y-3.0846
X6.6102Y-2.3346
X7.0066Y-4.6478
X7.0066Y-4.6478
X7.0102Y-3.8346
X7.0102Y-3.0846
X7.0102Y-2.3346
X7.3602Y-2.2362
X7.3602Y-2.9862
X7.3602Y-3.7362
X7.393Y-4.5443
X7.393Y-4.5443
X7.7602Y-2.2362
X7.7602Y-2.9862
X7.7602Y-3.7362
X7.8341Y-4.4862
X8.1102Y-3.4803
X8.1102Y-1.9803
X8.111Y-2.7307
X8.2341Y-4.4862
X8.5102Y-3.4803
X8.5102Y-1.9803
X8.511Y-2.7307
X8.8602Y-2.9665
X8.8602Y-3.7165
X8.8602Y-2.2165
X9.2602Y-2.9665
X9.2602Y-3.7165
X9.2602Y-2.2165
X9.6102Y-3.439
X9.6102Y-4.189
X9.6102Y-2.689
X10.0102Y-3.439
X10.0102Y-4.189
X10.0102Y-2.689
T5
X1.0791Y-2.598
X1.0791Y-4.098
X1.0791Y-3.348
X1.3291Y-2.498
X1.3291Y-3.998
X1.3291Y-3.248
X1.8291Y-2.1256
X1.8291Y-3.6256
X1.8291Y-2.8756
X2.0791Y-2.0256
X2.0791Y-3.5256
X2.0791Y-2.7756
X2.5782Y-2.6398
X2.5791Y-1.8894
X2.5791Y-3.3894
X2.8282Y-2.5398
X2.8291Y-1.7894
X2.8291Y-3.2894
X2.8552Y-4.3953
X3.1052Y-4.2953
X3.3291Y-3.6453
X3.3291Y-2.8953
X3.3291Y-2.1453
X3.5791Y-3.5453
X3.5791Y-2.7953
X3.5791Y-2.0453
X3.7203Y-4.4697
X3.9877Y-4.4378
X4.0791Y-2.2437
X4.0791Y-2.9937
X4.0791Y-3.7437
X4.3291Y-2.1437
X4.3291Y-2.8937
X4.3291Y-3.6437
X4.5368Y-4.7655
X4.8033Y-4.8039
X6.2427Y-4.9068
X6.4092Y-4.6952
X6.6602Y-3.735
X6.6602Y-2.985
X6.6602Y-2.235
X6.9102Y-3.635
X6.9102Y-2.885
X6.9102Y-2.135
X7.0291Y-4.5387
X7.2447Y-4.3774
X7.4102Y-2.1366
X7.4102Y-2.8866
X7.4102Y-3.6366
X7.6602Y-2.0366
X7.6602Y-2.7866
X7.6602Y-3.5366
X7.8841Y-4.3866
X8.1341Y-4.2866
X8.1602Y-3.3807
X8.1602Y-1.8807
X8.161Y-2.6311
X8.4102Y-3.2807
X8.4102Y-1.7807
X8.411Y-2.5311
X8.9102Y-2.8669
X8.9102Y-3.6169
X8.9102Y-2.1169
X9.1602Y-2.7669
X9.1602Y-3.5169
X9.1602Y-2.0169
X9.6602Y-3.3394
X9.6602Y-4.0894
X9.6602Y-2.5894
X9.9102Y-3.2394
X9.9102Y-3.9894
X9.9102Y-2.4894
T6
X1.2291Y-2.698
X1.2291Y-4.198
X1.2291Y-3.448
X1.9791Y-2.2256
X1.9791Y-3.7256
X1.9791Y-2.9756
X2.7282Y-2.7398
X2.7291Y-1.9894
X2.7291Y-3.4894
X3.0052Y-4.4953
X3.4791Y-3.7453
X3.4791Y-2.9953
X3.4791Y-2.2453
X3.8393Y-4.6051
X4.2291Y-2.3437
X4.2291Y-3.0937
X4.2291Y-3.8437
X4.6167Y-4.9271
X6.4226Y-4.9184
X6.8102Y-3.835
X6.8102Y-3.085
X6.8102Y-2.335
X7.1999Y-4.5964
X7.5602Y-2.2366
X7.5602Y-2.9866
X7.5602Y-3.7366
X8.0341Y-4.4866
X8.3102Y-3.4807
X8.3102Y-1.9807
X8.311Y-2.7311
X9.0602Y-2.9669
X9.0602Y-3.7169
X9.0602Y-2.2169
X9.8102Y-3.4394
X9.8102Y-4.1894
X9.8102Y-2.6894
T7
X1.2291Y-2.6977
X1.2291Y-4.1977
X1.2291Y-3.4477
X1.9791Y-2.2252
X1.9791Y-3.7252
X1.9791Y-2.9752
X2.7282Y-2.7394
X2.7291Y-1.989
X2.7291Y-3.489
X3.0052Y-4.4949
X3.4791Y-3.7449
X3.4791Y-2.9949
X3.4791Y-2.2449
X3.8394Y-4.6047
X3.8394Y-4.6047
X4.2291Y-2.3433
X4.2291Y-3.0933
X4.2291Y-3.8433
X4.6169Y-4.9268
X4.6169Y-4.9268
X6.4224Y-4.9181
X6.4224Y-4.9181
X6.8102Y-3.8346
X6.8102Y-3.0846
X6.8102Y-2.3346
X7.1998Y-4.5961
X7.1998Y-4.5961
X7.5602Y-2.2362
X7.5602Y-2.9862
X7.5602Y-3.7362
X8.0341Y-4.4862
X8.3102Y-3.4803
X8.3102Y-1.9803
X8.311Y-2.7307
X9.0602Y-2.9665
X9.0602Y-3.7165
X9.0602Y-2.2165
X9.8102Y-3.439
X9.8102Y-4.189
X9.8102Y-2.689
T0
M30
