G04 #@! TF.GenerationSoftware,KiCad,Pcbnew,(6.0.10)*
G04 #@! TF.CreationDate,2023-02-02T08:57:34-03:00*
G04 #@! TF.ProjectId,pulso novo,70756c73-6f20-46e6-9f76-6f2e6b696361,0.2*
G04 #@! TF.SameCoordinates,Original*
G04 #@! TF.FileFunction,OtherDrawing,Comment*
%FSLAX46Y46*%
G04 Gerber Fmt 4.6, Leading zero omitted, Abs format (unit mm)*
G04 Created by KiCad (PCBNEW (6.0.10)) date 2023-02-02 08:57:34*
%MOMM*%
%LPD*%
G01*
G04 APERTURE LIST*
%ADD10C,0.150000*%
%ADD11C,0.120000*%
%ADD12C,0.060000*%
%ADD13C,0.050000*%
G04 APERTURE END LIST*
D10*
X78821665Y-60055701D02*
X78821665Y-79105701D01*
X59771665Y-60055701D02*
X78821665Y-60055701D01*
X62296665Y-75580701D02*
X62296665Y-76580701D01*
X76296665Y-76580701D02*
X76296665Y-75580701D01*
X76296665Y-62580701D02*
X76296665Y-63580701D01*
X59771665Y-79105701D02*
X59771665Y-60055701D01*
X75296665Y-76580701D02*
X76296665Y-76580701D01*
X62296665Y-62580701D02*
X63296665Y-62580701D01*
X62296665Y-76580701D02*
X63296665Y-76580701D01*
X78821665Y-79105701D02*
X59771665Y-79105701D01*
X76296665Y-62580701D02*
X75296665Y-62580701D01*
X62296665Y-63580701D02*
X62296665Y-62580701D01*
D11*
X141669480Y-71253600D02*
X144569480Y-71253600D01*
X144569480Y-71253600D02*
X144569480Y-78003600D01*
X144569480Y-78003600D02*
X141669480Y-78003600D01*
X141669480Y-78003600D02*
X141669480Y-71253600D01*
D10*
X258702903Y-96874699D02*
X258702903Y-115924699D01*
X239652903Y-96874699D02*
X258702903Y-96874699D01*
X242177903Y-112399699D02*
X242177903Y-113399699D01*
X256177903Y-113399699D02*
X256177903Y-112399699D01*
X256177903Y-99399699D02*
X256177903Y-100399699D01*
X239652903Y-115924699D02*
X239652903Y-96874699D01*
X255177903Y-113399699D02*
X256177903Y-113399699D01*
X242177903Y-99399699D02*
X243177903Y-99399699D01*
X242177903Y-113399699D02*
X243177903Y-113399699D01*
X258702903Y-115924699D02*
X239652903Y-115924699D01*
X256177903Y-99399699D02*
X255177903Y-99399699D01*
X242177903Y-100399699D02*
X242177903Y-99399699D01*
X97893704Y-47494867D02*
X97893704Y-66544867D01*
X78843704Y-47494867D02*
X97893704Y-47494867D01*
X81368704Y-63019867D02*
X81368704Y-64019867D01*
X95368704Y-64019867D02*
X95368704Y-63019867D01*
X95368704Y-50019867D02*
X95368704Y-51019867D01*
X78843704Y-66544867D02*
X78843704Y-47494867D01*
X94368704Y-64019867D02*
X95368704Y-64019867D01*
X81368704Y-50019867D02*
X82368704Y-50019867D01*
X81368704Y-64019867D02*
X82368704Y-64019867D01*
X97893704Y-66544867D02*
X78843704Y-66544867D01*
X95368704Y-50019867D02*
X94368704Y-50019867D01*
X81368704Y-51019867D02*
X81368704Y-50019867D01*
X116943705Y-88094863D02*
X116943705Y-107144863D01*
X97893705Y-88094863D02*
X116943705Y-88094863D01*
X100418705Y-103619863D02*
X100418705Y-104619863D01*
X114418705Y-104619863D02*
X114418705Y-103619863D01*
X114418705Y-90619863D02*
X114418705Y-91619863D01*
X97893705Y-107144863D02*
X97893705Y-88094863D01*
X113418705Y-104619863D02*
X114418705Y-104619863D01*
X100418705Y-90619863D02*
X101418705Y-90619863D01*
X100418705Y-104619863D02*
X101418705Y-104619863D01*
X116943705Y-107144863D02*
X97893705Y-107144863D01*
X114418705Y-90619863D02*
X113418705Y-90619863D01*
X100418705Y-91619863D02*
X100418705Y-90619863D01*
X182502901Y-68824202D02*
X182502901Y-87874202D01*
X163452901Y-68824202D02*
X182502901Y-68824202D01*
X165977901Y-84349202D02*
X165977901Y-85349202D01*
X179977901Y-85349202D02*
X179977901Y-84349202D01*
X179977901Y-71349202D02*
X179977901Y-72349202D01*
X163452901Y-87874202D02*
X163452901Y-68824202D01*
X178977901Y-85349202D02*
X179977901Y-85349202D01*
X165977901Y-71349202D02*
X166977901Y-71349202D01*
X165977901Y-85349202D02*
X166977901Y-85349202D01*
X182502901Y-87874202D02*
X163452901Y-87874202D01*
X179977901Y-71349202D02*
X178977901Y-71349202D01*
X165977901Y-72349202D02*
X165977901Y-71349202D01*
D11*
X131246862Y-52464888D02*
X133024862Y-52464888D01*
X133024862Y-52464888D02*
X133024862Y-55131888D01*
X133024862Y-55131888D02*
X131246862Y-55131888D01*
X131246862Y-55131888D02*
X131246862Y-52464888D01*
X124388854Y-51067888D02*
X122610854Y-51067888D01*
X122610854Y-51067888D02*
X122610854Y-48400888D01*
X122610854Y-48400888D02*
X124388854Y-48400888D01*
X124388854Y-48400888D02*
X124388854Y-51067888D01*
X119006665Y-69750701D02*
X136786665Y-69750701D01*
X136786665Y-69750701D02*
X136786665Y-48750701D01*
X136786665Y-48750701D02*
X119006665Y-48750701D01*
X119006665Y-48750701D02*
X119006665Y-69750701D01*
X131246862Y-48400888D02*
X133024862Y-48400888D01*
X133024862Y-48400888D02*
X133024862Y-51067888D01*
X133024862Y-51067888D02*
X131246862Y-51067888D01*
X131246862Y-51067888D02*
X131246862Y-48400888D01*
X122610854Y-52464888D02*
X124388854Y-52464888D01*
X124388854Y-52464888D02*
X124388854Y-55131888D01*
X124388854Y-55131888D02*
X122610854Y-55131888D01*
X122610854Y-55131888D02*
X122610854Y-52464888D01*
X138806665Y-78625701D02*
X135906665Y-78625701D01*
X135906665Y-78625701D02*
X135906665Y-71875701D01*
X135906665Y-71875701D02*
X138806665Y-71875701D01*
X138806665Y-71875701D02*
X138806665Y-78625701D01*
D10*
X220602902Y-78874198D02*
X220602902Y-97924198D01*
X201552902Y-78874198D02*
X220602902Y-78874198D01*
X204077902Y-94399198D02*
X204077902Y-95399198D01*
X218077902Y-95399198D02*
X218077902Y-94399198D01*
X218077902Y-81399198D02*
X218077902Y-82399198D01*
X201552902Y-97924198D02*
X201552902Y-78874198D01*
X217077902Y-95399198D02*
X218077902Y-95399198D01*
X204077902Y-81399198D02*
X205077902Y-81399198D01*
X204077902Y-95399198D02*
X205077902Y-95399198D01*
X220602902Y-97924198D02*
X201552902Y-97924198D01*
X218077902Y-81399198D02*
X217077902Y-81399198D01*
X204077902Y-82399198D02*
X204077902Y-81399198D01*
X97893699Y-85594861D02*
X97893699Y-104644861D01*
X78843699Y-85594861D02*
X97893699Y-85594861D01*
X81368699Y-101119861D02*
X81368699Y-102119861D01*
X95368699Y-102119861D02*
X95368699Y-101119861D01*
X95368699Y-88119861D02*
X95368699Y-89119861D01*
X78843699Y-104644861D02*
X78843699Y-85594861D01*
X94368699Y-102119861D02*
X95368699Y-102119861D01*
X81368699Y-88119861D02*
X82368699Y-88119861D01*
X81368699Y-102119861D02*
X82368699Y-102119861D01*
X97893699Y-104644861D02*
X78843699Y-104644861D01*
X95368699Y-88119861D02*
X94368699Y-88119861D01*
X81368699Y-89119861D02*
X81368699Y-88119861D01*
X97893703Y-66544859D02*
X97893703Y-85594859D01*
X78843703Y-66544859D02*
X97893703Y-66544859D01*
X81368703Y-82069859D02*
X81368703Y-83069859D01*
X95368703Y-83069859D02*
X95368703Y-82069859D01*
X95368703Y-69069859D02*
X95368703Y-70069859D01*
X78843703Y-85594859D02*
X78843703Y-66544859D01*
X94368703Y-83069859D02*
X95368703Y-83069859D01*
X81368703Y-69069859D02*
X82368703Y-69069859D01*
X81368703Y-83069859D02*
X82368703Y-83069859D01*
X97893703Y-85594859D02*
X78843703Y-85594859D01*
X95368703Y-69069859D02*
X94368703Y-69069859D01*
X81368703Y-70069859D02*
X81368703Y-69069859D01*
X201552901Y-47274205D02*
X201552901Y-66324205D01*
X182502901Y-47274205D02*
X201552901Y-47274205D01*
X185027901Y-62799205D02*
X185027901Y-63799205D01*
X199027901Y-63799205D02*
X199027901Y-62799205D01*
X199027901Y-49799205D02*
X199027901Y-50799205D01*
X182502901Y-66324205D02*
X182502901Y-47274205D01*
X198027901Y-63799205D02*
X199027901Y-63799205D01*
X185027901Y-49799205D02*
X186027901Y-49799205D01*
X185027901Y-63799205D02*
X186027901Y-63799205D01*
X201552901Y-66324205D02*
X182502901Y-66324205D01*
X199027901Y-49799205D02*
X198027901Y-49799205D01*
X185027901Y-50799205D02*
X185027901Y-49799205D01*
X258702901Y-77824696D02*
X258702901Y-96874696D01*
X239652901Y-77824696D02*
X258702901Y-77824696D01*
X242177901Y-93349696D02*
X242177901Y-94349696D01*
X256177901Y-94349696D02*
X256177901Y-93349696D01*
X256177901Y-80349696D02*
X256177901Y-81349696D01*
X239652901Y-96874696D02*
X239652901Y-77824696D01*
X255177901Y-94349696D02*
X256177901Y-94349696D01*
X242177901Y-80349696D02*
X243177901Y-80349696D01*
X242177901Y-94349696D02*
X243177901Y-94349696D01*
X258702901Y-96874696D02*
X239652901Y-96874696D01*
X256177901Y-80349696D02*
X255177901Y-80349696D01*
X242177901Y-81349696D02*
X242177901Y-80349696D01*
X201552902Y-66324197D02*
X201552902Y-85374197D01*
X182502902Y-66324197D02*
X201552902Y-66324197D01*
X185027902Y-81849197D02*
X185027902Y-82849197D01*
X199027902Y-82849197D02*
X199027902Y-81849197D01*
X199027902Y-68849197D02*
X199027902Y-69849197D01*
X182502902Y-85374197D02*
X182502902Y-66324197D01*
X198027902Y-82849197D02*
X199027902Y-82849197D01*
X185027902Y-68849197D02*
X186027902Y-68849197D01*
X185027902Y-82849197D02*
X186027902Y-82849197D01*
X201552902Y-85374197D02*
X182502902Y-85374197D01*
X199027902Y-68849197D02*
X198027902Y-68849197D01*
X185027902Y-69849197D02*
X185027902Y-68849197D01*
X104257274Y-128626645D02*
X113782274Y-112128861D01*
X113782274Y-112128861D02*
X130280058Y-121653861D01*
X126830844Y-122578075D02*
X125964818Y-122078075D01*
X104257274Y-128626645D02*
X113782274Y-112128861D01*
X107706488Y-127702431D02*
X108572514Y-128202431D01*
X108206488Y-126836405D02*
X107706488Y-127702431D01*
X108206488Y-126836405D02*
X107706488Y-127702431D01*
X114706488Y-115578075D02*
X115572514Y-116078075D01*
X120755058Y-138151645D02*
X104257274Y-128626645D01*
X130280058Y-121653861D02*
X120755058Y-138151645D01*
X114206488Y-116444101D02*
X114706488Y-115578075D01*
X119830844Y-134702431D02*
X120330844Y-133836405D01*
X120755058Y-138151645D02*
X104257274Y-128626645D01*
X126830844Y-122578075D02*
X125964818Y-122078075D01*
X114206488Y-116444101D02*
X114706488Y-115578075D01*
X119830844Y-134702431D02*
X120330844Y-133836405D01*
X114706488Y-115578075D02*
X115572514Y-116078075D01*
X118964818Y-134202431D02*
X119830844Y-134702431D01*
X126830844Y-122578075D02*
X126330844Y-123444101D01*
X107706488Y-127702431D02*
X108572514Y-128202431D01*
X113782274Y-112128861D02*
X130280058Y-121653861D01*
X126830844Y-122578075D02*
X126330844Y-123444101D01*
X118964818Y-134202431D02*
X119830844Y-134702431D01*
X130280058Y-121653861D02*
X120755058Y-138151645D01*
X213590776Y-104424682D02*
X213590776Y-123474682D01*
X194540776Y-104424682D02*
X213590776Y-104424682D01*
X197065776Y-119949682D02*
X197065776Y-120949682D01*
X211065776Y-120949682D02*
X211065776Y-119949682D01*
X211065776Y-106949682D02*
X211065776Y-107949682D01*
X194540776Y-123474682D02*
X194540776Y-104424682D01*
X210065776Y-120949682D02*
X211065776Y-120949682D01*
X197065776Y-106949682D02*
X198065776Y-106949682D01*
X197065776Y-120949682D02*
X198065776Y-120949682D01*
X213590776Y-123474682D02*
X194540776Y-123474682D01*
X211065776Y-106949682D02*
X210065776Y-106949682D01*
X197065776Y-107949682D02*
X197065776Y-106949682D01*
X40743695Y-58995364D02*
X40743695Y-78045364D01*
X21693695Y-58995364D02*
X40743695Y-58995364D01*
X24218695Y-74520364D02*
X24218695Y-75520364D01*
X38218695Y-75520364D02*
X38218695Y-74520364D01*
X38218695Y-61520364D02*
X38218695Y-62520364D01*
X21693695Y-78045364D02*
X21693695Y-58995364D01*
X37218695Y-75520364D02*
X38218695Y-75520364D01*
X24218695Y-61520364D02*
X25218695Y-61520364D01*
X24218695Y-75520364D02*
X25218695Y-75520364D01*
X40743695Y-78045364D02*
X21693695Y-78045364D01*
X38218695Y-61520364D02*
X37218695Y-61520364D01*
X24218695Y-62520364D02*
X24218695Y-61520364D01*
X116943702Y-49994862D02*
X116943702Y-69044862D01*
X97893702Y-49994862D02*
X116943702Y-49994862D01*
X100418702Y-65519862D02*
X100418702Y-66519862D01*
X114418702Y-66519862D02*
X114418702Y-65519862D01*
X114418702Y-52519862D02*
X114418702Y-53519862D01*
X97893702Y-69044862D02*
X97893702Y-49994862D01*
X113418702Y-66519862D02*
X114418702Y-66519862D01*
X100418702Y-52519862D02*
X101418702Y-52519862D01*
X100418702Y-66519862D02*
X101418702Y-66519862D01*
X116943702Y-69044862D02*
X97893702Y-69044862D01*
X114418702Y-52519862D02*
X113418702Y-52519862D01*
X100418702Y-53519862D02*
X100418702Y-52519862D01*
X59793702Y-85095365D02*
X59793702Y-104145365D01*
X40743702Y-85095365D02*
X59793702Y-85095365D01*
X43268702Y-100620365D02*
X43268702Y-101620365D01*
X57268702Y-101620365D02*
X57268702Y-100620365D01*
X57268702Y-87620365D02*
X57268702Y-88620365D01*
X40743702Y-104145365D02*
X40743702Y-85095365D01*
X56268702Y-101620365D02*
X57268702Y-101620365D01*
X43268702Y-87620365D02*
X44268702Y-87620365D01*
X43268702Y-101620365D02*
X44268702Y-101620365D01*
X59793702Y-104145365D02*
X40743702Y-104145365D01*
X57268702Y-87620365D02*
X56268702Y-87620365D01*
X43268702Y-88620365D02*
X43268702Y-87620365D01*
X78843703Y-79094860D02*
X78843703Y-98144860D01*
X59793703Y-79094860D02*
X78843703Y-79094860D01*
X62318703Y-94619860D02*
X62318703Y-95619860D01*
X76318703Y-95619860D02*
X76318703Y-94619860D01*
X76318703Y-81619860D02*
X76318703Y-82619860D01*
X59793703Y-98144860D02*
X59793703Y-79094860D01*
X75318703Y-95619860D02*
X76318703Y-95619860D01*
X62318703Y-81619860D02*
X63318703Y-81619860D01*
X62318703Y-95619860D02*
X63318703Y-95619860D01*
X78843703Y-98144860D02*
X59793703Y-98144860D01*
X76318703Y-81619860D02*
X75318703Y-81619860D01*
X62318703Y-82619860D02*
X62318703Y-81619860D01*
X220624940Y-59835039D02*
X220624940Y-78885039D01*
X201574940Y-59835039D02*
X220624940Y-59835039D01*
X204099940Y-75360039D02*
X204099940Y-76360039D01*
X218099940Y-76360039D02*
X218099940Y-75360039D01*
X218099940Y-62360039D02*
X218099940Y-63360039D01*
X201574940Y-78885039D02*
X201574940Y-59835039D01*
X217099940Y-76360039D02*
X218099940Y-76360039D01*
X204099940Y-62360039D02*
X205099940Y-62360039D01*
X204099940Y-76360039D02*
X205099940Y-76360039D01*
X220624940Y-78885039D02*
X201574940Y-78885039D01*
X218099940Y-62360039D02*
X217099940Y-62360039D01*
X204099940Y-63360039D02*
X204099940Y-62360039D01*
X162749940Y-91330039D02*
G75*
G03*
X162749940Y-91330039I-10250000J0D01*
G01*
X239652902Y-65824699D02*
X239652902Y-84874699D01*
X220602902Y-65824699D02*
X239652902Y-65824699D01*
X223127902Y-81349699D02*
X223127902Y-82349699D01*
X237127902Y-82349699D02*
X237127902Y-81349699D01*
X237127902Y-68349699D02*
X237127902Y-69349699D01*
X220602902Y-84874699D02*
X220602902Y-65824699D01*
X236127902Y-82349699D02*
X237127902Y-82349699D01*
X223127902Y-68349699D02*
X224127902Y-68349699D01*
X223127902Y-82349699D02*
X224127902Y-82349699D01*
X239652902Y-84874699D02*
X220602902Y-84874699D01*
X237127902Y-68349699D02*
X236127902Y-68349699D01*
X223127902Y-69349699D02*
X223127902Y-68349699D01*
X102471490Y-125533777D02*
X102730310Y-124567851D01*
X89207348Y-120944385D02*
X88948529Y-121910310D01*
X106094957Y-112010816D02*
X105129031Y-111751996D01*
X90786551Y-105294868D02*
X109187438Y-110225371D01*
X85856048Y-123695755D02*
X90786551Y-105294868D01*
X109187438Y-110225371D02*
X104256935Y-128626258D01*
X102471490Y-125533777D02*
X102730310Y-124567851D01*
X101505565Y-125274958D02*
X102471490Y-125533777D01*
X88948529Y-121910310D02*
X89914455Y-122169130D01*
X106094957Y-112010816D02*
X105836138Y-112976741D01*
X106094957Y-112010816D02*
X105129031Y-111751996D01*
X104256935Y-128626258D02*
X85856048Y-123695755D01*
X92313176Y-109353275D02*
X92571996Y-108387349D01*
X92313176Y-109353275D02*
X92571996Y-108387349D01*
X106094957Y-112010816D02*
X105836138Y-112976741D01*
X92571996Y-108387349D02*
X93537921Y-108646168D01*
X104256935Y-128626258D02*
X85856048Y-123695755D01*
X109187438Y-110225371D02*
X104256935Y-128626258D01*
X85856048Y-123695755D02*
X90786551Y-105294868D01*
X90786551Y-105294868D02*
X109187438Y-110225371D01*
X88948529Y-121910310D02*
X89914455Y-122169130D01*
X92571996Y-108387349D02*
X93537921Y-108646168D01*
X101505565Y-125274958D02*
X102471490Y-125533777D01*
X89207348Y-120944385D02*
X88948529Y-121910310D01*
X239652903Y-84874703D02*
X239652903Y-103924703D01*
X220602903Y-84874703D02*
X239652903Y-84874703D01*
X223127903Y-100399703D02*
X223127903Y-101399703D01*
X237127903Y-101399703D02*
X237127903Y-100399703D01*
X237127903Y-87399703D02*
X237127903Y-88399703D01*
X220602903Y-103924703D02*
X220602903Y-84874703D01*
X236127903Y-101399703D02*
X237127903Y-101399703D01*
X223127903Y-87399703D02*
X224127903Y-87399703D01*
X223127903Y-101399703D02*
X224127903Y-101399703D01*
X239652903Y-103924703D02*
X220602903Y-103924703D01*
X237127903Y-87399703D02*
X236127903Y-87399703D01*
X223127903Y-88399703D02*
X223127903Y-87399703D01*
X85855829Y-104645344D02*
X85855829Y-123695344D01*
X66805829Y-104645344D02*
X85855829Y-104645344D01*
X69330829Y-120170344D02*
X69330829Y-121170344D01*
X83330829Y-121170344D02*
X83330829Y-120170344D01*
X83330829Y-107170344D02*
X83330829Y-108170344D01*
X66805829Y-123695344D02*
X66805829Y-104645344D01*
X82330829Y-121170344D02*
X83330829Y-121170344D01*
X69330829Y-107170344D02*
X70330829Y-107170344D01*
X69330829Y-121170344D02*
X70330829Y-121170344D01*
X85855829Y-123695344D02*
X66805829Y-123695344D01*
X83330829Y-107170344D02*
X82330829Y-107170344D01*
X69330829Y-108170344D02*
X69330829Y-107170344D01*
D11*
X155850137Y-52244226D02*
X157628137Y-52244226D01*
X157628137Y-52244226D02*
X157628137Y-54911226D01*
X157628137Y-54911226D02*
X155850137Y-54911226D01*
X155850137Y-54911226D02*
X155850137Y-52244226D01*
X148992129Y-50847226D02*
X147214129Y-50847226D01*
X147214129Y-50847226D02*
X147214129Y-48180226D01*
X147214129Y-48180226D02*
X148992129Y-48180226D01*
X148992129Y-48180226D02*
X148992129Y-50847226D01*
X143609940Y-69530039D02*
X161389940Y-69530039D01*
X161389940Y-69530039D02*
X161389940Y-48530039D01*
X161389940Y-48530039D02*
X143609940Y-48530039D01*
X143609940Y-48530039D02*
X143609940Y-69530039D01*
X155850137Y-48180226D02*
X157628137Y-48180226D01*
X157628137Y-48180226D02*
X157628137Y-50847226D01*
X157628137Y-50847226D02*
X155850137Y-50847226D01*
X155850137Y-50847226D02*
X155850137Y-48180226D01*
X147214129Y-52244226D02*
X148992129Y-52244226D01*
X148992129Y-52244226D02*
X148992129Y-54911226D01*
X148992129Y-54911226D02*
X147214129Y-54911226D01*
X147214129Y-54911226D02*
X147214129Y-52244226D01*
D10*
X220602910Y-40774201D02*
X220602910Y-59824201D01*
X201552910Y-40774201D02*
X220602910Y-40774201D01*
X204077910Y-56299201D02*
X204077910Y-57299201D01*
X218077910Y-57299201D02*
X218077910Y-56299201D01*
X218077910Y-43299201D02*
X218077910Y-44299201D01*
X201552910Y-59824201D02*
X201552910Y-40774201D01*
X217077910Y-57299201D02*
X218077910Y-57299201D01*
X204077910Y-43299201D02*
X205077910Y-43299201D01*
X204077910Y-57299201D02*
X205077910Y-57299201D01*
X220602910Y-59824201D02*
X201552910Y-59824201D01*
X218077910Y-43299201D02*
X217077910Y-43299201D01*
X204077910Y-44299201D02*
X204077910Y-43299201D01*
X59793703Y-66045361D02*
X59793703Y-85095361D01*
X40743703Y-66045361D02*
X59793703Y-66045361D01*
X43268703Y-81570361D02*
X43268703Y-82570361D01*
X57268703Y-82570361D02*
X57268703Y-81570361D01*
X57268703Y-68570361D02*
X57268703Y-69570361D01*
X40743703Y-85095361D02*
X40743703Y-66045361D01*
X56268703Y-82570361D02*
X57268703Y-82570361D01*
X43268703Y-68570361D02*
X44268703Y-68570361D01*
X43268703Y-82570361D02*
X44268703Y-82570361D01*
X59793703Y-85095361D02*
X40743703Y-85095361D01*
X57268703Y-68570361D02*
X56268703Y-68570361D01*
X43268703Y-69570361D02*
X43268703Y-68570361D01*
X138146665Y-91550701D02*
G75*
G03*
X138146665Y-91550701I-10250000J0D01*
G01*
X239652907Y-46774704D02*
X239652907Y-65824704D01*
X220602907Y-46774704D02*
X239652907Y-46774704D01*
X223127907Y-62299704D02*
X223127907Y-63299704D01*
X237127907Y-63299704D02*
X237127907Y-62299704D01*
X237127907Y-49299704D02*
X237127907Y-50299704D01*
X220602907Y-65824704D02*
X220602907Y-46774704D01*
X236127907Y-63299704D02*
X237127907Y-63299704D01*
X223127907Y-49299704D02*
X224127907Y-49299704D01*
X223127907Y-63299704D02*
X224127907Y-63299704D01*
X239652907Y-65824704D02*
X220602907Y-65824704D01*
X237127907Y-49299704D02*
X236127907Y-49299704D01*
X223127907Y-50299704D02*
X223127907Y-49299704D01*
X182502900Y-87874201D02*
X182502900Y-106924201D01*
X163452900Y-87874201D02*
X182502900Y-87874201D01*
X165977900Y-103399201D02*
X165977900Y-104399201D01*
X179977900Y-104399201D02*
X179977900Y-103399201D01*
X179977900Y-90399201D02*
X179977900Y-91399201D01*
X163452900Y-106924201D02*
X163452900Y-87874201D01*
X178977900Y-104399201D02*
X179977900Y-104399201D01*
X165977900Y-90399201D02*
X166977900Y-90399201D01*
X165977900Y-104399201D02*
X166977900Y-104399201D01*
X182502900Y-106924201D02*
X163452900Y-106924201D01*
X179977900Y-90399201D02*
X178977900Y-90399201D01*
X165977900Y-91399201D02*
X165977900Y-90399201D01*
D12*
X138880000Y-96040000D02*
X138880000Y-90960000D01*
X141420000Y-90960000D02*
X141420000Y-96040000D01*
X138880000Y-96040000D02*
X141420000Y-96040000D01*
X138880000Y-90960000D02*
X141420000Y-90960000D01*
D13*
X140210000Y-90579000D02*
G75*
G03*
X140210000Y-90579000I-60000J0D01*
G01*
X140210000Y-96421000D02*
G75*
G03*
X140210000Y-96421000I-60000J0D01*
G01*
D10*
X182502903Y-49774200D02*
X182502903Y-68824200D01*
X163452903Y-49774200D02*
X182502903Y-49774200D01*
X165977903Y-65299200D02*
X165977903Y-66299200D01*
X179977903Y-66299200D02*
X179977903Y-65299200D01*
X179977903Y-52299200D02*
X179977903Y-53299200D01*
X163452903Y-68824200D02*
X163452903Y-49774200D01*
X178977903Y-66299200D02*
X179977903Y-66299200D01*
X165977903Y-52299200D02*
X166977903Y-52299200D01*
X165977903Y-66299200D02*
X166977903Y-66299200D01*
X182502903Y-68824200D02*
X163452903Y-68824200D01*
X179977903Y-52299200D02*
X178977903Y-52299200D01*
X165977903Y-53299200D02*
X165977903Y-52299200D01*
X116943704Y-69044864D02*
X116943704Y-88094864D01*
X97893704Y-69044864D02*
X116943704Y-69044864D01*
X100418704Y-84569864D02*
X100418704Y-85569864D01*
X114418704Y-85569864D02*
X114418704Y-84569864D01*
X114418704Y-71569864D02*
X114418704Y-72569864D01*
X97893704Y-88094864D02*
X97893704Y-69044864D01*
X113418704Y-85569864D02*
X114418704Y-85569864D01*
X100418704Y-71569864D02*
X101418704Y-71569864D01*
X100418704Y-85569864D02*
X101418704Y-85569864D01*
X116943704Y-88094864D02*
X97893704Y-88094864D01*
X114418704Y-71569864D02*
X113418704Y-71569864D01*
X100418704Y-72569864D02*
X100418704Y-71569864D01*
X201552906Y-85374199D02*
X201552906Y-104424199D01*
X182502906Y-85374199D02*
X201552906Y-85374199D01*
X185027906Y-100899199D02*
X185027906Y-101899199D01*
X199027906Y-101899199D02*
X199027906Y-100899199D01*
X199027906Y-87899199D02*
X199027906Y-88899199D01*
X182502906Y-104424199D02*
X182502906Y-85374199D01*
X198027906Y-101899199D02*
X199027906Y-101899199D01*
X185027906Y-87899199D02*
X186027906Y-87899199D01*
X185027906Y-101899199D02*
X186027906Y-101899199D01*
X201552906Y-104424199D02*
X182502906Y-104424199D01*
X199027906Y-87899199D02*
X198027906Y-87899199D01*
X185027906Y-88899199D02*
X185027906Y-87899199D01*
X40743704Y-78045358D02*
X40743704Y-97095358D01*
X21693704Y-78045358D02*
X40743704Y-78045358D01*
X24218704Y-93570358D02*
X24218704Y-94570358D01*
X38218704Y-94570358D02*
X38218704Y-93570358D01*
X38218704Y-80570358D02*
X38218704Y-81570358D01*
X21693704Y-97095358D02*
X21693704Y-78045358D01*
X37218704Y-94570358D02*
X38218704Y-94570358D01*
X24218704Y-80570358D02*
X25218704Y-80570358D01*
X24218704Y-94570358D02*
X25218704Y-94570358D01*
X40743704Y-97095358D02*
X21693704Y-97095358D01*
X38218704Y-80570358D02*
X37218704Y-80570358D01*
X24218704Y-81570358D02*
X24218704Y-80570358D01*
X59793698Y-46995366D02*
X59793698Y-66045366D01*
X40743698Y-46995366D02*
X59793698Y-46995366D01*
X43268698Y-62520366D02*
X43268698Y-63520366D01*
X57268698Y-63520366D02*
X57268698Y-62520366D01*
X57268698Y-49520366D02*
X57268698Y-50520366D01*
X40743698Y-66045366D02*
X40743698Y-46995366D01*
X56268698Y-63520366D02*
X57268698Y-63520366D01*
X43268698Y-49520366D02*
X44268698Y-49520366D01*
X43268698Y-63520366D02*
X44268698Y-63520366D01*
X59793698Y-66045366D02*
X40743698Y-66045366D01*
X57268698Y-49520366D02*
X56268698Y-49520366D01*
X43268698Y-50520366D02*
X43268698Y-49520366D01*
X78843695Y-40994863D02*
X78843695Y-60044863D01*
X59793695Y-40994863D02*
X78843695Y-40994863D01*
X62318695Y-56519863D02*
X62318695Y-57519863D01*
X76318695Y-57519863D02*
X76318695Y-56519863D01*
X76318695Y-43519863D02*
X76318695Y-44519863D01*
X59793695Y-60044863D02*
X59793695Y-40994863D01*
X75318695Y-57519863D02*
X76318695Y-57519863D01*
X62318695Y-43519863D02*
X63318695Y-43519863D01*
X62318695Y-57519863D02*
X63318695Y-57519863D01*
X78843695Y-60044863D02*
X59793695Y-60044863D01*
X76318695Y-43519863D02*
X75318695Y-43519863D01*
X62318695Y-44519863D02*
X62318695Y-43519863D01*
X258702910Y-58774702D02*
X258702910Y-77824702D01*
X239652910Y-58774702D02*
X258702910Y-58774702D01*
X242177910Y-74299702D02*
X242177910Y-75299702D01*
X256177910Y-75299702D02*
X256177910Y-74299702D01*
X256177910Y-61299702D02*
X256177910Y-62299702D01*
X239652910Y-77824702D02*
X239652910Y-58774702D01*
X255177910Y-75299702D02*
X256177910Y-75299702D01*
X242177910Y-61299702D02*
X243177910Y-61299702D01*
X242177910Y-75299702D02*
X243177910Y-75299702D01*
X258702910Y-77824702D02*
X239652910Y-77824702D01*
X256177910Y-61299702D02*
X255177910Y-61299702D01*
X242177910Y-62299702D02*
X242177910Y-61299702D01*
X40743702Y-97095361D02*
X40743702Y-116145361D01*
X21693702Y-97095361D02*
X40743702Y-97095361D01*
X24218702Y-112620361D02*
X24218702Y-113620361D01*
X38218702Y-113620361D02*
X38218702Y-112620361D01*
X38218702Y-99620361D02*
X38218702Y-100620361D01*
X21693702Y-116145361D02*
X21693702Y-97095361D01*
X37218702Y-113620361D02*
X38218702Y-113620361D01*
X24218702Y-99620361D02*
X25218702Y-99620361D01*
X24218702Y-113620361D02*
X25218702Y-113620361D01*
X40743702Y-116145361D02*
X21693702Y-116145361D01*
X38218702Y-99620361D02*
X37218702Y-99620361D01*
X24218702Y-100620361D02*
X24218702Y-99620361D01*
D12*
X138930000Y-54250000D02*
X138930000Y-49170000D01*
X141470000Y-49170000D02*
X141470000Y-54250000D01*
X138930000Y-54250000D02*
X141470000Y-54250000D01*
X138930000Y-49170000D02*
X141470000Y-49170000D01*
D13*
X140260000Y-48789000D02*
G75*
G03*
X140260000Y-48789000I-60000J0D01*
G01*
X140260000Y-54631000D02*
G75*
G03*
X140260000Y-54631000I-60000J0D01*
G01*
D10*
X191448076Y-121689648D02*
X191189257Y-120723723D01*
X177666295Y-124347189D02*
X177925115Y-125313115D01*
X187824609Y-108166687D02*
X186858684Y-108425506D01*
X171209167Y-110004709D02*
X189610054Y-105074206D01*
X176139670Y-128405596D02*
X171209167Y-110004709D01*
X189610054Y-105074206D02*
X194540557Y-123475093D01*
X191448076Y-121689648D02*
X191189257Y-120723723D01*
X190482150Y-121948468D02*
X191448076Y-121689648D01*
X177925115Y-125313115D02*
X178891040Y-125054296D01*
X187824609Y-108166687D02*
X188083429Y-109132613D01*
X187824609Y-108166687D02*
X186858684Y-108425506D01*
X194540557Y-123475093D02*
X176139670Y-128405596D01*
X174560467Y-112756079D02*
X174301648Y-111790154D01*
X174560467Y-112756079D02*
X174301648Y-111790154D01*
X187824609Y-108166687D02*
X188083429Y-109132613D01*
X174301648Y-111790154D02*
X175267574Y-111531334D01*
X194540557Y-123475093D02*
X176139670Y-128405596D01*
X189610054Y-105074206D02*
X194540557Y-123475093D01*
X176139670Y-128405596D02*
X171209167Y-110004709D01*
X171209167Y-110004709D02*
X189610054Y-105074206D01*
X177925115Y-125313115D02*
X178891040Y-125054296D01*
X174301648Y-111790154D02*
X175267574Y-111531334D01*
X190482150Y-121948468D02*
X191448076Y-121689648D01*
X177666295Y-124347189D02*
X177925115Y-125313115D01*
X159641547Y-137930983D02*
X150116547Y-121433199D01*
X150116547Y-121433199D02*
X166614331Y-111908199D01*
X165690117Y-115357413D02*
X164824091Y-115857413D01*
X159641547Y-137930983D02*
X150116547Y-121433199D01*
X160565761Y-134481769D02*
X161431787Y-133981769D01*
X160065761Y-133615743D02*
X160565761Y-134481769D01*
X160065761Y-133615743D02*
X160565761Y-134481769D01*
X153565761Y-122357413D02*
X154431787Y-121857413D01*
X176139331Y-128405983D02*
X159641547Y-137930983D01*
X166614331Y-111908199D02*
X176139331Y-128405983D01*
X154065761Y-123223439D02*
X153565761Y-122357413D01*
X172690117Y-127481769D02*
X172190117Y-126615743D01*
X176139331Y-128405983D02*
X159641547Y-137930983D01*
X165690117Y-115357413D02*
X164824091Y-115857413D01*
X154065761Y-123223439D02*
X153565761Y-122357413D01*
X172690117Y-127481769D02*
X172190117Y-126615743D01*
X153565761Y-122357413D02*
X154431787Y-121857413D01*
X171824091Y-127981769D02*
X172690117Y-127481769D01*
X165690117Y-115357413D02*
X166190117Y-116223439D01*
X160565761Y-134481769D02*
X161431787Y-133981769D01*
X150116547Y-121433199D02*
X166614331Y-111908199D01*
X165690117Y-115357413D02*
X166190117Y-116223439D01*
X171824091Y-127981769D02*
X172690117Y-127481769D01*
X166614331Y-111908199D02*
X176139331Y-128405983D01*
M02*
