G04 #@! TF.GenerationSoftware,KiCad,Pcbnew,(6.0.10)*
G04 #@! TF.CreationDate,2023-02-02T08:57:34-03:00*
G04 #@! TF.ProjectId,pulso novo,70756c73-6f20-46e6-9f76-6f2e6b696361,0.2*
G04 #@! TF.SameCoordinates,Original*
G04 #@! TF.FileFunction,Legend,Top*
G04 #@! TF.FilePolarity,Positive*
%FSLAX46Y46*%
G04 Gerber Fmt 4.6, Leading zero omitted, Abs format (unit mm)*
G04 Created by KiCad (PCBNEW (6.0.10)) date 2023-02-02 08:57:34*
%MOMM*%
%LPD*%
G01*
G04 APERTURE LIST*
%ADD10C,0.300000*%
%ADD11C,0.100000*%
%ADD12C,0.150000*%
%ADD13C,0.120000*%
%ADD14C,1.397000*%
%ADD15C,2.000000*%
%ADD16C,1.701800*%
%ADD17C,1.900000*%
%ADD18C,4.100000*%
%ADD19C,3.987800*%
%ADD20C,3.000000*%
%ADD21R,1.800000X1.500000*%
%ADD22C,0.900000*%
%ADD23R,1.000000X0.700000*%
%ADD24R,2.800000X1.000000*%
%ADD25R,0.950000X1.300000*%
%ADD26C,5.000000*%
%ADD27O,2.590000X1.790000*%
%ADD28O,2.580000X1.820000*%
%ADD29O,2.580000X1.810000*%
%ADD30O,2.580000X1.750000*%
%ADD31O,2.590000X1.780000*%
%ADD32O,2.580000X1.800000*%
%ADD33O,2.580000X1.830000*%
%ADD34O,2.490000X1.800000*%
%ADD35O,2.470000X1.810000*%
%ADD36O,2.450000X1.770000*%
%ADD37O,2.450000X1.730000*%
%ADD38O,2.430000X1.750000*%
%ADD39O,2.480000X1.800000*%
%ADD40O,2.490000X1.850000*%
%ADD41C,3.500000*%
%ADD42R,5.080000X1.270000*%
%ADD43R,3.960000X3.960000*%
%ADD44C,0.500000*%
G04 APERTURE END LIST*
D10*
X229111428Y-118938571D02*
X229111428Y-120438571D01*
X229111428Y-119010000D02*
X229254285Y-118938571D01*
X229540000Y-118938571D01*
X229682857Y-119010000D01*
X229754285Y-119081428D01*
X229825714Y-119224285D01*
X229825714Y-119652857D01*
X229754285Y-119795714D01*
X229682857Y-119867142D01*
X229540000Y-119938571D01*
X229254285Y-119938571D01*
X229111428Y-119867142D01*
X231111428Y-118938571D02*
X231111428Y-119938571D01*
X230468571Y-118938571D02*
X230468571Y-119724285D01*
X230540000Y-119867142D01*
X230682857Y-119938571D01*
X230897142Y-119938571D01*
X231040000Y-119867142D01*
X231111428Y-119795714D01*
X232040000Y-119938571D02*
X231897142Y-119867142D01*
X231825714Y-119724285D01*
X231825714Y-118438571D01*
X232540000Y-119867142D02*
X232682857Y-119938571D01*
X232968571Y-119938571D01*
X233111428Y-119867142D01*
X233182857Y-119724285D01*
X233182857Y-119652857D01*
X233111428Y-119510000D01*
X232968571Y-119438571D01*
X232754285Y-119438571D01*
X232611428Y-119367142D01*
X232540000Y-119224285D01*
X232540000Y-119152857D01*
X232611428Y-119010000D01*
X232754285Y-118938571D01*
X232968571Y-118938571D01*
X233111428Y-119010000D01*
X234040000Y-119938571D02*
X233897142Y-119867142D01*
X233825714Y-119795714D01*
X233754285Y-119652857D01*
X233754285Y-119224285D01*
X233825714Y-119081428D01*
X233897142Y-119010000D01*
X234040000Y-118938571D01*
X234254285Y-118938571D01*
X234397142Y-119010000D01*
X234468571Y-119081428D01*
X234540000Y-119224285D01*
X234540000Y-119652857D01*
X234468571Y-119795714D01*
X234397142Y-119867142D01*
X234254285Y-119938571D01*
X234040000Y-119938571D01*
X236325714Y-119938571D02*
X236325714Y-118438571D01*
X236468571Y-119367142D02*
X236897142Y-119938571D01*
X236897142Y-118938571D02*
X236325714Y-119510000D01*
X238111428Y-119867142D02*
X237968571Y-119938571D01*
X237682857Y-119938571D01*
X237540000Y-119867142D01*
X237468571Y-119724285D01*
X237468571Y-119152857D01*
X237540000Y-119010000D01*
X237682857Y-118938571D01*
X237968571Y-118938571D01*
X238111428Y-119010000D01*
X238182857Y-119152857D01*
X238182857Y-119295714D01*
X237468571Y-119438571D01*
X238682857Y-118938571D02*
X239040000Y-119938571D01*
X239397142Y-118938571D02*
X239040000Y-119938571D01*
X238897142Y-120295714D01*
X238825714Y-120367142D01*
X238682857Y-120438571D01*
X239968571Y-119938571D02*
X239968571Y-118438571D01*
X239968571Y-119010000D02*
X240111428Y-118938571D01*
X240397142Y-118938571D01*
X240540000Y-119010000D01*
X240611428Y-119081428D01*
X240682857Y-119224285D01*
X240682857Y-119652857D01*
X240611428Y-119795714D01*
X240540000Y-119867142D01*
X240397142Y-119938571D01*
X240111428Y-119938571D01*
X239968571Y-119867142D01*
X241539999Y-119938571D02*
X241397142Y-119867142D01*
X241325714Y-119795714D01*
X241254285Y-119652857D01*
X241254285Y-119224285D01*
X241325714Y-119081428D01*
X241397142Y-119010000D01*
X241539999Y-118938571D01*
X241754285Y-118938571D01*
X241897142Y-119010000D01*
X241968571Y-119081428D01*
X242039999Y-119224285D01*
X242039999Y-119652857D01*
X241968571Y-119795714D01*
X241897142Y-119867142D01*
X241754285Y-119938571D01*
X241539999Y-119938571D01*
X243325714Y-119938571D02*
X243325714Y-119152857D01*
X243254285Y-119010000D01*
X243111428Y-118938571D01*
X242825714Y-118938571D01*
X242682857Y-119010000D01*
X243325714Y-119867142D02*
X243182857Y-119938571D01*
X242825714Y-119938571D01*
X242682857Y-119867142D01*
X242611428Y-119724285D01*
X242611428Y-119581428D01*
X242682857Y-119438571D01*
X242825714Y-119367142D01*
X243182857Y-119367142D01*
X243325714Y-119295714D01*
X244039999Y-119938571D02*
X244039999Y-118938571D01*
X244039999Y-119224285D02*
X244111428Y-119081428D01*
X244182857Y-119010000D01*
X244325714Y-118938571D01*
X244468571Y-118938571D01*
X245611428Y-119938571D02*
X245611428Y-118438571D01*
X245611428Y-119867142D02*
X245468571Y-119938571D01*
X245182857Y-119938571D01*
X245039999Y-119867142D01*
X244968571Y-119795714D01*
X244897142Y-119652857D01*
X244897142Y-119224285D01*
X244968571Y-119081428D01*
X245039999Y-119010000D01*
X245182857Y-118938571D01*
X245468571Y-118938571D01*
X245611428Y-119010000D01*
X247468571Y-119938571D02*
X247468571Y-118938571D01*
X247468571Y-119224285D02*
X247539999Y-119081428D01*
X247611428Y-119010000D01*
X247754285Y-118938571D01*
X247897142Y-118938571D01*
X248968571Y-119867142D02*
X248825714Y-119938571D01*
X248539999Y-119938571D01*
X248397142Y-119867142D01*
X248325714Y-119724285D01*
X248325714Y-119152857D01*
X248397142Y-119010000D01*
X248539999Y-118938571D01*
X248825714Y-118938571D01*
X248968571Y-119010000D01*
X249039999Y-119152857D01*
X249039999Y-119295714D01*
X248325714Y-119438571D01*
X249539999Y-118938571D02*
X249897142Y-119938571D01*
X250254285Y-118938571D01*
X252254285Y-118438571D02*
X252397142Y-118438571D01*
X252539999Y-118510000D01*
X252611428Y-118581428D01*
X252682857Y-118724285D01*
X252754285Y-119010000D01*
X252754285Y-119367142D01*
X252682857Y-119652857D01*
X252611428Y-119795714D01*
X252539999Y-119867142D01*
X252397142Y-119938571D01*
X252254285Y-119938571D01*
X252111428Y-119867142D01*
X252039999Y-119795714D01*
X251968571Y-119652857D01*
X251897142Y-119367142D01*
X251897142Y-119010000D01*
X251968571Y-118724285D01*
X252039999Y-118581428D01*
X252111428Y-118510000D01*
X252254285Y-118438571D01*
X253397142Y-119795714D02*
X253468571Y-119867142D01*
X253397142Y-119938571D01*
X253325714Y-119867142D01*
X253397142Y-119795714D01*
X253397142Y-119938571D01*
X254039999Y-118581428D02*
X254111428Y-118510000D01*
X254254285Y-118438571D01*
X254611428Y-118438571D01*
X254754285Y-118510000D01*
X254825714Y-118581428D01*
X254897142Y-118724285D01*
X254897142Y-118867142D01*
X254825714Y-119081428D01*
X253968571Y-119938571D01*
X254897142Y-119938571D01*
D11*
X129273093Y-74892843D02*
X129358807Y-74921415D01*
X129387379Y-74949986D01*
X129415950Y-75007129D01*
X129415950Y-75092843D01*
X129387379Y-75149986D01*
X129358807Y-75178558D01*
X129301665Y-75207129D01*
X129073093Y-75207129D01*
X129073093Y-74607129D01*
X129273093Y-74607129D01*
X129330236Y-74635701D01*
X129358807Y-74664272D01*
X129387379Y-74721415D01*
X129387379Y-74778558D01*
X129358807Y-74835701D01*
X129330236Y-74864272D01*
X129273093Y-74892843D01*
X129073093Y-74892843D01*
X129673093Y-74978558D02*
X130130236Y-74978558D01*
X129901665Y-75207129D02*
X129901665Y-74749986D01*
X125613093Y-74892843D02*
X125698807Y-74921415D01*
X125727379Y-74949986D01*
X125755950Y-75007129D01*
X125755950Y-75092843D01*
X125727379Y-75149986D01*
X125698807Y-75178558D01*
X125641665Y-75207129D01*
X125413093Y-75207129D01*
X125413093Y-74607129D01*
X125613093Y-74607129D01*
X125670236Y-74635701D01*
X125698807Y-74664272D01*
X125727379Y-74721415D01*
X125727379Y-74778558D01*
X125698807Y-74835701D01*
X125670236Y-74864272D01*
X125613093Y-74892843D01*
X125413093Y-74892843D01*
X126013093Y-74978558D02*
X126470236Y-74978558D01*
X150466368Y-74672181D02*
X150552082Y-74700753D01*
X150580654Y-74729324D01*
X150609225Y-74786467D01*
X150609225Y-74872181D01*
X150580654Y-74929324D01*
X150552082Y-74957896D01*
X150494940Y-74986467D01*
X150266368Y-74986467D01*
X150266368Y-74386467D01*
X150466368Y-74386467D01*
X150523511Y-74415039D01*
X150552082Y-74443610D01*
X150580654Y-74500753D01*
X150580654Y-74557896D01*
X150552082Y-74615039D01*
X150523511Y-74643610D01*
X150466368Y-74672181D01*
X150266368Y-74672181D01*
X150866368Y-74757896D02*
X151323511Y-74757896D01*
X151094940Y-74986467D02*
X151094940Y-74529324D01*
X154126368Y-74672181D02*
X154212082Y-74700753D01*
X154240654Y-74729324D01*
X154269225Y-74786467D01*
X154269225Y-74872181D01*
X154240654Y-74929324D01*
X154212082Y-74957896D01*
X154154940Y-74986467D01*
X153926368Y-74986467D01*
X153926368Y-74386467D01*
X154126368Y-74386467D01*
X154183511Y-74415039D01*
X154212082Y-74443610D01*
X154240654Y-74500753D01*
X154240654Y-74557896D01*
X154212082Y-74615039D01*
X154183511Y-74643610D01*
X154126368Y-74672181D01*
X153926368Y-74672181D01*
X154526368Y-74757896D02*
X154983511Y-74757896D01*
D12*
X127034284Y-108243081D02*
X126700950Y-107766891D01*
X126462855Y-108243081D02*
X126462855Y-107243081D01*
X126843807Y-107243081D01*
X126939045Y-107290701D01*
X126986665Y-107338320D01*
X127034284Y-107433558D01*
X127034284Y-107576415D01*
X126986665Y-107671653D01*
X126939045Y-107719272D01*
X126843807Y-107766891D01*
X126462855Y-107766891D01*
X127462855Y-107719272D02*
X127796188Y-107719272D01*
X127939045Y-108243081D02*
X127462855Y-108243081D01*
X127462855Y-107243081D01*
X127939045Y-107243081D01*
X128319998Y-108195462D02*
X128462855Y-108243081D01*
X128700950Y-108243081D01*
X128796188Y-108195462D01*
X128843807Y-108147843D01*
X128891426Y-108052605D01*
X128891426Y-107957367D01*
X128843807Y-107862129D01*
X128796188Y-107814510D01*
X128700950Y-107766891D01*
X128510474Y-107719272D01*
X128415236Y-107671653D01*
X128367617Y-107624034D01*
X128319998Y-107528796D01*
X128319998Y-107433558D01*
X128367617Y-107338320D01*
X128415236Y-107290701D01*
X128510474Y-107243081D01*
X128748569Y-107243081D01*
X128891426Y-107290701D01*
X129319998Y-107719272D02*
X129653331Y-107719272D01*
X129796188Y-108243081D02*
X129319998Y-108243081D01*
X129319998Y-107243081D01*
X129796188Y-107243081D01*
X130081903Y-107243081D02*
X130653331Y-107243081D01*
X130367617Y-108243081D02*
X130367617Y-107243081D01*
X142651384Y-77710623D02*
X141851384Y-77710623D01*
X141851384Y-77405861D01*
X141889480Y-77329671D01*
X141927575Y-77291576D01*
X142003765Y-77253480D01*
X142118051Y-77253480D01*
X142194241Y-77291576D01*
X142232337Y-77329671D01*
X142270432Y-77405861D01*
X142270432Y-77710623D01*
X141851384Y-76986814D02*
X142651384Y-76796338D01*
X142079956Y-76643957D01*
X142651384Y-76491576D01*
X141851384Y-76301100D01*
X142651384Y-75539195D02*
X142270432Y-75805861D01*
X142651384Y-75996338D02*
X141851384Y-75996338D01*
X141851384Y-75691576D01*
X141889480Y-75615385D01*
X141927575Y-75577290D01*
X142003765Y-75539195D01*
X142118051Y-75539195D01*
X142194241Y-75577290D01*
X142232337Y-75615385D01*
X142270432Y-75691576D01*
X142270432Y-75996338D01*
X138548569Y-74302010D02*
X137748569Y-74302010D01*
X137748569Y-73997248D01*
X137786665Y-73921058D01*
X137824760Y-73882962D01*
X137900950Y-73844867D01*
X138015236Y-73844867D01*
X138091426Y-73882962D01*
X138129522Y-73921058D01*
X138167617Y-73997248D01*
X138167617Y-74302010D01*
X137748569Y-73578201D02*
X138548569Y-73387724D01*
X137977141Y-73235343D01*
X138548569Y-73082962D01*
X137748569Y-72892486D01*
X138548569Y-72130581D02*
X138167617Y-72397248D01*
X138548569Y-72587724D02*
X137748569Y-72587724D01*
X137748569Y-72282962D01*
X137786665Y-72206772D01*
X137824760Y-72168677D01*
X137900950Y-72130581D01*
X138015236Y-72130581D01*
X138091426Y-72168677D01*
X138129522Y-72206772D01*
X138167617Y-72282962D01*
X138167617Y-72587724D01*
X150330559Y-108022419D02*
X149997225Y-107546229D01*
X149759130Y-108022419D02*
X149759130Y-107022419D01*
X150140082Y-107022419D01*
X150235320Y-107070039D01*
X150282940Y-107117658D01*
X150330559Y-107212896D01*
X150330559Y-107355753D01*
X150282940Y-107450991D01*
X150235320Y-107498610D01*
X150140082Y-107546229D01*
X149759130Y-107546229D01*
X150759130Y-107498610D02*
X151092463Y-107498610D01*
X151235320Y-108022419D02*
X150759130Y-108022419D01*
X150759130Y-107022419D01*
X151235320Y-107022419D01*
X151616273Y-107974800D02*
X151759130Y-108022419D01*
X151997225Y-108022419D01*
X152092463Y-107974800D01*
X152140082Y-107927181D01*
X152187701Y-107831943D01*
X152187701Y-107736705D01*
X152140082Y-107641467D01*
X152092463Y-107593848D01*
X151997225Y-107546229D01*
X151806749Y-107498610D01*
X151711511Y-107450991D01*
X151663892Y-107403372D01*
X151616273Y-107308134D01*
X151616273Y-107212896D01*
X151663892Y-107117658D01*
X151711511Y-107070039D01*
X151806749Y-107022419D01*
X152044844Y-107022419D01*
X152187701Y-107070039D01*
X152616273Y-107498610D02*
X152949606Y-107498610D01*
X153092463Y-108022419D02*
X152616273Y-108022419D01*
X152616273Y-107022419D01*
X153092463Y-107022419D01*
X153378178Y-107022419D02*
X153949606Y-107022419D01*
X153663892Y-108022419D02*
X153663892Y-107022419D01*
X127091665Y-77675701D02*
X127091665Y-75675701D01*
X127091665Y-75675701D02*
X125091665Y-75675701D01*
X125091665Y-75675701D02*
X125091665Y-77675701D01*
X125091665Y-77675701D02*
X127091665Y-77675701D01*
X63296665Y-62590701D02*
X62296665Y-62590701D01*
X76296665Y-62590701D02*
X75296665Y-62590701D01*
X62296665Y-76590701D02*
X63296665Y-76590701D01*
X76296665Y-62590701D02*
X76296665Y-63590701D01*
X62296665Y-63590701D02*
X62296665Y-62590701D01*
X76296665Y-75590701D02*
X76296665Y-76590701D01*
X62296665Y-76590701D02*
X62296665Y-75590701D01*
X75296665Y-76590701D02*
X76296665Y-76590701D01*
X131486665Y-109540701D02*
X131486665Y-109290701D01*
X131486665Y-106040701D02*
X131486665Y-106290701D01*
X125486665Y-109540701D02*
X131486665Y-109540701D01*
X125486665Y-106040701D02*
X125486665Y-106290701D01*
X125486665Y-109540701D02*
X125486665Y-109290701D01*
X125486665Y-106040701D02*
X131486665Y-106040701D01*
X87868703Y-84319858D02*
X88768703Y-83619858D01*
X88768703Y-83619858D02*
X88768703Y-85019858D01*
X88768703Y-85019858D02*
X87868703Y-84319858D01*
X87868703Y-83619858D02*
X87868703Y-85019858D01*
D13*
X144639480Y-71783600D02*
X144639480Y-71253600D01*
X144639480Y-75713600D02*
X144639480Y-76293600D01*
X144639480Y-72743600D02*
X144639480Y-74783600D01*
X141669480Y-78003600D02*
X141669480Y-71253600D01*
X144629480Y-77213600D02*
X144629480Y-78003600D01*
D12*
X64366665Y-106390701D02*
X64366665Y-111790701D01*
X65116665Y-108690701D02*
X65616665Y-109590701D01*
X65616665Y-109590701D02*
X64616665Y-109590701D01*
X65616665Y-108590701D02*
X64616665Y-108590701D01*
X65866665Y-111790701D02*
X65866665Y-106390701D01*
X65866665Y-106390701D02*
X64366665Y-106390701D01*
X64616665Y-109590701D02*
X65116665Y-108690701D01*
X65866665Y-111790701D02*
X64366665Y-111790701D01*
X230527901Y-101949702D02*
X230527901Y-103349702D01*
X230527901Y-103349702D02*
X229627901Y-102649702D01*
X229627901Y-101949702D02*
X229627901Y-103349702D01*
X229627901Y-102649702D02*
X230527901Y-101949702D01*
X243177903Y-99409699D02*
X242177903Y-99409699D01*
X256177903Y-99409699D02*
X255177903Y-99409699D01*
X242177903Y-113409699D02*
X243177903Y-113409699D01*
X256177903Y-99409699D02*
X256177903Y-100409699D01*
X242177903Y-100409699D02*
X242177903Y-99409699D01*
X256177903Y-112409699D02*
X256177903Y-113409699D01*
X242177903Y-113409699D02*
X242177903Y-112409699D01*
X255177903Y-113409699D02*
X256177903Y-113409699D01*
X82368704Y-50029867D02*
X81368704Y-50029867D01*
X95368704Y-50029867D02*
X94368704Y-50029867D01*
X81368704Y-64029867D02*
X82368704Y-64029867D01*
X95368704Y-50029867D02*
X95368704Y-51029867D01*
X81368704Y-51029867D02*
X81368704Y-50029867D01*
X95368704Y-63029867D02*
X95368704Y-64029867D01*
X81368704Y-64029867D02*
X81368704Y-63029867D01*
X94368704Y-64029867D02*
X95368704Y-64029867D01*
X101418705Y-90629863D02*
X100418705Y-90629863D01*
X114418705Y-90629863D02*
X113418705Y-90629863D01*
X100418705Y-104629863D02*
X101418705Y-104629863D01*
X114418705Y-90629863D02*
X114418705Y-91629863D01*
X100418705Y-91629863D02*
X100418705Y-90629863D01*
X114418705Y-103629863D02*
X114418705Y-104629863D01*
X100418705Y-104629863D02*
X100418705Y-103629863D01*
X113418705Y-104629863D02*
X114418705Y-104629863D01*
X211477904Y-97349197D02*
X210577904Y-96649197D01*
X210577904Y-95949197D02*
X210577904Y-97349197D01*
X210577904Y-96649197D02*
X211477904Y-95949197D01*
X211477904Y-95949197D02*
X211477904Y-97349197D01*
X166977901Y-71359202D02*
X165977901Y-71359202D01*
X179977901Y-71359202D02*
X178977901Y-71359202D01*
X165977901Y-85359202D02*
X166977901Y-85359202D01*
X179977901Y-71359202D02*
X179977901Y-72359202D01*
X165977901Y-72359202D02*
X165977901Y-71359202D01*
X179977901Y-84359202D02*
X179977901Y-85359202D01*
X165977901Y-85359202D02*
X165977901Y-84359202D01*
X178977901Y-85359202D02*
X179977901Y-85359202D01*
X211477903Y-76899204D02*
X211477903Y-78299204D01*
X210577903Y-76899204D02*
X210577903Y-78299204D01*
X211477903Y-78299204D02*
X210577903Y-77599204D01*
X210577903Y-77599204D02*
X211477903Y-76899204D01*
X172477904Y-85899205D02*
X172477904Y-87299205D01*
X173377904Y-87299205D02*
X172477904Y-86599205D01*
X172477904Y-86599205D02*
X173377904Y-85899205D01*
X173377904Y-85899205D02*
X173377904Y-87299205D01*
X173377904Y-68249206D02*
X172477904Y-67549206D01*
X172477904Y-66849206D02*
X172477904Y-68249206D01*
X172477904Y-67549206D02*
X173377904Y-66849206D01*
X173377904Y-66849206D02*
X173377904Y-68249206D01*
X107818701Y-68469868D02*
X106918701Y-67769868D01*
X106918701Y-67069868D02*
X106918701Y-68469868D01*
X106918701Y-67769868D02*
X107818701Y-67069868D01*
X107818701Y-67069868D02*
X107818701Y-68469868D01*
D13*
X135836665Y-78095701D02*
X135836665Y-78625701D01*
X135836665Y-74165701D02*
X135836665Y-73585701D01*
X135836665Y-77135701D02*
X135836665Y-75095701D01*
X138806665Y-71875701D02*
X138806665Y-78625701D01*
X135846665Y-72665701D02*
X135846665Y-71875701D01*
D12*
X205077902Y-81409198D02*
X204077902Y-81409198D01*
X218077902Y-81409198D02*
X217077902Y-81409198D01*
X204077902Y-95409198D02*
X205077902Y-95409198D01*
X218077902Y-81409198D02*
X218077902Y-82409198D01*
X204077902Y-82409198D02*
X204077902Y-81409198D01*
X218077902Y-94409198D02*
X218077902Y-95409198D01*
X204077902Y-95409198D02*
X204077902Y-94409198D01*
X217077902Y-95409198D02*
X218077902Y-95409198D01*
X82368699Y-88129861D02*
X81368699Y-88129861D01*
X95368699Y-88129861D02*
X94368699Y-88129861D01*
X81368699Y-102129861D02*
X82368699Y-102129861D01*
X95368699Y-88129861D02*
X95368699Y-89129861D01*
X81368699Y-89129861D02*
X81368699Y-88129861D01*
X95368699Y-101129861D02*
X95368699Y-102129861D01*
X81368699Y-102129861D02*
X81368699Y-101129861D01*
X94368699Y-102129861D02*
X95368699Y-102129861D01*
X63376665Y-109610701D02*
X62376665Y-109610701D01*
X62876665Y-108710701D02*
X63376665Y-109610701D01*
X62126665Y-106410701D02*
X62126665Y-111810701D01*
X63626665Y-111810701D02*
X62126665Y-111810701D01*
X63626665Y-106410701D02*
X62126665Y-106410701D01*
X63376665Y-108610701D02*
X62376665Y-108610701D01*
X63626665Y-111810701D02*
X63626665Y-106410701D01*
X62376665Y-109610701D02*
X62876665Y-108710701D01*
X191527902Y-84099196D02*
X192427902Y-83399196D01*
X192427902Y-83399196D02*
X192427902Y-84799196D01*
X192427902Y-84799196D02*
X191527902Y-84099196D01*
X191527902Y-83399196D02*
X191527902Y-84799196D01*
X248679940Y-76110039D02*
X248679940Y-77510039D01*
X249579940Y-77510039D02*
X248679940Y-76810039D01*
X248679940Y-76810039D02*
X249579940Y-76110039D01*
X249579940Y-76110039D02*
X249579940Y-77510039D01*
X49768702Y-83820362D02*
X50668702Y-83120362D01*
X49768702Y-83120362D02*
X49768702Y-84520362D01*
X50668702Y-84520362D02*
X49768702Y-83820362D01*
X50668702Y-83120362D02*
X50668702Y-84520362D01*
X82368703Y-69079859D02*
X81368703Y-69079859D01*
X95368703Y-69079859D02*
X94368703Y-69079859D01*
X81368703Y-83079859D02*
X82368703Y-83079859D01*
X95368703Y-69079859D02*
X95368703Y-70079859D01*
X81368703Y-70079859D02*
X81368703Y-69079859D01*
X95368703Y-82079859D02*
X95368703Y-83079859D01*
X81368703Y-83079859D02*
X81368703Y-82079859D01*
X94368703Y-83079859D02*
X95368703Y-83079859D01*
X69718702Y-77119866D02*
X69718702Y-78519866D01*
X68818702Y-77119866D02*
X68818702Y-78519866D01*
X69718702Y-78519866D02*
X68818702Y-77819866D01*
X68818702Y-77819866D02*
X69718702Y-77119866D01*
X87868699Y-103369862D02*
X88768699Y-102669862D01*
X88768699Y-102669862D02*
X88768699Y-104069862D01*
X88768699Y-104069862D02*
X87868699Y-103369862D01*
X87868699Y-102669862D02*
X87868699Y-104069862D01*
X186027901Y-49809205D02*
X185027901Y-49809205D01*
X199027901Y-49809205D02*
X198027901Y-49809205D01*
X185027901Y-63809205D02*
X186027901Y-63809205D01*
X199027901Y-49809205D02*
X199027901Y-50809205D01*
X185027901Y-50809205D02*
X185027901Y-49809205D01*
X199027901Y-62809205D02*
X199027901Y-63809205D01*
X185027901Y-63809205D02*
X185027901Y-62809205D01*
X198027901Y-63809205D02*
X199027901Y-63809205D01*
X243177901Y-80359696D02*
X242177901Y-80359696D01*
X256177901Y-80359696D02*
X255177901Y-80359696D01*
X242177901Y-94359696D02*
X243177901Y-94359696D01*
X256177901Y-80359696D02*
X256177901Y-81359696D01*
X242177901Y-81359696D02*
X242177901Y-80359696D01*
X256177901Y-93359696D02*
X256177901Y-94359696D01*
X242177901Y-94359696D02*
X242177901Y-93359696D01*
X255177901Y-94359696D02*
X256177901Y-94359696D01*
X186027902Y-68859197D02*
X185027902Y-68859197D01*
X199027902Y-68859197D02*
X198027902Y-68859197D01*
X185027902Y-82859197D02*
X186027902Y-82859197D01*
X199027902Y-68859197D02*
X199027902Y-69859197D01*
X185027902Y-69859197D02*
X185027902Y-68859197D01*
X199027902Y-81859197D02*
X199027902Y-82859197D01*
X185027902Y-82859197D02*
X185027902Y-81859197D01*
X198027902Y-82859197D02*
X199027902Y-82859197D01*
X172477900Y-104949199D02*
X172477900Y-106349199D01*
X173377900Y-106349199D02*
X172477900Y-105649199D01*
X173377900Y-104949199D02*
X173377900Y-106349199D01*
X172477900Y-105649199D02*
X173377900Y-104949199D01*
X107701488Y-127711091D02*
X108567514Y-128211091D01*
X126825844Y-122586735D02*
X125959818Y-122086735D01*
X114201488Y-116452761D02*
X114701488Y-115586735D01*
X118959818Y-134211091D02*
X119825844Y-134711091D01*
X126825844Y-122586735D02*
X126325844Y-123452761D01*
X120325844Y-133845066D02*
X119825844Y-134711091D01*
X115567514Y-116086735D02*
X114701488Y-115586735D01*
X107701488Y-127711091D02*
X108201488Y-126845066D01*
X198065776Y-106959682D02*
X197065776Y-106959682D01*
X211065776Y-106959682D02*
X210065776Y-106959682D01*
X197065776Y-120959682D02*
X198065776Y-120959682D01*
X211065776Y-106959682D02*
X211065776Y-107959682D01*
X197065776Y-107959682D02*
X197065776Y-106959682D01*
X211065776Y-119959682D02*
X211065776Y-120959682D01*
X197065776Y-120959682D02*
X197065776Y-119959682D01*
X210065776Y-120959682D02*
X211065776Y-120959682D01*
X25218695Y-61530364D02*
X24218695Y-61530364D01*
X38218695Y-61530364D02*
X37218695Y-61530364D01*
X24218695Y-75530364D02*
X25218695Y-75530364D01*
X38218695Y-61530364D02*
X38218695Y-62530364D01*
X24218695Y-62530364D02*
X24218695Y-61530364D01*
X38218695Y-74530364D02*
X38218695Y-75530364D01*
X24218695Y-75530364D02*
X24218695Y-74530364D01*
X37218695Y-75530364D02*
X38218695Y-75530364D01*
X248699940Y-95150039D02*
X248699940Y-96550039D01*
X248699940Y-95850039D02*
X249599940Y-95150039D01*
X249599940Y-96550039D02*
X248699940Y-95850039D01*
X249599940Y-95150039D02*
X249599940Y-96550039D01*
X50668704Y-102170364D02*
X50668704Y-103570364D01*
X50668704Y-103570364D02*
X49768704Y-102870364D01*
X49768704Y-102170364D02*
X49768704Y-103570364D01*
X49768704Y-102870364D02*
X50668704Y-102170364D01*
X101418702Y-52529862D02*
X100418702Y-52529862D01*
X114418702Y-52529862D02*
X113418702Y-52529862D01*
X100418702Y-66529862D02*
X101418702Y-66529862D01*
X114418702Y-52529862D02*
X114418702Y-53529862D01*
X100418702Y-53529862D02*
X100418702Y-52529862D01*
X114418702Y-65529862D02*
X114418702Y-66529862D01*
X100418702Y-66529862D02*
X100418702Y-65529862D01*
X113418702Y-66529862D02*
X114418702Y-66529862D01*
X44268702Y-87630365D02*
X43268702Y-87630365D01*
X57268702Y-87630365D02*
X56268702Y-87630365D01*
X43268702Y-101630365D02*
X44268702Y-101630365D01*
X57268702Y-87630365D02*
X57268702Y-88630365D01*
X43268702Y-88630365D02*
X43268702Y-87630365D01*
X57268702Y-100630365D02*
X57268702Y-101630365D01*
X43268702Y-101630365D02*
X43268702Y-100630365D01*
X56268702Y-101630365D02*
X57268702Y-101630365D01*
X63318703Y-81629860D02*
X62318703Y-81629860D01*
X76318703Y-81629860D02*
X75318703Y-81629860D01*
X62318703Y-95629860D02*
X63318703Y-95629860D01*
X76318703Y-81629860D02*
X76318703Y-82629860D01*
X62318703Y-82629860D02*
X62318703Y-81629860D01*
X76318703Y-94629860D02*
X76318703Y-95629860D01*
X62318703Y-95629860D02*
X62318703Y-94629860D01*
X75318703Y-95629860D02*
X76318703Y-95629860D01*
X214529940Y-106170039D02*
X214529940Y-111570039D01*
X215279940Y-108470039D02*
X215779940Y-109370039D01*
X215779940Y-109370039D02*
X214779940Y-109370039D01*
X215779940Y-108370039D02*
X214779940Y-108370039D01*
X216029940Y-111570039D02*
X216029940Y-106170039D01*
X216029940Y-106170039D02*
X214529940Y-106170039D01*
X214779940Y-109370039D02*
X215279940Y-108470039D01*
X216029940Y-111570039D02*
X214529940Y-111570039D01*
X205099940Y-62370039D02*
X204099940Y-62370039D01*
X218099940Y-62370039D02*
X217099940Y-62370039D01*
X204099940Y-76370039D02*
X205099940Y-76370039D01*
X218099940Y-62370039D02*
X218099940Y-63370039D01*
X204099940Y-63370039D02*
X204099940Y-62370039D01*
X218099940Y-75370039D02*
X218099940Y-76370039D01*
X204099940Y-76370039D02*
X204099940Y-75370039D01*
X217099940Y-76370039D02*
X218099940Y-76370039D01*
D11*
X160039940Y-100030039D02*
X160039940Y-82630039D01*
X148869940Y-102110039D02*
X144919940Y-100670039D01*
X160039940Y-82630039D02*
X157959940Y-80550039D01*
X160039940Y-100030039D02*
X157959940Y-102110039D01*
X149499940Y-80550039D02*
X148869940Y-80550039D01*
X157959940Y-80550039D02*
X155499940Y-80550039D01*
X149499940Y-102110039D02*
X148869940Y-102110039D01*
X157959940Y-102110039D02*
X155499940Y-102110039D01*
X148869940Y-80550039D02*
X144919940Y-81990039D01*
X143949940Y-97330039D02*
G75*
G03*
X143946404Y-85325439I-7810002J6000000D01*
G01*
X144919940Y-81990039D02*
G75*
G03*
X143933410Y-85326685I729999J-2030000D01*
G01*
X143949941Y-97330039D02*
G75*
G03*
X144911771Y-100655282I1699999J-1310000D01*
G01*
D12*
X68818703Y-58769864D02*
X69718703Y-58069864D01*
X69718703Y-58069864D02*
X69718703Y-59469864D01*
X68818703Y-58069864D02*
X68818703Y-59469864D01*
X69718703Y-59469864D02*
X68818703Y-58769864D01*
X224127902Y-68359699D02*
X223127902Y-68359699D01*
X237127902Y-68359699D02*
X236127902Y-68359699D01*
X223127902Y-82359699D02*
X224127902Y-82359699D01*
X237127902Y-68359699D02*
X237127902Y-69359699D01*
X223127902Y-69359699D02*
X223127902Y-68359699D01*
X237127902Y-81359699D02*
X237127902Y-82359699D01*
X223127902Y-82359699D02*
X223127902Y-81359699D01*
X236127902Y-82359699D02*
X237127902Y-82359699D01*
X106092369Y-112020475D02*
X105833550Y-112986401D01*
X88945941Y-121919970D02*
X89911867Y-122178789D01*
X93535333Y-108655827D02*
X92569407Y-108397008D01*
X106092369Y-112020475D02*
X105126443Y-111761656D01*
X92310588Y-109362934D02*
X92569407Y-108397008D01*
X101502976Y-125284617D02*
X102468902Y-125543436D01*
X102727721Y-124577511D02*
X102468902Y-125543436D01*
X88945941Y-121919970D02*
X89204760Y-120954044D01*
X60646665Y-108710701D02*
X61146665Y-109610701D01*
X61146665Y-108610701D02*
X60146665Y-108610701D01*
X61396665Y-106410701D02*
X59896665Y-106410701D01*
X61396665Y-111810701D02*
X59896665Y-111810701D01*
X59896665Y-106410701D02*
X59896665Y-111810701D01*
X60146665Y-109610701D02*
X60646665Y-108710701D01*
X61396665Y-111810701D02*
X61396665Y-106410701D01*
X61146665Y-109610701D02*
X60146665Y-109610701D01*
X224127903Y-87409703D02*
X223127903Y-87409703D01*
X237127903Y-87409703D02*
X236127903Y-87409703D01*
X223127903Y-101409703D02*
X224127903Y-101409703D01*
X237127903Y-87409703D02*
X237127903Y-88409703D01*
X223127903Y-88409703D02*
X223127903Y-87409703D01*
X237127903Y-100409703D02*
X237127903Y-101409703D01*
X223127903Y-101409703D02*
X223127903Y-100409703D01*
X236127903Y-101409703D02*
X237127903Y-101409703D01*
X219749940Y-108490039D02*
X220249940Y-109390039D01*
X220249940Y-108390039D02*
X219249940Y-108390039D01*
X220499940Y-106190039D02*
X218999940Y-106190039D01*
X220499940Y-111590039D02*
X218999940Y-111590039D01*
X218999940Y-106190039D02*
X218999940Y-111590039D01*
X219249940Y-109390039D02*
X219749940Y-108490039D01*
X220499940Y-111590039D02*
X220499940Y-106190039D01*
X220249940Y-109390039D02*
X219249940Y-109390039D01*
X70330829Y-107180344D02*
X69330829Y-107180344D01*
X83330829Y-107180344D02*
X82330829Y-107180344D01*
X69330829Y-121180344D02*
X70330829Y-121180344D01*
X83330829Y-107180344D02*
X83330829Y-108180344D01*
X69330829Y-108180344D02*
X69330829Y-107180344D01*
X83330829Y-120180344D02*
X83330829Y-121180344D01*
X69330829Y-121180344D02*
X69330829Y-120180344D01*
X82330829Y-121180344D02*
X83330829Y-121180344D01*
X69718701Y-97569859D02*
X68818701Y-96869859D01*
X68818701Y-96169859D02*
X68818701Y-97569859D01*
X68818701Y-96869859D02*
X69718701Y-96169859D01*
X69718701Y-96169859D02*
X69718701Y-97569859D01*
X229627906Y-63849704D02*
X229627906Y-65249704D01*
X230527906Y-63849704D02*
X230527906Y-65249704D01*
X229627906Y-64549704D02*
X230527906Y-63849704D01*
X230527906Y-65249704D02*
X229627906Y-64549704D01*
X30716665Y-76330701D02*
X30716665Y-77730701D01*
X31616665Y-77730701D02*
X30716665Y-77030701D01*
X30716665Y-77030701D02*
X31616665Y-76330701D01*
X31616665Y-76330701D02*
X31616665Y-77730701D01*
X205077910Y-43309201D02*
X204077910Y-43309201D01*
X218077910Y-43309201D02*
X217077910Y-43309201D01*
X204077910Y-57309201D02*
X205077910Y-57309201D01*
X218077910Y-43309201D02*
X218077910Y-44309201D01*
X204077910Y-44309201D02*
X204077910Y-43309201D01*
X218077910Y-56309201D02*
X218077910Y-57309201D01*
X204077910Y-57309201D02*
X204077910Y-56309201D01*
X217077910Y-57309201D02*
X218077910Y-57309201D01*
X44268703Y-68580361D02*
X43268703Y-68580361D01*
X57268703Y-68580361D02*
X56268703Y-68580361D01*
X43268703Y-82580361D02*
X44268703Y-82580361D01*
X57268703Y-68580361D02*
X57268703Y-69580361D01*
X43268703Y-69580361D02*
X43268703Y-68580361D01*
X57268703Y-81580361D02*
X57268703Y-82580361D01*
X43268703Y-82580361D02*
X43268703Y-81580361D01*
X56268703Y-82580361D02*
X57268703Y-82580361D01*
X49768699Y-64070366D02*
X49768699Y-65470366D01*
X50668699Y-64070366D02*
X50668699Y-65470366D01*
X49768699Y-64770366D02*
X50668699Y-64070366D01*
X50668699Y-65470366D02*
X49768699Y-64770366D01*
X106918701Y-86119867D02*
X106918701Y-87519867D01*
X107818701Y-87519867D02*
X106918701Y-86819867D01*
X106918701Y-86819867D02*
X107818701Y-86119867D01*
X107818701Y-86119867D02*
X107818701Y-87519867D01*
X106918705Y-105169861D02*
X106918705Y-106569861D01*
X107818705Y-106569861D02*
X106918705Y-105869861D01*
X107818705Y-105169861D02*
X107818705Y-106569861D01*
X106918705Y-105869861D02*
X107818705Y-105169861D01*
D11*
X120356665Y-82850701D02*
X120356665Y-100250701D01*
X131526665Y-80770701D02*
X135476665Y-82210701D01*
X120356665Y-100250701D02*
X122436665Y-102330701D01*
X120356665Y-82850701D02*
X122436665Y-80770701D01*
X130896665Y-102330701D02*
X131526665Y-102330701D01*
X122436665Y-102330701D02*
X124896665Y-102330701D01*
X130896665Y-80770701D02*
X131526665Y-80770701D01*
X122436665Y-80770701D02*
X124896665Y-80770701D01*
X131526665Y-102330701D02*
X135476665Y-100890701D01*
X136446665Y-85550701D02*
G75*
G03*
X136450201Y-97555301I7810002J-6000000D01*
G01*
X135476665Y-100890701D02*
G75*
G03*
X136463195Y-97554055I-729999J2030000D01*
G01*
X136446664Y-85550701D02*
G75*
G03*
X135484834Y-82225458I-1699999J1310000D01*
G01*
D12*
X224127907Y-49309704D02*
X223127907Y-49309704D01*
X237127907Y-49309704D02*
X236127907Y-49309704D01*
X223127907Y-63309704D02*
X224127907Y-63309704D01*
X237127907Y-49309704D02*
X237127907Y-50309704D01*
X223127907Y-50309704D02*
X223127907Y-49309704D01*
X237127907Y-62309704D02*
X237127907Y-63309704D01*
X223127907Y-63309704D02*
X223127907Y-62309704D01*
X236127907Y-63309704D02*
X237127907Y-63309704D01*
X192427897Y-65749203D02*
X191527897Y-65049203D01*
X192427897Y-64349203D02*
X192427897Y-65749203D01*
X191527897Y-65049203D02*
X192427897Y-64349203D01*
X191527897Y-64349203D02*
X191527897Y-65749203D01*
X166977900Y-90409201D02*
X165977900Y-90409201D01*
X179977900Y-90409201D02*
X178977900Y-90409201D01*
X165977900Y-104409201D02*
X166977900Y-104409201D01*
X179977900Y-90409201D02*
X179977900Y-91409201D01*
X165977900Y-91409201D02*
X165977900Y-90409201D01*
X179977900Y-103409201D02*
X179977900Y-104409201D01*
X165977900Y-104409201D02*
X165977900Y-103409201D01*
X178977900Y-104409201D02*
X179977900Y-104409201D01*
D11*
X139150000Y-90579000D02*
G75*
G03*
X141150000Y-90579000I1000000J0D01*
G01*
X141150000Y-96421000D02*
G75*
G03*
X139150000Y-96421000I-1000000J0D01*
G01*
D12*
X191527906Y-103149200D02*
X192427906Y-102449200D01*
X192427906Y-102449200D02*
X192427906Y-103849200D01*
X192427906Y-103849200D02*
X191527906Y-103149200D01*
X191527906Y-102449200D02*
X191527906Y-103849200D01*
X30696665Y-95370701D02*
X30696665Y-96770701D01*
X30696665Y-96070701D02*
X31596665Y-95370701D01*
X31596665Y-96770701D02*
X30696665Y-96070701D01*
X31596665Y-95370701D02*
X31596665Y-96770701D01*
X166977903Y-52309200D02*
X165977903Y-52309200D01*
X179977903Y-52309200D02*
X178977903Y-52309200D01*
X165977903Y-66309200D02*
X166977903Y-66309200D01*
X179977903Y-52309200D02*
X179977903Y-53309200D01*
X165977903Y-53309200D02*
X165977903Y-52309200D01*
X179977903Y-65309200D02*
X179977903Y-66309200D01*
X165977903Y-66309200D02*
X165977903Y-65309200D01*
X178977903Y-66309200D02*
X179977903Y-66309200D01*
X101418704Y-71579864D02*
X100418704Y-71579864D01*
X114418704Y-71579864D02*
X113418704Y-71579864D01*
X100418704Y-85579864D02*
X101418704Y-85579864D01*
X114418704Y-71579864D02*
X114418704Y-72579864D01*
X100418704Y-72579864D02*
X100418704Y-71579864D01*
X114418704Y-84579864D02*
X114418704Y-85579864D01*
X100418704Y-85579864D02*
X100418704Y-84579864D01*
X113418704Y-85579864D02*
X114418704Y-85579864D01*
X186027906Y-87909199D02*
X185027906Y-87909199D01*
X199027906Y-87909199D02*
X198027906Y-87909199D01*
X185027906Y-101909199D02*
X186027906Y-101909199D01*
X199027906Y-87909199D02*
X199027906Y-88909199D01*
X185027906Y-88909199D02*
X185027906Y-87909199D01*
X199027906Y-100909199D02*
X199027906Y-101909199D01*
X185027906Y-101909199D02*
X185027906Y-100909199D01*
X198027906Y-101909199D02*
X199027906Y-101909199D01*
X248709940Y-114930039D02*
X249609940Y-114230039D01*
X249609940Y-115630039D02*
X248709940Y-114930039D01*
X249609940Y-114230039D02*
X249609940Y-115630039D01*
X248709940Y-114230039D02*
X248709940Y-115630039D01*
X88768708Y-65969865D02*
X87868708Y-65269865D01*
X88768708Y-64569865D02*
X88768708Y-65969865D01*
X87868708Y-65269865D02*
X88768708Y-64569865D01*
X87868708Y-64569865D02*
X87868708Y-65969865D01*
X210577902Y-58549202D02*
X211477902Y-57849202D01*
X211477902Y-57849202D02*
X211477902Y-59249202D01*
X210577902Y-57849202D02*
X210577902Y-59249202D01*
X211477902Y-59249202D02*
X210577902Y-58549202D01*
X25218704Y-80580358D02*
X24218704Y-80580358D01*
X38218704Y-80580358D02*
X37218704Y-80580358D01*
X24218704Y-94580358D02*
X25218704Y-94580358D01*
X38218704Y-80580358D02*
X38218704Y-81580358D01*
X24218704Y-81580358D02*
X24218704Y-80580358D01*
X38218704Y-93580358D02*
X38218704Y-94580358D01*
X24218704Y-94580358D02*
X24218704Y-93580358D01*
X37218704Y-94580358D02*
X38218704Y-94580358D01*
X130476665Y-75660701D02*
X128476665Y-75660701D01*
X128476665Y-75660701D02*
X128476665Y-77660701D01*
X128476665Y-77660701D02*
X130476665Y-77660701D01*
X130476665Y-77660701D02*
X130476665Y-75660701D01*
X44268698Y-49530366D02*
X43268698Y-49530366D01*
X57268698Y-49530366D02*
X56268698Y-49530366D01*
X43268698Y-63530366D02*
X44268698Y-63530366D01*
X57268698Y-49530366D02*
X57268698Y-50530366D01*
X43268698Y-50530366D02*
X43268698Y-49530366D01*
X57268698Y-62530366D02*
X57268698Y-63530366D01*
X43268698Y-63530366D02*
X43268698Y-62530366D01*
X56268698Y-63530366D02*
X57268698Y-63530366D01*
X63318695Y-43529863D02*
X62318695Y-43529863D01*
X76318695Y-43529863D02*
X75318695Y-43529863D01*
X62318695Y-57529863D02*
X63318695Y-57529863D01*
X76318695Y-43529863D02*
X76318695Y-44529863D01*
X62318695Y-44529863D02*
X62318695Y-43529863D01*
X76318695Y-56529863D02*
X76318695Y-57529863D01*
X62318695Y-57529863D02*
X62318695Y-56529863D01*
X75318695Y-57529863D02*
X76318695Y-57529863D01*
X243177910Y-61309702D02*
X242177910Y-61309702D01*
X256177910Y-61309702D02*
X255177910Y-61309702D01*
X242177910Y-75309702D02*
X243177910Y-75309702D01*
X256177910Y-61309702D02*
X256177910Y-62309702D01*
X242177910Y-62309702D02*
X242177910Y-61309702D01*
X256177910Y-74309702D02*
X256177910Y-75309702D01*
X242177910Y-75309702D02*
X242177910Y-74309702D01*
X255177910Y-75309702D02*
X256177910Y-75309702D01*
X229627903Y-83599700D02*
X230527903Y-82899700D01*
X229627903Y-82899700D02*
X229627903Y-84299700D01*
X230527903Y-84299700D02*
X229627903Y-83599700D01*
X230527903Y-82899700D02*
X230527903Y-84299700D01*
X30686665Y-115150701D02*
X31586665Y-114450701D01*
X31586665Y-115850701D02*
X30686665Y-115150701D01*
X31586665Y-114450701D02*
X31586665Y-115850701D01*
X30686665Y-114450701D02*
X30686665Y-115850701D01*
X25218702Y-99630361D02*
X24218702Y-99630361D01*
X38218702Y-99630361D02*
X37218702Y-99630361D01*
X24218702Y-113630361D02*
X25218702Y-113630361D01*
X38218702Y-99630361D02*
X38218702Y-100630361D01*
X24218702Y-100630361D02*
X24218702Y-99630361D01*
X38218702Y-112630361D02*
X38218702Y-113630361D01*
X24218702Y-113630361D02*
X24218702Y-112630361D01*
X37218702Y-113630361D02*
X38218702Y-113630361D01*
D11*
X139200000Y-48789000D02*
G75*
G03*
X141200000Y-48789000I1000000J0D01*
G01*
X141200000Y-54631000D02*
G75*
G03*
X139200000Y-54631000I-1000000J0D01*
G01*
D12*
X218019940Y-109390039D02*
X217019940Y-109390039D01*
X217519940Y-108490039D02*
X218019940Y-109390039D01*
X216769940Y-106190039D02*
X216769940Y-111590039D01*
X218269940Y-111590039D02*
X216769940Y-111590039D01*
X218269940Y-106190039D02*
X216769940Y-106190039D01*
X218019940Y-108390039D02*
X217019940Y-108390039D01*
X218269940Y-111590039D02*
X218269940Y-106190039D01*
X217019940Y-109390039D02*
X217519940Y-108490039D01*
X151919940Y-77440039D02*
X151919940Y-75440039D01*
X149919940Y-75440039D02*
X149919940Y-77440039D01*
X151919940Y-75440039D02*
X149919940Y-75440039D01*
X149919940Y-77440039D02*
X151919940Y-77440039D01*
X187827198Y-108176346D02*
X188086017Y-109142272D01*
X177927703Y-125322774D02*
X178893629Y-125063955D01*
X175270162Y-111540994D02*
X174304236Y-111799813D01*
X187827198Y-108176346D02*
X186861272Y-108435165D01*
X174563055Y-112765739D02*
X174304236Y-111799813D01*
X190484738Y-121958127D02*
X191450664Y-121699308D01*
X191191845Y-120733382D02*
X191450664Y-121699308D01*
X177927703Y-125322774D02*
X177668884Y-124356849D01*
X160570761Y-134490429D02*
X161436787Y-133990429D01*
X165695117Y-115366073D02*
X164829091Y-115866073D01*
X154070761Y-123232099D02*
X153570761Y-122366073D01*
X171829091Y-127990429D02*
X172695117Y-127490429D01*
X165695117Y-115366073D02*
X166195117Y-116232099D01*
X172195117Y-126624404D02*
X172695117Y-127490429D01*
X154436787Y-121866073D02*
X153570761Y-122366073D01*
X160570761Y-134490429D02*
X160070761Y-133624404D01*
X153304940Y-77455039D02*
X155304940Y-77455039D01*
X153304940Y-75455039D02*
X153304940Y-77455039D01*
X155304940Y-77455039D02*
X155304940Y-75455039D01*
X155304940Y-75455039D02*
X153304940Y-75455039D01*
X154909940Y-106070039D02*
X154909940Y-105820039D01*
X148909940Y-109320039D02*
X154909940Y-109320039D01*
X154909940Y-105820039D02*
X148909940Y-105820039D01*
X148909940Y-105820039D02*
X148909940Y-106070039D01*
X154909940Y-109320039D02*
X154909940Y-109070039D01*
X148909940Y-109070039D02*
X148909940Y-109320039D01*
D14*
X126091665Y-76675701D03*
D15*
X131736665Y-107790701D03*
X125236665Y-107790701D03*
D14*
X129476665Y-76660701D03*
%LPC*%
X126091665Y-76675701D03*
D16*
X74376665Y-69590701D03*
D17*
X74376665Y-69580701D03*
D18*
X69296665Y-69580701D03*
D19*
X69296665Y-69590701D03*
D16*
X64216665Y-69590701D03*
D20*
X71836665Y-64510701D03*
X65486665Y-67050701D03*
D17*
X64216665Y-69580701D03*
D15*
X131736665Y-107790701D03*
X125236665Y-107790701D03*
D21*
X86668703Y-84319858D03*
X90068703Y-84319858D03*
D22*
X143219480Y-76003600D03*
X143269480Y-73003600D03*
D23*
X145069480Y-72253600D03*
X145069480Y-75253600D03*
X145069480Y-76753600D03*
D24*
X143169480Y-78603600D03*
X143169480Y-70653600D03*
D25*
X65116665Y-107315701D03*
X65116665Y-110865701D03*
D21*
X228427901Y-102649702D03*
X231827901Y-102649702D03*
D16*
X254257903Y-106409699D03*
D17*
X254257903Y-106399699D03*
D18*
X249177903Y-106399699D03*
D19*
X249177903Y-106409699D03*
D16*
X244097903Y-106409699D03*
D20*
X251717903Y-101329699D03*
X245367903Y-103869699D03*
D17*
X244097903Y-106399699D03*
D26*
X37746665Y-55870701D03*
D16*
X93448704Y-57029867D03*
D17*
X93448704Y-57019867D03*
D18*
X88368704Y-57019867D03*
D19*
X88368704Y-57029867D03*
D16*
X83288704Y-57029867D03*
D20*
X90908704Y-51949867D03*
X84558704Y-54489867D03*
D17*
X83288704Y-57019867D03*
D26*
X98046665Y-67660701D03*
D16*
X112498705Y-97629863D03*
D17*
X112498705Y-97619863D03*
D18*
X107418705Y-97619863D03*
D19*
X107418705Y-97629863D03*
D16*
X102338705Y-97629863D03*
D20*
X109958705Y-92549863D03*
X103608705Y-95089863D03*
D17*
X102338705Y-97619863D03*
D21*
X209377904Y-96649197D03*
X212777904Y-96649197D03*
D16*
X178057901Y-78359202D03*
D17*
X178057901Y-78349202D03*
D18*
X172977901Y-78349202D03*
D19*
X172977901Y-78359202D03*
D16*
X167897901Y-78359202D03*
D20*
X175517901Y-73279202D03*
X169167901Y-75819202D03*
D17*
X167897901Y-78349202D03*
D21*
X209377903Y-77599204D03*
X212777903Y-77599204D03*
D27*
X119881665Y-51625701D03*
D28*
X119886665Y-54180701D03*
D29*
X119886665Y-56715701D03*
D30*
X119886665Y-59225701D03*
D31*
X119881665Y-61780701D03*
D32*
X119886665Y-64330701D03*
D33*
X119886665Y-66885701D03*
D34*
X135861665Y-66870701D03*
D35*
X135851665Y-64335701D03*
D36*
X135841665Y-61775701D03*
D37*
X135841665Y-59215701D03*
D38*
X135831665Y-56685701D03*
D39*
X135856665Y-54170701D03*
D40*
X135861665Y-51655701D03*
D14*
X126626665Y-50678701D03*
X129166665Y-50678701D03*
X126626665Y-53218701D03*
X129166665Y-53218701D03*
X123451665Y-58933701D03*
X123451665Y-57028701D03*
D21*
X171277904Y-86599205D03*
X174677904Y-86599205D03*
X171277904Y-67549206D03*
X174677904Y-67549206D03*
X105718701Y-67769868D03*
X109118701Y-67769868D03*
D22*
X137256665Y-73875701D03*
X137206665Y-76875701D03*
D23*
X135406665Y-77625701D03*
X135406665Y-74625701D03*
X135406665Y-73125701D03*
D24*
X137306665Y-71275701D03*
X137306665Y-79225701D03*
D16*
X216157902Y-88409198D03*
D17*
X216157902Y-88399198D03*
D18*
X211077902Y-88399198D03*
D19*
X211077902Y-88409198D03*
D16*
X205997902Y-88409198D03*
D20*
X213617902Y-83329198D03*
X207267902Y-85869198D03*
D17*
X205997902Y-88399198D03*
D16*
X93448699Y-95129861D03*
D17*
X93448699Y-95119861D03*
D18*
X88368699Y-95119861D03*
D19*
X88368699Y-95129861D03*
D16*
X83288699Y-95129861D03*
D20*
X90908699Y-90049861D03*
X84558699Y-92589861D03*
D17*
X83288699Y-95119861D03*
D25*
X62876665Y-107335701D03*
X62876665Y-110885701D03*
D21*
X190327902Y-84099196D03*
X193727902Y-84099196D03*
X247479940Y-76810039D03*
X250879940Y-76810039D03*
X48568702Y-83820362D03*
X51968702Y-83820362D03*
D41*
X119716665Y-107050701D03*
D16*
X93448703Y-76079859D03*
D17*
X93448703Y-76069859D03*
D18*
X88368703Y-76069859D03*
D19*
X88368703Y-76079859D03*
D16*
X83288703Y-76079859D03*
D20*
X90908703Y-70999859D03*
X84558703Y-73539859D03*
D17*
X83288703Y-76069859D03*
D21*
X67618702Y-77819866D03*
X71018702Y-77819866D03*
D26*
X111026665Y-112370701D03*
D41*
X134036665Y-114200701D03*
D26*
X43886665Y-107270701D03*
D21*
X86668699Y-103369862D03*
X90068699Y-103369862D03*
D16*
X197107901Y-56809205D03*
D17*
X197107901Y-56799205D03*
D18*
X192027901Y-56799205D03*
D19*
X192027901Y-56809205D03*
D16*
X186947901Y-56809205D03*
D20*
X194567901Y-51729205D03*
X188217901Y-54269205D03*
D17*
X186947901Y-56799205D03*
D16*
X254257901Y-87359696D03*
D17*
X254257901Y-87349696D03*
D18*
X249177901Y-87349696D03*
D19*
X249177901Y-87359696D03*
D16*
X244097901Y-87359696D03*
D20*
X251717901Y-82279696D03*
X245367901Y-84819696D03*
D17*
X244097901Y-87349696D03*
D16*
X197107902Y-75859197D03*
D17*
X197107902Y-75849197D03*
D18*
X192027902Y-75849197D03*
D19*
X192027902Y-75859197D03*
D16*
X186947902Y-75859197D03*
D20*
X194567902Y-70779197D03*
X188217902Y-73319197D03*
D17*
X186947902Y-75849197D03*
D21*
X171277900Y-105649199D03*
X174677900Y-105649199D03*
D17*
X112869257Y-122600253D03*
X121668075Y-127680253D03*
X121668075Y-127680253D03*
D20*
X122003371Y-122019504D03*
D17*
X112869257Y-122600253D03*
D20*
X115234109Y-121044209D03*
D18*
X117268666Y-125140253D03*
X117268666Y-125140253D03*
D16*
X112864257Y-122608913D03*
X121663075Y-127688913D03*
D19*
X117263666Y-125148913D03*
D16*
X209145776Y-113959682D03*
D17*
X209145776Y-113949682D03*
D18*
X204065776Y-113949682D03*
D19*
X204065776Y-113959682D03*
D16*
X198985776Y-113959682D03*
D20*
X206605776Y-108879682D03*
X200255776Y-111419682D03*
D17*
X198985776Y-113949682D03*
D16*
X36298695Y-68530364D03*
D17*
X36298695Y-68520364D03*
D18*
X31218695Y-68520364D03*
D19*
X31218695Y-68530364D03*
D16*
X26138695Y-68530364D03*
D20*
X33758695Y-63450364D03*
X27408695Y-65990364D03*
D17*
X26138695Y-68520364D03*
D21*
X247499940Y-95850039D03*
X250899940Y-95850039D03*
X48568704Y-102870364D03*
X51968704Y-102870364D03*
D16*
X112498702Y-59529862D03*
D17*
X112498702Y-59519862D03*
D18*
X107418702Y-59519862D03*
D19*
X107418702Y-59529862D03*
D16*
X102338702Y-59529862D03*
D20*
X109958702Y-54449862D03*
X103608702Y-56989862D03*
D17*
X102338702Y-59519862D03*
D16*
X55348702Y-94630365D03*
D17*
X55348702Y-94620365D03*
D18*
X50268702Y-94620365D03*
D19*
X50268702Y-94630365D03*
D16*
X45188702Y-94630365D03*
D20*
X52808702Y-89550365D03*
X46458702Y-92090365D03*
D17*
X45188702Y-94620365D03*
D16*
X74398703Y-88629860D03*
D17*
X74398703Y-88619860D03*
D18*
X69318703Y-88619860D03*
D19*
X69318703Y-88629860D03*
D16*
X64238703Y-88629860D03*
D20*
X71858703Y-83549860D03*
X65508703Y-86089860D03*
D17*
X64238703Y-88619860D03*
D25*
X215279940Y-107095039D03*
X215279940Y-110645039D03*
D16*
X216179940Y-69370039D03*
D17*
X216179940Y-69360039D03*
D18*
X211099940Y-69360039D03*
D19*
X211099940Y-69370039D03*
D16*
X206019940Y-69370039D03*
D20*
X213639940Y-64290039D03*
X207289940Y-66830039D03*
D17*
X206019940Y-69360039D03*
D42*
X152499940Y-80345039D03*
X152499940Y-102315039D03*
D43*
X152499940Y-91330039D03*
D21*
X67618703Y-58769864D03*
X71018703Y-58769864D03*
D16*
X235207902Y-75359699D03*
D17*
X235207902Y-75349699D03*
D18*
X230127902Y-75349699D03*
D19*
X230127902Y-75359699D03*
D16*
X225047902Y-75359699D03*
D20*
X232667902Y-70279699D03*
X226317902Y-72819699D03*
D17*
X225047902Y-75349699D03*
D16*
X102426058Y-118285023D03*
D17*
X92614840Y-115645762D03*
D18*
X97521743Y-116960563D03*
X97521743Y-116960563D03*
D17*
X92614840Y-115645762D03*
X102428646Y-118275364D03*
D16*
X92612252Y-115655422D03*
D19*
X97519155Y-116970222D03*
D20*
X101287407Y-112720719D03*
X94496378Y-113530670D03*
D17*
X102428646Y-118275364D03*
D25*
X60646665Y-107335701D03*
X60646665Y-110885701D03*
D16*
X235207903Y-94409703D03*
D17*
X235207903Y-94399703D03*
D18*
X230127903Y-94399703D03*
D19*
X230127903Y-94409703D03*
D16*
X225047903Y-94409703D03*
D20*
X232667903Y-89329703D03*
X226317903Y-91869703D03*
D17*
X225047903Y-94399703D03*
D25*
X219749940Y-107115039D03*
X219749940Y-110665039D03*
D16*
X81410829Y-114180344D03*
D17*
X81410829Y-114170344D03*
D18*
X76330829Y-114170344D03*
D19*
X76330829Y-114180344D03*
D16*
X71250829Y-114180344D03*
D20*
X78870829Y-109100344D03*
X72520829Y-111640344D03*
D17*
X71250829Y-114170344D03*
D21*
X67618701Y-96869859D03*
X71018701Y-96869859D03*
X228427906Y-64549704D03*
X231827906Y-64549704D03*
D27*
X144484940Y-51405039D03*
D28*
X144489940Y-53960039D03*
D29*
X144489940Y-56495039D03*
D30*
X144489940Y-59005039D03*
D31*
X144484940Y-61560039D03*
D32*
X144489940Y-64110039D03*
D33*
X144489940Y-66665039D03*
D34*
X160464940Y-66650039D03*
D35*
X160454940Y-64115039D03*
D36*
X160444940Y-61555039D03*
D37*
X160444940Y-58995039D03*
D38*
X160434940Y-56465039D03*
D39*
X160459940Y-53950039D03*
D40*
X160464940Y-51435039D03*
D14*
X151229940Y-50458039D03*
X153769940Y-50458039D03*
X151229940Y-52998039D03*
X153769940Y-52998039D03*
X148054940Y-58713039D03*
X148054940Y-56808039D03*
D21*
X29516665Y-77030701D03*
X32916665Y-77030701D03*
D16*
X216157910Y-50309201D03*
D17*
X216157910Y-50299201D03*
D18*
X211077910Y-50299201D03*
D19*
X211077910Y-50309201D03*
D16*
X205997910Y-50309201D03*
D20*
X213617910Y-45229201D03*
X207267910Y-47769201D03*
D17*
X205997910Y-50299201D03*
D16*
X55348703Y-75580361D03*
D17*
X55348703Y-75570361D03*
D18*
X50268703Y-75570361D03*
D19*
X50268703Y-75580361D03*
D16*
X45188703Y-75580361D03*
D20*
X52808703Y-70500361D03*
X46458703Y-73040361D03*
D17*
X45188703Y-75570361D03*
D21*
X48568699Y-64770366D03*
X51968699Y-64770366D03*
X105718701Y-86819867D03*
X109118701Y-86819867D03*
X105718705Y-105869861D03*
X109118705Y-105869861D03*
D42*
X127896665Y-102535701D03*
X127896665Y-80565701D03*
D43*
X127896665Y-91550701D03*
D16*
X235207907Y-56309704D03*
D17*
X235207907Y-56299704D03*
D18*
X230127907Y-56299704D03*
D19*
X230127907Y-56309704D03*
D16*
X225047907Y-56309704D03*
D20*
X232667907Y-51229704D03*
X226317907Y-53769704D03*
D17*
X225047907Y-56299704D03*
D21*
X190327897Y-65049203D03*
X193727897Y-65049203D03*
D16*
X178057900Y-97409201D03*
D17*
X178057900Y-97399201D03*
D18*
X172977900Y-97399201D03*
D19*
X172977900Y-97409201D03*
D16*
X167897900Y-97409201D03*
D20*
X175517900Y-92329201D03*
X169167900Y-94869201D03*
D17*
X167897900Y-97399201D03*
D44*
X141166000Y-91468000D03*
X141166000Y-94516000D03*
X141166000Y-93500000D03*
X139134000Y-94516000D03*
X139134000Y-91468000D03*
X139134000Y-95532000D03*
X139134000Y-93500000D03*
X139134000Y-92484000D03*
X141166000Y-92484000D03*
X141166000Y-95532000D03*
D21*
X190327906Y-103149200D03*
X193727906Y-103149200D03*
X29496665Y-96070701D03*
X32896665Y-96070701D03*
D16*
X178057903Y-59309200D03*
D17*
X178057903Y-59299200D03*
D18*
X172977903Y-59299200D03*
D19*
X172977903Y-59309200D03*
D16*
X167897903Y-59309200D03*
D20*
X175517903Y-54229200D03*
X169167903Y-56769200D03*
D17*
X167897903Y-59299200D03*
D16*
X112498704Y-78579864D03*
D17*
X112498704Y-78569864D03*
D18*
X107418704Y-78569864D03*
D19*
X107418704Y-78579864D03*
D16*
X102338704Y-78579864D03*
D20*
X109958704Y-73499864D03*
X103608704Y-76039864D03*
D17*
X102338704Y-78569864D03*
D16*
X197107906Y-94909199D03*
D17*
X197107906Y-94899199D03*
D18*
X192027906Y-94899199D03*
D19*
X192027906Y-94909199D03*
D16*
X186947906Y-94909199D03*
D20*
X194567906Y-89829199D03*
X188217906Y-92369199D03*
D17*
X186947906Y-94899199D03*
D21*
X247509940Y-114930039D03*
X250909940Y-114930039D03*
X86668708Y-65269865D03*
X90068708Y-65269865D03*
X209377902Y-58549202D03*
X212777902Y-58549202D03*
D16*
X36298704Y-87580358D03*
D17*
X36298704Y-87570358D03*
D18*
X31218704Y-87570358D03*
D19*
X31218704Y-87580358D03*
D16*
X26138704Y-87580358D03*
D20*
X33758704Y-82500358D03*
X27408704Y-85040358D03*
D17*
X26138704Y-87570358D03*
D14*
X129476665Y-76660701D03*
D16*
X55348698Y-56530366D03*
D17*
X55348698Y-56520366D03*
D18*
X50268698Y-56520366D03*
D19*
X50268698Y-56530366D03*
D16*
X45188698Y-56530366D03*
D20*
X52808698Y-51450366D03*
X46458698Y-53990366D03*
D17*
X45188698Y-56520366D03*
D26*
X75686665Y-101540701D03*
D16*
X74398695Y-50529863D03*
D17*
X74398695Y-50519863D03*
D18*
X69318695Y-50519863D03*
D19*
X69318695Y-50529863D03*
D16*
X64238695Y-50529863D03*
D20*
X71858695Y-45449863D03*
X65508695Y-47989863D03*
D17*
X64238695Y-50519863D03*
D16*
X254257910Y-68309702D03*
D17*
X254257910Y-68299702D03*
D18*
X249177910Y-68299702D03*
D19*
X249177910Y-68309702D03*
D16*
X244097910Y-68309702D03*
D20*
X251717910Y-63229702D03*
X245367910Y-65769702D03*
D17*
X244097910Y-68299702D03*
D21*
X228427903Y-83599700D03*
X231827903Y-83599700D03*
X29486665Y-115150701D03*
X32886665Y-115150701D03*
D16*
X36298702Y-106630361D03*
D17*
X36298702Y-106620361D03*
D18*
X31218702Y-106620361D03*
D19*
X31218702Y-106630361D03*
D16*
X26138702Y-106630361D03*
D20*
X33758702Y-101550361D03*
X27408702Y-104090361D03*
D17*
X26138702Y-106620361D03*
D44*
X141216000Y-49678000D03*
X141216000Y-52726000D03*
X141216000Y-51710000D03*
X139184000Y-52726000D03*
X139184000Y-49678000D03*
X139184000Y-53742000D03*
X139184000Y-51710000D03*
X139184000Y-50694000D03*
X141216000Y-50694000D03*
X141216000Y-53742000D03*
D25*
X217519940Y-107115039D03*
X217519940Y-110665039D03*
D14*
X150919940Y-76440039D03*
D41*
X160679940Y-106830039D03*
D26*
X182349940Y-67440039D03*
D16*
X187784353Y-115434760D03*
D17*
X177967959Y-118054702D03*
D18*
X182874862Y-116739901D03*
X182874862Y-116739901D03*
D17*
X177967959Y-118054702D03*
X187781765Y-115425100D03*
D16*
X177970547Y-118064361D03*
D19*
X182877450Y-116749560D03*
D20*
X184016101Y-111185257D03*
X178539872Y-115282209D03*
D17*
X187781765Y-115425100D03*
X158728530Y-127459591D03*
X167527348Y-122379591D03*
X167527348Y-122379591D03*
D20*
X162792644Y-119258842D03*
D17*
X158728530Y-127459591D03*
D20*
X158563382Y-124633547D03*
D18*
X163127939Y-124919591D03*
X163127939Y-124919591D03*
D16*
X158733530Y-127468251D03*
X167532348Y-122388251D03*
D19*
X163132939Y-124928251D03*
D26*
X169369940Y-112150039D03*
X236509940Y-107050039D03*
D14*
X154304940Y-76455039D03*
D15*
X148659940Y-107570039D03*
X155159940Y-107570039D03*
D26*
X242649940Y-55650039D03*
D41*
X146359940Y-113980039D03*
D26*
X204709940Y-101320039D03*
M02*
