G04 #@! TF.GenerationSoftware,KiCad,Pcbnew,(6.0.10)*
G04 #@! TF.CreationDate,2023-02-02T08:57:34-03:00*
G04 #@! TF.ProjectId,pulso novo,70756c73-6f20-46e6-9f76-6f2e6b696361,0.2*
G04 #@! TF.SameCoordinates,Original*
G04 #@! TF.FileFunction,Copper,L2,Bot*
G04 #@! TF.FilePolarity,Positive*
%FSLAX46Y46*%
G04 Gerber Fmt 4.6, Leading zero omitted, Abs format (unit mm)*
G04 Created by KiCad (PCBNEW (6.0.10)) date 2023-02-02 08:57:34*
%MOMM*%
%LPD*%
G01*
G04 APERTURE LIST*
G04 Aperture macros list*
%AMRotRect*
0 Rectangle, with rotation*
0 The origin of the aperture is its center*
0 $1 length*
0 $2 width*
0 $3 Rotation angle, in degrees counterclockwise*
0 Add horizontal line*
21,1,$1,$2,0,0,$3*%
G04 Aperture macros list end*
G04 #@! TA.AperFunction,ComponentPad*
%ADD10C,1.397000*%
G04 #@! TD*
G04 #@! TA.AperFunction,SMDPad,CuDef*
%ADD11R,2.550000X2.500000*%
G04 #@! TD*
G04 #@! TA.AperFunction,ComponentPad*
%ADD12C,2.000000*%
G04 #@! TD*
G04 #@! TA.AperFunction,WasherPad*
%ADD13C,0.900000*%
G04 #@! TD*
G04 #@! TA.AperFunction,SMDPad,CuDef*
%ADD14R,0.950000X1.300000*%
G04 #@! TD*
G04 #@! TA.AperFunction,ComponentPad*
%ADD15C,5.000000*%
G04 #@! TD*
G04 #@! TA.AperFunction,ComponentPad*
%ADD16O,2.590000X1.790000*%
G04 #@! TD*
G04 #@! TA.AperFunction,ComponentPad*
%ADD17O,2.580000X1.820000*%
G04 #@! TD*
G04 #@! TA.AperFunction,ComponentPad*
%ADD18O,2.580000X1.810000*%
G04 #@! TD*
G04 #@! TA.AperFunction,ComponentPad*
%ADD19O,2.580000X1.750000*%
G04 #@! TD*
G04 #@! TA.AperFunction,ComponentPad*
%ADD20O,2.590000X1.780000*%
G04 #@! TD*
G04 #@! TA.AperFunction,ComponentPad*
%ADD21O,2.580000X1.800000*%
G04 #@! TD*
G04 #@! TA.AperFunction,ComponentPad*
%ADD22O,2.580000X1.830000*%
G04 #@! TD*
G04 #@! TA.AperFunction,ComponentPad*
%ADD23O,2.490000X1.800000*%
G04 #@! TD*
G04 #@! TA.AperFunction,ComponentPad*
%ADD24O,2.470000X1.810000*%
G04 #@! TD*
G04 #@! TA.AperFunction,ComponentPad*
%ADD25O,2.450000X1.770000*%
G04 #@! TD*
G04 #@! TA.AperFunction,ComponentPad*
%ADD26O,2.450000X1.730000*%
G04 #@! TD*
G04 #@! TA.AperFunction,ComponentPad*
%ADD27O,2.430000X1.750000*%
G04 #@! TD*
G04 #@! TA.AperFunction,ComponentPad*
%ADD28O,2.480000X1.800000*%
G04 #@! TD*
G04 #@! TA.AperFunction,ComponentPad*
%ADD29O,2.490000X1.850000*%
G04 #@! TD*
G04 #@! TA.AperFunction,ComponentPad*
%ADD30C,3.500000*%
G04 #@! TD*
G04 #@! TA.AperFunction,SMDPad,CuDef*
%ADD31RotRect,2.550000X2.500000X330.000000*%
G04 #@! TD*
G04 #@! TA.AperFunction,SMDPad,CuDef*
%ADD32RotRect,2.550000X2.500000X345.000000*%
G04 #@! TD*
G04 #@! TA.AperFunction,SMDPad,CuDef*
%ADD33RotRect,2.550000X2.500000X195.000000*%
G04 #@! TD*
G04 #@! TA.AperFunction,SMDPad,CuDef*
%ADD34RotRect,2.550000X2.500000X210.000000*%
G04 #@! TD*
G04 #@! TA.AperFunction,ViaPad*
%ADD35C,0.800000*%
G04 #@! TD*
G04 #@! TA.AperFunction,Conductor*
%ADD36C,0.250000*%
G04 #@! TD*
G04 #@! TA.AperFunction,Conductor*
%ADD37C,0.200000*%
G04 #@! TD*
G04 APERTURE END LIST*
D10*
X126091665Y-76675701D03*
D11*
X75586665Y-64510701D03*
X61736665Y-67050701D03*
D12*
X131736665Y-107790701D03*
X125236665Y-107790701D03*
D13*
X143219480Y-76003600D03*
X143269480Y-73003600D03*
D14*
X65116665Y-107315701D03*
X65116665Y-110865701D03*
D11*
X255467903Y-101329699D03*
X241617903Y-103869699D03*
D15*
X37746665Y-55870701D03*
D11*
X94658704Y-51949867D03*
X80808704Y-54489867D03*
D15*
X98046665Y-67660701D03*
D11*
X113708705Y-92549863D03*
X99858705Y-95089863D03*
X179267901Y-73279202D03*
X165417901Y-75819202D03*
D16*
X119881665Y-51625701D03*
D17*
X119886665Y-54180701D03*
D18*
X119886665Y-56715701D03*
D19*
X119886665Y-59225701D03*
D20*
X119881665Y-61780701D03*
D21*
X119886665Y-64330701D03*
D22*
X119886665Y-66885701D03*
D23*
X135861665Y-66870701D03*
D24*
X135851665Y-64335701D03*
D25*
X135841665Y-61775701D03*
D26*
X135841665Y-59215701D03*
D27*
X135831665Y-56685701D03*
D28*
X135856665Y-54170701D03*
D29*
X135861665Y-51655701D03*
D10*
X126626665Y-50678701D03*
X129166665Y-50678701D03*
X126626665Y-53218701D03*
X129166665Y-53218701D03*
X123451665Y-58933701D03*
X123451665Y-57028701D03*
D13*
X137256665Y-73875701D03*
X137206665Y-76875701D03*
D11*
X217367902Y-83329198D03*
X203517902Y-85869198D03*
X94658699Y-90049861D03*
X80808699Y-92589861D03*
D14*
X62876665Y-107335701D03*
X62876665Y-110885701D03*
D30*
X119716665Y-107050701D03*
D11*
X94658703Y-70999859D03*
X80808703Y-73539859D03*
D15*
X111026665Y-112370701D03*
D30*
X134036665Y-114200701D03*
D15*
X43886665Y-107270701D03*
D11*
X198317901Y-51729205D03*
X184467901Y-54269205D03*
X255467901Y-82279696D03*
X241617901Y-84819696D03*
X198317902Y-70779197D03*
X184467902Y-73319197D03*
D31*
X125250966Y-123894504D03*
X111986514Y-119169209D03*
D11*
X210355776Y-108879682D03*
X196505776Y-111419682D03*
X37508695Y-63450364D03*
X23658695Y-65990364D03*
X113708702Y-54449862D03*
X99858702Y-56989862D03*
X56558702Y-89550365D03*
X42708702Y-92090365D03*
X75608703Y-83549860D03*
X61758703Y-86089860D03*
D14*
X215279940Y-107095039D03*
X215279940Y-110645039D03*
D11*
X217389940Y-64290039D03*
X203539940Y-66830039D03*
X236417902Y-70279699D03*
X222567902Y-72819699D03*
D32*
X104909629Y-113691291D03*
X90874156Y-112560099D03*
D14*
X60646665Y-107335701D03*
X60646665Y-110885701D03*
D11*
X236417903Y-89329703D03*
X222567903Y-91869703D03*
D14*
X219749940Y-107115039D03*
X219749940Y-110665039D03*
D11*
X82620829Y-109100344D03*
X68770829Y-111640344D03*
D16*
X144484940Y-51405039D03*
D17*
X144489940Y-53960039D03*
D18*
X144489940Y-56495039D03*
D19*
X144489940Y-59005039D03*
D20*
X144484940Y-61560039D03*
D21*
X144489940Y-64110039D03*
D22*
X144489940Y-66665039D03*
D23*
X160464940Y-66650039D03*
D24*
X160454940Y-64115039D03*
D25*
X160444940Y-61555039D03*
D26*
X160444940Y-58995039D03*
D27*
X160434940Y-56465039D03*
D28*
X160459940Y-53950039D03*
D29*
X160464940Y-51435039D03*
D10*
X151229940Y-50458039D03*
X153769940Y-50458039D03*
X151229940Y-52998039D03*
X153769940Y-52998039D03*
X148054940Y-58713039D03*
X148054940Y-56808039D03*
D11*
X217367910Y-45229201D03*
X203517910Y-47769201D03*
X56558703Y-70500361D03*
X42708703Y-73040361D03*
X236417907Y-51229704D03*
X222567907Y-53769704D03*
X179267900Y-92329201D03*
X165417900Y-94869201D03*
X179267903Y-54229200D03*
X165417903Y-56769200D03*
X113708704Y-73499864D03*
X99858704Y-76039864D03*
X198317906Y-89829199D03*
X184467906Y-92369199D03*
X37508704Y-82500358D03*
X23658704Y-85040358D03*
D10*
X129476665Y-76660701D03*
D11*
X56558698Y-51450366D03*
X42708698Y-53990366D03*
D15*
X75686665Y-101540701D03*
D11*
X75608695Y-45449863D03*
X61758695Y-47989863D03*
X255467910Y-63229702D03*
X241617910Y-65769702D03*
X37508702Y-101550361D03*
X23658702Y-104090361D03*
D14*
X217519940Y-107115039D03*
X217519940Y-110665039D03*
D10*
X150919940Y-76440039D03*
D30*
X160679940Y-106830039D03*
D15*
X182349940Y-67440039D03*
D33*
X187638323Y-110214685D03*
X174917651Y-116252781D03*
D34*
X166040239Y-117383842D03*
X155315787Y-126508547D03*
D15*
X169369940Y-112150039D03*
X236509940Y-107050039D03*
D10*
X154304940Y-76455039D03*
D12*
X148659940Y-107570039D03*
X155159940Y-107570039D03*
D15*
X242649940Y-55650039D03*
D30*
X146359940Y-113980039D03*
D15*
X204709940Y-101320039D03*
D35*
X117824500Y-57680000D03*
X37508695Y-63450364D03*
X56558698Y-51450366D03*
X72589014Y-50679014D03*
X94658704Y-51949867D03*
X113708702Y-54449862D03*
X37508704Y-82500358D03*
X56558703Y-70500361D03*
X75586665Y-64510701D03*
X94658703Y-70999859D03*
X113708704Y-73499864D03*
X124090000Y-67880000D03*
X119380000Y-103810000D03*
X106990000Y-108180000D03*
X37508702Y-101550361D03*
X56558702Y-89550365D03*
X75608703Y-83549860D03*
X94658699Y-90049861D03*
X113708705Y-92549863D03*
X118500000Y-76070000D03*
X116760000Y-69180000D03*
X69240000Y-123000000D03*
X125250966Y-123894504D03*
X255467910Y-63229702D03*
X236417907Y-51229704D03*
X217367910Y-45229201D03*
X198317901Y-51729205D03*
X179267903Y-54229200D03*
X181342815Y-47942899D03*
X197653516Y-86643600D03*
X255467901Y-82279696D03*
X236417902Y-70279699D03*
X217389940Y-64290039D03*
X198317902Y-70779197D03*
X179267901Y-73279202D03*
X188063880Y-103149200D03*
X181652815Y-49212899D03*
X255467903Y-101329699D03*
X236417903Y-89329703D03*
X217367902Y-83329198D03*
X198317906Y-89829199D03*
X179267900Y-92329201D03*
X218882815Y-104982899D03*
X191119480Y-122613600D03*
X169579480Y-119733600D03*
X128490000Y-99560000D03*
X127896665Y-80565701D03*
X151542815Y-99792899D03*
X152499940Y-80345039D03*
X134090000Y-76600000D03*
X128180000Y-72810000D03*
X157882815Y-76812899D03*
X72730000Y-98300000D03*
X125530000Y-64870000D03*
X127722701Y-68037299D03*
X130210000Y-69010000D03*
X219332815Y-43312899D03*
X241617910Y-65769702D03*
X211392815Y-73942899D03*
X201532815Y-95812899D03*
X217902815Y-98792899D03*
X210602815Y-100852899D03*
X193062815Y-100372899D03*
X222567903Y-91869703D03*
X181892815Y-51652899D03*
X203539940Y-51730024D03*
X190292815Y-51982899D03*
X181712815Y-54122899D03*
X165417901Y-60247985D03*
X146922815Y-75222899D03*
X154452815Y-71732899D03*
X63760000Y-120760000D03*
X217029480Y-116183600D03*
D36*
X118570000Y-51300000D02*
X119945964Y-51300000D01*
X117824500Y-57680000D02*
X117824500Y-53504500D01*
X117800000Y-53480000D02*
X117800000Y-52070000D01*
X119945964Y-51300000D02*
X120276665Y-51630701D01*
X117800000Y-52070000D02*
X118570000Y-51300000D01*
X117824500Y-53504500D02*
X117800000Y-53480000D01*
X75608695Y-45449863D02*
X72589014Y-48469544D01*
X72589014Y-48469544D02*
X72589014Y-50679014D01*
X122360000Y-58290000D02*
X122360000Y-66300000D01*
X120780701Y-56710701D02*
X122120000Y-58050000D01*
X115010000Y-108180000D02*
X106990000Y-108180000D01*
X119380000Y-103810000D02*
X115010000Y-108180000D01*
X120276665Y-56710701D02*
X120780701Y-56710701D01*
X122120000Y-58050000D02*
X122360000Y-58290000D01*
X122360000Y-66300000D02*
X123940000Y-67880000D01*
X123940000Y-67880000D02*
X124090000Y-67880000D01*
X118500000Y-70920000D02*
X116760000Y-69180000D01*
X118500000Y-76070000D02*
X118500000Y-70920000D01*
X69240000Y-123000000D02*
X95600920Y-123000000D01*
X95600920Y-123000000D02*
X104909629Y-113691291D01*
X181342815Y-47942899D02*
X193452815Y-47942899D01*
X193452815Y-47942899D02*
X193832815Y-48322899D01*
X200652815Y-83644301D02*
X197653516Y-86643600D01*
X193832815Y-48322899D02*
X200652815Y-48322899D01*
X200652815Y-48322899D02*
X200652815Y-83644301D01*
X195782901Y-74992813D02*
X195782901Y-88362985D01*
X196442907Y-93690363D02*
X194282815Y-95850455D01*
X195703036Y-69262679D02*
X196442903Y-70002546D01*
X196442903Y-70002546D02*
X196442903Y-74332811D01*
X196442907Y-89022991D02*
X196442907Y-93690363D01*
X196442903Y-74332811D02*
X195782901Y-74992813D01*
X195782901Y-88362985D02*
X196442907Y-89022991D01*
X181652815Y-49212899D02*
X189399943Y-49212899D01*
X194282815Y-95850455D02*
X194282815Y-96930265D01*
X189399943Y-49212899D02*
X195703036Y-55515992D01*
X194282815Y-96930265D02*
X188063880Y-103149200D01*
X195703036Y-55515992D02*
X195703036Y-69262679D01*
X201472815Y-42752899D02*
X203352815Y-40872899D01*
X201472815Y-44432899D02*
X201472815Y-42752899D01*
X199322815Y-46582899D02*
X201472815Y-44432899D01*
X146104940Y-57805039D02*
X146104940Y-50903020D01*
X144879940Y-59030039D02*
X146104940Y-57805039D01*
X146104940Y-50903020D02*
X150425061Y-46582899D01*
X220642815Y-103222899D02*
X218882815Y-104982899D01*
X210042815Y-41252899D02*
X220642815Y-41252899D01*
X220642815Y-41252899D02*
X220642815Y-103222899D01*
X150425061Y-46582899D02*
X199322815Y-46582899D01*
X203352815Y-40872899D02*
X209662815Y-40872899D01*
X209662815Y-40872899D02*
X210042815Y-41252899D01*
X190759480Y-113335842D02*
X187638323Y-110214685D01*
X190759480Y-122253600D02*
X190759480Y-113335842D01*
X191119480Y-122613600D02*
X190759480Y-122253600D01*
X168389997Y-119733600D02*
X166040239Y-117383842D01*
X169579480Y-119733600D02*
X168389997Y-119733600D01*
X128490000Y-99560000D02*
X132380000Y-95670000D01*
X132380000Y-95670000D02*
X132380000Y-85049036D01*
X132380000Y-85049036D02*
X127896665Y-80565701D01*
X149672815Y-83172164D02*
X152499940Y-80345039D01*
X151542815Y-99792899D02*
X149672815Y-97922899D01*
X149672815Y-97922899D02*
X149672815Y-83172164D01*
X123451665Y-65961665D02*
X124300000Y-66810000D01*
X129600000Y-66810000D02*
X134090000Y-71300000D01*
X124300000Y-66810000D02*
X129600000Y-66810000D01*
X134090000Y-71300000D02*
X134090000Y-76600000D01*
X123451665Y-58933701D02*
X123451665Y-65961665D01*
X125236665Y-84923335D02*
X126610000Y-83550000D01*
X127030000Y-83130000D02*
X127030000Y-78580000D01*
X125236665Y-107790701D02*
X125236665Y-84923335D01*
X126610000Y-83550000D02*
X127030000Y-83130000D01*
X128180000Y-76509918D02*
X128180000Y-72810000D01*
X127030000Y-77659918D02*
X128180000Y-76509918D01*
X127030000Y-78580000D02*
X127030000Y-77659918D01*
X128780000Y-55270000D02*
X129166665Y-54883335D01*
X129166665Y-54883335D02*
X129166665Y-53218701D01*
X129166665Y-53218701D02*
X134564665Y-53218701D01*
X123451665Y-56568335D02*
X124750000Y-55270000D01*
X123451665Y-57028701D02*
X123451665Y-56568335D01*
X126061665Y-76705701D02*
X126091665Y-76675701D01*
X134564665Y-53218701D02*
X135516665Y-54170701D01*
X124750000Y-55270000D02*
X128780000Y-55270000D01*
X157882815Y-76812899D02*
X151229940Y-70160024D01*
X151229940Y-70160024D02*
X151229940Y-52998039D01*
X118910701Y-61790701D02*
X120276665Y-61790701D01*
X23658695Y-65990364D02*
X23658695Y-85040349D01*
X63510000Y-40420000D02*
X78010000Y-40420000D01*
X23658695Y-85040349D02*
X23658704Y-85040358D01*
X117100000Y-59980000D02*
X118910701Y-61790701D01*
X57045000Y-46885000D02*
X63510000Y-40420000D01*
D37*
X23658702Y-85040360D02*
X23658704Y-85040358D01*
D36*
X23658695Y-48381305D02*
X25155000Y-46885000D01*
X117100000Y-51520000D02*
X117100000Y-59980000D01*
X79360000Y-41770000D02*
X79360000Y-45130000D01*
X81090000Y-46860000D02*
X112520000Y-46860000D01*
D37*
X23658702Y-104090361D02*
X23658702Y-85040360D01*
D36*
X115450000Y-49870000D02*
X117100000Y-51520000D01*
X112520000Y-46860000D02*
X115450000Y-49790000D01*
X79360000Y-45130000D02*
X81090000Y-46860000D01*
X25155000Y-46885000D02*
X57045000Y-46885000D01*
X78010000Y-40420000D02*
X79360000Y-41770000D01*
X115450000Y-49790000D02*
X115450000Y-49870000D01*
X23658695Y-65990364D02*
X23658695Y-48381305D01*
D37*
X42708698Y-53990366D02*
X42708698Y-49381302D01*
X44316665Y-65170701D02*
X44316665Y-68540701D01*
X44316665Y-68540701D02*
X42708703Y-70148663D01*
X58200000Y-47340000D02*
X64519480Y-41020520D01*
X42708702Y-92090365D02*
X42708703Y-73040361D01*
X42708698Y-63562734D02*
X44316665Y-65170701D01*
X42708698Y-49381302D02*
X44750000Y-47340000D01*
X78935000Y-41946040D02*
X78935000Y-45306041D01*
X80913959Y-47285000D02*
X111705000Y-47285000D01*
X78935000Y-45306041D02*
X80913959Y-47285000D01*
X78009480Y-41020520D02*
X78935000Y-41946040D01*
X42708698Y-53990366D02*
X42708698Y-63562734D01*
X119420701Y-64330701D02*
X120276665Y-64330701D01*
X116480000Y-52060000D02*
X116480000Y-61390000D01*
X44750000Y-47340000D02*
X58200000Y-47340000D01*
X116480000Y-61390000D02*
X119420701Y-64330701D01*
X64519480Y-41020520D02*
X78009480Y-41020520D01*
X42708703Y-70148663D02*
X42708703Y-73040361D01*
X111705000Y-47285000D02*
X116480000Y-52060000D01*
X61736665Y-48011893D02*
X61758695Y-47989863D01*
D36*
X135516665Y-59250701D02*
X131149299Y-59250701D01*
D37*
X68770829Y-104684865D02*
X68672982Y-104587018D01*
X68672982Y-104587018D02*
X61758703Y-97672739D01*
D36*
X72730000Y-100530000D02*
X68672982Y-104587018D01*
D37*
X61736665Y-67050701D02*
X61736665Y-48011893D01*
X68770829Y-111640344D02*
X68770829Y-104684865D01*
X61758703Y-81148663D02*
X62856665Y-80050701D01*
X62856665Y-80050701D02*
X61736665Y-78930701D01*
X61736665Y-78930701D02*
X61736665Y-67050701D01*
D36*
X72730000Y-98300000D02*
X72730000Y-100530000D01*
D37*
X61758703Y-97672739D02*
X61758703Y-86089860D01*
X61758703Y-86089860D02*
X61758703Y-81148663D01*
D36*
X131149299Y-59250701D02*
X125530000Y-64870000D01*
D37*
X82576665Y-67710701D02*
X80808703Y-69478663D01*
D36*
X81606665Y-104000701D02*
X81606665Y-98040701D01*
X82976665Y-105370701D02*
X81606665Y-104000701D01*
X87520000Y-54070000D02*
X84780000Y-51330000D01*
D37*
X80808699Y-92589861D02*
X80808699Y-73539863D01*
D36*
X125718103Y-68037299D02*
X125110402Y-68645000D01*
X125110402Y-68645000D02*
X117705000Y-68645000D01*
X80808704Y-51511296D02*
X80808704Y-54489867D01*
X127722701Y-68037299D02*
X125718103Y-68037299D01*
D37*
X80808704Y-54489867D02*
X80808704Y-62392740D01*
X80808699Y-73539863D02*
X80808703Y-73539859D01*
D36*
X83684758Y-105370701D02*
X82976665Y-105370701D01*
D37*
X82576665Y-64160701D02*
X82576665Y-67710701D01*
D36*
X80990000Y-51330000D02*
X80808704Y-51511296D01*
X80808699Y-97242735D02*
X80808699Y-92589861D01*
X106000000Y-54070000D02*
X87520000Y-54070000D01*
X84780000Y-51330000D02*
X80990000Y-51330000D01*
X81606665Y-98040701D02*
X80808699Y-97242735D01*
X110760000Y-58830000D02*
X106000000Y-54070000D01*
X90874156Y-112560099D02*
X83684758Y-105370701D01*
X117705000Y-68645000D02*
X110760000Y-61700000D01*
X110760000Y-61700000D02*
X110760000Y-58830000D01*
D37*
X80808703Y-69478663D02*
X80808703Y-73539859D01*
X80808704Y-62392740D02*
X82576665Y-64160701D01*
D36*
X99858705Y-95089863D02*
X99858705Y-87688661D01*
X101071665Y-108735701D02*
X99716665Y-107380701D01*
X107376665Y-114559360D02*
X111986514Y-119169209D01*
X100807982Y-61532018D02*
X99858702Y-60582738D01*
X122335000Y-76795000D02*
X125340000Y-73790000D01*
X115710000Y-74305305D02*
X118199695Y-76795000D01*
X99858702Y-60582738D02*
X99858702Y-56989862D01*
X110495964Y-71220000D02*
X115710000Y-71220000D01*
X100956665Y-61680701D02*
X100807982Y-61532018D01*
X99858705Y-87688661D02*
X101586665Y-85960701D01*
X107376665Y-112230701D02*
X107376665Y-114559360D01*
X130120000Y-69010000D02*
X130210000Y-69010000D01*
X99716665Y-107380701D02*
X99858705Y-107238661D01*
X101586665Y-85960701D02*
X101586665Y-83010701D01*
X125340000Y-73790000D02*
X130120000Y-69010000D01*
X101071665Y-108735701D02*
X103881665Y-108735701D01*
X118199695Y-76795000D02*
X122335000Y-76795000D01*
X103881665Y-108735701D02*
X107376665Y-112230701D01*
X115710000Y-71220000D02*
X115710000Y-74305305D01*
X101586665Y-83010701D02*
X99858704Y-81282740D01*
X100956665Y-69360701D02*
X100956665Y-61680701D01*
X99858705Y-107238661D02*
X99858705Y-95089863D01*
X99858704Y-81282740D02*
X99858704Y-76039864D01*
X100807982Y-61532018D02*
X110495964Y-71220000D01*
X99858704Y-76039864D02*
X99858704Y-70458662D01*
X99858704Y-70458662D02*
X100956665Y-69360701D01*
X219242815Y-70772899D02*
X219332815Y-70682899D01*
X216072815Y-73942899D02*
X219242815Y-70772899D01*
X211392815Y-73942899D02*
X216072815Y-73942899D01*
X241617901Y-84819696D02*
X241617901Y-65769711D01*
X241617901Y-65769711D02*
X241617910Y-65769702D01*
X219332815Y-70682899D02*
X219332815Y-43312899D01*
X241617903Y-103869699D02*
X241617903Y-84819698D01*
X241617903Y-84819698D02*
X241617901Y-84819696D01*
X196972815Y-100372899D02*
X201532815Y-95812899D01*
X193062815Y-100372899D02*
X196972815Y-100372899D01*
X222567907Y-53769704D02*
X222567907Y-72819694D01*
X210602815Y-100852899D02*
X215842815Y-100852899D01*
X222567902Y-72819699D02*
X222567903Y-91869703D01*
X222567907Y-72819694D02*
X222567902Y-72819699D01*
X215842815Y-100852899D02*
X217902815Y-98792899D01*
X200929480Y-101105345D02*
X200929480Y-98103600D01*
X203539940Y-66830039D02*
X203539940Y-51730024D01*
X196505776Y-111419682D02*
X196505776Y-105529049D01*
X203517902Y-85869198D02*
X203517902Y-66852077D01*
X203517902Y-66852077D02*
X203539940Y-66830039D01*
X196505776Y-105529049D02*
X200929480Y-101105345D01*
X189962815Y-51652899D02*
X190292815Y-51982899D01*
X203539940Y-51730024D02*
X203539940Y-47791231D01*
X181892815Y-51652899D02*
X189962815Y-51652899D01*
X203539940Y-47791231D02*
X203517910Y-47769201D01*
X203517902Y-95515178D02*
X203517902Y-85869198D01*
X200929480Y-98103600D02*
X203517902Y-95515178D01*
X186159480Y-71627619D02*
X184467902Y-73319197D01*
X184467906Y-102535174D02*
X184467906Y-92369199D01*
X184467906Y-73319201D02*
X184467902Y-73319197D01*
X182129480Y-104873600D02*
X184467906Y-102535174D01*
X186159480Y-64963600D02*
X186159480Y-71627619D01*
X182129480Y-109040952D02*
X182129480Y-104873600D01*
X181712815Y-54122899D02*
X181859121Y-54269205D01*
X184467906Y-92369199D02*
X184467906Y-73319201D01*
X181859121Y-54269205D02*
X184467901Y-54269205D01*
X174917651Y-116252781D02*
X182129480Y-109040952D01*
X184467901Y-54269205D02*
X184467901Y-63272021D01*
X184467901Y-63272021D02*
X186159480Y-64963600D01*
X165417901Y-60247985D02*
X165417901Y-56769202D01*
X165417901Y-56769202D02*
X165417903Y-56769200D01*
X155315787Y-121527293D02*
X165417900Y-111425180D01*
X165417900Y-111425180D02*
X165417900Y-94869201D01*
X165417900Y-94869201D02*
X165417901Y-75819202D01*
X155315787Y-126508547D02*
X155315787Y-121527293D01*
X165417901Y-75819202D02*
X165417901Y-60247985D01*
X148054940Y-58713039D02*
X148054940Y-74090774D01*
X148054940Y-74090774D02*
X146922815Y-75222899D01*
X154452815Y-59617164D02*
X160119940Y-53950039D01*
X154452815Y-71732899D02*
X154452815Y-59617164D01*
X63760000Y-120760000D02*
X81200000Y-120760000D01*
X82735830Y-109215345D02*
X82620829Y-109100344D01*
X82735830Y-119224170D02*
X82735830Y-109215345D01*
X81200000Y-120760000D02*
X82735830Y-119224170D01*
X213212815Y-112366935D02*
X213212815Y-114492899D01*
X210355776Y-108879682D02*
X210355776Y-109509896D01*
X214903516Y-116183600D02*
X217029480Y-116183600D01*
X213212815Y-114492899D02*
X214903516Y-116183600D01*
X210355776Y-109509896D02*
X213212815Y-112366935D01*
M02*
