G04 #@! TF.GenerationSoftware,KiCad,Pcbnew,(6.0.10)*
G04 #@! TF.CreationDate,2023-02-02T08:57:34-03:00*
G04 #@! TF.ProjectId,pulso novo,70756c73-6f20-46e6-9f76-6f2e6b696361,0.2*
G04 #@! TF.SameCoordinates,Original*
G04 #@! TF.FileFunction,Copper,L1,Top*
G04 #@! TF.FilePolarity,Positive*
%FSLAX46Y46*%
G04 Gerber Fmt 4.6, Leading zero omitted, Abs format (unit mm)*
G04 Created by KiCad (PCBNEW (6.0.10)) date 2023-02-02 08:57:34*
%MOMM*%
%LPD*%
G01*
G04 APERTURE LIST*
G04 #@! TA.AperFunction,ComponentPad*
%ADD10C,1.397000*%
G04 #@! TD*
G04 #@! TA.AperFunction,ComponentPad*
%ADD11C,2.000000*%
G04 #@! TD*
G04 #@! TA.AperFunction,SMDPad,CuDef*
%ADD12R,1.800000X1.500000*%
G04 #@! TD*
G04 #@! TA.AperFunction,WasherPad*
%ADD13C,0.900000*%
G04 #@! TD*
G04 #@! TA.AperFunction,SMDPad,CuDef*
%ADD14R,1.000000X0.700000*%
G04 #@! TD*
G04 #@! TA.AperFunction,SMDPad,CuDef*
%ADD15R,2.800000X1.000000*%
G04 #@! TD*
G04 #@! TA.AperFunction,SMDPad,CuDef*
%ADD16R,0.950000X1.300000*%
G04 #@! TD*
G04 #@! TA.AperFunction,ComponentPad*
%ADD17C,5.000000*%
G04 #@! TD*
G04 #@! TA.AperFunction,ComponentPad*
%ADD18O,2.590000X1.790000*%
G04 #@! TD*
G04 #@! TA.AperFunction,ComponentPad*
%ADD19O,2.580000X1.820000*%
G04 #@! TD*
G04 #@! TA.AperFunction,ComponentPad*
%ADD20O,2.580000X1.810000*%
G04 #@! TD*
G04 #@! TA.AperFunction,ComponentPad*
%ADD21O,2.580000X1.750000*%
G04 #@! TD*
G04 #@! TA.AperFunction,ComponentPad*
%ADD22O,2.590000X1.780000*%
G04 #@! TD*
G04 #@! TA.AperFunction,ComponentPad*
%ADD23O,2.580000X1.800000*%
G04 #@! TD*
G04 #@! TA.AperFunction,ComponentPad*
%ADD24O,2.580000X1.830000*%
G04 #@! TD*
G04 #@! TA.AperFunction,ComponentPad*
%ADD25O,2.490000X1.800000*%
G04 #@! TD*
G04 #@! TA.AperFunction,ComponentPad*
%ADD26O,2.470000X1.810000*%
G04 #@! TD*
G04 #@! TA.AperFunction,ComponentPad*
%ADD27O,2.450000X1.770000*%
G04 #@! TD*
G04 #@! TA.AperFunction,ComponentPad*
%ADD28O,2.450000X1.730000*%
G04 #@! TD*
G04 #@! TA.AperFunction,ComponentPad*
%ADD29O,2.430000X1.750000*%
G04 #@! TD*
G04 #@! TA.AperFunction,ComponentPad*
%ADD30O,2.480000X1.800000*%
G04 #@! TD*
G04 #@! TA.AperFunction,ComponentPad*
%ADD31O,2.490000X1.850000*%
G04 #@! TD*
G04 #@! TA.AperFunction,ComponentPad*
%ADD32C,3.500000*%
G04 #@! TD*
G04 #@! TA.AperFunction,SMDPad,CuDef*
%ADD33R,5.080000X1.270000*%
G04 #@! TD*
G04 #@! TA.AperFunction,SMDPad,CuDef*
%ADD34R,3.960000X3.960000*%
G04 #@! TD*
G04 #@! TA.AperFunction,ViaPad*
%ADD35C,0.800000*%
G04 #@! TD*
G04 #@! TA.AperFunction,Conductor*
%ADD36C,0.250000*%
G04 #@! TD*
G04 APERTURE END LIST*
D10*
X126091665Y-76675701D03*
D11*
X131736665Y-107790701D03*
X125236665Y-107790701D03*
D12*
X86668703Y-84319858D03*
X90068703Y-84319858D03*
D13*
X143219480Y-76003600D03*
X143269480Y-73003600D03*
D14*
X145069480Y-72253600D03*
X145069480Y-75253600D03*
X145069480Y-76753600D03*
D15*
X143169480Y-78603600D03*
X143169480Y-70653600D03*
D16*
X65116665Y-107315701D03*
X65116665Y-110865701D03*
D12*
X228427901Y-102649702D03*
X231827901Y-102649702D03*
D17*
X37746665Y-55870701D03*
X98046665Y-67660701D03*
D12*
X209377904Y-96649197D03*
X212777904Y-96649197D03*
X209377903Y-77599204D03*
X212777903Y-77599204D03*
D18*
X119881665Y-51625701D03*
D19*
X119886665Y-54180701D03*
D20*
X119886665Y-56715701D03*
D21*
X119886665Y-59225701D03*
D22*
X119881665Y-61780701D03*
D23*
X119886665Y-64330701D03*
D24*
X119886665Y-66885701D03*
D25*
X135861665Y-66870701D03*
D26*
X135851665Y-64335701D03*
D27*
X135841665Y-61775701D03*
D28*
X135841665Y-59215701D03*
D29*
X135831665Y-56685701D03*
D30*
X135856665Y-54170701D03*
D31*
X135861665Y-51655701D03*
D10*
X126626665Y-50678701D03*
X129166665Y-50678701D03*
X126626665Y-53218701D03*
X129166665Y-53218701D03*
X123451665Y-58933701D03*
X123451665Y-57028701D03*
D12*
X171277904Y-86599205D03*
X174677904Y-86599205D03*
X171277904Y-67549206D03*
X174677904Y-67549206D03*
X105718701Y-67769868D03*
X109118701Y-67769868D03*
D13*
X137256665Y-73875701D03*
X137206665Y-76875701D03*
D14*
X135406665Y-77625701D03*
X135406665Y-74625701D03*
X135406665Y-73125701D03*
D15*
X137306665Y-71275701D03*
X137306665Y-79225701D03*
D16*
X62876665Y-107335701D03*
X62876665Y-110885701D03*
D12*
X190327902Y-84099196D03*
X193727902Y-84099196D03*
X247479940Y-76810039D03*
X250879940Y-76810039D03*
X48568702Y-83820362D03*
X51968702Y-83820362D03*
D32*
X119716665Y-107050701D03*
D12*
X67618702Y-77819866D03*
X71018702Y-77819866D03*
D17*
X111026665Y-112370701D03*
D32*
X134036665Y-114200701D03*
D17*
X43886665Y-107270701D03*
D12*
X86668699Y-103369862D03*
X90068699Y-103369862D03*
X171277900Y-105649199D03*
X174677900Y-105649199D03*
X247499940Y-95850039D03*
X250899940Y-95850039D03*
X48568704Y-102870364D03*
X51968704Y-102870364D03*
D16*
X215279940Y-107095039D03*
X215279940Y-110645039D03*
D33*
X152499940Y-80345039D03*
X152499940Y-102315039D03*
D34*
X152499940Y-91330039D03*
D12*
X67618703Y-58769864D03*
X71018703Y-58769864D03*
D16*
X60646665Y-107335701D03*
X60646665Y-110885701D03*
X219749940Y-107115039D03*
X219749940Y-110665039D03*
D12*
X67618701Y-96869859D03*
X71018701Y-96869859D03*
X228427906Y-64549704D03*
X231827906Y-64549704D03*
D18*
X144484940Y-51405039D03*
D19*
X144489940Y-53960039D03*
D20*
X144489940Y-56495039D03*
D21*
X144489940Y-59005039D03*
D22*
X144484940Y-61560039D03*
D23*
X144489940Y-64110039D03*
D24*
X144489940Y-66665039D03*
D25*
X160464940Y-66650039D03*
D26*
X160454940Y-64115039D03*
D27*
X160444940Y-61555039D03*
D28*
X160444940Y-58995039D03*
D29*
X160434940Y-56465039D03*
D30*
X160459940Y-53950039D03*
D31*
X160464940Y-51435039D03*
D10*
X151229940Y-50458039D03*
X153769940Y-50458039D03*
X151229940Y-52998039D03*
X153769940Y-52998039D03*
X148054940Y-58713039D03*
X148054940Y-56808039D03*
D12*
X29516665Y-77030701D03*
X32916665Y-77030701D03*
X48568699Y-64770366D03*
X51968699Y-64770366D03*
X105718701Y-86819867D03*
X109118701Y-86819867D03*
X105718705Y-105869861D03*
X109118705Y-105869861D03*
D33*
X127896665Y-102535701D03*
X127896665Y-80565701D03*
D34*
X127896665Y-91550701D03*
D12*
X190327897Y-65049203D03*
X193727897Y-65049203D03*
X190327906Y-103149200D03*
X193727906Y-103149200D03*
X29496665Y-96070701D03*
X32896665Y-96070701D03*
X247509940Y-114930039D03*
X250909940Y-114930039D03*
X86668708Y-65269865D03*
X90068708Y-65269865D03*
X209377902Y-58549202D03*
X212777902Y-58549202D03*
D10*
X129476665Y-76660701D03*
D17*
X75686665Y-101540701D03*
D12*
X228427903Y-83599700D03*
X231827903Y-83599700D03*
X29486665Y-115150701D03*
X32886665Y-115150701D03*
D16*
X217519940Y-107115039D03*
X217519940Y-110665039D03*
D10*
X150919940Y-76440039D03*
D32*
X160679940Y-106830039D03*
D17*
X182349940Y-67440039D03*
X169369940Y-112150039D03*
X236509940Y-107050039D03*
D10*
X154304940Y-76455039D03*
D11*
X148659940Y-107570039D03*
X155159940Y-107570039D03*
D17*
X242649940Y-55650039D03*
D32*
X146359940Y-113980039D03*
D17*
X204709940Y-101320039D03*
D35*
X117824500Y-57680000D03*
X37508695Y-63450364D03*
X56558698Y-51450366D03*
X72589014Y-50679014D03*
X94658704Y-51949867D03*
X113708702Y-54449862D03*
X37508704Y-82500358D03*
X56558703Y-70500361D03*
X75586665Y-64510701D03*
X94658703Y-70999859D03*
X113708704Y-73499864D03*
X124090000Y-67880000D03*
X119380000Y-103810000D03*
X106990000Y-108180000D03*
X37508702Y-101550361D03*
X56558702Y-89550365D03*
X75608703Y-83549860D03*
X94658699Y-90049861D03*
X113708705Y-92549863D03*
X118500000Y-76070000D03*
X116760000Y-69180000D03*
X69240000Y-123000000D03*
X125250966Y-123894504D03*
X255467910Y-63229702D03*
X236417907Y-51229704D03*
X217367910Y-45229201D03*
X198317901Y-51729205D03*
X179267903Y-54229200D03*
X181342815Y-47942899D03*
X197653516Y-86643600D03*
X255467901Y-82279696D03*
X236417902Y-70279699D03*
X217389940Y-64290039D03*
X198317902Y-70779197D03*
X179267901Y-73279202D03*
X188063880Y-103149200D03*
X181652815Y-49212899D03*
X255467903Y-101329699D03*
X236417903Y-89329703D03*
X217367902Y-83329198D03*
X198317906Y-89829199D03*
X179267900Y-92329201D03*
X218882815Y-104982899D03*
X191119480Y-122613600D03*
X169579480Y-119733600D03*
X128490000Y-99560000D03*
X127896665Y-80565701D03*
X151542815Y-99792899D03*
X152499940Y-80345039D03*
X134090000Y-76600000D03*
X128180000Y-72810000D03*
X157882815Y-76812899D03*
X72730000Y-98300000D03*
X125530000Y-64870000D03*
X127722701Y-68037299D03*
X130210000Y-69010000D03*
X219332815Y-43312899D03*
X241617910Y-65769702D03*
X211392815Y-73942899D03*
X201532815Y-95812899D03*
X217902815Y-98792899D03*
X210602815Y-100852899D03*
X193062815Y-100372899D03*
X222567903Y-91869703D03*
X181892815Y-51652899D03*
X203539940Y-51730024D03*
X190292815Y-51982899D03*
X181712815Y-54122899D03*
X165417901Y-60247985D03*
X146922815Y-75222899D03*
X154452815Y-71732899D03*
X63760000Y-120760000D03*
X217029480Y-116183600D03*
D36*
X241115880Y-116290000D02*
X246233080Y-116290000D01*
X230349480Y-104571281D02*
X230349480Y-105523600D01*
X246233080Y-116290000D02*
X247509940Y-115013140D01*
X247509940Y-115013140D02*
X247509940Y-114930039D01*
X228427901Y-102649702D02*
X230349480Y-104571281D01*
X230349480Y-105523600D02*
X241115880Y-116290000D01*
X116430000Y-57350000D02*
X116430000Y-54320000D01*
X68955138Y-46114862D02*
X71880276Y-49040000D01*
X29516665Y-77930701D02*
X30706665Y-79120701D01*
X41039299Y-52419299D02*
X45338598Y-48120000D01*
X108909011Y-50074866D02*
X103534866Y-50074866D01*
X112504145Y-53670000D02*
X108909011Y-50074866D01*
X30706665Y-79120701D02*
X34636665Y-79120701D01*
X41786665Y-71580701D02*
X48568699Y-64798667D01*
X104405832Y-67769868D02*
X105718701Y-67769868D01*
X116430000Y-54320000D02*
X115780000Y-53670000D01*
X82549544Y-61150701D02*
X86668708Y-65269865D01*
X62726906Y-48120000D02*
X64732044Y-46114862D01*
X50709034Y-66910701D02*
X58606665Y-66910701D01*
X29516665Y-77030701D02*
X29516665Y-77930701D01*
X71880276Y-49040000D02*
X84470000Y-49040000D01*
X58606665Y-66910701D02*
X66747502Y-58769864D01*
X115780000Y-53670000D02*
X112504145Y-53670000D01*
X41039299Y-71580701D02*
X41786665Y-71580701D01*
X85504866Y-50074866D02*
X103534866Y-50074866D01*
X66747502Y-58769864D02*
X67618703Y-58769864D01*
X117824500Y-57680000D02*
X116760000Y-57680000D01*
X48568699Y-64770366D02*
X50709034Y-66910701D01*
X45338598Y-48120000D02*
X46890000Y-48120000D01*
X103534866Y-50074866D02*
X104214866Y-50074866D01*
X46890000Y-48120000D02*
X48180000Y-48120000D01*
X67618703Y-58769864D02*
X69999540Y-61150701D01*
X34636665Y-79120701D02*
X39091665Y-74665701D01*
X39091665Y-74665701D02*
X39091665Y-73375701D01*
X104214866Y-50074866D02*
X104380000Y-50240000D01*
X64732044Y-46114862D02*
X68955138Y-46114862D01*
X116760000Y-57680000D02*
X116430000Y-57350000D01*
X96636665Y-62380701D02*
X99016665Y-62380701D01*
X46890000Y-48120000D02*
X62726906Y-48120000D01*
X94486665Y-66830701D02*
X94486665Y-64530701D01*
X94126665Y-67190701D02*
X94486665Y-66830701D01*
X48568699Y-64798667D02*
X48568699Y-64770366D01*
X86668708Y-65269865D02*
X88589544Y-67190701D01*
X40886665Y-71580701D02*
X41039299Y-71580701D01*
X41039299Y-71580701D02*
X41039299Y-52419299D01*
X88589544Y-67190701D02*
X94126665Y-67190701D01*
X69999540Y-61150701D02*
X82549544Y-61150701D01*
X84470000Y-49040000D02*
X85504866Y-50074866D01*
X99016665Y-62380701D02*
X104405832Y-67769868D01*
X39091665Y-73375701D02*
X40886665Y-71580701D01*
X94486665Y-64530701D02*
X96636665Y-62380701D01*
X34326665Y-75620701D02*
X34326665Y-66632394D01*
X34326665Y-66632394D02*
X37508695Y-63450364D01*
X32916665Y-77030701D02*
X34326665Y-75620701D01*
X52693699Y-55315365D02*
X56558698Y-51450366D01*
X52693699Y-64045366D02*
X52693699Y-55315365D01*
X51968699Y-64770366D02*
X52693699Y-64045366D01*
X72589014Y-50679014D02*
X71018703Y-52249325D01*
X71018703Y-52249325D02*
X71018703Y-58769864D01*
X90793705Y-64544868D02*
X90793705Y-55814866D01*
X90068708Y-65269865D02*
X90793705Y-64544868D01*
X90793705Y-55814866D02*
X94658704Y-51949867D01*
X109843703Y-67044866D02*
X109843703Y-58314861D01*
X109843703Y-58314861D02*
X113708702Y-54449862D01*
X109118701Y-67769868D02*
X109843703Y-67044866D01*
X86668703Y-84319858D02*
X89309546Y-86960701D01*
X29496665Y-96070701D02*
X29496665Y-95666665D01*
X68780361Y-77819866D02*
X73321196Y-82360701D01*
X22680000Y-88850000D02*
X22680000Y-54930000D01*
X116090000Y-53100000D02*
X117390000Y-54400000D01*
X82215822Y-84319858D02*
X86668703Y-84319858D01*
X80770000Y-48490000D02*
X113310000Y-48490000D01*
X91387499Y-86819867D02*
X105718701Y-86819867D01*
X39796665Y-91340701D02*
X39796665Y-94610701D01*
X67618702Y-77819866D02*
X68780361Y-77819866D01*
X22680000Y-54930000D02*
X31280000Y-46330000D01*
X48568702Y-83820362D02*
X44217514Y-88171550D01*
X116090000Y-51270000D02*
X116090000Y-53100000D01*
X63120000Y-46330000D02*
X66510000Y-42940000D01*
X73321196Y-82360701D02*
X80256665Y-82360701D01*
X39796665Y-91340701D02*
X42965816Y-88171550D01*
X113310000Y-48490000D02*
X116090000Y-51270000D01*
X29496665Y-95666665D02*
X22680000Y-88850000D01*
X48568702Y-83820362D02*
X50629041Y-85880701D01*
X79260000Y-46180000D02*
X79260000Y-46980000D01*
X31280000Y-46330000D02*
X63120000Y-46330000D01*
X120047366Y-54400000D02*
X120276665Y-54170701D01*
X66510000Y-42940000D02*
X76020000Y-42940000D01*
X117390000Y-54400000D02*
X120047366Y-54400000D01*
X89309546Y-86960701D02*
X91246665Y-86960701D01*
X91246665Y-86960701D02*
X91387499Y-86819867D01*
X35956665Y-98450701D02*
X30346665Y-98450701D01*
X39796665Y-94610701D02*
X35956665Y-98450701D01*
X29496665Y-97600701D02*
X29496665Y-96070701D01*
X30346665Y-98450701D02*
X29496665Y-97600701D01*
X52936665Y-85880701D02*
X60997500Y-77819866D01*
X60997500Y-77819866D02*
X67618702Y-77819866D01*
X80256665Y-82360701D02*
X82215822Y-84319858D01*
X42965816Y-88171550D02*
X44217514Y-88171550D01*
X76020000Y-42940000D02*
X79260000Y-46180000D01*
X50629041Y-85880701D02*
X52936665Y-85880701D01*
X79260000Y-46980000D02*
X80770000Y-48490000D01*
X37623705Y-82615359D02*
X37508704Y-82500358D01*
X32896665Y-96070701D02*
X37623705Y-91343661D01*
X37623705Y-91343661D02*
X37623705Y-82615359D01*
X52693704Y-74365360D02*
X56558703Y-70500361D01*
X51968702Y-83820362D02*
X52693704Y-83095360D01*
X52693704Y-83095360D02*
X52693704Y-74365360D01*
X71018702Y-77819866D02*
X71721666Y-77116902D01*
X71721666Y-77116902D02*
X71721666Y-68375700D01*
X71721666Y-68375700D02*
X75586665Y-64510701D01*
X90068703Y-84319858D02*
X94773704Y-79614857D01*
X94773704Y-71114860D02*
X94658703Y-70999859D01*
X94773704Y-79614857D02*
X94773704Y-71114860D01*
X113823705Y-73614865D02*
X113708704Y-73499864D01*
X109118701Y-86819867D02*
X113823705Y-82114863D01*
X113823705Y-82114863D02*
X113823705Y-73614865D01*
X124090000Y-67880000D02*
X124090000Y-76040000D01*
X124090000Y-76040000D02*
X121200000Y-78930000D01*
X59067859Y-105420701D02*
X67618701Y-96869859D01*
X48568704Y-102870364D02*
X48568704Y-103272740D01*
X121200000Y-78930000D02*
X119380000Y-80750000D01*
X50716665Y-105420701D02*
X59067859Y-105420701D01*
X29486665Y-115150701D02*
X32476665Y-118140701D01*
X83897860Y-106140701D02*
X86668699Y-103369862D01*
X91239538Y-107940701D02*
X94416665Y-107940701D01*
X86668699Y-103369862D02*
X91239538Y-107940701D01*
X105718705Y-106908705D02*
X105718705Y-105869861D01*
X32476665Y-118140701D02*
X32476665Y-118320701D01*
X67618701Y-96869859D02*
X67618701Y-99832737D01*
X96487505Y-105869861D02*
X105718705Y-105869861D01*
X73926665Y-106140701D02*
X83897860Y-106140701D01*
X119380000Y-80750000D02*
X119380000Y-103810000D01*
X48568704Y-107348662D02*
X48568704Y-102870364D01*
X48568704Y-103272740D02*
X50716665Y-105420701D01*
X106990000Y-108180000D02*
X105718705Y-106908705D01*
X37596665Y-118320701D02*
X48568704Y-107348662D01*
X94416665Y-107940701D02*
X96487505Y-105869861D01*
X67618701Y-99832737D02*
X73926665Y-106140701D01*
X32476665Y-118320701D02*
X37596665Y-118320701D01*
X32886665Y-115150701D02*
X33643703Y-114393663D01*
X33643703Y-114393663D02*
X33643703Y-105415360D01*
X33643703Y-105415360D02*
X37508702Y-101550361D01*
X52693703Y-102145365D02*
X52693703Y-93415364D01*
X51968704Y-102870364D02*
X52693703Y-102145365D01*
X52693703Y-93415364D02*
X56558702Y-89550365D01*
X71743704Y-96144856D02*
X71743704Y-87414859D01*
X71018701Y-96869859D02*
X71743704Y-96144856D01*
X71743704Y-87414859D02*
X75608703Y-83549860D01*
X90793700Y-93914860D02*
X94658699Y-90049861D01*
X90793700Y-102644861D02*
X90793700Y-93914860D01*
X90068699Y-103369862D02*
X90793700Y-102644861D01*
X113823706Y-101164860D02*
X113823706Y-92664864D01*
X109118705Y-105869861D02*
X113823706Y-101164860D01*
X113823706Y-92664864D02*
X113708705Y-92549863D01*
X109552212Y-109850000D02*
X118500000Y-100902212D01*
X92410000Y-109850000D02*
X100480000Y-109850000D01*
X60646665Y-107335701D02*
X62876665Y-107335701D01*
X64205701Y-107315701D02*
X64296059Y-107225343D01*
X116760000Y-69180000D02*
X116760000Y-60390000D01*
X117899299Y-59250701D02*
X120276665Y-59250701D01*
X116760000Y-60390000D02*
X117899299Y-59250701D01*
X64205701Y-107315701D02*
X62896665Y-107315701D01*
X118500000Y-100902212D02*
X118500000Y-84280000D01*
X100480000Y-109850000D02*
X109552212Y-109850000D01*
X118500000Y-84280000D02*
X118500000Y-76070000D01*
X89785343Y-107225343D02*
X92410000Y-109850000D01*
X64296059Y-107225343D02*
X89785343Y-107225343D01*
X65116665Y-107315701D02*
X64205701Y-107315701D01*
X62896665Y-107315701D02*
X62876665Y-107335701D01*
X69240000Y-122500000D02*
X69240000Y-123000000D01*
X63545000Y-116805000D02*
X69240000Y-122500000D01*
X62876665Y-116136665D02*
X63545000Y-116805000D01*
X62876665Y-110885701D02*
X62876665Y-116136665D01*
X125250966Y-126779034D02*
X125250966Y-123894504D01*
X65116665Y-115276665D02*
X72760000Y-122920000D01*
X72760000Y-122920000D02*
X95890000Y-122920000D01*
X120890000Y-131140000D02*
X125250966Y-126779034D01*
X117315254Y-127565254D02*
X120890000Y-131140000D01*
X95890000Y-122920000D02*
X100535254Y-127565254D01*
X100535254Y-127565254D02*
X117315254Y-127565254D01*
X65116665Y-110865701D02*
X65116665Y-115276665D01*
X173662298Y-69933600D02*
X177029480Y-69933600D01*
X231601802Y-67723600D02*
X235329480Y-67723600D01*
X190327897Y-65049203D02*
X191115083Y-65049203D01*
X193399480Y-67333600D02*
X198639480Y-67333600D01*
X198639480Y-67333600D02*
X207423878Y-58549202D01*
X228427906Y-64549704D02*
X231601802Y-67723600D01*
X146642815Y-46372899D02*
X181852815Y-46372899D01*
X171277904Y-67549206D02*
X173662298Y-69933600D01*
X177029480Y-69933600D02*
X178709480Y-68253600D01*
X191115083Y-65049203D02*
X193399480Y-67333600D01*
X178709480Y-65463600D02*
X179558041Y-64615039D01*
X178709480Y-68253600D02*
X178709480Y-65463600D01*
X219285584Y-64549704D02*
X228427906Y-64549704D01*
X183524955Y-48045039D02*
X183524955Y-64615039D01*
X212642300Y-61813600D02*
X216549480Y-61813600D01*
X216549480Y-61813600D02*
X219285584Y-64549704D01*
X207423878Y-58549202D02*
X209377902Y-58549202D01*
X189893733Y-64615039D02*
X190327897Y-65049203D01*
X235329480Y-67723600D02*
X244415919Y-76810039D01*
X145422815Y-50867164D02*
X145422815Y-47592899D01*
X181852815Y-46372899D02*
X183524955Y-48045039D01*
X183524955Y-64615039D02*
X189893733Y-64615039D01*
X244415919Y-76810039D02*
X247479940Y-76810039D01*
X144879940Y-51410039D02*
X145422815Y-50867164D01*
X209377902Y-58549202D02*
X212642300Y-61813600D01*
X145422815Y-47592899D02*
X146642815Y-46372899D01*
X179558041Y-64615039D02*
X183524955Y-64615039D01*
X252932909Y-74757070D02*
X252932909Y-65764703D01*
X250879940Y-76810039D02*
X252932909Y-74757070D01*
X252932909Y-65764703D02*
X255467910Y-63229702D01*
X236099480Y-52753600D02*
X236099480Y-51073600D01*
X231827906Y-64549704D02*
X232552908Y-63824702D01*
X232552908Y-56300172D02*
X236099480Y-52753600D01*
X236099480Y-51073600D02*
X236261803Y-51073600D01*
X236261803Y-51073600D02*
X236417907Y-51229704D01*
X232552908Y-63824702D02*
X232552908Y-56300172D01*
X217509480Y-53817624D02*
X217509480Y-45370771D01*
X212777902Y-58549202D02*
X217509480Y-53817624D01*
X217509480Y-45370771D02*
X217367910Y-45229201D01*
X193727897Y-65049203D02*
X194452902Y-64324198D01*
X194452902Y-55594204D02*
X198317901Y-51729205D01*
X194452902Y-64324198D02*
X194452902Y-55594204D01*
X174677904Y-67549206D02*
X175402904Y-66824206D01*
X175402904Y-58094199D02*
X179267903Y-54229200D01*
X175402904Y-66824206D02*
X175402904Y-58094199D01*
X228427903Y-83599700D02*
X220515580Y-83599700D01*
X246885919Y-95850039D02*
X238499480Y-87463600D01*
X197653516Y-86643600D02*
X190329480Y-86643600D01*
X144879940Y-53950039D02*
X145215675Y-53950039D01*
X171277904Y-88642024D02*
X171439480Y-88803600D01*
X145215675Y-53950039D02*
X146542815Y-52622899D01*
X190329480Y-86643600D02*
X190327902Y-86642022D01*
X209377903Y-79562023D02*
X209377903Y-77599204D01*
X208643876Y-77599204D02*
X199599480Y-86643600D01*
X171439480Y-88803600D02*
X171239480Y-88603600D01*
X146542815Y-52622899D02*
X146662815Y-52502899D01*
X220515580Y-83599700D02*
X217119480Y-80203600D01*
X190327902Y-84099196D02*
X186623884Y-84099196D01*
X181919480Y-88803600D02*
X171789480Y-88803600D01*
X190327902Y-86642022D02*
X190327902Y-84099196D01*
X210019480Y-80203600D02*
X209377903Y-79562023D01*
X146662815Y-47792899D02*
X147632815Y-46822899D01*
X199599480Y-86643600D02*
X197653516Y-86643600D01*
X182259480Y-88463600D02*
X181919480Y-88803600D01*
X180222815Y-46822899D02*
X181342815Y-47942899D01*
X233391803Y-87463600D02*
X229527903Y-83599700D01*
X146662815Y-52502899D02*
X146662815Y-47792899D01*
X171789480Y-88803600D02*
X171439480Y-88803600D01*
X238499480Y-87463600D02*
X233391803Y-87463600D01*
X217119480Y-80203600D02*
X210019480Y-80203600D01*
X147632815Y-46822899D02*
X179992815Y-46822899D01*
X229527903Y-83599700D02*
X228427903Y-83599700D01*
X171277904Y-86599205D02*
X171277904Y-88642024D01*
X247499940Y-95850039D02*
X246885919Y-95850039D01*
X179992815Y-46822899D02*
X180222815Y-46822899D01*
X186623884Y-84099196D02*
X182259480Y-88463600D01*
X209377903Y-77599204D02*
X208643876Y-77599204D01*
X252389480Y-86373600D02*
X252738385Y-86024695D01*
X252738385Y-85009212D02*
X255467901Y-82279696D01*
X252738385Y-86024695D02*
X252738385Y-85009212D01*
X252389480Y-94360499D02*
X252389480Y-86373600D01*
X250899940Y-95850039D02*
X252389480Y-94360499D01*
X233882901Y-72700179D02*
X236303381Y-70279699D01*
X231827903Y-83599700D02*
X233882901Y-81544702D01*
X233882901Y-81544702D02*
X233882901Y-72700179D01*
X236303381Y-70279699D02*
X236417902Y-70279699D01*
X212777903Y-71111546D02*
X214869480Y-69019969D01*
X212777903Y-77599204D02*
X212777903Y-71111546D01*
X214869480Y-66810499D02*
X217389940Y-64290039D01*
X214869480Y-69019969D02*
X214869480Y-66810499D01*
X194452903Y-83374195D02*
X194452903Y-74127352D01*
X193727902Y-84099196D02*
X194452903Y-83374195D01*
X194452903Y-74127352D02*
X197801059Y-70779197D01*
X197801059Y-70779197D02*
X198317902Y-70779197D01*
X174677904Y-86599205D02*
X175402902Y-85874207D01*
X175402902Y-77144201D02*
X179267901Y-73279202D01*
X175402902Y-85874207D02*
X175402902Y-77144201D01*
X181012815Y-49212899D02*
X181652815Y-49212899D01*
X147142815Y-50822899D02*
X147142815Y-47949295D01*
X193312306Y-106133600D02*
X195259480Y-106133600D01*
X146502815Y-55042899D02*
X147142815Y-54402899D01*
X213663378Y-102649702D02*
X215055582Y-102649702D01*
X172879480Y-107833600D02*
X183379480Y-107833600D01*
X171277900Y-106232020D02*
X172879480Y-107833600D01*
X147142815Y-54402899D02*
X147142815Y-50822899D01*
X190327906Y-103149200D02*
X193312306Y-106133600D01*
X147819211Y-47272899D02*
X168142815Y-47272899D01*
X209377904Y-96649197D02*
X209377904Y-96972024D01*
X209377904Y-96972024D02*
X215055582Y-102649702D01*
X145055675Y-56490039D02*
X146502815Y-55042899D01*
X168142815Y-47272899D02*
X179072815Y-47272899D01*
X215055582Y-102649702D02*
X228427901Y-102649702D01*
X179732815Y-47932899D02*
X181012815Y-49212899D01*
X195259480Y-106133600D02*
X195273041Y-106120039D01*
X183379480Y-107833600D02*
X188063880Y-103149200D01*
X195273041Y-106120039D02*
X210193041Y-106120039D01*
X171277900Y-105649199D02*
X171277900Y-106232020D01*
X144879940Y-56490039D02*
X145055675Y-56490039D01*
X147142815Y-47949295D02*
X147819211Y-47272899D01*
X179072815Y-47272899D02*
X179732815Y-47932899D01*
X210193041Y-106120039D02*
X213663378Y-102649702D01*
X188063880Y-103149200D02*
X190327906Y-103149200D01*
X252932902Y-105267022D02*
X252669480Y-105003600D01*
X252669480Y-105003600D02*
X252669480Y-104128122D01*
X252932902Y-112907077D02*
X252932902Y-105267022D01*
X252669480Y-104128122D02*
X255467903Y-101329699D01*
X250909940Y-114930039D02*
X252932902Y-112907077D01*
X231827901Y-102649702D02*
X237259480Y-97218123D01*
X237259480Y-97218123D02*
X237259480Y-90171280D01*
X237259480Y-90171280D02*
X236417903Y-89329703D01*
X213502903Y-95924198D02*
X213502903Y-87194197D01*
X213502903Y-87194197D02*
X217367902Y-83329198D01*
X212777904Y-96649197D02*
X213502903Y-95924198D01*
X193727906Y-103149200D02*
X194452907Y-102424199D01*
X194452907Y-93694198D02*
X198317906Y-89829199D01*
X194452907Y-102424199D02*
X194452907Y-93694198D01*
X175402901Y-104924198D02*
X175402901Y-96194200D01*
X175402901Y-96194200D02*
X179267900Y-92329201D01*
X174677900Y-105649199D02*
X175402901Y-104924198D01*
X218882815Y-104982899D02*
X218882815Y-106997179D01*
X218882815Y-106997179D02*
X218784955Y-107095039D01*
X219729940Y-107095039D02*
X219749940Y-107115039D01*
X218784955Y-107095039D02*
X219729940Y-107095039D01*
X215279940Y-107095039D02*
X218784955Y-107095039D01*
X217519940Y-111565039D02*
X206401379Y-122683600D01*
X206401379Y-122683600D02*
X191769480Y-122683600D01*
X191769480Y-122683600D02*
X191189480Y-122683600D01*
X217519940Y-110665039D02*
X217519940Y-111565039D01*
X191189480Y-122683600D02*
X191119480Y-122613600D01*
X169729480Y-119733600D02*
X169579480Y-119733600D01*
X215268041Y-110645039D02*
X210359480Y-115553600D01*
X187239480Y-120593600D02*
X170589480Y-120593600D01*
X215279940Y-110645039D02*
X215268041Y-110645039D01*
X205319480Y-120593600D02*
X187239480Y-120593600D01*
X170589480Y-120593600D02*
X170519480Y-120523600D01*
X210359480Y-115553600D02*
X205319480Y-120593600D01*
X170519480Y-120523600D02*
X169729480Y-119733600D01*
X129476665Y-76660701D02*
X131871665Y-76660701D01*
X131871665Y-76660701D02*
X135406665Y-73125701D01*
X127896665Y-102535701D02*
X127896665Y-100153335D01*
X127896665Y-100153335D02*
X128490000Y-99560000D01*
X127896665Y-80565701D02*
X127896665Y-78240701D01*
X127896665Y-78240701D02*
X129476665Y-76660701D01*
X145383041Y-76440039D02*
X145069480Y-76753600D01*
X152499940Y-102315039D02*
X152499940Y-100750024D01*
X150919940Y-78765039D02*
X152499940Y-80345039D01*
X150919940Y-76440039D02*
X145383041Y-76440039D01*
X152499940Y-100750024D02*
X151542815Y-99792899D01*
X150919940Y-76440039D02*
X150919940Y-78765039D01*
X135406665Y-74625701D02*
X135406665Y-75283335D01*
X135406665Y-75283335D02*
X134090000Y-76600000D01*
X128180000Y-72810000D02*
X126626665Y-71256665D01*
X126626665Y-71256665D02*
X126626665Y-53218701D01*
X133880000Y-99830000D02*
X133880000Y-105647366D01*
X127896665Y-93846665D02*
X133880000Y-99830000D01*
X132367366Y-70400000D02*
X126091665Y-76675701D01*
X123900000Y-78867366D02*
X126091665Y-76675701D01*
X137720000Y-60240000D02*
X137720000Y-68550000D01*
X133880000Y-105647366D02*
X131736665Y-107790701D01*
X123900000Y-88190000D02*
X123900000Y-78867366D01*
X127896665Y-91550701D02*
X127896665Y-93846665D01*
X136870701Y-54170701D02*
X137760000Y-55060000D01*
X137760000Y-60200000D02*
X137720000Y-60240000D01*
X135516665Y-54170701D02*
X136870701Y-54170701D01*
X135870000Y-70400000D02*
X132367366Y-70400000D01*
X127260701Y-91550701D02*
X123900000Y-88190000D01*
X127896665Y-91550701D02*
X127260701Y-91550701D01*
X137720000Y-68550000D02*
X135870000Y-70400000D01*
X137760000Y-55060000D02*
X137760000Y-60200000D01*
X157882815Y-104847164D02*
X157882815Y-76812899D01*
X155159940Y-107570039D02*
X157882815Y-104847164D01*
X72730000Y-96100000D02*
X72730000Y-98300000D01*
X107436916Y-92420000D02*
X98040000Y-92420000D01*
X116300000Y-87770000D02*
X112086916Y-87770000D01*
X96174860Y-88174860D02*
X80655140Y-88174860D01*
X96840000Y-91220000D02*
X96840000Y-88840000D01*
X98040000Y-92420000D02*
X96840000Y-91220000D01*
X78930000Y-89900000D02*
X72730000Y-96100000D01*
X96840000Y-88840000D02*
X96174860Y-88174860D01*
X112086916Y-87770000D02*
X107436916Y-92420000D01*
X116300000Y-74100000D02*
X116300000Y-87770000D01*
X80655140Y-88174860D02*
X78930000Y-89900000D01*
X125530000Y-64870000D02*
X116300000Y-74100000D01*
X132649299Y-61790701D02*
X135516665Y-61790701D01*
X127722701Y-68037299D02*
X127722701Y-66717299D01*
X127722701Y-66717299D02*
X132649299Y-61790701D01*
X130837366Y-69010000D02*
X135516665Y-64330701D01*
X130210000Y-69010000D02*
X130837366Y-69010000D01*
X157048402Y-70772899D02*
X188052815Y-70772899D01*
X144879940Y-61570039D02*
X147845542Y-61570039D01*
X237664619Y-49354703D02*
X239032815Y-50722899D01*
X201512815Y-68322899D02*
X206632815Y-73442899D01*
X193602815Y-68322899D02*
X201512815Y-68322899D01*
X222902815Y-46582899D02*
X225674619Y-49354703D01*
X225674619Y-49354703D02*
X237664619Y-49354703D01*
X222602815Y-46582899D02*
X222902815Y-46582899D01*
X206632815Y-73442899D02*
X207132815Y-73942899D01*
X207132815Y-73942899D02*
X211392815Y-73942899D01*
X147845542Y-61570039D02*
X157048402Y-70772899D01*
X188052815Y-70772899D02*
X191152815Y-70772899D01*
X219332815Y-43312899D02*
X222602815Y-46582899D01*
X239032815Y-50722899D02*
X239032815Y-63184607D01*
X239032815Y-63184607D02*
X241617910Y-65769702D01*
X191152815Y-70772899D02*
X193602815Y-68322899D01*
X203197954Y-95812899D02*
X208237954Y-100852899D01*
X156792815Y-72292899D02*
X168812815Y-84312899D01*
X217902815Y-98792899D02*
X222567903Y-94127811D01*
X181492815Y-91317943D02*
X190547771Y-100372899D01*
X168812815Y-89282899D02*
X179962815Y-89282899D01*
X208237954Y-100852899D02*
X210602815Y-100852899D01*
X201532815Y-95812899D02*
X203197954Y-95812899D01*
X144879940Y-64110039D02*
X148609955Y-64110039D01*
X168812815Y-84312899D02*
X168812815Y-89282899D01*
X148609955Y-64110039D02*
X156792815Y-72292899D01*
X190547771Y-100372899D02*
X193062815Y-100372899D01*
X181492815Y-90812899D02*
X181492815Y-91317943D01*
X179962815Y-89282899D02*
X181492815Y-90812899D01*
X222567903Y-94127811D02*
X222567903Y-91869703D01*
X166042815Y-50302899D02*
X180542815Y-50302899D01*
X190292815Y-51982899D02*
X192421510Y-49854204D01*
X162182815Y-58272899D02*
X162652815Y-57802899D01*
X161425675Y-59030039D02*
X162182815Y-58272899D01*
X201664120Y-49854204D02*
X203539940Y-51730024D01*
X162652815Y-51672899D02*
X164022815Y-50302899D01*
X160119940Y-59030039D02*
X161425675Y-59030039D01*
X192421510Y-49854204D02*
X201664120Y-49854204D01*
X180542815Y-50302899D02*
X181892815Y-51652899D01*
X162652815Y-57802899D02*
X162652815Y-51672899D01*
X164022815Y-50302899D02*
X166042815Y-50302899D01*
X163012815Y-59292899D02*
X163382815Y-58922899D01*
X163382815Y-55522899D02*
X167212815Y-51692899D01*
X167212815Y-51692899D02*
X180072815Y-51692899D01*
X163382815Y-58922899D02*
X163382815Y-55522899D01*
X160119940Y-61570039D02*
X160735675Y-61570039D01*
X160735675Y-61570039D02*
X163012815Y-59292899D01*
X181712815Y-53332899D02*
X181712815Y-54122899D01*
X180072815Y-51692899D02*
X181712815Y-53332899D01*
X160119940Y-64110039D02*
X160177080Y-64052899D01*
X164732901Y-61992813D02*
X164732901Y-60932985D01*
X160177080Y-64052899D02*
X162672815Y-64052899D01*
X164732901Y-60932985D02*
X165417901Y-60247985D01*
X162672815Y-64052899D02*
X164732901Y-61992813D01*
X145100181Y-75222899D02*
X145069480Y-75253600D01*
X146922815Y-75222899D02*
X145100181Y-75222899D01*
X148659940Y-99405774D02*
X152499940Y-95565774D01*
X156342815Y-78492914D02*
X154304940Y-76455039D01*
X152499940Y-85855774D02*
X156342815Y-82012899D01*
X154304940Y-76455039D02*
X154304940Y-71880774D01*
X154304940Y-71880774D02*
X154452815Y-71732899D01*
X152499940Y-91330039D02*
X152499940Y-85855774D01*
X156342815Y-82012899D02*
X156342815Y-78492914D01*
X152499940Y-95565774D02*
X152499940Y-91330039D01*
X148659940Y-107570039D02*
X148659940Y-99405774D01*
X60646665Y-110885701D02*
X60646665Y-117646665D01*
X60646665Y-117646665D02*
X63760000Y-120760000D01*
X219749940Y-110665039D02*
X219749940Y-113463140D01*
X219749940Y-113463140D02*
X217029480Y-116183600D01*
M02*
