G04 #@! TF.GenerationSoftware,KiCad,Pcbnew,(6.0.10)*
G04 #@! TF.CreationDate,2023-02-02T08:57:34-03:00*
G04 #@! TF.ProjectId,pulso novo,70756c73-6f20-46e6-9f76-6f2e6b696361,0.2*
G04 #@! TF.SameCoordinates,Original*
G04 #@! TF.FileFunction,Soldermask,Bot*
G04 #@! TF.FilePolarity,Negative*
%FSLAX46Y46*%
G04 Gerber Fmt 4.6, Leading zero omitted, Abs format (unit mm)*
G04 Created by KiCad (PCBNEW (6.0.10)) date 2023-02-02 08:57:34*
%MOMM*%
%LPD*%
G01*
G04 APERTURE LIST*
G04 Aperture macros list*
%AMRotRect*
0 Rectangle, with rotation*
0 The origin of the aperture is its center*
0 $1 length*
0 $2 width*
0 $3 Rotation angle, in degrees counterclockwise*
0 Add horizontal line*
21,1,$1,$2,0,0,$3*%
G04 Aperture macros list end*
%ADD10C,1.397000*%
%ADD11C,1.701800*%
%ADD12C,1.900000*%
%ADD13C,4.100000*%
%ADD14C,3.987800*%
%ADD15C,3.000000*%
%ADD16R,2.550000X2.500000*%
%ADD17C,2.000000*%
%ADD18C,0.900000*%
%ADD19R,0.950000X1.300000*%
%ADD20C,5.000000*%
%ADD21O,2.590000X1.790000*%
%ADD22O,2.580000X1.820000*%
%ADD23O,2.580000X1.810000*%
%ADD24O,2.580000X1.750000*%
%ADD25O,2.590000X1.780000*%
%ADD26O,2.580000X1.800000*%
%ADD27O,2.580000X1.830000*%
%ADD28O,2.490000X1.800000*%
%ADD29O,2.470000X1.810000*%
%ADD30O,2.450000X1.770000*%
%ADD31O,2.450000X1.730000*%
%ADD32O,2.430000X1.750000*%
%ADD33O,2.480000X1.800000*%
%ADD34O,2.490000X1.850000*%
%ADD35C,3.500000*%
%ADD36RotRect,2.550000X2.500000X330.000000*%
%ADD37RotRect,2.550000X2.500000X345.000000*%
%ADD38C,0.500000*%
%ADD39RotRect,2.550000X2.500000X195.000000*%
%ADD40RotRect,2.550000X2.500000X210.000000*%
G04 APERTURE END LIST*
D10*
X126091665Y-76675701D03*
D11*
X74376665Y-69590701D03*
D12*
X74376665Y-69580701D03*
D13*
X69296665Y-69580701D03*
D14*
X69296665Y-69590701D03*
D11*
X64216665Y-69590701D03*
D15*
X71836665Y-64510701D03*
X65486665Y-67050701D03*
D12*
X64216665Y-69580701D03*
D16*
X75586665Y-64510701D03*
X61736665Y-67050701D03*
D17*
X131736665Y-107790701D03*
X125236665Y-107790701D03*
D18*
X143219480Y-76003600D03*
X143269480Y-73003600D03*
D19*
X65116665Y-107315701D03*
X65116665Y-110865701D03*
D11*
X254257903Y-106409699D03*
D12*
X254257903Y-106399699D03*
D13*
X249177903Y-106399699D03*
D14*
X249177903Y-106409699D03*
D11*
X244097903Y-106409699D03*
D15*
X251717903Y-101329699D03*
X245367903Y-103869699D03*
D12*
X244097903Y-106399699D03*
D16*
X255467903Y-101329699D03*
X241617903Y-103869699D03*
D20*
X37746665Y-55870701D03*
D11*
X93448704Y-57029867D03*
D12*
X93448704Y-57019867D03*
D13*
X88368704Y-57019867D03*
D14*
X88368704Y-57029867D03*
D11*
X83288704Y-57029867D03*
D15*
X90908704Y-51949867D03*
X84558704Y-54489867D03*
D12*
X83288704Y-57019867D03*
D16*
X94658704Y-51949867D03*
X80808704Y-54489867D03*
D20*
X98046665Y-67660701D03*
D11*
X112498705Y-97629863D03*
D12*
X112498705Y-97619863D03*
D13*
X107418705Y-97619863D03*
D14*
X107418705Y-97629863D03*
D11*
X102338705Y-97629863D03*
D15*
X109958705Y-92549863D03*
X103608705Y-95089863D03*
D12*
X102338705Y-97619863D03*
D16*
X113708705Y-92549863D03*
X99858705Y-95089863D03*
D11*
X178057901Y-78359202D03*
D12*
X178057901Y-78349202D03*
D13*
X172977901Y-78349202D03*
D14*
X172977901Y-78359202D03*
D11*
X167897901Y-78359202D03*
D15*
X175517901Y-73279202D03*
X169167901Y-75819202D03*
D12*
X167897901Y-78349202D03*
D16*
X179267901Y-73279202D03*
X165417901Y-75819202D03*
D21*
X119881665Y-51625701D03*
D22*
X119886665Y-54180701D03*
D23*
X119886665Y-56715701D03*
D24*
X119886665Y-59225701D03*
D25*
X119881665Y-61780701D03*
D26*
X119886665Y-64330701D03*
D27*
X119886665Y-66885701D03*
D28*
X135861665Y-66870701D03*
D29*
X135851665Y-64335701D03*
D30*
X135841665Y-61775701D03*
D31*
X135841665Y-59215701D03*
D32*
X135831665Y-56685701D03*
D33*
X135856665Y-54170701D03*
D34*
X135861665Y-51655701D03*
D10*
X126626665Y-50678701D03*
X129166665Y-50678701D03*
X126626665Y-53218701D03*
X129166665Y-53218701D03*
X123451665Y-58933701D03*
X123451665Y-57028701D03*
D18*
X137256665Y-73875701D03*
X137206665Y-76875701D03*
D11*
X216157902Y-88409198D03*
D12*
X216157902Y-88399198D03*
D13*
X211077902Y-88399198D03*
D14*
X211077902Y-88409198D03*
D11*
X205997902Y-88409198D03*
D15*
X213617902Y-83329198D03*
X207267902Y-85869198D03*
D12*
X205997902Y-88399198D03*
D16*
X217367902Y-83329198D03*
X203517902Y-85869198D03*
D11*
X93448699Y-95129861D03*
D12*
X93448699Y-95119861D03*
D13*
X88368699Y-95119861D03*
D14*
X88368699Y-95129861D03*
D11*
X83288699Y-95129861D03*
D15*
X90908699Y-90049861D03*
X84558699Y-92589861D03*
D12*
X83288699Y-95119861D03*
D16*
X94658699Y-90049861D03*
X80808699Y-92589861D03*
D19*
X62876665Y-107335701D03*
X62876665Y-110885701D03*
D35*
X119716665Y-107050701D03*
D11*
X93448703Y-76079859D03*
D12*
X93448703Y-76069859D03*
D13*
X88368703Y-76069859D03*
D14*
X88368703Y-76079859D03*
D11*
X83288703Y-76079859D03*
D15*
X90908703Y-70999859D03*
X84558703Y-73539859D03*
D12*
X83288703Y-76069859D03*
D16*
X94658703Y-70999859D03*
X80808703Y-73539859D03*
D20*
X111026665Y-112370701D03*
D35*
X134036665Y-114200701D03*
D20*
X43886665Y-107270701D03*
D11*
X197107901Y-56809205D03*
D12*
X197107901Y-56799205D03*
D13*
X192027901Y-56799205D03*
D14*
X192027901Y-56809205D03*
D11*
X186947901Y-56809205D03*
D15*
X194567901Y-51729205D03*
X188217901Y-54269205D03*
D12*
X186947901Y-56799205D03*
D16*
X198317901Y-51729205D03*
X184467901Y-54269205D03*
D11*
X254257901Y-87359696D03*
D12*
X254257901Y-87349696D03*
D13*
X249177901Y-87349696D03*
D14*
X249177901Y-87359696D03*
D11*
X244097901Y-87359696D03*
D15*
X251717901Y-82279696D03*
X245367901Y-84819696D03*
D12*
X244097901Y-87349696D03*
D16*
X255467901Y-82279696D03*
X241617901Y-84819696D03*
D11*
X197107902Y-75859197D03*
D12*
X197107902Y-75849197D03*
D13*
X192027902Y-75849197D03*
D14*
X192027902Y-75859197D03*
D11*
X186947902Y-75859197D03*
D15*
X194567902Y-70779197D03*
X188217902Y-73319197D03*
D12*
X186947902Y-75849197D03*
D16*
X198317902Y-70779197D03*
X184467902Y-73319197D03*
D12*
X112869257Y-122600253D03*
X121668075Y-127680253D03*
X121668075Y-127680253D03*
D15*
X122003371Y-122019504D03*
D12*
X112869257Y-122600253D03*
D15*
X115234109Y-121044209D03*
D13*
X117268666Y-125140253D03*
X117268666Y-125140253D03*
D11*
X112864257Y-122608913D03*
X121663075Y-127688913D03*
D14*
X117263666Y-125148913D03*
D36*
X125250966Y-123894504D03*
X111986514Y-119169209D03*
D11*
X209145776Y-113959682D03*
D12*
X209145776Y-113949682D03*
D13*
X204065776Y-113949682D03*
D14*
X204065776Y-113959682D03*
D11*
X198985776Y-113959682D03*
D15*
X206605776Y-108879682D03*
X200255776Y-111419682D03*
D12*
X198985776Y-113949682D03*
D16*
X210355776Y-108879682D03*
X196505776Y-111419682D03*
D11*
X36298695Y-68530364D03*
D12*
X36298695Y-68520364D03*
D13*
X31218695Y-68520364D03*
D14*
X31218695Y-68530364D03*
D11*
X26138695Y-68530364D03*
D15*
X33758695Y-63450364D03*
X27408695Y-65990364D03*
D12*
X26138695Y-68520364D03*
D16*
X37508695Y-63450364D03*
X23658695Y-65990364D03*
D11*
X112498702Y-59529862D03*
D12*
X112498702Y-59519862D03*
D13*
X107418702Y-59519862D03*
D14*
X107418702Y-59529862D03*
D11*
X102338702Y-59529862D03*
D15*
X109958702Y-54449862D03*
X103608702Y-56989862D03*
D12*
X102338702Y-59519862D03*
D16*
X113708702Y-54449862D03*
X99858702Y-56989862D03*
D11*
X55348702Y-94630365D03*
D12*
X55348702Y-94620365D03*
D13*
X50268702Y-94620365D03*
D14*
X50268702Y-94630365D03*
D11*
X45188702Y-94630365D03*
D15*
X52808702Y-89550365D03*
X46458702Y-92090365D03*
D12*
X45188702Y-94620365D03*
D16*
X56558702Y-89550365D03*
X42708702Y-92090365D03*
D11*
X74398703Y-88629860D03*
D12*
X74398703Y-88619860D03*
D13*
X69318703Y-88619860D03*
D14*
X69318703Y-88629860D03*
D11*
X64238703Y-88629860D03*
D15*
X71858703Y-83549860D03*
X65508703Y-86089860D03*
D12*
X64238703Y-88619860D03*
D16*
X75608703Y-83549860D03*
X61758703Y-86089860D03*
D19*
X215279940Y-107095039D03*
X215279940Y-110645039D03*
D11*
X216179940Y-69370039D03*
D12*
X216179940Y-69360039D03*
D13*
X211099940Y-69360039D03*
D14*
X211099940Y-69370039D03*
D11*
X206019940Y-69370039D03*
D15*
X213639940Y-64290039D03*
X207289940Y-66830039D03*
D12*
X206019940Y-69360039D03*
D16*
X217389940Y-64290039D03*
X203539940Y-66830039D03*
D11*
X235207902Y-75359699D03*
D12*
X235207902Y-75349699D03*
D13*
X230127902Y-75349699D03*
D14*
X230127902Y-75359699D03*
D11*
X225047902Y-75359699D03*
D15*
X232667902Y-70279699D03*
X226317902Y-72819699D03*
D12*
X225047902Y-75349699D03*
D16*
X236417902Y-70279699D03*
X222567902Y-72819699D03*
D11*
X102426058Y-118285023D03*
D12*
X92614840Y-115645762D03*
D13*
X97521743Y-116960563D03*
X97521743Y-116960563D03*
D12*
X92614840Y-115645762D03*
X102428646Y-118275364D03*
D11*
X92612252Y-115655422D03*
D14*
X97519155Y-116970222D03*
D15*
X101287407Y-112720719D03*
X94496378Y-113530670D03*
D12*
X102428646Y-118275364D03*
D37*
X104909629Y-113691291D03*
X90874156Y-112560099D03*
D19*
X60646665Y-107335701D03*
X60646665Y-110885701D03*
D11*
X235207903Y-94409703D03*
D12*
X235207903Y-94399703D03*
D13*
X230127903Y-94399703D03*
D14*
X230127903Y-94409703D03*
D11*
X225047903Y-94409703D03*
D15*
X232667903Y-89329703D03*
X226317903Y-91869703D03*
D12*
X225047903Y-94399703D03*
D16*
X236417903Y-89329703D03*
X222567903Y-91869703D03*
D19*
X219749940Y-107115039D03*
X219749940Y-110665039D03*
D11*
X81410829Y-114180344D03*
D12*
X81410829Y-114170344D03*
D13*
X76330829Y-114170344D03*
D14*
X76330829Y-114180344D03*
D11*
X71250829Y-114180344D03*
D15*
X78870829Y-109100344D03*
X72520829Y-111640344D03*
D12*
X71250829Y-114170344D03*
D16*
X82620829Y-109100344D03*
X68770829Y-111640344D03*
D21*
X144484940Y-51405039D03*
D22*
X144489940Y-53960039D03*
D23*
X144489940Y-56495039D03*
D24*
X144489940Y-59005039D03*
D25*
X144484940Y-61560039D03*
D26*
X144489940Y-64110039D03*
D27*
X144489940Y-66665039D03*
D28*
X160464940Y-66650039D03*
D29*
X160454940Y-64115039D03*
D30*
X160444940Y-61555039D03*
D31*
X160444940Y-58995039D03*
D32*
X160434940Y-56465039D03*
D33*
X160459940Y-53950039D03*
D34*
X160464940Y-51435039D03*
D10*
X151229940Y-50458039D03*
X153769940Y-50458039D03*
X151229940Y-52998039D03*
X153769940Y-52998039D03*
X148054940Y-58713039D03*
X148054940Y-56808039D03*
D11*
X216157910Y-50309201D03*
D12*
X216157910Y-50299201D03*
D13*
X211077910Y-50299201D03*
D14*
X211077910Y-50309201D03*
D11*
X205997910Y-50309201D03*
D15*
X213617910Y-45229201D03*
X207267910Y-47769201D03*
D12*
X205997910Y-50299201D03*
D16*
X217367910Y-45229201D03*
X203517910Y-47769201D03*
D11*
X55348703Y-75580361D03*
D12*
X55348703Y-75570361D03*
D13*
X50268703Y-75570361D03*
D14*
X50268703Y-75580361D03*
D11*
X45188703Y-75580361D03*
D15*
X52808703Y-70500361D03*
X46458703Y-73040361D03*
D12*
X45188703Y-75570361D03*
D16*
X56558703Y-70500361D03*
X42708703Y-73040361D03*
D11*
X235207907Y-56309704D03*
D12*
X235207907Y-56299704D03*
D13*
X230127907Y-56299704D03*
D14*
X230127907Y-56309704D03*
D11*
X225047907Y-56309704D03*
D15*
X232667907Y-51229704D03*
X226317907Y-53769704D03*
D12*
X225047907Y-56299704D03*
D16*
X236417907Y-51229704D03*
X222567907Y-53769704D03*
D11*
X178057900Y-97409201D03*
D12*
X178057900Y-97399201D03*
D13*
X172977900Y-97399201D03*
D14*
X172977900Y-97409201D03*
D11*
X167897900Y-97409201D03*
D15*
X175517900Y-92329201D03*
X169167900Y-94869201D03*
D12*
X167897900Y-97399201D03*
D16*
X179267900Y-92329201D03*
X165417900Y-94869201D03*
D38*
X141166000Y-91468000D03*
X141166000Y-94516000D03*
X141166000Y-93500000D03*
X139134000Y-94516000D03*
X139134000Y-91468000D03*
X139134000Y-95532000D03*
X139134000Y-93500000D03*
X139134000Y-92484000D03*
X141166000Y-92484000D03*
X141166000Y-95532000D03*
D11*
X178057903Y-59309200D03*
D12*
X178057903Y-59299200D03*
D13*
X172977903Y-59299200D03*
D14*
X172977903Y-59309200D03*
D11*
X167897903Y-59309200D03*
D15*
X175517903Y-54229200D03*
X169167903Y-56769200D03*
D12*
X167897903Y-59299200D03*
D16*
X179267903Y-54229200D03*
X165417903Y-56769200D03*
D11*
X112498704Y-78579864D03*
D12*
X112498704Y-78569864D03*
D13*
X107418704Y-78569864D03*
D14*
X107418704Y-78579864D03*
D11*
X102338704Y-78579864D03*
D15*
X109958704Y-73499864D03*
X103608704Y-76039864D03*
D12*
X102338704Y-78569864D03*
D16*
X113708704Y-73499864D03*
X99858704Y-76039864D03*
D11*
X197107906Y-94909199D03*
D12*
X197107906Y-94899199D03*
D13*
X192027906Y-94899199D03*
D14*
X192027906Y-94909199D03*
D11*
X186947906Y-94909199D03*
D15*
X194567906Y-89829199D03*
X188217906Y-92369199D03*
D12*
X186947906Y-94899199D03*
D16*
X198317906Y-89829199D03*
X184467906Y-92369199D03*
D11*
X36298704Y-87580358D03*
D12*
X36298704Y-87570358D03*
D13*
X31218704Y-87570358D03*
D14*
X31218704Y-87580358D03*
D11*
X26138704Y-87580358D03*
D15*
X33758704Y-82500358D03*
X27408704Y-85040358D03*
D12*
X26138704Y-87570358D03*
D16*
X37508704Y-82500358D03*
X23658704Y-85040358D03*
D10*
X129476665Y-76660701D03*
D11*
X55348698Y-56530366D03*
D12*
X55348698Y-56520366D03*
D13*
X50268698Y-56520366D03*
D14*
X50268698Y-56530366D03*
D11*
X45188698Y-56530366D03*
D15*
X52808698Y-51450366D03*
X46458698Y-53990366D03*
D12*
X45188698Y-56520366D03*
D16*
X56558698Y-51450366D03*
X42708698Y-53990366D03*
D20*
X75686665Y-101540701D03*
D11*
X74398695Y-50529863D03*
D12*
X74398695Y-50519863D03*
D13*
X69318695Y-50519863D03*
D14*
X69318695Y-50529863D03*
D11*
X64238695Y-50529863D03*
D15*
X71858695Y-45449863D03*
X65508695Y-47989863D03*
D12*
X64238695Y-50519863D03*
D16*
X75608695Y-45449863D03*
X61758695Y-47989863D03*
D11*
X254257910Y-68309702D03*
D12*
X254257910Y-68299702D03*
D13*
X249177910Y-68299702D03*
D14*
X249177910Y-68309702D03*
D11*
X244097910Y-68309702D03*
D15*
X251717910Y-63229702D03*
X245367910Y-65769702D03*
D12*
X244097910Y-68299702D03*
D16*
X255467910Y-63229702D03*
X241617910Y-65769702D03*
D11*
X36298702Y-106630361D03*
D12*
X36298702Y-106620361D03*
D13*
X31218702Y-106620361D03*
D14*
X31218702Y-106630361D03*
D11*
X26138702Y-106630361D03*
D15*
X33758702Y-101550361D03*
X27408702Y-104090361D03*
D12*
X26138702Y-106620361D03*
D16*
X37508702Y-101550361D03*
X23658702Y-104090361D03*
D38*
X141216000Y-49678000D03*
X141216000Y-52726000D03*
X141216000Y-51710000D03*
X139184000Y-52726000D03*
X139184000Y-49678000D03*
X139184000Y-53742000D03*
X139184000Y-51710000D03*
X139184000Y-50694000D03*
X141216000Y-50694000D03*
X141216000Y-53742000D03*
D19*
X217519940Y-107115039D03*
X217519940Y-110665039D03*
D10*
X150919940Y-76440039D03*
D35*
X160679940Y-106830039D03*
D20*
X182349940Y-67440039D03*
D11*
X187784353Y-115434760D03*
D12*
X177967959Y-118054702D03*
D13*
X182874862Y-116739901D03*
X182874862Y-116739901D03*
D12*
X177967959Y-118054702D03*
X187781765Y-115425100D03*
D11*
X177970547Y-118064361D03*
D14*
X182877450Y-116749560D03*
D15*
X184016101Y-111185257D03*
X178539872Y-115282209D03*
D12*
X187781765Y-115425100D03*
D39*
X187638323Y-110214685D03*
X174917651Y-116252781D03*
D12*
X158728530Y-127459591D03*
X167527348Y-122379591D03*
X167527348Y-122379591D03*
D15*
X162792644Y-119258842D03*
D12*
X158728530Y-127459591D03*
D15*
X158563382Y-124633547D03*
D13*
X163127939Y-124919591D03*
X163127939Y-124919591D03*
D11*
X158733530Y-127468251D03*
X167532348Y-122388251D03*
D14*
X163132939Y-124928251D03*
D40*
X166040239Y-117383842D03*
X155315787Y-126508547D03*
D20*
X169369940Y-112150039D03*
X236509940Y-107050039D03*
D10*
X154304940Y-76455039D03*
D17*
X148659940Y-107570039D03*
X155159940Y-107570039D03*
D20*
X242649940Y-55650039D03*
D35*
X146359940Y-113980039D03*
D20*
X204709940Y-101320039D03*
M02*
