G04 #@! TF.GenerationSoftware,KiCad,Pcbnew,(6.0.10)*
G04 #@! TF.CreationDate,2023-02-02T08:57:34-03:00*
G04 #@! TF.ProjectId,pulso novo,70756c73-6f20-46e6-9f76-6f2e6b696361,0.2*
G04 #@! TF.SameCoordinates,Original*
G04 #@! TF.FileFunction,Legend,Bot*
G04 #@! TF.FilePolarity,Positive*
%FSLAX46Y46*%
G04 Gerber Fmt 4.6, Leading zero omitted, Abs format (unit mm)*
G04 Created by KiCad (PCBNEW (6.0.10)) date 2023-02-02 08:57:34*
%MOMM*%
%LPD*%
G01*
G04 APERTURE LIST*
G04 Aperture macros list*
%AMRotRect*
0 Rectangle, with rotation*
0 The origin of the aperture is its center*
0 $1 length*
0 $2 width*
0 $3 Rotation angle, in degrees counterclockwise*
0 Add horizontal line*
21,1,$1,$2,0,0,$3*%
G04 Aperture macros list end*
%ADD10C,0.150000*%
%ADD11C,1.397000*%
%ADD12C,2.000000*%
%ADD13C,1.701800*%
%ADD14C,1.900000*%
%ADD15C,4.100000*%
%ADD16C,3.987800*%
%ADD17C,3.000000*%
%ADD18R,2.550000X2.500000*%
%ADD19C,0.900000*%
%ADD20R,0.950000X1.300000*%
%ADD21C,5.000000*%
%ADD22O,2.590000X1.790000*%
%ADD23O,2.580000X1.820000*%
%ADD24O,2.580000X1.810000*%
%ADD25O,2.580000X1.750000*%
%ADD26O,2.590000X1.780000*%
%ADD27O,2.580000X1.800000*%
%ADD28O,2.580000X1.830000*%
%ADD29O,2.490000X1.800000*%
%ADD30O,2.470000X1.810000*%
%ADD31O,2.450000X1.770000*%
%ADD32O,2.450000X1.730000*%
%ADD33O,2.430000X1.750000*%
%ADD34O,2.480000X1.800000*%
%ADD35O,2.490000X1.850000*%
%ADD36C,3.500000*%
%ADD37RotRect,2.550000X2.500000X330.000000*%
%ADD38RotRect,2.550000X2.500000X345.000000*%
%ADD39C,0.500000*%
%ADD40RotRect,2.550000X2.500000X195.000000*%
%ADD41RotRect,2.550000X2.500000X210.000000*%
G04 APERTURE END LIST*
D10*
X130066045Y-108243081D02*
X130399379Y-107766891D01*
X130637474Y-108243081D02*
X130637474Y-107243081D01*
X130256522Y-107243081D01*
X130161284Y-107290701D01*
X130113665Y-107338320D01*
X130066045Y-107433558D01*
X130066045Y-107576415D01*
X130113665Y-107671653D01*
X130161284Y-107719272D01*
X130256522Y-107766891D01*
X130637474Y-107766891D01*
X129637474Y-107719272D02*
X129304141Y-107719272D01*
X129161284Y-108243081D02*
X129637474Y-108243081D01*
X129637474Y-107243081D01*
X129161284Y-107243081D01*
X128780331Y-108195462D02*
X128637474Y-108243081D01*
X128399379Y-108243081D01*
X128304141Y-108195462D01*
X128256522Y-108147843D01*
X128208903Y-108052605D01*
X128208903Y-107957367D01*
X128256522Y-107862129D01*
X128304141Y-107814510D01*
X128399379Y-107766891D01*
X128589855Y-107719272D01*
X128685093Y-107671653D01*
X128732712Y-107624034D01*
X128780331Y-107528796D01*
X128780331Y-107433558D01*
X128732712Y-107338320D01*
X128685093Y-107290701D01*
X128589855Y-107243081D01*
X128351760Y-107243081D01*
X128208903Y-107290701D01*
X127780331Y-107719272D02*
X127446998Y-107719272D01*
X127304141Y-108243081D02*
X127780331Y-108243081D01*
X127780331Y-107243081D01*
X127304141Y-107243081D01*
X127018426Y-107243081D02*
X126446998Y-107243081D01*
X126732712Y-108243081D02*
X126732712Y-107243081D01*
X153362320Y-108022419D02*
X153695654Y-107546229D01*
X153933749Y-108022419D02*
X153933749Y-107022419D01*
X153552797Y-107022419D01*
X153457559Y-107070039D01*
X153409940Y-107117658D01*
X153362320Y-107212896D01*
X153362320Y-107355753D01*
X153409940Y-107450991D01*
X153457559Y-107498610D01*
X153552797Y-107546229D01*
X153933749Y-107546229D01*
X152933749Y-107498610D02*
X152600416Y-107498610D01*
X152457559Y-108022419D02*
X152933749Y-108022419D01*
X152933749Y-107022419D01*
X152457559Y-107022419D01*
X152076606Y-107974800D02*
X151933749Y-108022419D01*
X151695654Y-108022419D01*
X151600416Y-107974800D01*
X151552797Y-107927181D01*
X151505178Y-107831943D01*
X151505178Y-107736705D01*
X151552797Y-107641467D01*
X151600416Y-107593848D01*
X151695654Y-107546229D01*
X151886130Y-107498610D01*
X151981368Y-107450991D01*
X152028987Y-107403372D01*
X152076606Y-107308134D01*
X152076606Y-107212896D01*
X152028987Y-107117658D01*
X151981368Y-107070039D01*
X151886130Y-107022419D01*
X151648035Y-107022419D01*
X151505178Y-107070039D01*
X151076606Y-107498610D02*
X150743273Y-107498610D01*
X150600416Y-108022419D02*
X151076606Y-108022419D01*
X151076606Y-107022419D01*
X150600416Y-107022419D01*
X150314701Y-107022419D02*
X149743273Y-107022419D01*
X150028987Y-108022419D02*
X150028987Y-107022419D01*
X127091665Y-77675701D02*
X125091665Y-77675701D01*
X127091665Y-75675701D02*
X127091665Y-77675701D01*
X125091665Y-77675701D02*
X125091665Y-75675701D01*
X125091665Y-75675701D02*
X127091665Y-75675701D01*
X75296665Y-62590701D02*
X76296665Y-62590701D01*
X62946665Y-68574701D02*
X62946665Y-68955701D01*
X62296665Y-62590701D02*
X63296665Y-62590701D01*
X74376665Y-62605701D02*
X74376665Y-62986701D01*
X66832503Y-68955701D02*
X65105665Y-68955701D01*
X76296665Y-76590701D02*
X76296665Y-75590701D01*
X74376665Y-67050701D02*
X69296665Y-67050701D01*
X62296665Y-75590701D02*
X62296665Y-76590701D01*
X62946665Y-65145701D02*
X62946665Y-65526701D01*
X62296665Y-62590701D02*
X62296665Y-63590701D01*
X63296665Y-76590701D02*
X62296665Y-76590701D01*
X74376665Y-66034701D02*
X74376665Y-67050701D01*
X65486665Y-62605701D02*
X74376665Y-62605701D01*
X63327665Y-68955701D02*
X62946665Y-68955701D01*
X76296665Y-76590701D02*
X75296665Y-76590701D01*
X76296665Y-63590701D02*
X76296665Y-62590701D01*
X65486665Y-62605701D02*
G75*
G03*
X62946665Y-65145701I1J-2540001D01*
G01*
X69296665Y-67050700D02*
G75*
G03*
X66832503Y-68974661I0J-2540000D01*
G01*
X125486665Y-106290701D02*
X125486665Y-106040701D01*
X131486665Y-109540701D02*
X125486665Y-109540701D01*
X125486665Y-106040701D02*
X131486665Y-106040701D01*
X131486665Y-106040701D02*
X131486665Y-106290701D01*
X125486665Y-109540701D02*
X125486665Y-109290701D01*
X131486665Y-109290701D02*
X131486665Y-109540701D01*
X65866665Y-111790701D02*
X65866665Y-106390701D01*
X65866665Y-106390701D02*
X64366665Y-106390701D01*
X64616665Y-109590701D02*
X65116665Y-108690701D01*
X64366665Y-111790701D02*
X65866665Y-111790701D01*
X65616665Y-109590701D02*
X64616665Y-109590701D01*
X64366665Y-106390701D02*
X64366665Y-111790701D01*
X65616665Y-108590701D02*
X64616665Y-108590701D01*
X65116665Y-108690701D02*
X65616665Y-109590701D01*
X255177903Y-99409699D02*
X256177903Y-99409699D01*
X242827903Y-105393699D02*
X242827903Y-105774699D01*
X242177903Y-99409699D02*
X243177903Y-99409699D01*
X254257903Y-99424699D02*
X254257903Y-99805699D01*
X246713741Y-105774699D02*
X244986903Y-105774699D01*
X256177903Y-113409699D02*
X256177903Y-112409699D01*
X254257903Y-103869699D02*
X249177903Y-103869699D01*
X242177903Y-112409699D02*
X242177903Y-113409699D01*
X242827903Y-101964699D02*
X242827903Y-102345699D01*
X242177903Y-99409699D02*
X242177903Y-100409699D01*
X243177903Y-113409699D02*
X242177903Y-113409699D01*
X254257903Y-102853699D02*
X254257903Y-103869699D01*
X245367903Y-99424699D02*
X254257903Y-99424699D01*
X243208903Y-105774699D02*
X242827903Y-105774699D01*
X256177903Y-113409699D02*
X255177903Y-113409699D01*
X256177903Y-100409699D02*
X256177903Y-99409699D01*
X245367903Y-99424699D02*
G75*
G03*
X242827903Y-101964699I1J-2540001D01*
G01*
X249177903Y-103869698D02*
G75*
G03*
X246713741Y-105793659I0J-2540000D01*
G01*
X94368704Y-50029867D02*
X95368704Y-50029867D01*
X82018704Y-56013867D02*
X82018704Y-56394867D01*
X81368704Y-50029867D02*
X82368704Y-50029867D01*
X93448704Y-50044867D02*
X93448704Y-50425867D01*
X85904542Y-56394867D02*
X84177704Y-56394867D01*
X95368704Y-64029867D02*
X95368704Y-63029867D01*
X93448704Y-54489867D02*
X88368704Y-54489867D01*
X81368704Y-63029867D02*
X81368704Y-64029867D01*
X82018704Y-52584867D02*
X82018704Y-52965867D01*
X81368704Y-50029867D02*
X81368704Y-51029867D01*
X82368704Y-64029867D02*
X81368704Y-64029867D01*
X93448704Y-53473867D02*
X93448704Y-54489867D01*
X84558704Y-50044867D02*
X93448704Y-50044867D01*
X82399704Y-56394867D02*
X82018704Y-56394867D01*
X95368704Y-64029867D02*
X94368704Y-64029867D01*
X95368704Y-51029867D02*
X95368704Y-50029867D01*
X84558704Y-50044867D02*
G75*
G03*
X82018704Y-52584867I1J-2540001D01*
G01*
X88368704Y-54489866D02*
G75*
G03*
X85904542Y-56413827I0J-2540000D01*
G01*
X113418705Y-90629863D02*
X114418705Y-90629863D01*
X101068705Y-96613863D02*
X101068705Y-96994863D01*
X100418705Y-90629863D02*
X101418705Y-90629863D01*
X112498705Y-90644863D02*
X112498705Y-91025863D01*
X104954543Y-96994863D02*
X103227705Y-96994863D01*
X114418705Y-104629863D02*
X114418705Y-103629863D01*
X112498705Y-95089863D02*
X107418705Y-95089863D01*
X100418705Y-103629863D02*
X100418705Y-104629863D01*
X101068705Y-93184863D02*
X101068705Y-93565863D01*
X100418705Y-90629863D02*
X100418705Y-91629863D01*
X101418705Y-104629863D02*
X100418705Y-104629863D01*
X112498705Y-94073863D02*
X112498705Y-95089863D01*
X103608705Y-90644863D02*
X112498705Y-90644863D01*
X101449705Y-96994863D02*
X101068705Y-96994863D01*
X114418705Y-104629863D02*
X113418705Y-104629863D01*
X114418705Y-91629863D02*
X114418705Y-90629863D01*
X103608705Y-90644863D02*
G75*
G03*
X101068705Y-93184863I1J-2540001D01*
G01*
X107418705Y-95089862D02*
G75*
G03*
X104954543Y-97013823I0J-2540000D01*
G01*
X178977901Y-71359202D02*
X179977901Y-71359202D01*
X166627901Y-77343202D02*
X166627901Y-77724202D01*
X165977901Y-71359202D02*
X166977901Y-71359202D01*
X178057901Y-71374202D02*
X178057901Y-71755202D01*
X170513739Y-77724202D02*
X168786901Y-77724202D01*
X179977901Y-85359202D02*
X179977901Y-84359202D01*
X178057901Y-75819202D02*
X172977901Y-75819202D01*
X165977901Y-84359202D02*
X165977901Y-85359202D01*
X166627901Y-73914202D02*
X166627901Y-74295202D01*
X165977901Y-71359202D02*
X165977901Y-72359202D01*
X166977901Y-85359202D02*
X165977901Y-85359202D01*
X178057901Y-74803202D02*
X178057901Y-75819202D01*
X169167901Y-71374202D02*
X178057901Y-71374202D01*
X167008901Y-77724202D02*
X166627901Y-77724202D01*
X179977901Y-85359202D02*
X178977901Y-85359202D01*
X179977901Y-72359202D02*
X179977901Y-71359202D01*
X169167901Y-71374202D02*
G75*
G03*
X166627901Y-73914202I1J-2540001D01*
G01*
X172977901Y-75819201D02*
G75*
G03*
X170513739Y-77743162I0J-2540000D01*
G01*
X217077902Y-81409198D02*
X218077902Y-81409198D01*
X204727902Y-87393198D02*
X204727902Y-87774198D01*
X204077902Y-81409198D02*
X205077902Y-81409198D01*
X216157902Y-81424198D02*
X216157902Y-81805198D01*
X208613740Y-87774198D02*
X206886902Y-87774198D01*
X218077902Y-95409198D02*
X218077902Y-94409198D01*
X216157902Y-85869198D02*
X211077902Y-85869198D01*
X204077902Y-94409198D02*
X204077902Y-95409198D01*
X204727902Y-83964198D02*
X204727902Y-84345198D01*
X204077902Y-81409198D02*
X204077902Y-82409198D01*
X205077902Y-95409198D02*
X204077902Y-95409198D01*
X216157902Y-84853198D02*
X216157902Y-85869198D01*
X207267902Y-81424198D02*
X216157902Y-81424198D01*
X205108902Y-87774198D02*
X204727902Y-87774198D01*
X218077902Y-95409198D02*
X217077902Y-95409198D01*
X218077902Y-82409198D02*
X218077902Y-81409198D01*
X207267902Y-81424198D02*
G75*
G03*
X204727902Y-83964198I1J-2540001D01*
G01*
X211077902Y-85869197D02*
G75*
G03*
X208613740Y-87793158I0J-2540000D01*
G01*
X94368699Y-88129861D02*
X95368699Y-88129861D01*
X82018699Y-94113861D02*
X82018699Y-94494861D01*
X81368699Y-88129861D02*
X82368699Y-88129861D01*
X93448699Y-88144861D02*
X93448699Y-88525861D01*
X85904537Y-94494861D02*
X84177699Y-94494861D01*
X95368699Y-102129861D02*
X95368699Y-101129861D01*
X93448699Y-92589861D02*
X88368699Y-92589861D01*
X81368699Y-101129861D02*
X81368699Y-102129861D01*
X82018699Y-90684861D02*
X82018699Y-91065861D01*
X81368699Y-88129861D02*
X81368699Y-89129861D01*
X82368699Y-102129861D02*
X81368699Y-102129861D01*
X93448699Y-91573861D02*
X93448699Y-92589861D01*
X84558699Y-88144861D02*
X93448699Y-88144861D01*
X82399699Y-94494861D02*
X82018699Y-94494861D01*
X95368699Y-102129861D02*
X94368699Y-102129861D01*
X95368699Y-89129861D02*
X95368699Y-88129861D01*
X84558699Y-88144861D02*
G75*
G03*
X82018699Y-90684861I1J-2540001D01*
G01*
X88368699Y-92589860D02*
G75*
G03*
X85904537Y-94513821I0J-2540000D01*
G01*
X62126665Y-111810701D02*
X63626665Y-111810701D01*
X63626665Y-111810701D02*
X63626665Y-106410701D01*
X63626665Y-106410701D02*
X62126665Y-106410701D01*
X62376665Y-109610701D02*
X62876665Y-108710701D01*
X62126665Y-106410701D02*
X62126665Y-111810701D01*
X62876665Y-108710701D02*
X63376665Y-109610701D01*
X63376665Y-109610701D02*
X62376665Y-109610701D01*
X63376665Y-108610701D02*
X62376665Y-108610701D01*
X94368703Y-69079859D02*
X95368703Y-69079859D01*
X82018703Y-75063859D02*
X82018703Y-75444859D01*
X81368703Y-69079859D02*
X82368703Y-69079859D01*
X93448703Y-69094859D02*
X93448703Y-69475859D01*
X85904541Y-75444859D02*
X84177703Y-75444859D01*
X95368703Y-83079859D02*
X95368703Y-82079859D01*
X93448703Y-73539859D02*
X88368703Y-73539859D01*
X81368703Y-82079859D02*
X81368703Y-83079859D01*
X82018703Y-71634859D02*
X82018703Y-72015859D01*
X81368703Y-69079859D02*
X81368703Y-70079859D01*
X82368703Y-83079859D02*
X81368703Y-83079859D01*
X93448703Y-72523859D02*
X93448703Y-73539859D01*
X84558703Y-69094859D02*
X93448703Y-69094859D01*
X82399703Y-75444859D02*
X82018703Y-75444859D01*
X95368703Y-83079859D02*
X94368703Y-83079859D01*
X95368703Y-70079859D02*
X95368703Y-69079859D01*
X84558703Y-69094859D02*
G75*
G03*
X82018703Y-71634859I1J-2540001D01*
G01*
X88368703Y-73539858D02*
G75*
G03*
X85904541Y-75463819I0J-2540000D01*
G01*
X198027901Y-49809205D02*
X199027901Y-49809205D01*
X185677901Y-55793205D02*
X185677901Y-56174205D01*
X185027901Y-49809205D02*
X186027901Y-49809205D01*
X197107901Y-49824205D02*
X197107901Y-50205205D01*
X189563739Y-56174205D02*
X187836901Y-56174205D01*
X199027901Y-63809205D02*
X199027901Y-62809205D01*
X197107901Y-54269205D02*
X192027901Y-54269205D01*
X185027901Y-62809205D02*
X185027901Y-63809205D01*
X185677901Y-52364205D02*
X185677901Y-52745205D01*
X185027901Y-49809205D02*
X185027901Y-50809205D01*
X186027901Y-63809205D02*
X185027901Y-63809205D01*
X197107901Y-53253205D02*
X197107901Y-54269205D01*
X188217901Y-49824205D02*
X197107901Y-49824205D01*
X186058901Y-56174205D02*
X185677901Y-56174205D01*
X199027901Y-63809205D02*
X198027901Y-63809205D01*
X199027901Y-50809205D02*
X199027901Y-49809205D01*
X188217901Y-49824205D02*
G75*
G03*
X185677901Y-52364205I1J-2540001D01*
G01*
X192027901Y-54269204D02*
G75*
G03*
X189563739Y-56193165I0J-2540000D01*
G01*
X255177901Y-80359696D02*
X256177901Y-80359696D01*
X242827901Y-86343696D02*
X242827901Y-86724696D01*
X242177901Y-80359696D02*
X243177901Y-80359696D01*
X254257901Y-80374696D02*
X254257901Y-80755696D01*
X246713739Y-86724696D02*
X244986901Y-86724696D01*
X256177901Y-94359696D02*
X256177901Y-93359696D01*
X254257901Y-84819696D02*
X249177901Y-84819696D01*
X242177901Y-93359696D02*
X242177901Y-94359696D01*
X242827901Y-82914696D02*
X242827901Y-83295696D01*
X242177901Y-80359696D02*
X242177901Y-81359696D01*
X243177901Y-94359696D02*
X242177901Y-94359696D01*
X254257901Y-83803696D02*
X254257901Y-84819696D01*
X245367901Y-80374696D02*
X254257901Y-80374696D01*
X243208901Y-86724696D02*
X242827901Y-86724696D01*
X256177901Y-94359696D02*
X255177901Y-94359696D01*
X256177901Y-81359696D02*
X256177901Y-80359696D01*
X245367901Y-80374696D02*
G75*
G03*
X242827901Y-82914696I1J-2540001D01*
G01*
X249177901Y-84819695D02*
G75*
G03*
X246713739Y-86743656I0J-2540000D01*
G01*
X198027902Y-68859197D02*
X199027902Y-68859197D01*
X185677902Y-74843197D02*
X185677902Y-75224197D01*
X185027902Y-68859197D02*
X186027902Y-68859197D01*
X197107902Y-68874197D02*
X197107902Y-69255197D01*
X189563740Y-75224197D02*
X187836902Y-75224197D01*
X199027902Y-82859197D02*
X199027902Y-81859197D01*
X197107902Y-73319197D02*
X192027902Y-73319197D01*
X185027902Y-81859197D02*
X185027902Y-82859197D01*
X185677902Y-71414197D02*
X185677902Y-71795197D01*
X185027902Y-68859197D02*
X185027902Y-69859197D01*
X186027902Y-82859197D02*
X185027902Y-82859197D01*
X197107902Y-72303197D02*
X197107902Y-73319197D01*
X188217902Y-68874197D02*
X197107902Y-68874197D01*
X186058902Y-75224197D02*
X185677902Y-75224197D01*
X199027902Y-82859197D02*
X198027902Y-82859197D01*
X199027902Y-69859197D02*
X199027902Y-68859197D01*
X188217902Y-68874197D02*
G75*
G03*
X185677902Y-71414197I1J-2540001D01*
G01*
X192027902Y-73319196D02*
G75*
G03*
X189563740Y-75243157I0J-2540000D01*
G01*
X114701488Y-115586735D02*
X114201488Y-116452761D01*
X119825844Y-134711091D02*
X118959818Y-134211091D01*
X122933075Y-125489209D02*
X118533666Y-122949209D01*
X108201488Y-126845066D02*
X107701488Y-127711091D01*
X119825844Y-134711091D02*
X120325844Y-133845066D01*
X114701488Y-115586735D02*
X115567514Y-116086735D01*
X123441075Y-124609327D02*
X122933075Y-125489209D01*
X117456609Y-117194726D02*
X125155575Y-121639726D01*
X126325844Y-123452761D02*
X126825844Y-122586735D01*
X115447139Y-123366906D02*
X113951654Y-122503487D01*
X108567514Y-128211091D02*
X107701488Y-127711091D01*
X112272405Y-121094031D02*
X112081905Y-121423987D01*
X125155575Y-121639726D02*
X124965075Y-121969681D01*
X113986905Y-118124430D02*
X113796405Y-118454386D01*
X112411860Y-121614487D02*
X112081905Y-121423987D01*
X125959818Y-122086735D02*
X126825844Y-122586735D01*
X118533667Y-122949207D02*
G75*
G03*
X115437659Y-123383326I-1270000J-2199705D01*
G01*
X117456609Y-117194726D02*
G75*
G03*
X113986905Y-118124430I-1269999J-2199706D01*
G01*
X210065776Y-106959682D02*
X211065776Y-106959682D01*
X197715776Y-112943682D02*
X197715776Y-113324682D01*
X197065776Y-106959682D02*
X198065776Y-106959682D01*
X209145776Y-106974682D02*
X209145776Y-107355682D01*
X201601614Y-113324682D02*
X199874776Y-113324682D01*
X211065776Y-120959682D02*
X211065776Y-119959682D01*
X209145776Y-111419682D02*
X204065776Y-111419682D01*
X197065776Y-119959682D02*
X197065776Y-120959682D01*
X197715776Y-109514682D02*
X197715776Y-109895682D01*
X197065776Y-106959682D02*
X197065776Y-107959682D01*
X198065776Y-120959682D02*
X197065776Y-120959682D01*
X209145776Y-110403682D02*
X209145776Y-111419682D01*
X200255776Y-106974682D02*
X209145776Y-106974682D01*
X198096776Y-113324682D02*
X197715776Y-113324682D01*
X211065776Y-120959682D02*
X210065776Y-120959682D01*
X211065776Y-107959682D02*
X211065776Y-106959682D01*
X200255776Y-106974682D02*
G75*
G03*
X197715776Y-109514682I1J-2540001D01*
G01*
X204065776Y-111419681D02*
G75*
G03*
X201601614Y-113343642I0J-2540000D01*
G01*
X37218695Y-61530364D02*
X38218695Y-61530364D01*
X24868695Y-67514364D02*
X24868695Y-67895364D01*
X24218695Y-61530364D02*
X25218695Y-61530364D01*
X36298695Y-61545364D02*
X36298695Y-61926364D01*
X28754533Y-67895364D02*
X27027695Y-67895364D01*
X38218695Y-75530364D02*
X38218695Y-74530364D01*
X36298695Y-65990364D02*
X31218695Y-65990364D01*
X24218695Y-74530364D02*
X24218695Y-75530364D01*
X24868695Y-64085364D02*
X24868695Y-64466364D01*
X24218695Y-61530364D02*
X24218695Y-62530364D01*
X25218695Y-75530364D02*
X24218695Y-75530364D01*
X36298695Y-64974364D02*
X36298695Y-65990364D01*
X27408695Y-61545364D02*
X36298695Y-61545364D01*
X25249695Y-67895364D02*
X24868695Y-67895364D01*
X38218695Y-75530364D02*
X37218695Y-75530364D01*
X38218695Y-62530364D02*
X38218695Y-61530364D01*
X27408695Y-61545364D02*
G75*
G03*
X24868695Y-64085364I1J-2540001D01*
G01*
X31218695Y-65990363D02*
G75*
G03*
X28754533Y-67914324I0J-2540000D01*
G01*
X113418702Y-52529862D02*
X114418702Y-52529862D01*
X101068702Y-58513862D02*
X101068702Y-58894862D01*
X100418702Y-52529862D02*
X101418702Y-52529862D01*
X112498702Y-52544862D02*
X112498702Y-52925862D01*
X104954540Y-58894862D02*
X103227702Y-58894862D01*
X114418702Y-66529862D02*
X114418702Y-65529862D01*
X112498702Y-56989862D02*
X107418702Y-56989862D01*
X100418702Y-65529862D02*
X100418702Y-66529862D01*
X101068702Y-55084862D02*
X101068702Y-55465862D01*
X100418702Y-52529862D02*
X100418702Y-53529862D01*
X101418702Y-66529862D02*
X100418702Y-66529862D01*
X112498702Y-55973862D02*
X112498702Y-56989862D01*
X103608702Y-52544862D02*
X112498702Y-52544862D01*
X101449702Y-58894862D02*
X101068702Y-58894862D01*
X114418702Y-66529862D02*
X113418702Y-66529862D01*
X114418702Y-53529862D02*
X114418702Y-52529862D01*
X103608702Y-52544862D02*
G75*
G03*
X101068702Y-55084862I1J-2540001D01*
G01*
X107418702Y-56989861D02*
G75*
G03*
X104954540Y-58913822I0J-2540000D01*
G01*
X56268702Y-87630365D02*
X57268702Y-87630365D01*
X43918702Y-93614365D02*
X43918702Y-93995365D01*
X43268702Y-87630365D02*
X44268702Y-87630365D01*
X55348702Y-87645365D02*
X55348702Y-88026365D01*
X47804540Y-93995365D02*
X46077702Y-93995365D01*
X57268702Y-101630365D02*
X57268702Y-100630365D01*
X55348702Y-92090365D02*
X50268702Y-92090365D01*
X43268702Y-100630365D02*
X43268702Y-101630365D01*
X43918702Y-90185365D02*
X43918702Y-90566365D01*
X43268702Y-87630365D02*
X43268702Y-88630365D01*
X44268702Y-101630365D02*
X43268702Y-101630365D01*
X55348702Y-91074365D02*
X55348702Y-92090365D01*
X46458702Y-87645365D02*
X55348702Y-87645365D01*
X44299702Y-93995365D02*
X43918702Y-93995365D01*
X57268702Y-101630365D02*
X56268702Y-101630365D01*
X57268702Y-88630365D02*
X57268702Y-87630365D01*
X46458702Y-87645365D02*
G75*
G03*
X43918702Y-90185365I1J-2540001D01*
G01*
X50268702Y-92090364D02*
G75*
G03*
X47804540Y-94014325I0J-2540000D01*
G01*
X75318703Y-81629860D02*
X76318703Y-81629860D01*
X62968703Y-87613860D02*
X62968703Y-87994860D01*
X62318703Y-81629860D02*
X63318703Y-81629860D01*
X74398703Y-81644860D02*
X74398703Y-82025860D01*
X66854541Y-87994860D02*
X65127703Y-87994860D01*
X76318703Y-95629860D02*
X76318703Y-94629860D01*
X74398703Y-86089860D02*
X69318703Y-86089860D01*
X62318703Y-94629860D02*
X62318703Y-95629860D01*
X62968703Y-84184860D02*
X62968703Y-84565860D01*
X62318703Y-81629860D02*
X62318703Y-82629860D01*
X63318703Y-95629860D02*
X62318703Y-95629860D01*
X74398703Y-85073860D02*
X74398703Y-86089860D01*
X65508703Y-81644860D02*
X74398703Y-81644860D01*
X63349703Y-87994860D02*
X62968703Y-87994860D01*
X76318703Y-95629860D02*
X75318703Y-95629860D01*
X76318703Y-82629860D02*
X76318703Y-81629860D01*
X65508703Y-81644860D02*
G75*
G03*
X62968703Y-84184860I1J-2540001D01*
G01*
X69318703Y-86089859D02*
G75*
G03*
X66854541Y-88013820I0J-2540000D01*
G01*
X216029940Y-111570039D02*
X216029940Y-106170039D01*
X216029940Y-106170039D02*
X214529940Y-106170039D01*
X214779940Y-109370039D02*
X215279940Y-108470039D01*
X214529940Y-111570039D02*
X216029940Y-111570039D01*
X215779940Y-109370039D02*
X214779940Y-109370039D01*
X214529940Y-106170039D02*
X214529940Y-111570039D01*
X215779940Y-108370039D02*
X214779940Y-108370039D01*
X215279940Y-108470039D02*
X215779940Y-109370039D01*
X217099940Y-62370039D02*
X218099940Y-62370039D01*
X204749940Y-68354039D02*
X204749940Y-68735039D01*
X204099940Y-62370039D02*
X205099940Y-62370039D01*
X216179940Y-62385039D02*
X216179940Y-62766039D01*
X208635778Y-68735039D02*
X206908940Y-68735039D01*
X218099940Y-76370039D02*
X218099940Y-75370039D01*
X216179940Y-66830039D02*
X211099940Y-66830039D01*
X204099940Y-75370039D02*
X204099940Y-76370039D01*
X204749940Y-64925039D02*
X204749940Y-65306039D01*
X204099940Y-62370039D02*
X204099940Y-63370039D01*
X205099940Y-76370039D02*
X204099940Y-76370039D01*
X216179940Y-65814039D02*
X216179940Y-66830039D01*
X207289940Y-62385039D02*
X216179940Y-62385039D01*
X205130940Y-68735039D02*
X204749940Y-68735039D01*
X218099940Y-76370039D02*
X217099940Y-76370039D01*
X218099940Y-63370039D02*
X218099940Y-62370039D01*
X207289940Y-62385039D02*
G75*
G03*
X204749940Y-64925039I1J-2540001D01*
G01*
X211099940Y-66830038D02*
G75*
G03*
X208635778Y-68753999I0J-2540000D01*
G01*
X236127902Y-68359699D02*
X237127902Y-68359699D01*
X223777902Y-74343699D02*
X223777902Y-74724699D01*
X223127902Y-68359699D02*
X224127902Y-68359699D01*
X235207902Y-68374699D02*
X235207902Y-68755699D01*
X227663740Y-74724699D02*
X225936902Y-74724699D01*
X237127902Y-82359699D02*
X237127902Y-81359699D01*
X235207902Y-72819699D02*
X230127902Y-72819699D01*
X223127902Y-81359699D02*
X223127902Y-82359699D01*
X223777902Y-70914699D02*
X223777902Y-71295699D01*
X223127902Y-68359699D02*
X223127902Y-69359699D01*
X224127902Y-82359699D02*
X223127902Y-82359699D01*
X235207902Y-71803699D02*
X235207902Y-72819699D01*
X226317902Y-68374699D02*
X235207902Y-68374699D01*
X224158902Y-74724699D02*
X223777902Y-74724699D01*
X237127902Y-82359699D02*
X236127902Y-82359699D01*
X237127902Y-69359699D02*
X237127902Y-68359699D01*
X226317902Y-68374699D02*
G75*
G03*
X223777902Y-70914699I1J-2540001D01*
G01*
X230127902Y-72819698D02*
G75*
G03*
X227663740Y-74743659I0J-2540000D01*
G01*
X102468902Y-125543436D02*
X102727721Y-124577511D01*
X95646828Y-109237130D02*
X104233909Y-111538031D01*
X92569407Y-108397008D02*
X93535333Y-108655827D01*
X91917894Y-114811968D02*
X91549876Y-114713358D01*
X92569407Y-108397008D02*
X92310588Y-109362934D01*
X103083458Y-115831571D02*
X98176555Y-114516771D01*
X91648486Y-114345341D02*
X91549876Y-114713358D01*
X103346419Y-114850191D02*
X103083458Y-115831571D01*
X104233909Y-111538031D02*
X104135299Y-111906049D01*
X89204760Y-120954044D02*
X88945941Y-121919970D01*
X105126443Y-111761656D02*
X106092369Y-112020475D01*
X105833550Y-112986401D02*
X106092369Y-112020475D01*
X95303307Y-115719087D02*
X93635310Y-115272149D01*
X89911867Y-122178789D02*
X88945941Y-121919970D01*
X92535976Y-111033181D02*
X92437366Y-111401199D01*
X102468902Y-125543436D02*
X101502976Y-125284617D01*
X98176555Y-114516769D02*
G75*
G03*
X95298400Y-115737401I-657400J-2453452D01*
G01*
X95646828Y-109237129D02*
G75*
G03*
X92535976Y-111033181I-657399J-2453454D01*
G01*
X61146665Y-109610701D02*
X60146665Y-109610701D01*
X59896665Y-106410701D02*
X59896665Y-111810701D01*
X61146665Y-108610701D02*
X60146665Y-108610701D01*
X59896665Y-111810701D02*
X61396665Y-111810701D01*
X60146665Y-109610701D02*
X60646665Y-108710701D01*
X60646665Y-108710701D02*
X61146665Y-109610701D01*
X61396665Y-111810701D02*
X61396665Y-106410701D01*
X61396665Y-106410701D02*
X59896665Y-106410701D01*
X236127903Y-87409703D02*
X237127903Y-87409703D01*
X223777903Y-93393703D02*
X223777903Y-93774703D01*
X223127903Y-87409703D02*
X224127903Y-87409703D01*
X235207903Y-87424703D02*
X235207903Y-87805703D01*
X227663741Y-93774703D02*
X225936903Y-93774703D01*
X237127903Y-101409703D02*
X237127903Y-100409703D01*
X235207903Y-91869703D02*
X230127903Y-91869703D01*
X223127903Y-100409703D02*
X223127903Y-101409703D01*
X223777903Y-89964703D02*
X223777903Y-90345703D01*
X223127903Y-87409703D02*
X223127903Y-88409703D01*
X224127903Y-101409703D02*
X223127903Y-101409703D01*
X235207903Y-90853703D02*
X235207903Y-91869703D01*
X226317903Y-87424703D02*
X235207903Y-87424703D01*
X224158903Y-93774703D02*
X223777903Y-93774703D01*
X237127903Y-101409703D02*
X236127903Y-101409703D01*
X237127903Y-88409703D02*
X237127903Y-87409703D01*
X226317903Y-87424703D02*
G75*
G03*
X223777903Y-89964703I1J-2540001D01*
G01*
X230127903Y-91869702D02*
G75*
G03*
X227663741Y-93793663I0J-2540000D01*
G01*
X220249940Y-109390039D02*
X219249940Y-109390039D01*
X218999940Y-106190039D02*
X218999940Y-111590039D01*
X220249940Y-108390039D02*
X219249940Y-108390039D01*
X218999940Y-111590039D02*
X220499940Y-111590039D01*
X219249940Y-109390039D02*
X219749940Y-108490039D01*
X219749940Y-108490039D02*
X220249940Y-109390039D01*
X220499940Y-111590039D02*
X220499940Y-106190039D01*
X220499940Y-106190039D02*
X218999940Y-106190039D01*
X82330829Y-107180344D02*
X83330829Y-107180344D01*
X69980829Y-113164344D02*
X69980829Y-113545344D01*
X69330829Y-107180344D02*
X70330829Y-107180344D01*
X81410829Y-107195344D02*
X81410829Y-107576344D01*
X73866667Y-113545344D02*
X72139829Y-113545344D01*
X83330829Y-121180344D02*
X83330829Y-120180344D01*
X81410829Y-111640344D02*
X76330829Y-111640344D01*
X69330829Y-120180344D02*
X69330829Y-121180344D01*
X69980829Y-109735344D02*
X69980829Y-110116344D01*
X69330829Y-107180344D02*
X69330829Y-108180344D01*
X70330829Y-121180344D02*
X69330829Y-121180344D01*
X81410829Y-110624344D02*
X81410829Y-111640344D01*
X72520829Y-107195344D02*
X81410829Y-107195344D01*
X70361829Y-113545344D02*
X69980829Y-113545344D01*
X83330829Y-121180344D02*
X82330829Y-121180344D01*
X83330829Y-108180344D02*
X83330829Y-107180344D01*
X72520829Y-107195344D02*
G75*
G03*
X69980829Y-109735344I1J-2540001D01*
G01*
X76330829Y-111640343D02*
G75*
G03*
X73866667Y-113564304I0J-2540000D01*
G01*
X217077910Y-43309201D02*
X218077910Y-43309201D01*
X204727910Y-49293201D02*
X204727910Y-49674201D01*
X204077910Y-43309201D02*
X205077910Y-43309201D01*
X216157910Y-43324201D02*
X216157910Y-43705201D01*
X208613748Y-49674201D02*
X206886910Y-49674201D01*
X218077910Y-57309201D02*
X218077910Y-56309201D01*
X216157910Y-47769201D02*
X211077910Y-47769201D01*
X204077910Y-56309201D02*
X204077910Y-57309201D01*
X204727910Y-45864201D02*
X204727910Y-46245201D01*
X204077910Y-43309201D02*
X204077910Y-44309201D01*
X205077910Y-57309201D02*
X204077910Y-57309201D01*
X216157910Y-46753201D02*
X216157910Y-47769201D01*
X207267910Y-43324201D02*
X216157910Y-43324201D01*
X205108910Y-49674201D02*
X204727910Y-49674201D01*
X218077910Y-57309201D02*
X217077910Y-57309201D01*
X218077910Y-44309201D02*
X218077910Y-43309201D01*
X207267910Y-43324201D02*
G75*
G03*
X204727910Y-45864201I1J-2540001D01*
G01*
X211077910Y-47769200D02*
G75*
G03*
X208613748Y-49693161I0J-2540000D01*
G01*
X56268703Y-68580361D02*
X57268703Y-68580361D01*
X43918703Y-74564361D02*
X43918703Y-74945361D01*
X43268703Y-68580361D02*
X44268703Y-68580361D01*
X55348703Y-68595361D02*
X55348703Y-68976361D01*
X47804541Y-74945361D02*
X46077703Y-74945361D01*
X57268703Y-82580361D02*
X57268703Y-81580361D01*
X55348703Y-73040361D02*
X50268703Y-73040361D01*
X43268703Y-81580361D02*
X43268703Y-82580361D01*
X43918703Y-71135361D02*
X43918703Y-71516361D01*
X43268703Y-68580361D02*
X43268703Y-69580361D01*
X44268703Y-82580361D02*
X43268703Y-82580361D01*
X55348703Y-72024361D02*
X55348703Y-73040361D01*
X46458703Y-68595361D02*
X55348703Y-68595361D01*
X44299703Y-74945361D02*
X43918703Y-74945361D01*
X57268703Y-82580361D02*
X56268703Y-82580361D01*
X57268703Y-69580361D02*
X57268703Y-68580361D01*
X46458703Y-68595361D02*
G75*
G03*
X43918703Y-71135361I1J-2540001D01*
G01*
X50268703Y-73040360D02*
G75*
G03*
X47804541Y-74964321I0J-2540000D01*
G01*
X236127907Y-49309704D02*
X237127907Y-49309704D01*
X223777907Y-55293704D02*
X223777907Y-55674704D01*
X223127907Y-49309704D02*
X224127907Y-49309704D01*
X235207907Y-49324704D02*
X235207907Y-49705704D01*
X227663745Y-55674704D02*
X225936907Y-55674704D01*
X237127907Y-63309704D02*
X237127907Y-62309704D01*
X235207907Y-53769704D02*
X230127907Y-53769704D01*
X223127907Y-62309704D02*
X223127907Y-63309704D01*
X223777907Y-51864704D02*
X223777907Y-52245704D01*
X223127907Y-49309704D02*
X223127907Y-50309704D01*
X224127907Y-63309704D02*
X223127907Y-63309704D01*
X235207907Y-52753704D02*
X235207907Y-53769704D01*
X226317907Y-49324704D02*
X235207907Y-49324704D01*
X224158907Y-55674704D02*
X223777907Y-55674704D01*
X237127907Y-63309704D02*
X236127907Y-63309704D01*
X237127907Y-50309704D02*
X237127907Y-49309704D01*
X226317907Y-49324704D02*
G75*
G03*
X223777907Y-51864704I1J-2540001D01*
G01*
X230127907Y-53769703D02*
G75*
G03*
X227663745Y-55693664I0J-2540000D01*
G01*
X178977900Y-90409201D02*
X179977900Y-90409201D01*
X166627900Y-96393201D02*
X166627900Y-96774201D01*
X165977900Y-90409201D02*
X166977900Y-90409201D01*
X178057900Y-90424201D02*
X178057900Y-90805201D01*
X170513738Y-96774201D02*
X168786900Y-96774201D01*
X179977900Y-104409201D02*
X179977900Y-103409201D01*
X178057900Y-94869201D02*
X172977900Y-94869201D01*
X165977900Y-103409201D02*
X165977900Y-104409201D01*
X166627900Y-92964201D02*
X166627900Y-93345201D01*
X165977900Y-90409201D02*
X165977900Y-91409201D01*
X166977900Y-104409201D02*
X165977900Y-104409201D01*
X178057900Y-93853201D02*
X178057900Y-94869201D01*
X169167900Y-90424201D02*
X178057900Y-90424201D01*
X167008900Y-96774201D02*
X166627900Y-96774201D01*
X179977900Y-104409201D02*
X178977900Y-104409201D01*
X179977900Y-91409201D02*
X179977900Y-90409201D01*
X169167900Y-90424201D02*
G75*
G03*
X166627900Y-92964201I1J-2540001D01*
G01*
X172977900Y-94869200D02*
G75*
G03*
X170513738Y-96793161I0J-2540000D01*
G01*
X178977903Y-52309200D02*
X179977903Y-52309200D01*
X166627903Y-58293200D02*
X166627903Y-58674200D01*
X165977903Y-52309200D02*
X166977903Y-52309200D01*
X178057903Y-52324200D02*
X178057903Y-52705200D01*
X170513741Y-58674200D02*
X168786903Y-58674200D01*
X179977903Y-66309200D02*
X179977903Y-65309200D01*
X178057903Y-56769200D02*
X172977903Y-56769200D01*
X165977903Y-65309200D02*
X165977903Y-66309200D01*
X166627903Y-54864200D02*
X166627903Y-55245200D01*
X165977903Y-52309200D02*
X165977903Y-53309200D01*
X166977903Y-66309200D02*
X165977903Y-66309200D01*
X178057903Y-55753200D02*
X178057903Y-56769200D01*
X169167903Y-52324200D02*
X178057903Y-52324200D01*
X167008903Y-58674200D02*
X166627903Y-58674200D01*
X179977903Y-66309200D02*
X178977903Y-66309200D01*
X179977903Y-53309200D02*
X179977903Y-52309200D01*
X169167903Y-52324200D02*
G75*
G03*
X166627903Y-54864200I1J-2540001D01*
G01*
X172977903Y-56769199D02*
G75*
G03*
X170513741Y-58693160I0J-2540000D01*
G01*
X113418704Y-71579864D02*
X114418704Y-71579864D01*
X101068704Y-77563864D02*
X101068704Y-77944864D01*
X100418704Y-71579864D02*
X101418704Y-71579864D01*
X112498704Y-71594864D02*
X112498704Y-71975864D01*
X104954542Y-77944864D02*
X103227704Y-77944864D01*
X114418704Y-85579864D02*
X114418704Y-84579864D01*
X112498704Y-76039864D02*
X107418704Y-76039864D01*
X100418704Y-84579864D02*
X100418704Y-85579864D01*
X101068704Y-74134864D02*
X101068704Y-74515864D01*
X100418704Y-71579864D02*
X100418704Y-72579864D01*
X101418704Y-85579864D02*
X100418704Y-85579864D01*
X112498704Y-75023864D02*
X112498704Y-76039864D01*
X103608704Y-71594864D02*
X112498704Y-71594864D01*
X101449704Y-77944864D02*
X101068704Y-77944864D01*
X114418704Y-85579864D02*
X113418704Y-85579864D01*
X114418704Y-72579864D02*
X114418704Y-71579864D01*
X103608704Y-71594864D02*
G75*
G03*
X101068704Y-74134864I1J-2540001D01*
G01*
X107418704Y-76039863D02*
G75*
G03*
X104954542Y-77963824I0J-2540000D01*
G01*
X198027906Y-87909199D02*
X199027906Y-87909199D01*
X185677906Y-93893199D02*
X185677906Y-94274199D01*
X185027906Y-87909199D02*
X186027906Y-87909199D01*
X197107906Y-87924199D02*
X197107906Y-88305199D01*
X189563744Y-94274199D02*
X187836906Y-94274199D01*
X199027906Y-101909199D02*
X199027906Y-100909199D01*
X197107906Y-92369199D02*
X192027906Y-92369199D01*
X185027906Y-100909199D02*
X185027906Y-101909199D01*
X185677906Y-90464199D02*
X185677906Y-90845199D01*
X185027906Y-87909199D02*
X185027906Y-88909199D01*
X186027906Y-101909199D02*
X185027906Y-101909199D01*
X197107906Y-91353199D02*
X197107906Y-92369199D01*
X188217906Y-87924199D02*
X197107906Y-87924199D01*
X186058906Y-94274199D02*
X185677906Y-94274199D01*
X199027906Y-101909199D02*
X198027906Y-101909199D01*
X199027906Y-88909199D02*
X199027906Y-87909199D01*
X188217906Y-87924199D02*
G75*
G03*
X185677906Y-90464199I1J-2540001D01*
G01*
X192027906Y-92369198D02*
G75*
G03*
X189563744Y-94293159I0J-2540000D01*
G01*
X37218704Y-80580358D02*
X38218704Y-80580358D01*
X24868704Y-86564358D02*
X24868704Y-86945358D01*
X24218704Y-80580358D02*
X25218704Y-80580358D01*
X36298704Y-80595358D02*
X36298704Y-80976358D01*
X28754542Y-86945358D02*
X27027704Y-86945358D01*
X38218704Y-94580358D02*
X38218704Y-93580358D01*
X36298704Y-85040358D02*
X31218704Y-85040358D01*
X24218704Y-93580358D02*
X24218704Y-94580358D01*
X24868704Y-83135358D02*
X24868704Y-83516358D01*
X24218704Y-80580358D02*
X24218704Y-81580358D01*
X25218704Y-94580358D02*
X24218704Y-94580358D01*
X36298704Y-84024358D02*
X36298704Y-85040358D01*
X27408704Y-80595358D02*
X36298704Y-80595358D01*
X25249704Y-86945358D02*
X24868704Y-86945358D01*
X38218704Y-94580358D02*
X37218704Y-94580358D01*
X38218704Y-81580358D02*
X38218704Y-80580358D01*
X27408704Y-80595358D02*
G75*
G03*
X24868704Y-83135358I1J-2540001D01*
G01*
X31218704Y-85040357D02*
G75*
G03*
X28754542Y-86964318I0J-2540000D01*
G01*
X128476665Y-77660701D02*
X128476665Y-75660701D01*
X130476665Y-75660701D02*
X130476665Y-77660701D01*
X128476665Y-75660701D02*
X130476665Y-75660701D01*
X130476665Y-77660701D02*
X128476665Y-77660701D01*
X56268698Y-49530366D02*
X57268698Y-49530366D01*
X43918698Y-55514366D02*
X43918698Y-55895366D01*
X43268698Y-49530366D02*
X44268698Y-49530366D01*
X55348698Y-49545366D02*
X55348698Y-49926366D01*
X47804536Y-55895366D02*
X46077698Y-55895366D01*
X57268698Y-63530366D02*
X57268698Y-62530366D01*
X55348698Y-53990366D02*
X50268698Y-53990366D01*
X43268698Y-62530366D02*
X43268698Y-63530366D01*
X43918698Y-52085366D02*
X43918698Y-52466366D01*
X43268698Y-49530366D02*
X43268698Y-50530366D01*
X44268698Y-63530366D02*
X43268698Y-63530366D01*
X55348698Y-52974366D02*
X55348698Y-53990366D01*
X46458698Y-49545366D02*
X55348698Y-49545366D01*
X44299698Y-55895366D02*
X43918698Y-55895366D01*
X57268698Y-63530366D02*
X56268698Y-63530366D01*
X57268698Y-50530366D02*
X57268698Y-49530366D01*
X46458698Y-49545366D02*
G75*
G03*
X43918698Y-52085366I1J-2540001D01*
G01*
X50268698Y-53990365D02*
G75*
G03*
X47804536Y-55914326I0J-2540000D01*
G01*
X75318695Y-43529863D02*
X76318695Y-43529863D01*
X62968695Y-49513863D02*
X62968695Y-49894863D01*
X62318695Y-43529863D02*
X63318695Y-43529863D01*
X74398695Y-43544863D02*
X74398695Y-43925863D01*
X66854533Y-49894863D02*
X65127695Y-49894863D01*
X76318695Y-57529863D02*
X76318695Y-56529863D01*
X74398695Y-47989863D02*
X69318695Y-47989863D01*
X62318695Y-56529863D02*
X62318695Y-57529863D01*
X62968695Y-46084863D02*
X62968695Y-46465863D01*
X62318695Y-43529863D02*
X62318695Y-44529863D01*
X63318695Y-57529863D02*
X62318695Y-57529863D01*
X74398695Y-46973863D02*
X74398695Y-47989863D01*
X65508695Y-43544863D02*
X74398695Y-43544863D01*
X63349695Y-49894863D02*
X62968695Y-49894863D01*
X76318695Y-57529863D02*
X75318695Y-57529863D01*
X76318695Y-44529863D02*
X76318695Y-43529863D01*
X65508695Y-43544863D02*
G75*
G03*
X62968695Y-46084863I1J-2540001D01*
G01*
X69318695Y-47989862D02*
G75*
G03*
X66854533Y-49913823I0J-2540000D01*
G01*
X255177910Y-61309702D02*
X256177910Y-61309702D01*
X242827910Y-67293702D02*
X242827910Y-67674702D01*
X242177910Y-61309702D02*
X243177910Y-61309702D01*
X254257910Y-61324702D02*
X254257910Y-61705702D01*
X246713748Y-67674702D02*
X244986910Y-67674702D01*
X256177910Y-75309702D02*
X256177910Y-74309702D01*
X254257910Y-65769702D02*
X249177910Y-65769702D01*
X242177910Y-74309702D02*
X242177910Y-75309702D01*
X242827910Y-63864702D02*
X242827910Y-64245702D01*
X242177910Y-61309702D02*
X242177910Y-62309702D01*
X243177910Y-75309702D02*
X242177910Y-75309702D01*
X254257910Y-64753702D02*
X254257910Y-65769702D01*
X245367910Y-61324702D02*
X254257910Y-61324702D01*
X243208910Y-67674702D02*
X242827910Y-67674702D01*
X256177910Y-75309702D02*
X255177910Y-75309702D01*
X256177910Y-62309702D02*
X256177910Y-61309702D01*
X245367910Y-61324702D02*
G75*
G03*
X242827910Y-63864702I1J-2540001D01*
G01*
X249177910Y-65769701D02*
G75*
G03*
X246713748Y-67693662I0J-2540000D01*
G01*
X37218702Y-99630361D02*
X38218702Y-99630361D01*
X24868702Y-105614361D02*
X24868702Y-105995361D01*
X24218702Y-99630361D02*
X25218702Y-99630361D01*
X36298702Y-99645361D02*
X36298702Y-100026361D01*
X28754540Y-105995361D02*
X27027702Y-105995361D01*
X38218702Y-113630361D02*
X38218702Y-112630361D01*
X36298702Y-104090361D02*
X31218702Y-104090361D01*
X24218702Y-112630361D02*
X24218702Y-113630361D01*
X24868702Y-102185361D02*
X24868702Y-102566361D01*
X24218702Y-99630361D02*
X24218702Y-100630361D01*
X25218702Y-113630361D02*
X24218702Y-113630361D01*
X36298702Y-103074361D02*
X36298702Y-104090361D01*
X27408702Y-99645361D02*
X36298702Y-99645361D01*
X25249702Y-105995361D02*
X24868702Y-105995361D01*
X38218702Y-113630361D02*
X37218702Y-113630361D01*
X38218702Y-100630361D02*
X38218702Y-99630361D01*
X27408702Y-99645361D02*
G75*
G03*
X24868702Y-102185361I1J-2540001D01*
G01*
X31218702Y-104090360D02*
G75*
G03*
X28754540Y-106014321I0J-2540000D01*
G01*
X216769940Y-111590039D02*
X218269940Y-111590039D01*
X218269940Y-111590039D02*
X218269940Y-106190039D01*
X218269940Y-106190039D02*
X216769940Y-106190039D01*
X217019940Y-109390039D02*
X217519940Y-108490039D01*
X216769940Y-106190039D02*
X216769940Y-111590039D01*
X217519940Y-108490039D02*
X218019940Y-109390039D01*
X218019940Y-109390039D02*
X217019940Y-109390039D01*
X218019940Y-108390039D02*
X217019940Y-108390039D01*
X149919940Y-75440039D02*
X151919940Y-75440039D01*
X151919940Y-75440039D02*
X151919940Y-77440039D01*
X151919940Y-77440039D02*
X149919940Y-77440039D01*
X149919940Y-77440039D02*
X149919940Y-75440039D01*
X191450664Y-121699308D02*
X191191845Y-120733382D01*
X177389422Y-110988669D02*
X185976502Y-108687768D01*
X174304236Y-111799813D02*
X175270162Y-111540994D01*
X176947489Y-117681088D02*
X176579471Y-117779698D01*
X174304236Y-111799813D02*
X174563055Y-112765739D01*
X187126953Y-112981308D02*
X182220050Y-114296109D01*
X176480861Y-117411681D02*
X176579471Y-117779698D01*
X186863993Y-111999927D02*
X187126953Y-112981308D01*
X185976502Y-108687768D02*
X186075112Y-109055785D01*
X177668884Y-124356849D02*
X177927703Y-125322774D01*
X186861272Y-108435165D02*
X187827198Y-108176346D01*
X188086017Y-109142272D02*
X187827198Y-108176346D01*
X180332902Y-116773969D02*
X178664905Y-117220908D01*
X178893629Y-125063955D02*
X177927703Y-125322774D01*
X175593371Y-114099521D02*
X175691981Y-114467539D01*
X191450664Y-121699308D02*
X190484738Y-121958127D01*
X182220050Y-114296109D02*
G75*
G03*
X180337810Y-116792283I657400J-2453451D01*
G01*
X177389422Y-110988670D02*
G75*
G03*
X175593371Y-114099521I657400J-2453451D01*
G01*
X153570761Y-122366073D02*
X154070761Y-123232099D01*
X172695117Y-127490429D02*
X171829091Y-127990429D01*
X166262348Y-120188547D02*
X161862939Y-122728547D01*
X160070761Y-133624404D02*
X160570761Y-134490429D01*
X172695117Y-127490429D02*
X172195117Y-126624404D01*
X153570761Y-122366073D02*
X154436787Y-121866073D01*
X165754348Y-119308665D02*
X166262348Y-120188547D01*
X156340882Y-120784064D02*
X164039848Y-116339064D01*
X166195117Y-116232099D02*
X165695117Y-115366073D01*
X160681412Y-125610406D02*
X159185927Y-126473825D01*
X161436787Y-133990429D02*
X160570761Y-134490429D01*
X157125678Y-127223369D02*
X157316178Y-127553325D01*
X164039848Y-116339064D02*
X164230348Y-116669019D01*
X155411178Y-124253768D02*
X155601678Y-124583724D01*
X157646133Y-127362825D02*
X157316178Y-127553325D01*
X164829091Y-115866073D02*
X165695117Y-115366073D01*
X161862939Y-122728547D02*
G75*
G03*
X160690892Y-125626826I1270000J-2199704D01*
G01*
X156340882Y-120784064D02*
G75*
G03*
X155411178Y-124253768I1270000J-2199704D01*
G01*
X153304940Y-77455039D02*
X153304940Y-75455039D01*
X153304940Y-75455039D02*
X155304940Y-75455039D01*
X155304940Y-75455039D02*
X155304940Y-77455039D01*
X155304940Y-77455039D02*
X153304940Y-77455039D01*
X148909940Y-109320039D02*
X148909940Y-109070039D01*
X148909940Y-105820039D02*
X148909940Y-106070039D01*
X154909940Y-109320039D02*
X148909940Y-109320039D01*
X154909940Y-105820039D02*
X154909940Y-106070039D01*
X154909940Y-109320039D02*
X154909940Y-109070039D01*
X154909940Y-105820039D02*
X148909940Y-105820039D01*
D11*
X150919940Y-76440039D03*
X154304940Y-76455039D03*
D12*
X148659940Y-107570039D03*
X155159940Y-107570039D03*
%LPC*%
D11*
X126091665Y-76675701D03*
D13*
X74376665Y-69590701D03*
D14*
X74376665Y-69580701D03*
D15*
X69296665Y-69580701D03*
D16*
X69296665Y-69590701D03*
D13*
X64216665Y-69590701D03*
D17*
X71836665Y-64510701D03*
X65486665Y-67050701D03*
D14*
X64216665Y-69580701D03*
D18*
X75586665Y-64510701D03*
X61736665Y-67050701D03*
D12*
X131736665Y-107790701D03*
X125236665Y-107790701D03*
D19*
X143219480Y-76003600D03*
X143269480Y-73003600D03*
D20*
X65116665Y-107315701D03*
X65116665Y-110865701D03*
D13*
X254257903Y-106409699D03*
D14*
X254257903Y-106399699D03*
D15*
X249177903Y-106399699D03*
D16*
X249177903Y-106409699D03*
D13*
X244097903Y-106409699D03*
D17*
X251717903Y-101329699D03*
X245367903Y-103869699D03*
D14*
X244097903Y-106399699D03*
D18*
X255467903Y-101329699D03*
X241617903Y-103869699D03*
D21*
X37746665Y-55870701D03*
D13*
X93448704Y-57029867D03*
D14*
X93448704Y-57019867D03*
D15*
X88368704Y-57019867D03*
D16*
X88368704Y-57029867D03*
D13*
X83288704Y-57029867D03*
D17*
X90908704Y-51949867D03*
X84558704Y-54489867D03*
D14*
X83288704Y-57019867D03*
D18*
X94658704Y-51949867D03*
X80808704Y-54489867D03*
D21*
X98046665Y-67660701D03*
D13*
X112498705Y-97629863D03*
D14*
X112498705Y-97619863D03*
D15*
X107418705Y-97619863D03*
D16*
X107418705Y-97629863D03*
D13*
X102338705Y-97629863D03*
D17*
X109958705Y-92549863D03*
X103608705Y-95089863D03*
D14*
X102338705Y-97619863D03*
D18*
X113708705Y-92549863D03*
X99858705Y-95089863D03*
D13*
X178057901Y-78359202D03*
D14*
X178057901Y-78349202D03*
D15*
X172977901Y-78349202D03*
D16*
X172977901Y-78359202D03*
D13*
X167897901Y-78359202D03*
D17*
X175517901Y-73279202D03*
X169167901Y-75819202D03*
D14*
X167897901Y-78349202D03*
D18*
X179267901Y-73279202D03*
X165417901Y-75819202D03*
D22*
X119881665Y-51625701D03*
D23*
X119886665Y-54180701D03*
D24*
X119886665Y-56715701D03*
D25*
X119886665Y-59225701D03*
D26*
X119881665Y-61780701D03*
D27*
X119886665Y-64330701D03*
D28*
X119886665Y-66885701D03*
D29*
X135861665Y-66870701D03*
D30*
X135851665Y-64335701D03*
D31*
X135841665Y-61775701D03*
D32*
X135841665Y-59215701D03*
D33*
X135831665Y-56685701D03*
D34*
X135856665Y-54170701D03*
D35*
X135861665Y-51655701D03*
D11*
X126626665Y-50678701D03*
X129166665Y-50678701D03*
X126626665Y-53218701D03*
X129166665Y-53218701D03*
X123451665Y-58933701D03*
X123451665Y-57028701D03*
D19*
X137256665Y-73875701D03*
X137206665Y-76875701D03*
D13*
X216157902Y-88409198D03*
D14*
X216157902Y-88399198D03*
D15*
X211077902Y-88399198D03*
D16*
X211077902Y-88409198D03*
D13*
X205997902Y-88409198D03*
D17*
X213617902Y-83329198D03*
X207267902Y-85869198D03*
D14*
X205997902Y-88399198D03*
D18*
X217367902Y-83329198D03*
X203517902Y-85869198D03*
D13*
X93448699Y-95129861D03*
D14*
X93448699Y-95119861D03*
D15*
X88368699Y-95119861D03*
D16*
X88368699Y-95129861D03*
D13*
X83288699Y-95129861D03*
D17*
X90908699Y-90049861D03*
X84558699Y-92589861D03*
D14*
X83288699Y-95119861D03*
D18*
X94658699Y-90049861D03*
X80808699Y-92589861D03*
D20*
X62876665Y-107335701D03*
X62876665Y-110885701D03*
D36*
X119716665Y-107050701D03*
D13*
X93448703Y-76079859D03*
D14*
X93448703Y-76069859D03*
D15*
X88368703Y-76069859D03*
D16*
X88368703Y-76079859D03*
D13*
X83288703Y-76079859D03*
D17*
X90908703Y-70999859D03*
X84558703Y-73539859D03*
D14*
X83288703Y-76069859D03*
D18*
X94658703Y-70999859D03*
X80808703Y-73539859D03*
D21*
X111026665Y-112370701D03*
D36*
X134036665Y-114200701D03*
D21*
X43886665Y-107270701D03*
D13*
X197107901Y-56809205D03*
D14*
X197107901Y-56799205D03*
D15*
X192027901Y-56799205D03*
D16*
X192027901Y-56809205D03*
D13*
X186947901Y-56809205D03*
D17*
X194567901Y-51729205D03*
X188217901Y-54269205D03*
D14*
X186947901Y-56799205D03*
D18*
X198317901Y-51729205D03*
X184467901Y-54269205D03*
D13*
X254257901Y-87359696D03*
D14*
X254257901Y-87349696D03*
D15*
X249177901Y-87349696D03*
D16*
X249177901Y-87359696D03*
D13*
X244097901Y-87359696D03*
D17*
X251717901Y-82279696D03*
X245367901Y-84819696D03*
D14*
X244097901Y-87349696D03*
D18*
X255467901Y-82279696D03*
X241617901Y-84819696D03*
D13*
X197107902Y-75859197D03*
D14*
X197107902Y-75849197D03*
D15*
X192027902Y-75849197D03*
D16*
X192027902Y-75859197D03*
D13*
X186947902Y-75859197D03*
D17*
X194567902Y-70779197D03*
X188217902Y-73319197D03*
D14*
X186947902Y-75849197D03*
D18*
X198317902Y-70779197D03*
X184467902Y-73319197D03*
D14*
X112869257Y-122600253D03*
X121668075Y-127680253D03*
X121668075Y-127680253D03*
D17*
X122003371Y-122019504D03*
D14*
X112869257Y-122600253D03*
D17*
X115234109Y-121044209D03*
D15*
X117268666Y-125140253D03*
X117268666Y-125140253D03*
D13*
X112864257Y-122608913D03*
X121663075Y-127688913D03*
D16*
X117263666Y-125148913D03*
D37*
X125250966Y-123894504D03*
X111986514Y-119169209D03*
D13*
X209145776Y-113959682D03*
D14*
X209145776Y-113949682D03*
D15*
X204065776Y-113949682D03*
D16*
X204065776Y-113959682D03*
D13*
X198985776Y-113959682D03*
D17*
X206605776Y-108879682D03*
X200255776Y-111419682D03*
D14*
X198985776Y-113949682D03*
D18*
X210355776Y-108879682D03*
X196505776Y-111419682D03*
D13*
X36298695Y-68530364D03*
D14*
X36298695Y-68520364D03*
D15*
X31218695Y-68520364D03*
D16*
X31218695Y-68530364D03*
D13*
X26138695Y-68530364D03*
D17*
X33758695Y-63450364D03*
X27408695Y-65990364D03*
D14*
X26138695Y-68520364D03*
D18*
X37508695Y-63450364D03*
X23658695Y-65990364D03*
D13*
X112498702Y-59529862D03*
D14*
X112498702Y-59519862D03*
D15*
X107418702Y-59519862D03*
D16*
X107418702Y-59529862D03*
D13*
X102338702Y-59529862D03*
D17*
X109958702Y-54449862D03*
X103608702Y-56989862D03*
D14*
X102338702Y-59519862D03*
D18*
X113708702Y-54449862D03*
X99858702Y-56989862D03*
D13*
X55348702Y-94630365D03*
D14*
X55348702Y-94620365D03*
D15*
X50268702Y-94620365D03*
D16*
X50268702Y-94630365D03*
D13*
X45188702Y-94630365D03*
D17*
X52808702Y-89550365D03*
X46458702Y-92090365D03*
D14*
X45188702Y-94620365D03*
D18*
X56558702Y-89550365D03*
X42708702Y-92090365D03*
D13*
X74398703Y-88629860D03*
D14*
X74398703Y-88619860D03*
D15*
X69318703Y-88619860D03*
D16*
X69318703Y-88629860D03*
D13*
X64238703Y-88629860D03*
D17*
X71858703Y-83549860D03*
X65508703Y-86089860D03*
D14*
X64238703Y-88619860D03*
D18*
X75608703Y-83549860D03*
X61758703Y-86089860D03*
D20*
X215279940Y-107095039D03*
X215279940Y-110645039D03*
D13*
X216179940Y-69370039D03*
D14*
X216179940Y-69360039D03*
D15*
X211099940Y-69360039D03*
D16*
X211099940Y-69370039D03*
D13*
X206019940Y-69370039D03*
D17*
X213639940Y-64290039D03*
X207289940Y-66830039D03*
D14*
X206019940Y-69360039D03*
D18*
X217389940Y-64290039D03*
X203539940Y-66830039D03*
D13*
X235207902Y-75359699D03*
D14*
X235207902Y-75349699D03*
D15*
X230127902Y-75349699D03*
D16*
X230127902Y-75359699D03*
D13*
X225047902Y-75359699D03*
D17*
X232667902Y-70279699D03*
X226317902Y-72819699D03*
D14*
X225047902Y-75349699D03*
D18*
X236417902Y-70279699D03*
X222567902Y-72819699D03*
D13*
X102426058Y-118285023D03*
D14*
X92614840Y-115645762D03*
D15*
X97521743Y-116960563D03*
X97521743Y-116960563D03*
D14*
X92614840Y-115645762D03*
X102428646Y-118275364D03*
D13*
X92612252Y-115655422D03*
D16*
X97519155Y-116970222D03*
D17*
X101287407Y-112720719D03*
X94496378Y-113530670D03*
D14*
X102428646Y-118275364D03*
D38*
X104909629Y-113691291D03*
X90874156Y-112560099D03*
D20*
X60646665Y-107335701D03*
X60646665Y-110885701D03*
D13*
X235207903Y-94409703D03*
D14*
X235207903Y-94399703D03*
D15*
X230127903Y-94399703D03*
D16*
X230127903Y-94409703D03*
D13*
X225047903Y-94409703D03*
D17*
X232667903Y-89329703D03*
X226317903Y-91869703D03*
D14*
X225047903Y-94399703D03*
D18*
X236417903Y-89329703D03*
X222567903Y-91869703D03*
D20*
X219749940Y-107115039D03*
X219749940Y-110665039D03*
D13*
X81410829Y-114180344D03*
D14*
X81410829Y-114170344D03*
D15*
X76330829Y-114170344D03*
D16*
X76330829Y-114180344D03*
D13*
X71250829Y-114180344D03*
D17*
X78870829Y-109100344D03*
X72520829Y-111640344D03*
D14*
X71250829Y-114170344D03*
D18*
X82620829Y-109100344D03*
X68770829Y-111640344D03*
D22*
X144484940Y-51405039D03*
D23*
X144489940Y-53960039D03*
D24*
X144489940Y-56495039D03*
D25*
X144489940Y-59005039D03*
D26*
X144484940Y-61560039D03*
D27*
X144489940Y-64110039D03*
D28*
X144489940Y-66665039D03*
D29*
X160464940Y-66650039D03*
D30*
X160454940Y-64115039D03*
D31*
X160444940Y-61555039D03*
D32*
X160444940Y-58995039D03*
D33*
X160434940Y-56465039D03*
D34*
X160459940Y-53950039D03*
D35*
X160464940Y-51435039D03*
D11*
X151229940Y-50458039D03*
X153769940Y-50458039D03*
X151229940Y-52998039D03*
X153769940Y-52998039D03*
X148054940Y-58713039D03*
X148054940Y-56808039D03*
D13*
X216157910Y-50309201D03*
D14*
X216157910Y-50299201D03*
D15*
X211077910Y-50299201D03*
D16*
X211077910Y-50309201D03*
D13*
X205997910Y-50309201D03*
D17*
X213617910Y-45229201D03*
X207267910Y-47769201D03*
D14*
X205997910Y-50299201D03*
D18*
X217367910Y-45229201D03*
X203517910Y-47769201D03*
D13*
X55348703Y-75580361D03*
D14*
X55348703Y-75570361D03*
D15*
X50268703Y-75570361D03*
D16*
X50268703Y-75580361D03*
D13*
X45188703Y-75580361D03*
D17*
X52808703Y-70500361D03*
X46458703Y-73040361D03*
D14*
X45188703Y-75570361D03*
D18*
X56558703Y-70500361D03*
X42708703Y-73040361D03*
D13*
X235207907Y-56309704D03*
D14*
X235207907Y-56299704D03*
D15*
X230127907Y-56299704D03*
D16*
X230127907Y-56309704D03*
D13*
X225047907Y-56309704D03*
D17*
X232667907Y-51229704D03*
X226317907Y-53769704D03*
D14*
X225047907Y-56299704D03*
D18*
X236417907Y-51229704D03*
X222567907Y-53769704D03*
D13*
X178057900Y-97409201D03*
D14*
X178057900Y-97399201D03*
D15*
X172977900Y-97399201D03*
D16*
X172977900Y-97409201D03*
D13*
X167897900Y-97409201D03*
D17*
X175517900Y-92329201D03*
X169167900Y-94869201D03*
D14*
X167897900Y-97399201D03*
D18*
X179267900Y-92329201D03*
X165417900Y-94869201D03*
D39*
X141166000Y-91468000D03*
X141166000Y-94516000D03*
X141166000Y-93500000D03*
X139134000Y-94516000D03*
X139134000Y-91468000D03*
X139134000Y-95532000D03*
X139134000Y-93500000D03*
X139134000Y-92484000D03*
X141166000Y-92484000D03*
X141166000Y-95532000D03*
D13*
X178057903Y-59309200D03*
D14*
X178057903Y-59299200D03*
D15*
X172977903Y-59299200D03*
D16*
X172977903Y-59309200D03*
D13*
X167897903Y-59309200D03*
D17*
X175517903Y-54229200D03*
X169167903Y-56769200D03*
D14*
X167897903Y-59299200D03*
D18*
X179267903Y-54229200D03*
X165417903Y-56769200D03*
D13*
X112498704Y-78579864D03*
D14*
X112498704Y-78569864D03*
D15*
X107418704Y-78569864D03*
D16*
X107418704Y-78579864D03*
D13*
X102338704Y-78579864D03*
D17*
X109958704Y-73499864D03*
X103608704Y-76039864D03*
D14*
X102338704Y-78569864D03*
D18*
X113708704Y-73499864D03*
X99858704Y-76039864D03*
D13*
X197107906Y-94909199D03*
D14*
X197107906Y-94899199D03*
D15*
X192027906Y-94899199D03*
D16*
X192027906Y-94909199D03*
D13*
X186947906Y-94909199D03*
D17*
X194567906Y-89829199D03*
X188217906Y-92369199D03*
D14*
X186947906Y-94899199D03*
D18*
X198317906Y-89829199D03*
X184467906Y-92369199D03*
D13*
X36298704Y-87580358D03*
D14*
X36298704Y-87570358D03*
D15*
X31218704Y-87570358D03*
D16*
X31218704Y-87580358D03*
D13*
X26138704Y-87580358D03*
D17*
X33758704Y-82500358D03*
X27408704Y-85040358D03*
D14*
X26138704Y-87570358D03*
D18*
X37508704Y-82500358D03*
X23658704Y-85040358D03*
D11*
X129476665Y-76660701D03*
D13*
X55348698Y-56530366D03*
D14*
X55348698Y-56520366D03*
D15*
X50268698Y-56520366D03*
D16*
X50268698Y-56530366D03*
D13*
X45188698Y-56530366D03*
D17*
X52808698Y-51450366D03*
X46458698Y-53990366D03*
D14*
X45188698Y-56520366D03*
D18*
X56558698Y-51450366D03*
X42708698Y-53990366D03*
D21*
X75686665Y-101540701D03*
D13*
X74398695Y-50529863D03*
D14*
X74398695Y-50519863D03*
D15*
X69318695Y-50519863D03*
D16*
X69318695Y-50529863D03*
D13*
X64238695Y-50529863D03*
D17*
X71858695Y-45449863D03*
X65508695Y-47989863D03*
D14*
X64238695Y-50519863D03*
D18*
X75608695Y-45449863D03*
X61758695Y-47989863D03*
D13*
X254257910Y-68309702D03*
D14*
X254257910Y-68299702D03*
D15*
X249177910Y-68299702D03*
D16*
X249177910Y-68309702D03*
D13*
X244097910Y-68309702D03*
D17*
X251717910Y-63229702D03*
X245367910Y-65769702D03*
D14*
X244097910Y-68299702D03*
D18*
X255467910Y-63229702D03*
X241617910Y-65769702D03*
D13*
X36298702Y-106630361D03*
D14*
X36298702Y-106620361D03*
D15*
X31218702Y-106620361D03*
D16*
X31218702Y-106630361D03*
D13*
X26138702Y-106630361D03*
D17*
X33758702Y-101550361D03*
X27408702Y-104090361D03*
D14*
X26138702Y-106620361D03*
D18*
X37508702Y-101550361D03*
X23658702Y-104090361D03*
D39*
X141216000Y-49678000D03*
X141216000Y-52726000D03*
X141216000Y-51710000D03*
X139184000Y-52726000D03*
X139184000Y-49678000D03*
X139184000Y-53742000D03*
X139184000Y-51710000D03*
X139184000Y-50694000D03*
X141216000Y-50694000D03*
X141216000Y-53742000D03*
D20*
X217519940Y-107115039D03*
X217519940Y-110665039D03*
D11*
X150919940Y-76440039D03*
D36*
X160679940Y-106830039D03*
D21*
X182349940Y-67440039D03*
D13*
X187784353Y-115434760D03*
D14*
X177967959Y-118054702D03*
D15*
X182874862Y-116739901D03*
X182874862Y-116739901D03*
D14*
X177967959Y-118054702D03*
X187781765Y-115425100D03*
D13*
X177970547Y-118064361D03*
D16*
X182877450Y-116749560D03*
D17*
X184016101Y-111185257D03*
X178539872Y-115282209D03*
D14*
X187781765Y-115425100D03*
D40*
X187638323Y-110214685D03*
X174917651Y-116252781D03*
D14*
X158728530Y-127459591D03*
X167527348Y-122379591D03*
X167527348Y-122379591D03*
D17*
X162792644Y-119258842D03*
D14*
X158728530Y-127459591D03*
D17*
X158563382Y-124633547D03*
D15*
X163127939Y-124919591D03*
X163127939Y-124919591D03*
D13*
X158733530Y-127468251D03*
X167532348Y-122388251D03*
D16*
X163132939Y-124928251D03*
D41*
X166040239Y-117383842D03*
X155315787Y-126508547D03*
D21*
X169369940Y-112150039D03*
X236509940Y-107050039D03*
D11*
X154304940Y-76455039D03*
D12*
X148659940Y-107570039D03*
X155159940Y-107570039D03*
D21*
X242649940Y-55650039D03*
D36*
X146359940Y-113980039D03*
D21*
X204709940Y-101320039D03*
M02*
