G04 #@! TF.GenerationSoftware,KiCad,Pcbnew,(6.0.10)*
G04 #@! TF.CreationDate,2023-02-02T08:57:34-03:00*
G04 #@! TF.ProjectId,pulso novo,70756c73-6f20-46e6-9f76-6f2e6b696361,0.2*
G04 #@! TF.SameCoordinates,Original*
G04 #@! TF.FileFunction,Paste,Top*
G04 #@! TF.FilePolarity,Positive*
%FSLAX46Y46*%
G04 Gerber Fmt 4.6, Leading zero omitted, Abs format (unit mm)*
G04 Created by KiCad (PCBNEW (6.0.10)) date 2023-02-02 08:57:34*
%MOMM*%
%LPD*%
G01*
G04 APERTURE LIST*
%ADD10R,1.800000X1.500000*%
%ADD11R,1.000000X0.700000*%
%ADD12R,2.800000X1.000000*%
%ADD13R,0.950000X1.300000*%
%ADD14R,5.080000X1.270000*%
%ADD15R,3.960000X3.960000*%
G04 APERTURE END LIST*
D10*
X86668703Y-84319858D03*
X90068703Y-84319858D03*
D11*
X145069480Y-72253600D03*
X145069480Y-75253600D03*
X145069480Y-76753600D03*
D12*
X143169480Y-78603600D03*
X143169480Y-70653600D03*
D13*
X65116665Y-107315701D03*
X65116665Y-110865701D03*
D10*
X228427901Y-102649702D03*
X231827901Y-102649702D03*
X209377904Y-96649197D03*
X212777904Y-96649197D03*
X209377903Y-77599204D03*
X212777903Y-77599204D03*
X171277904Y-86599205D03*
X174677904Y-86599205D03*
X171277904Y-67549206D03*
X174677904Y-67549206D03*
X105718701Y-67769868D03*
X109118701Y-67769868D03*
D11*
X135406665Y-77625701D03*
X135406665Y-74625701D03*
X135406665Y-73125701D03*
D12*
X137306665Y-71275701D03*
X137306665Y-79225701D03*
D13*
X62876665Y-107335701D03*
X62876665Y-110885701D03*
D10*
X190327902Y-84099196D03*
X193727902Y-84099196D03*
X247479940Y-76810039D03*
X250879940Y-76810039D03*
X48568702Y-83820362D03*
X51968702Y-83820362D03*
X67618702Y-77819866D03*
X71018702Y-77819866D03*
X86668699Y-103369862D03*
X90068699Y-103369862D03*
X171277900Y-105649199D03*
X174677900Y-105649199D03*
X247499940Y-95850039D03*
X250899940Y-95850039D03*
X48568704Y-102870364D03*
X51968704Y-102870364D03*
D13*
X215279940Y-107095039D03*
X215279940Y-110645039D03*
D14*
X152499940Y-80345039D03*
X152499940Y-102315039D03*
D15*
X152499940Y-91330039D03*
D10*
X67618703Y-58769864D03*
X71018703Y-58769864D03*
D13*
X60646665Y-107335701D03*
X60646665Y-110885701D03*
X219749940Y-107115039D03*
X219749940Y-110665039D03*
D10*
X67618701Y-96869859D03*
X71018701Y-96869859D03*
X228427906Y-64549704D03*
X231827906Y-64549704D03*
X29516665Y-77030701D03*
X32916665Y-77030701D03*
X48568699Y-64770366D03*
X51968699Y-64770366D03*
X105718701Y-86819867D03*
X109118701Y-86819867D03*
X105718705Y-105869861D03*
X109118705Y-105869861D03*
D14*
X127896665Y-102535701D03*
X127896665Y-80565701D03*
D15*
X127896665Y-91550701D03*
D10*
X190327897Y-65049203D03*
X193727897Y-65049203D03*
X190327906Y-103149200D03*
X193727906Y-103149200D03*
X29496665Y-96070701D03*
X32896665Y-96070701D03*
X247509940Y-114930039D03*
X250909940Y-114930039D03*
X86668708Y-65269865D03*
X90068708Y-65269865D03*
X209377902Y-58549202D03*
X212777902Y-58549202D03*
X228427903Y-83599700D03*
X231827903Y-83599700D03*
X29486665Y-115150701D03*
X32886665Y-115150701D03*
D13*
X217519940Y-107115039D03*
X217519940Y-110665039D03*
M02*
