M48
; DRILL file {KiCad (6.0.10)} date Thu Feb  2 08:57:23 2023
; FORMAT={-:-/ absolute / inch / decimal}
; #@! TF.CreationDate,2023-02-02T08:57:23-03:00
; #@! TF.GenerationSoftware,Kicad,Pcbnew,(6.0.10)
; #@! TF.FileFunction,Plated,1,2,PTH
FMAT,2
INCH
; #@! TA.AperFunction,Plated,PTH,ViaDrill
T1C0.0157
; #@! TA.AperFunction,Plated,PTH,ComponentDrill
T2C0.0320
; #@! TA.AperFunction,Plated,PTH,ComponentDrill
T3C0.0394
; #@! TA.AperFunction,Plated,PTH,ComponentDrill
T4C0.0400
; #@! TA.AperFunction,Plated,PTH,ComponentDrill
T5C0.0512
; #@! TA.AperFunction,Plated,PTH,ComponentDrill
T6C0.0866
; #@! TA.AperFunction,Plated,PTH,ComponentDrill
T7C0.1575
%
G90
G05
T1
X1.4767Y-2.498
X1.4767Y-3.998
X1.4767Y-3.248
X2.2267Y-2.0256
X2.2267Y-3.5256
X2.2267Y-2.7756
X2.5102Y-4.7543
X2.726Y-4.8425
X2.8578Y-1.9952
X2.8634Y-3.8701
X2.9759Y-2.5398
X2.9767Y-3.2894
X3.7267Y-3.5453
X3.7267Y-2.7953
X3.7267Y-2.0453
X4.2122Y-4.2591
X4.4767Y-2.1437
X4.4767Y-2.8937
X4.4767Y-3.6437
X4.5969Y-2.7236
X4.6388Y-2.2709
X4.6654Y-2.9949
X4.7Y-4.087
X4.8854Y-2.6724
X4.9311Y-4.8777
X4.9421Y-2.5539
X5.0285Y-2.6786
X5.0353Y-3.1719
X5.0465Y-2.8665
X5.0587Y-3.9197
X5.1264Y-2.7169
X5.2791Y-3.0157
X5.7844Y-2.9615
X5.9663Y-3.9289
X6.0039Y-3.1632
X6.0808Y-2.8241
X6.2159Y-3.0241
X6.5125Y-2.372
X6.6764Y-4.7139
X7.0578Y-3.635
X7.0578Y-2.885
X7.0578Y-2.135
X7.1395Y-1.8875
X7.1517Y-1.9375
X7.154Y-2.1308
X7.1611Y-2.0336
X7.4041Y-4.061
X7.4918Y-2.0466
X7.5244Y-4.8273
X7.6009Y-3.9517
X7.7816Y-3.4112
X7.8078Y-2.0366
X7.8078Y-2.7866
X7.8078Y-3.5366
X7.9344Y-3.7722
X8.0134Y-2.0366
X8.2914Y-3.9706
X8.3226Y-2.9111
X8.5445Y-4.5742
X8.5578Y-3.2807
X8.5578Y-1.7807
X8.5587Y-2.5311
X8.5789Y-3.8895
X8.6174Y-4.1332
X8.6352Y-1.7052
X8.7625Y-3.6169
X9.3078Y-2.7669
X9.3078Y-3.5169
X9.3078Y-2.0169
X9.5125Y-2.5894
X10.0578Y-3.2394
X10.0578Y-3.9894
X10.0578Y-2.4894
T2
X4.9642Y-3.0187
X5.0975Y-3.0181
X5.9417Y-3.0095
X6.075Y-3.01
T3
X4.7353Y-2.0327
X4.7353Y-2.1327
X4.7353Y-2.2327
X4.7353Y-2.3327
X4.7353Y-2.4327
X4.7353Y-2.5327
X4.7353Y-2.6327
X5.3353Y-2.0327
X5.3353Y-2.1327
X5.3353Y-2.2327
X5.3353Y-2.3327
X5.3353Y-2.4327
X5.3353Y-2.5327
X5.3353Y-2.6327
X5.7039Y-2.024
X5.7039Y-2.124
X5.7039Y-2.224
X5.7039Y-2.324
X5.7039Y-2.424
X5.7039Y-2.524
X5.7039Y-2.624
X6.3039Y-2.024
X6.3039Y-2.124
X6.3039Y-2.224
X6.3039Y-2.324
X6.3039Y-2.424
X6.3039Y-2.524
X6.3039Y-2.624
T4
X4.8603Y-2.2452
X4.8603Y-2.3202
X4.9853Y-1.9952
X4.9853Y-2.0952
X5.0853Y-1.9952
X5.0853Y-2.0952
X5.8289Y-2.2365
X5.8289Y-2.3115
X5.9539Y-1.9865
X5.9539Y-2.0865
X6.0539Y-1.9865
X6.0539Y-2.0865
T5
X4.9306Y-4.2437
X5.1865Y-4.2437
X5.8528Y-4.235
X6.1087Y-4.235
T6
X4.7133Y-4.2146
X5.277Y-4.4961
X5.7622Y-4.4874
X6.326Y-4.2059
T7
X1.4861Y-2.1996
X1.7278Y-4.2233
X2.9798Y-3.9977
X3.8601Y-2.6638
X4.3711Y-4.424
X6.6681Y-4.4154
X7.1791Y-2.6551
X8.0594Y-3.989
X9.3114Y-4.2146
X9.5531Y-2.1909
T0
M30
