%TF.GenerationSoftware,KiCad,Pcbnew,(6.0.9)*%
%TF.CreationDate,2022-12-28T00:08:14-03:00*%
%TF.ProjectId,battery coin,62617474-6572-4792-9063-6f696e2e6b69,rev?*%
%TF.SameCoordinates,Original*%
%TF.FileFunction,Soldermask,Bot*%
%TF.FilePolarity,Negative*%
%FSLAX46Y46*%
G04 Gerber Fmt 4.6, Leading zero omitted, Abs format (unit mm)*
G04 Created by KiCad (PCBNEW (6.0.9)) date 2022-12-28 00:08:14*
%MOMM*%
%LPD*%
G01*
G04 APERTURE LIST*
%ADD10C,3.500000*%
%ADD11C,0.300000*%
G04 APERTURE END LIST*
D10*
%TO.C,*%
X159210034Y-73577854D03*
%TD*%
%TO.C,*%
X104744033Y-67726850D03*
%TD*%
%TO.C,*%
X105211035Y-102078350D03*
%TD*%
%TO.C,*%
X173492190Y-113188283D03*
%TD*%
%TO.C,Ref\u002A\u002A*%
X105211035Y-99578350D03*
%TD*%
D11*
%TO.C,H14*%
X178400000Y-67968750D03*
X178400000Y-68562500D03*
X178400000Y-69750000D03*
X178400000Y-67375000D03*
X178400000Y-70937500D03*
X178400000Y-70343750D03*
X178400000Y-69156250D03*
X178400000Y-72125000D03*
X178400000Y-71531250D03*
%TD*%
%TO.C,H2*%
X177750000Y-109425000D03*
X177750000Y-106456250D03*
X177750000Y-107643750D03*
X177750000Y-108237500D03*
X177750000Y-105268750D03*
X177750000Y-107050000D03*
X177750000Y-108831250D03*
X177750000Y-104675000D03*
X177750000Y-105862500D03*
%TD*%
%TO.C,H2*%
X177800000Y-72125000D03*
X177800000Y-69156250D03*
X177800000Y-70343750D03*
X177800000Y-70937500D03*
X177800000Y-67968750D03*
X177800000Y-69750000D03*
X177800000Y-71531250D03*
X177800000Y-67375000D03*
X177800000Y-68562500D03*
%TD*%
%TO.C,H14*%
X178350000Y-105268750D03*
X178350000Y-105862500D03*
X178350000Y-107050000D03*
X178350000Y-104675000D03*
X178350000Y-108237500D03*
X178350000Y-107643750D03*
X178350000Y-106456250D03*
X178350000Y-109425000D03*
X178350000Y-108831250D03*
%TD*%
%TO.C,H14*%
X178350000Y-84568750D03*
X178350000Y-85162500D03*
X178350000Y-86350000D03*
X178350000Y-83975000D03*
X178350000Y-87537500D03*
X178350000Y-86943750D03*
X178350000Y-85756250D03*
X178350000Y-88725000D03*
X178350000Y-88131250D03*
%TD*%
%TO.C,H2*%
X177800000Y-88725000D03*
X177800000Y-85756250D03*
X177800000Y-86943750D03*
X177800000Y-87537500D03*
X177800000Y-84568750D03*
X177800000Y-86350000D03*
X177800000Y-88131250D03*
X177800000Y-83975000D03*
X177800000Y-85162500D03*
%TD*%
D10*
%TO.C,Ref\u002A\u002A*%
X191741075Y-116319109D03*
%TD*%
%TO.C,Ref\u002A\u002A*%
X195636046Y-66420875D03*
%TD*%
%TO.C,Ref\u002A\u002A*%
X180854724Y-66421332D03*
%TD*%
M02*
