%TF.GenerationSoftware,KiCad,Pcbnew,(6.0.9)*%
%TF.CreationDate,2022-12-28T00:08:14-03:00*%
%TF.ProjectId,battery coin,62617474-6572-4792-9063-6f696e2e6b69,rev?*%
%TF.SameCoordinates,Original*%
%TF.FileFunction,Profile,NP*%
%FSLAX46Y46*%
G04 Gerber Fmt 4.6, Leading zero omitted, Abs format (unit mm)*
G04 Created by KiCad (PCBNEW (6.0.9)) date 2022-12-28 00:08:14*
%MOMM*%
%LPD*%
G01*
G04 APERTURE LIST*
%TA.AperFunction,Profile*%
%ADD10C,0.100000*%
%TD*%
%TA.AperFunction,Profile*%
%ADD11C,0.050000*%
%TD*%
G04 APERTURE END LIST*
D10*
X86850000Y-102825000D02*
X86850000Y-104050000D01*
X86842180Y-82670320D02*
X86825000Y-86525000D01*
D11*
X124675000Y-68075000D02*
X139650000Y-68075000D01*
X139650000Y-68075000D02*
X139650000Y-83050000D01*
X139650000Y-83050000D02*
X124675000Y-83050000D01*
X124675000Y-83050000D02*
X124675000Y-68075000D01*
X86850000Y-102825000D02*
X86842180Y-99695320D01*
X177585861Y-59452517D02*
G75*
G03*
X177145864Y-58769756I-749861J-83D01*
G01*
X165387500Y-128425000D02*
X150912500Y-124550000D01*
X86836072Y-68453378D02*
X86842180Y-82670320D01*
X142675000Y-91600000D02*
X157675000Y-91600000D01*
X157675000Y-91600000D02*
X157675000Y-106575000D01*
X157675000Y-106575000D02*
X142675000Y-106575000D01*
X142675000Y-106575000D02*
X142675000Y-91600000D01*
X150912500Y-124550000D02*
X154812500Y-110075000D01*
X142725000Y-74550000D02*
X157700000Y-74550000D01*
X157700000Y-74550000D02*
X157700000Y-89525000D01*
X157700000Y-89525000D02*
X142725000Y-89525000D01*
X142725000Y-89525000D02*
X142725000Y-74550000D01*
X177516405Y-116069417D02*
X177550000Y-72050000D01*
X87055883Y-67922776D02*
G75*
G03*
X86836072Y-68453378I530317J-530524D01*
G01*
X106750000Y-56962500D02*
X121700000Y-56962500D01*
X121700000Y-56962500D02*
X121700000Y-71925000D01*
X121700000Y-71925000D02*
X106750000Y-71925000D01*
X106750000Y-71925000D02*
X106750000Y-56962500D01*
X106675000Y-91075000D02*
X121675000Y-91075000D01*
X121675000Y-91075000D02*
X121675000Y-106050000D01*
X121675000Y-106050000D02*
X106675000Y-106050000D01*
X106675000Y-106050000D02*
X106675000Y-91075000D01*
X86836084Y-118703285D02*
G75*
G03*
X87245865Y-119369755I746516J-215D01*
G01*
X88775000Y-68962500D02*
X103725000Y-68962500D01*
X103725000Y-68962500D02*
X103725000Y-83925000D01*
X103725000Y-83925000D02*
X88775000Y-83925000D01*
X88775000Y-83925000D02*
X88775000Y-68962500D01*
X88700000Y-103075000D02*
X103700000Y-103075000D01*
X103700000Y-103075000D02*
X103700000Y-118050000D01*
X103700000Y-118050000D02*
X88700000Y-118050000D01*
X88700000Y-118050000D02*
X88700000Y-103075000D01*
X142750000Y-57487500D02*
X157700000Y-57487500D01*
X157700000Y-57487500D02*
X157700000Y-72450000D01*
X157700000Y-72450000D02*
X142750000Y-72450000D01*
X142750000Y-72450000D02*
X142750000Y-57487500D01*
X86850000Y-104050000D02*
X86836072Y-118703285D01*
X160825000Y-59987500D02*
X175775000Y-59987500D01*
X175775000Y-59987500D02*
X175775000Y-74950000D01*
X175775000Y-74950000D02*
X160825000Y-74950000D01*
X160825000Y-74950000D02*
X160825000Y-59987500D01*
X88750000Y-86025000D02*
X103725000Y-86025000D01*
X103725000Y-86025000D02*
X103725000Y-101000000D01*
X103725000Y-101000000D02*
X88750000Y-101000000D01*
X88750000Y-101000000D02*
X88750000Y-86025000D01*
X124625000Y-85125000D02*
X139625000Y-85125000D01*
X139625000Y-85125000D02*
X139625000Y-100100000D01*
X139625000Y-100100000D02*
X124625000Y-100100000D01*
X124625000Y-100100000D02*
X124625000Y-85125000D01*
X154812500Y-110075000D02*
X169262500Y-113950000D01*
X132986418Y-49443505D02*
G75*
G03*
X87055863Y-67922756I82J-66320495D01*
G01*
X160750000Y-94100000D02*
X175750000Y-94100000D01*
X175750000Y-94100000D02*
X175750000Y-109075000D01*
X175750000Y-109075000D02*
X160750000Y-109075000D01*
X160750000Y-109075000D02*
X160750000Y-94100000D01*
X106725000Y-74025000D02*
X121700000Y-74025000D01*
X121700000Y-74025000D02*
X121700000Y-89000000D01*
X121700000Y-89000000D02*
X106725000Y-89000000D01*
X106725000Y-89000000D02*
X106725000Y-74025000D01*
X174211096Y-134642292D02*
G75*
G03*
X142237500Y-125575000I-33944696J-58790508D01*
G01*
X87245868Y-119369750D02*
G75*
G03*
X114211462Y-125533212I26965632J55906650D01*
G01*
X177585865Y-68578472D02*
X177575000Y-70000000D01*
X169262500Y-113950000D02*
X165387500Y-128425000D01*
X160800000Y-77050000D02*
X175775000Y-77050000D01*
X175775000Y-77050000D02*
X175775000Y-92025000D01*
X175775000Y-92025000D02*
X160800000Y-92025000D01*
X160800000Y-92025000D02*
X160800000Y-77050000D01*
D10*
X114211462Y-125533212D02*
X118937500Y-125550000D01*
X115787500Y-112575000D02*
X115787500Y-120725000D01*
X115787500Y-120725000D02*
X118937500Y-120725000D01*
X142112500Y-112575000D02*
X142112500Y-108075000D01*
X142237500Y-125575000D02*
X142237500Y-120800000D01*
X118937500Y-108075000D02*
X118937500Y-112575000D01*
X145212500Y-117950000D02*
X145237500Y-112575000D01*
X142112500Y-108075000D02*
X118937500Y-108075000D01*
X142237500Y-120800000D02*
X145212500Y-120800000D01*
X118937500Y-120725000D02*
X118937500Y-125550000D01*
X145212500Y-120800000D02*
X145212500Y-117950000D01*
X118937500Y-112575000D02*
X115787500Y-112575000D01*
X145237500Y-112575000D02*
X142112500Y-112575000D01*
D11*
X177585865Y-68578472D02*
X177585865Y-59452517D01*
X177145862Y-58769761D02*
G75*
G03*
X132986418Y-49443487I-43285662J-95745939D01*
G01*
X168437500Y-129650000D02*
X175937500Y-116675000D01*
X124700000Y-51012500D02*
X139650000Y-51012500D01*
X139650000Y-51012500D02*
X139650000Y-65975000D01*
X139650000Y-65975000D02*
X124700000Y-65975000D01*
X124700000Y-65975000D02*
X124700000Y-51012500D01*
X177575000Y-70000000D02*
X177550000Y-72050000D01*
X86825000Y-86525000D02*
X86842180Y-99695320D01*
X181412500Y-137125000D02*
X168437500Y-129650000D01*
X181680384Y-138954691D02*
X174211096Y-134642292D01*
X188912500Y-124150000D02*
X181412500Y-137125000D01*
X181680376Y-138954704D02*
G75*
G03*
X182704903Y-138680172I374924J649804D01*
G01*
X189266405Y-122869417D02*
X177516405Y-116069417D01*
X175937500Y-116675000D02*
X188912500Y-124150000D01*
X190250000Y-123425000D02*
X191137500Y-123950000D01*
X182704903Y-138680172D02*
X191137500Y-123950000D01*
X190250000Y-123425000D02*
X189266405Y-122869417D01*
X180854667Y-64421076D02*
G75*
G03*
X178825100Y-66162566I20333J-2077090D01*
G01*
X178787600Y-111162566D02*
X178800100Y-68212566D01*
X189575100Y-117412566D02*
X178787600Y-111162566D01*
X178825100Y-66162566D02*
X178800100Y-68212566D01*
X182854616Y-66421283D02*
G75*
G03*
X180854668Y-64421150I-2000116J17D01*
G01*
X193135676Y-68170648D02*
G75*
G03*
X193635682Y-67670613I224J499782D01*
G01*
X182854652Y-66421283D02*
X182854833Y-67671215D01*
X193062594Y-117937562D02*
G75*
G03*
X197636236Y-105887982I-16942394J13323596D01*
G01*
X197635983Y-66420839D02*
X197636236Y-105887982D01*
X189575100Y-117412566D02*
X190537600Y-117962566D01*
X195635994Y-64420724D02*
G75*
G03*
X193635858Y-66420688I-194J-1999942D01*
G01*
X190537604Y-117962561D02*
G75*
G03*
X193062600Y-117937566I1246096J1669395D01*
G01*
X197635969Y-66420839D02*
G75*
G03*
X195635994Y-64420697I-1999969J173D01*
G01*
X183354832Y-68171218D02*
X193135676Y-68170614D01*
X182854848Y-67671215D02*
G75*
G03*
X183354832Y-68171218I499852J-151D01*
G01*
X193635682Y-67670613D02*
X193635858Y-66420688D01*
M02*
