G04 #@! TF.GenerationSoftware,KiCad,Pcbnew,(6.0.9)*
G04 #@! TF.CreationDate,2023-01-13T03:11:41-03:00*
G04 #@! TF.ProjectId,pulso - bling mx,70756c73-6f20-42d2-9062-6c696e67206d,0.3*
G04 #@! TF.SameCoordinates,Original*
G04 #@! TF.FileFunction,Copper,L1,Top*
G04 #@! TF.FilePolarity,Positive*
%FSLAX46Y46*%
G04 Gerber Fmt 4.6, Leading zero omitted, Abs format (unit mm)*
G04 Created by KiCad (PCBNEW (6.0.9)) date 2023-01-13 03:11:41*
%MOMM*%
%LPD*%
G01*
G04 APERTURE LIST*
G04 Aperture macros list*
%AMFreePoly0*
4,1,13,0.650000,0.228200,1.094200,0.228200,1.129555,0.213555,1.144200,0.178200,1.144200,-0.177400,1.129555,-0.212755,1.094200,-0.227400,0.650000,-0.227400,0.650000,-0.475000,-0.650000,-0.475000,-0.650000,0.475000,0.650000,0.475000,0.650000,0.228200,0.650000,0.228200,$1*%
%AMFreePoly1*
4,1,13,0.650000,-0.475000,-0.650000,-0.475000,-0.650001,-0.228600,-1.094200,-0.228600,-1.129555,-0.213955,-1.144200,-0.178600,-1.144200,0.177000,-1.129555,0.212355,-1.094200,0.227000,-0.650001,0.227000,-0.650000,0.475000,0.650000,0.475000,0.650000,-0.475000,0.650000,-0.475000,$1*%
G04 Aperture macros list end*
G04 #@! TA.AperFunction,ComponentPad*
%ADD10O,2.590000X1.790000*%
G04 #@! TD*
G04 #@! TA.AperFunction,ComponentPad*
%ADD11O,2.580000X1.820000*%
G04 #@! TD*
G04 #@! TA.AperFunction,ComponentPad*
%ADD12O,2.580000X1.810000*%
G04 #@! TD*
G04 #@! TA.AperFunction,ComponentPad*
%ADD13O,2.580000X1.750000*%
G04 #@! TD*
G04 #@! TA.AperFunction,ComponentPad*
%ADD14O,2.590000X1.780000*%
G04 #@! TD*
G04 #@! TA.AperFunction,ComponentPad*
%ADD15O,2.580000X1.800000*%
G04 #@! TD*
G04 #@! TA.AperFunction,ComponentPad*
%ADD16O,2.580000X1.830000*%
G04 #@! TD*
G04 #@! TA.AperFunction,ComponentPad*
%ADD17O,2.490000X1.800000*%
G04 #@! TD*
G04 #@! TA.AperFunction,ComponentPad*
%ADD18O,2.470000X1.810000*%
G04 #@! TD*
G04 #@! TA.AperFunction,ComponentPad*
%ADD19O,2.450000X1.770000*%
G04 #@! TD*
G04 #@! TA.AperFunction,ComponentPad*
%ADD20O,2.450000X1.730000*%
G04 #@! TD*
G04 #@! TA.AperFunction,ComponentPad*
%ADD21O,2.430000X1.750000*%
G04 #@! TD*
G04 #@! TA.AperFunction,ComponentPad*
%ADD22O,2.480000X1.800000*%
G04 #@! TD*
G04 #@! TA.AperFunction,ComponentPad*
%ADD23O,2.490000X1.850000*%
G04 #@! TD*
G04 #@! TA.AperFunction,ComponentPad*
%ADD24C,1.397000*%
G04 #@! TD*
G04 #@! TA.AperFunction,SMDPad,CuDef*
%ADD25R,1.700000X0.900000*%
G04 #@! TD*
G04 #@! TA.AperFunction,ComponentPad*
%ADD26C,4.400000*%
G04 #@! TD*
G04 #@! TA.AperFunction,SMDPad,CuDef*
%ADD27R,1.800000X1.500000*%
G04 #@! TD*
G04 #@! TA.AperFunction,ComponentPad*
%ADD28O,2.500000X1.700000*%
G04 #@! TD*
G04 #@! TA.AperFunction,ComponentPad*
%ADD29C,0.457200*%
G04 #@! TD*
G04 #@! TA.AperFunction,SMDPad,CuDef*
%ADD30FreePoly0,240.000000*%
G04 #@! TD*
G04 #@! TA.AperFunction,SMDPad,CuDef*
%ADD31FreePoly1,240.000000*%
G04 #@! TD*
G04 #@! TA.AperFunction,SMDPad,CuDef*
%ADD32FreePoly0,285.000000*%
G04 #@! TD*
G04 #@! TA.AperFunction,SMDPad,CuDef*
%ADD33FreePoly1,285.000000*%
G04 #@! TD*
G04 #@! TA.AperFunction,SMDPad,CuDef*
%ADD34FreePoly0,255.000000*%
G04 #@! TD*
G04 #@! TA.AperFunction,SMDPad,CuDef*
%ADD35FreePoly1,255.000000*%
G04 #@! TD*
G04 #@! TA.AperFunction,SMDPad,CuDef*
%ADD36FreePoly0,300.000000*%
G04 #@! TD*
G04 #@! TA.AperFunction,SMDPad,CuDef*
%ADD37FreePoly1,300.000000*%
G04 #@! TD*
G04 #@! TA.AperFunction,WasherPad*
%ADD38C,0.900000*%
G04 #@! TD*
G04 #@! TA.AperFunction,ViaPad*
%ADD39C,0.800000*%
G04 #@! TD*
G04 #@! TA.AperFunction,Conductor*
%ADD40C,0.250000*%
G04 #@! TD*
G04 #@! TA.AperFunction,Conductor*
%ADD41C,0.200000*%
G04 #@! TD*
G04 APERTURE END LIST*
D10*
X35510000Y-82649907D03*
D11*
X35515000Y-85204907D03*
D12*
X35515000Y-87739907D03*
D13*
X35515000Y-90249907D03*
D14*
X35510000Y-92804907D03*
D15*
X35515000Y-95354907D03*
D16*
X35515000Y-97909907D03*
D17*
X51490000Y-97894907D03*
D18*
X51480000Y-95359907D03*
D19*
X51470000Y-92799907D03*
D20*
X51470000Y-90239907D03*
D21*
X51460000Y-87709907D03*
D22*
X51485000Y-85194907D03*
D23*
X51490000Y-82679907D03*
D24*
X42255000Y-81702907D03*
X44795000Y-81702907D03*
X42255000Y-84242907D03*
X44795000Y-84242907D03*
X39080000Y-89957907D03*
X39080000Y-88052907D03*
X51417008Y-116835938D03*
X51342008Y-110835938D03*
X246125000Y-117026933D03*
X245900000Y-110801933D03*
D25*
X51392008Y-112160938D03*
X51392008Y-115560938D03*
D26*
X90367008Y-101185938D03*
X90367008Y-63085938D03*
X71317008Y-82135938D03*
X109417008Y-82135938D03*
D24*
X48330008Y-78071938D03*
X37535008Y-78071938D03*
D26*
X187981000Y-82117933D03*
X226081000Y-82117933D03*
X207031000Y-63067933D03*
X207031000Y-101167933D03*
D25*
X246025000Y-112251933D03*
X246025000Y-115651933D03*
D24*
X259863000Y-78053933D03*
X249068000Y-78053933D03*
D27*
X63838008Y-89640938D03*
X60438008Y-89640938D03*
X218500000Y-87076933D03*
X215100000Y-87076933D03*
X101588008Y-100415938D03*
X98188008Y-100415938D03*
D10*
X245960000Y-82676840D03*
D11*
X245965000Y-85231840D03*
D12*
X245965000Y-87766840D03*
D13*
X245965000Y-90276840D03*
D14*
X245960000Y-92831840D03*
D15*
X245965000Y-95381840D03*
D16*
X245965000Y-97936840D03*
D17*
X261940000Y-97921840D03*
D18*
X261930000Y-95386840D03*
D19*
X261920000Y-92826840D03*
D20*
X261920000Y-90266840D03*
D21*
X261910000Y-87736840D03*
D22*
X261935000Y-85221840D03*
D23*
X261940000Y-82706840D03*
D24*
X252705000Y-81729840D03*
X255245000Y-81729840D03*
X252705000Y-84269840D03*
X255245000Y-84269840D03*
X249530000Y-89984840D03*
X249530000Y-88079840D03*
D27*
X119763008Y-88990938D03*
X116363008Y-88990938D03*
X63938008Y-70790938D03*
X60538008Y-70790938D03*
X237300000Y-70076933D03*
X233900000Y-70076933D03*
X101263008Y-82565938D03*
X97863008Y-82565938D03*
X180600000Y-88551933D03*
X177200000Y-88551933D03*
X200000000Y-81726933D03*
X196600000Y-81726933D03*
D28*
X48217008Y-115960938D03*
X39717008Y-111760938D03*
X42717008Y-111760938D03*
X46717008Y-111760938D03*
D27*
X218125000Y-105251933D03*
X214725000Y-105251933D03*
D29*
X235524800Y-125529907D03*
D30*
X236075000Y-124576933D03*
D31*
X234300000Y-127651323D03*
D29*
X234849854Y-126698149D03*
D27*
X63363008Y-107765938D03*
X59963008Y-107765938D03*
D28*
X249150000Y-111756933D03*
X257650000Y-115956933D03*
X254650000Y-115956933D03*
X250650000Y-115956933D03*
D32*
X81028604Y-118801420D03*
D29*
X81313409Y-119864324D03*
D33*
X81947412Y-122230456D03*
D29*
X81662221Y-121167655D03*
D27*
X139888008Y-99865938D03*
X136488008Y-99865938D03*
X120413008Y-107215938D03*
X117013008Y-107215938D03*
X139238008Y-81415938D03*
X135838008Y-81415938D03*
X180250000Y-107351933D03*
X176850000Y-107351933D03*
D29*
X216393697Y-120481222D03*
D34*
X216678502Y-119418318D03*
D35*
X215759694Y-122847354D03*
D29*
X216044112Y-121784346D03*
D27*
X199525000Y-62801933D03*
X196125000Y-62801933D03*
X199425000Y-102001933D03*
X196025000Y-102001933D03*
X140113008Y-118465938D03*
X136713008Y-118465938D03*
X161525000Y-81351933D03*
X158125000Y-81351933D03*
D29*
X61163208Y-124269522D03*
D36*
X60613008Y-123316548D03*
D37*
X62388008Y-126390938D03*
D29*
X61837462Y-125438164D03*
D27*
X180250000Y-69101933D03*
X176850000Y-69101933D03*
X237775000Y-89401933D03*
X234375000Y-89401933D03*
X237475000Y-108601933D03*
X234075000Y-108601933D03*
X161125000Y-100676933D03*
X157725000Y-100676933D03*
X101263008Y-63440938D03*
X97863008Y-63440938D03*
X82238008Y-105290938D03*
X78838008Y-105290938D03*
X218300000Y-67776933D03*
X214900000Y-67776933D03*
X81863008Y-68165938D03*
X78463008Y-68165938D03*
X120363008Y-69690938D03*
X116963008Y-69690938D03*
X161325000Y-118676933D03*
X157925000Y-118676933D03*
X82238008Y-86915938D03*
X78838008Y-86915938D03*
D38*
X243050000Y-66776933D03*
X243100000Y-69776933D03*
X54313008Y-69765938D03*
X54263008Y-66765938D03*
D39*
X47325000Y-88459407D03*
X61500000Y-82900000D03*
X59000000Y-75350000D03*
X52825000Y-105925000D03*
X42250500Y-104200000D03*
X44450000Y-107225000D03*
X44400000Y-116899500D03*
X43676144Y-106592428D03*
X38700000Y-107025000D03*
X45725000Y-108275000D03*
X46825000Y-105175000D03*
X48125000Y-106000000D03*
X61592008Y-108885938D03*
X54780308Y-116344692D03*
X56113008Y-66015938D03*
X73263008Y-94068938D03*
X92263008Y-89496938D03*
X111255008Y-95724938D03*
X135450000Y-116775000D03*
X73263008Y-75050938D03*
X92263008Y-70478938D03*
X111263008Y-76674938D03*
X130263008Y-88600938D03*
X130263008Y-69600938D03*
X111263008Y-57600938D03*
X92263008Y-51460938D03*
X73269008Y-56032938D03*
X54263008Y-58600938D03*
X54283008Y-77590938D03*
X54283008Y-96608938D03*
X63591208Y-118932158D03*
X44055856Y-129225233D03*
X226250000Y-74026933D03*
X221775000Y-88251933D03*
X211925000Y-105726933D03*
X243075000Y-68276933D03*
X239725000Y-73076933D03*
X240975000Y-78026933D03*
X168750000Y-114526933D03*
X222100000Y-120501933D03*
X238850000Y-116576933D03*
X152015000Y-107582933D03*
X233600000Y-123451933D03*
X239200000Y-119051933D03*
X234550000Y-120651933D03*
X160875000Y-115876933D03*
X189425000Y-110601933D03*
X239827045Y-123539897D03*
X243475000Y-115401933D03*
X249175000Y-105151933D03*
X258175000Y-83826933D03*
X256125000Y-112301933D03*
X256699799Y-87077134D03*
X255062500Y-86464433D03*
X253512300Y-126372524D03*
X233237474Y-116132002D03*
X233875000Y-103126933D03*
X216900000Y-101326933D03*
X196025000Y-102001933D03*
X176850000Y-107351933D03*
X157925000Y-118676933D03*
X234375000Y-89401933D03*
X215100000Y-87076933D03*
X214900000Y-67776933D03*
X196600000Y-81726933D03*
X177200000Y-88551933D03*
X157725000Y-100676933D03*
X196125000Y-62801933D03*
X176850000Y-69101933D03*
X158125000Y-81351933D03*
D40*
X243700000Y-68276933D02*
X243075000Y-68276933D01*
X244650000Y-69226933D02*
X243700000Y-68276933D01*
X244650000Y-79076933D02*
X244650000Y-69226933D01*
X248150000Y-80901933D02*
X246475000Y-80901933D01*
X246475000Y-80901933D02*
X244650000Y-79076933D01*
X250525000Y-85976933D02*
X250525000Y-83276933D01*
X253150000Y-88601933D02*
X250525000Y-85976933D01*
X249951933Y-91751933D02*
X252050000Y-91751933D01*
X253150000Y-90651933D02*
X253150000Y-88601933D01*
X249530000Y-91330000D02*
X249951933Y-91751933D01*
X252050000Y-91751933D02*
X253150000Y-90651933D01*
X249530000Y-89984840D02*
X249530000Y-91330000D01*
X250525000Y-83276933D02*
X248150000Y-80901933D01*
X64211909Y-106917037D02*
X63363008Y-107765938D01*
X64211909Y-97761909D02*
X64211909Y-106917037D01*
X55450000Y-89000000D02*
X64211909Y-97761909D01*
X47865593Y-89000000D02*
X55450000Y-89000000D01*
X47325000Y-88459407D02*
X47865593Y-89000000D01*
X63838008Y-85238008D02*
X63838008Y-89640938D01*
X61500000Y-82900000D02*
X63838008Y-85238008D01*
X59000000Y-75350000D02*
X59378946Y-75350000D01*
X59378946Y-75350000D02*
X63938008Y-70790938D01*
X45080093Y-85194907D02*
X51145000Y-85194907D01*
X43075000Y-87200000D02*
X45080093Y-85194907D01*
X43075000Y-87300000D02*
X43075000Y-87200000D01*
X42950000Y-87425000D02*
X43075000Y-87300000D01*
X42950000Y-89525000D02*
X42950000Y-87425000D01*
X42975000Y-105891284D02*
X42975000Y-98050000D01*
X42950000Y-98025000D02*
G75*
G02*
X42975000Y-98050000I0J-25000D01*
G01*
X43676144Y-106592428D02*
X42975000Y-105891284D01*
X42950000Y-98025000D02*
X42950000Y-89525000D01*
X42525000Y-102750500D02*
X42525000Y-101625000D01*
X42250500Y-104200000D02*
X42376251Y-104074249D01*
X42525000Y-101625000D02*
X42525000Y-98489645D01*
X42524946Y-102750500D02*
G75*
G02*
X42376251Y-102997299I-283146J2400D01*
G01*
X42376251Y-104074249D02*
X42376251Y-102997300D01*
X42525000Y-98489645D02*
X42500000Y-98464645D01*
X42674695Y-107325000D02*
X44208579Y-107325000D01*
X39725000Y-98200000D02*
X39700000Y-98225000D01*
X39725000Y-94422792D02*
X39725000Y-98200000D01*
X39700000Y-104350304D02*
X42674695Y-107325000D01*
X38175000Y-92872792D02*
X39725000Y-94422792D01*
X39700000Y-98225000D02*
X39700000Y-104350304D01*
X38175000Y-92175000D02*
X38175000Y-92872792D01*
X44450006Y-107225006D02*
G75*
G02*
X44208579Y-107325000I-241406J241406D01*
G01*
X39250000Y-105450000D02*
X42075000Y-108275000D01*
X39250000Y-96053858D02*
X39250000Y-105450000D01*
X39270406Y-94804594D02*
X39270406Y-96004594D01*
X39249980Y-96053858D02*
G75*
G02*
X39270407Y-96004595I69720J-42D01*
G01*
X42075000Y-108275000D02*
X45725000Y-108275000D01*
X51342008Y-110835892D02*
G75*
G02*
X51392008Y-110885938I-8J-50008D01*
G01*
X51392008Y-112160938D02*
X51392008Y-110885938D01*
X51392008Y-115560892D02*
G75*
G02*
X51417008Y-115585938I-8J-25008D01*
G01*
X51417008Y-116835938D02*
X51417008Y-115585938D01*
X51392008Y-115560940D02*
G75*
G03*
X53325000Y-113627946I2J1932990D01*
G01*
X53325000Y-110925000D02*
X53325000Y-113627946D01*
X53325000Y-110925000D02*
G75*
G02*
X52825000Y-110425000I0J500000D01*
G01*
X52825000Y-105925000D02*
X52825000Y-110425000D01*
X48225000Y-108400000D02*
X49600000Y-108400000D01*
X48225000Y-108400000D02*
G75*
G02*
X46162500Y-106337500I0J2062500D01*
G01*
X49600000Y-108900000D02*
X49600000Y-108400000D01*
X46162500Y-106337500D02*
X45182107Y-105357107D01*
X49600038Y-108900000D02*
G75*
G02*
X46739062Y-111760938I-2860938J0D01*
G01*
X46717008Y-111760938D02*
X46739062Y-111760938D01*
X55496460Y-118200000D02*
X60613008Y-123316548D01*
X44400000Y-116899500D02*
X45700500Y-118200000D01*
X45700500Y-118200000D02*
X55496460Y-118200000D01*
X44332439Y-87734907D02*
X51145000Y-87734907D01*
X43400000Y-88667346D02*
X44332439Y-87734907D01*
X43400000Y-97350000D02*
X43400000Y-88667346D01*
X43425000Y-97375000D02*
X43400000Y-97350000D01*
X43425000Y-104529290D02*
X43425000Y-97375000D01*
X43425005Y-104529290D02*
G75*
G03*
X43475000Y-104650000I170695J-10D01*
G01*
X43475000Y-104649997D02*
G75*
G02*
X45182106Y-105357108I0J-2414203D01*
G01*
X35750000Y-116175000D02*
X47700217Y-116175000D01*
X35750000Y-107037741D02*
X35750000Y-116175000D01*
X35750018Y-107037741D02*
G75*
G02*
X37350001Y-103175001I5462682J41D01*
G01*
X38190901Y-102334099D02*
G75*
G03*
X38350000Y-101950000I-384101J384099D01*
G01*
X38190901Y-102334099D02*
X37350000Y-103175000D01*
X48217009Y-115960939D02*
G75*
G02*
X47700217Y-116175000I-516809J516839D01*
G01*
X38350000Y-98925000D02*
X38350000Y-101950000D01*
D41*
X38700000Y-102339645D02*
X38800000Y-102239645D01*
X38700000Y-107025000D02*
X38700000Y-102339645D01*
D40*
X46825000Y-104650000D02*
X46825000Y-105175000D01*
X43875000Y-101700000D02*
X46825000Y-104650000D01*
X48125000Y-105150000D02*
X48125000Y-106000000D01*
X44325000Y-101350000D02*
X48125000Y-105150000D01*
X54780308Y-116344708D02*
G75*
G03*
X61592008Y-109532992I-8J6811708D01*
G01*
X61592008Y-108885938D02*
X61592008Y-109532992D01*
X133687500Y-96212492D02*
G75*
G02*
X136488008Y-99013008I0J-2800508D01*
G01*
X136488008Y-99865938D02*
X136488008Y-99013008D01*
X133475000Y-96250000D02*
X133650000Y-96250000D01*
X130263008Y-88600938D02*
X130263008Y-93038008D01*
X133687500Y-96212500D02*
G75*
G02*
X133650000Y-96250000I-37500J0D01*
G01*
X133475000Y-96249992D02*
G75*
G02*
X130263008Y-93038008I0J3211992D01*
G01*
X111263008Y-79763008D02*
X111263008Y-76674938D01*
X114662500Y-82912500D02*
X114412500Y-82912500D01*
X114412500Y-82912500D02*
X111263008Y-79763008D01*
X116363008Y-88990938D02*
X116363008Y-84613008D01*
X114662500Y-82912492D02*
G75*
G02*
X116363008Y-84613008I0J-1700508D01*
G01*
X54283008Y-80233008D02*
X54283008Y-77590938D01*
X60438008Y-89640938D02*
X60438008Y-86388008D01*
X57487500Y-83437492D02*
G75*
G02*
X60438008Y-86388008I0J-2950508D01*
G01*
X54283000Y-80233008D02*
G75*
G03*
X57487500Y-83437500I3204500J8D01*
G01*
X73263008Y-78163008D02*
X73263008Y-75050938D01*
X78838008Y-86915938D02*
X78838008Y-83738008D01*
X73263000Y-78163008D02*
G75*
G03*
X76400000Y-81300000I3137000J8D01*
G01*
X76400000Y-81299992D02*
G75*
G02*
X78838008Y-83738008I0J-2438008D01*
G01*
X92263008Y-75388008D02*
X92263008Y-70478938D01*
X97863008Y-82565938D02*
X97863008Y-80988008D01*
X92263000Y-75388008D02*
G75*
G03*
X95187500Y-78312500I2924500J8D01*
G01*
X95187500Y-78312492D02*
G75*
G02*
X97863008Y-80988008I0J-2675508D01*
G01*
X54263008Y-60636992D02*
X54263008Y-58600938D01*
X58350000Y-64200000D02*
X57826016Y-64200000D01*
X60538008Y-70790938D02*
X60538008Y-66388008D01*
X58350000Y-64199992D02*
G75*
G02*
X60538008Y-66388008I0J-2188008D01*
G01*
X54263000Y-60636992D02*
G75*
G03*
X57826016Y-64200000I3563000J-8D01*
G01*
X78463008Y-68165938D02*
X78463008Y-64488008D01*
X73269000Y-59294008D02*
G75*
G03*
X75812500Y-61837500I2543500J8D01*
G01*
X75812500Y-61837492D02*
G75*
G02*
X78463008Y-64488008I0J-2650508D01*
G01*
X73269008Y-59294008D02*
X73269008Y-56032938D01*
X130263000Y-73338008D02*
G75*
G03*
X133012500Y-76087500I2749500J8D01*
G01*
X135838008Y-81415938D02*
X135838008Y-78913008D01*
X133062500Y-76137500D02*
X133012500Y-76087500D01*
X130263008Y-73338008D02*
X130263008Y-69600938D01*
X133062500Y-76137492D02*
G75*
G02*
X135838008Y-78913008I0J-2775508D01*
G01*
X116963008Y-66513008D02*
X116963008Y-69690938D01*
X111263008Y-57600938D02*
X111263008Y-60813008D01*
X116963000Y-66513008D02*
G75*
G03*
X113875000Y-63425000I-3088000J8D01*
G01*
X113875000Y-63424992D02*
G75*
G02*
X111263008Y-60813008I0J2611992D01*
G01*
X92263008Y-54463008D02*
X92263008Y-51460938D01*
X92263000Y-54463008D02*
G75*
G03*
X94762500Y-56962500I2499500J8D01*
G01*
X94762500Y-56962492D02*
G75*
G02*
X97863008Y-60063008I0J-3100508D01*
G01*
X97863008Y-63440938D02*
X97863008Y-60063008D01*
X44775000Y-98250000D02*
X44775000Y-100650000D01*
X44775000Y-96659101D02*
X44775000Y-98250000D01*
X46079194Y-95354907D02*
X44775000Y-96659101D01*
X51145000Y-95354907D02*
X46079194Y-95354907D01*
X44325000Y-95000000D02*
X44325000Y-101350000D01*
X44300000Y-94975000D02*
X44325000Y-95000000D01*
X43875000Y-97561396D02*
X43875000Y-101700000D01*
X43875000Y-96425000D02*
X43875000Y-97561396D01*
X43850000Y-96400000D02*
X43875000Y-96425000D01*
X44300000Y-94709285D02*
X44300000Y-94975000D01*
X46194378Y-92814907D02*
X44300000Y-94709285D01*
X51145000Y-92814907D02*
X46194378Y-92814907D01*
X43850000Y-91964253D02*
X43850000Y-96400000D01*
X45539346Y-90274907D02*
X43850000Y-91964253D01*
X51145000Y-90274907D02*
X45539346Y-90274907D01*
X39154594Y-94804593D02*
G75*
G02*
X37164907Y-92814907I6J1989693D01*
G01*
X35905000Y-97894907D02*
X37319907Y-97894907D01*
X38349993Y-98925000D02*
G75*
G03*
X37319907Y-97894907I-1030093J0D01*
G01*
X36779907Y-95354907D02*
X37250000Y-95825000D01*
X35905000Y-95354907D02*
X36779907Y-95354907D01*
X37250000Y-95825000D02*
X38000000Y-95825000D01*
X38800000Y-96625000D02*
G75*
G03*
X38000000Y-95825000I-800000J0D01*
G01*
X38800000Y-96625000D02*
X38800000Y-102239645D01*
X42525013Y-98524987D02*
G75*
G02*
X42500000Y-98464645I60387J60387D01*
G01*
X42500000Y-96825000D02*
X42500000Y-98464645D01*
X42500000Y-90325000D02*
X42500000Y-96825000D01*
X38175000Y-92175000D02*
X38175000Y-92550000D01*
X35905000Y-92814907D02*
X37164907Y-92814907D01*
X37475000Y-91475000D02*
X38175000Y-92175000D01*
X36274907Y-90274907D02*
X37475000Y-91475000D01*
X35905000Y-90274907D02*
X36274907Y-90274907D01*
X35905000Y-87734907D02*
X36659907Y-87734907D01*
X42500000Y-87300000D02*
X42500000Y-90325000D01*
X42475000Y-87275000D02*
X42500000Y-87300000D01*
X42255000Y-84242907D02*
X42255000Y-87055000D01*
X42255000Y-87055000D02*
X42475000Y-87275000D01*
X56022070Y-65925000D02*
X56113008Y-66015938D01*
X53300000Y-65950000D02*
X53325000Y-65925000D01*
X53300000Y-70850000D02*
X53300000Y-65950000D01*
X53650000Y-75425000D02*
X53650000Y-71200000D01*
X53650000Y-71200000D02*
X53300000Y-70850000D01*
X51003062Y-78071938D02*
X53650000Y-75425000D01*
X48330008Y-78071938D02*
X51003062Y-78071938D01*
X53325000Y-65925000D02*
X56022070Y-65925000D01*
X73263008Y-98288008D02*
X73263008Y-94068938D01*
X78838008Y-103863008D02*
X73263008Y-98288008D01*
X78838008Y-105290938D02*
X78838008Y-103863008D01*
X92263008Y-93763008D02*
X92263008Y-89496938D01*
X98188008Y-100415938D02*
X98188008Y-99688008D01*
X98188008Y-99688008D02*
X92263008Y-93763008D01*
X111250000Y-95729946D02*
X111255008Y-95724938D01*
X111250000Y-99475000D02*
X111250000Y-95729946D01*
X117013008Y-105238008D02*
X111250000Y-99475000D01*
X117013008Y-107215938D02*
X117013008Y-105238008D01*
X136713008Y-118038008D02*
X135450000Y-116775000D01*
X136713008Y-118465938D02*
X136713008Y-118038008D01*
X54283008Y-99658008D02*
X54283008Y-96608938D01*
X59963008Y-105338008D02*
X54283008Y-99658008D01*
X59963008Y-107765938D02*
X59963008Y-105338008D01*
X68300000Y-124175000D02*
X77175000Y-124175000D01*
X64554525Y-120429525D02*
X68300000Y-124175000D01*
X81947412Y-122230456D02*
X79119544Y-122230456D01*
X64554525Y-119895475D02*
X64554525Y-120429525D01*
X64554525Y-119895475D02*
X63591208Y-118932158D01*
X77175000Y-124175000D02*
X79119544Y-122230456D01*
X81033414Y-118801420D02*
X81028604Y-118801420D01*
X83550000Y-121318006D02*
X81033414Y-118801420D01*
X83550000Y-123025000D02*
X83550000Y-121318006D01*
X77350000Y-126275000D02*
X79725000Y-123900000D01*
X79725000Y-123900000D02*
X82675000Y-123900000D01*
X82675000Y-123900000D02*
X83550000Y-123025000D01*
X64191548Y-123316548D02*
X67275000Y-126400000D01*
X76725000Y-126400000D02*
X76850000Y-126275000D01*
X67275000Y-126400000D02*
X76725000Y-126400000D01*
X76850000Y-126275000D02*
X77350000Y-126275000D01*
X60613008Y-123316548D02*
X64191548Y-123316548D01*
X46650000Y-133375000D02*
X44055856Y-130780856D01*
X44055856Y-130780856D02*
X44055856Y-129225233D01*
X55403946Y-133375000D02*
X46650000Y-133375000D01*
X62388008Y-126390938D02*
X55403946Y-133375000D01*
X79763008Y-107765938D02*
X82238008Y-105290938D01*
X63363008Y-107765938D02*
X79763008Y-107765938D01*
X96713008Y-105290938D02*
X101588008Y-100415938D01*
X82238008Y-105290938D02*
X96713008Y-105290938D01*
X115603946Y-112025000D02*
X120413008Y-107215938D01*
X111900000Y-112025000D02*
X115603946Y-112025000D01*
X101588008Y-101713008D02*
X111900000Y-112025000D01*
X101588008Y-100415938D02*
X101588008Y-101713008D01*
X137272070Y-115625000D02*
X140113008Y-118465938D01*
X128822070Y-115625000D02*
X137272070Y-115625000D01*
X120413008Y-107215938D02*
X128822070Y-115625000D01*
X119913008Y-88990938D02*
X132722070Y-101800000D01*
X139900000Y-101800000D02*
X139888008Y-101788008D01*
X139888008Y-101788008D02*
X139888008Y-99865938D01*
X132722070Y-101800000D02*
X139900000Y-101800000D01*
X119763008Y-88990938D02*
X119913008Y-88990938D01*
X109772070Y-91075000D02*
X119800000Y-91075000D01*
X119763008Y-91038008D02*
X119763008Y-88990938D01*
X101263008Y-82565938D02*
X109772070Y-91075000D01*
X119800000Y-91075000D02*
X119763008Y-91038008D01*
X96913008Y-86915938D02*
X101263008Y-82565938D01*
X82238008Y-86915938D02*
X96913008Y-86915938D01*
X63838008Y-89640938D02*
X79513008Y-89640938D01*
X79513008Y-89640938D02*
X82238008Y-86915938D01*
X137453946Y-83200000D02*
X139238008Y-81415938D01*
X120365938Y-69690938D02*
X133875000Y-83200000D01*
X120363008Y-69690938D02*
X120365938Y-69690938D01*
X133875000Y-83200000D02*
X137453946Y-83200000D01*
X118403946Y-71650000D02*
X120363008Y-69690938D01*
X114850000Y-71650000D02*
X118403946Y-71650000D01*
X106640938Y-63440938D02*
X114850000Y-71650000D01*
X101263008Y-63440938D02*
X106640938Y-63440938D01*
X96538008Y-68165938D02*
X101263008Y-63440938D01*
X81863008Y-68165938D02*
X96538008Y-68165938D01*
X81863008Y-69488008D02*
X81863008Y-68165938D01*
X81101016Y-70250000D02*
X81863008Y-69488008D01*
X78138008Y-70790938D02*
X78678946Y-70250000D01*
X78678946Y-70250000D02*
X81101016Y-70250000D01*
X63938008Y-70790938D02*
X78138008Y-70790938D01*
X234475000Y-74026933D02*
X235000000Y-73501933D01*
X226250000Y-74026933D02*
X234475000Y-74026933D01*
X234725000Y-73776933D02*
X235000000Y-73501933D01*
X220208999Y-88251933D02*
X221775000Y-88251933D01*
X218808999Y-89651933D02*
X220208999Y-88251933D01*
X209600000Y-94564281D02*
X209600000Y-92376933D01*
X235000000Y-73501933D02*
X235425000Y-73076933D01*
X212325000Y-89651933D02*
X218808999Y-89651933D01*
X209450000Y-94714281D02*
X209600000Y-94564281D01*
X209600000Y-92376933D02*
X212325000Y-89651933D01*
X209450000Y-97401933D02*
X209450000Y-94714281D01*
X217325000Y-87076933D02*
X218500000Y-87076933D01*
X210050000Y-89201933D02*
X215200000Y-89201933D01*
X215200000Y-89201933D02*
X217325000Y-87076933D01*
X211925000Y-99876933D02*
X209450000Y-97401933D01*
X211925000Y-105726933D02*
X211925000Y-99876933D01*
X234725000Y-75351933D02*
X234725000Y-73776933D01*
X235425000Y-73076933D02*
X239725000Y-73076933D01*
X237337348Y-76926933D02*
X236300000Y-76926933D01*
X236300000Y-76926933D02*
X234725000Y-75351933D01*
X238437348Y-78026933D02*
X237337348Y-76926933D01*
X240975000Y-78026933D02*
X238437348Y-78026933D01*
X220300000Y-120501933D02*
X222100000Y-120501933D01*
X216950000Y-117151933D02*
X220300000Y-120501933D01*
X190675000Y-117151933D02*
X216950000Y-117151933D01*
X178350000Y-119101933D02*
X188825000Y-108626933D01*
X173325000Y-119101933D02*
X178350000Y-119101933D01*
X190825000Y-108626933D02*
X190375000Y-109076933D01*
X190375000Y-117451933D02*
X190675000Y-117151933D01*
X168750000Y-114526933D02*
X173325000Y-119101933D01*
X190375000Y-109076933D02*
X190375000Y-117451933D01*
X188825000Y-108626933D02*
X190825000Y-108626933D01*
X241325000Y-110631349D02*
X241325000Y-111876933D01*
X241325000Y-111876933D02*
X241325000Y-114101933D01*
X245379416Y-106576933D02*
X242214708Y-109741641D01*
X242214708Y-109741641D02*
X241325000Y-110631349D01*
X245525000Y-106576933D02*
X245379416Y-106576933D01*
X241325000Y-114101933D02*
X238850000Y-116576933D01*
X251838604Y-106576933D02*
X245525000Y-106576933D01*
X152015000Y-112516933D02*
X152015000Y-107582933D01*
X155375000Y-115876933D02*
X152015000Y-112516933D01*
X160875000Y-115876933D02*
X155375000Y-115876933D01*
X234550000Y-122501933D02*
X233600000Y-123451933D01*
X234550000Y-120651933D02*
X234550000Y-122501933D01*
X240700000Y-119051933D02*
X239200000Y-119051933D01*
X241775000Y-117976933D02*
X240700000Y-119051933D01*
X241775000Y-110817745D02*
X241775000Y-117976933D01*
X245565812Y-107026933D02*
X241775000Y-110817745D01*
X252025000Y-107026933D02*
X245575000Y-107026933D01*
X245575000Y-107026933D02*
X245565812Y-107026933D01*
X242476104Y-110753037D02*
X245752208Y-107476933D01*
X242476104Y-114200829D02*
X242476104Y-110753037D01*
X242225000Y-114451933D02*
X242476104Y-114200829D01*
X242225000Y-119476933D02*
X242225000Y-114451933D01*
X239449690Y-122252243D02*
X242225000Y-119476933D01*
X239449690Y-122877243D02*
X239449690Y-122252243D01*
X237200000Y-125126933D02*
X239449690Y-122877243D01*
X237200000Y-126376933D02*
X237200000Y-125126933D01*
X245752208Y-107476933D02*
X246100000Y-107476933D01*
X236800000Y-126776933D02*
X237200000Y-126376933D01*
X235450000Y-126126933D02*
X236100000Y-126776933D01*
X215125000Y-126126933D02*
X235450000Y-126126933D01*
X207500000Y-118501933D02*
X215125000Y-126126933D01*
X189925000Y-118501933D02*
X207500000Y-118501933D01*
X236100000Y-126776933D02*
X236800000Y-126776933D01*
X189425000Y-118001933D02*
X189925000Y-118501933D01*
X189425000Y-110601933D02*
X189425000Y-118001933D01*
X237737500Y-122914433D02*
X237737500Y-111614433D01*
X237737500Y-111614433D02*
X240350000Y-109001933D01*
X240350000Y-109001933D02*
X240350000Y-102201933D01*
X237737500Y-122914433D02*
X236075000Y-124576933D01*
X240350000Y-102201933D02*
X241975000Y-100576933D01*
X241975000Y-92176933D02*
X241975000Y-100576933D01*
X239899690Y-122477243D02*
X239899690Y-123467252D01*
X242675000Y-114676933D02*
X242675000Y-119701933D01*
X242675000Y-119701933D02*
X239899690Y-122477243D01*
X243025000Y-114326933D02*
X242675000Y-114676933D01*
X239899690Y-123467252D02*
X239827045Y-123539897D01*
X245938604Y-107926933D02*
X243025000Y-110840537D01*
X243025000Y-110840537D02*
X243025000Y-114326933D01*
X252227208Y-107476933D02*
X246100000Y-107476933D01*
X234150000Y-124576933D02*
X236075000Y-124576933D01*
X213350000Y-123326933D02*
X215050000Y-125026933D01*
X216637117Y-119376933D02*
X214600000Y-119376933D01*
X214600000Y-119376933D02*
X213350000Y-120626933D01*
X216678502Y-119418318D02*
X216637117Y-119376933D01*
X213350000Y-120626933D02*
X213350000Y-123326933D01*
X215050000Y-125026933D02*
X233700000Y-125026933D01*
X233700000Y-125026933D02*
X234150000Y-124576933D01*
X252413604Y-107926933D02*
X247075000Y-107926933D01*
X245938604Y-107926933D02*
X247075000Y-107926933D01*
X247075000Y-107926933D02*
X246000000Y-107926933D01*
X246000000Y-107926933D02*
X245938604Y-107926933D01*
X255000000Y-105976933D02*
X255000000Y-96776933D01*
X252600000Y-108376933D02*
X255000000Y-105976933D01*
X246125000Y-108376933D02*
X252600000Y-108376933D01*
X256395093Y-95381840D02*
X261595000Y-95381840D01*
X243475000Y-111026933D02*
X246125000Y-108376933D01*
X243475000Y-115401933D02*
X243475000Y-111026933D01*
X255000000Y-96776933D02*
X256395093Y-95381840D01*
X249225000Y-102726933D02*
X249225000Y-105101933D01*
X249225000Y-99166747D02*
X249225000Y-102726933D01*
X247980093Y-97921840D02*
X249225000Y-99166747D01*
X249225000Y-105101933D02*
X249175000Y-105151933D01*
X246355000Y-97921840D02*
X247980093Y-97921840D01*
X253200000Y-105215537D02*
X251838604Y-106576933D01*
X253200000Y-99476933D02*
X253200000Y-105215537D01*
X250575000Y-96851933D02*
X250905000Y-97181933D01*
X249104907Y-95381840D02*
X250575000Y-96851933D01*
X250575000Y-96851933D02*
X253200000Y-99476933D01*
X253650000Y-105401933D02*
X252025000Y-107026933D01*
X252939907Y-92841840D02*
X253650000Y-93551933D01*
X253650000Y-93551933D02*
X253650000Y-93801933D01*
X248914907Y-92841840D02*
X252939907Y-92841840D01*
X253650000Y-93801933D02*
X253650000Y-105401933D01*
X248914907Y-92841840D02*
X249239907Y-92841840D01*
X246355000Y-92841840D02*
X248914907Y-92841840D01*
X257650000Y-101866840D02*
X261595000Y-97921840D01*
X257650000Y-115956933D02*
X257650000Y-101866840D01*
X248200000Y-117576933D02*
X247775000Y-117151933D01*
X247775000Y-113301933D02*
X246725000Y-112251933D01*
X246725000Y-112251933D02*
X246025000Y-112251933D01*
X254650000Y-116926933D02*
X254000000Y-117576933D01*
X254000000Y-117576933D02*
X248200000Y-117576933D01*
X247775000Y-117151933D02*
X247775000Y-113301933D01*
X254650000Y-115956933D02*
X254650000Y-116926933D01*
X246025000Y-110926933D02*
X245900000Y-110801933D01*
X246025000Y-112251933D02*
X246025000Y-110926933D01*
X246125000Y-115751933D02*
X246025000Y-115651933D01*
X246125000Y-117026933D02*
X246125000Y-115751933D01*
X258800000Y-83201933D02*
X258175000Y-83826933D01*
X258800000Y-81001933D02*
X258800000Y-83201933D01*
X257900000Y-80101933D02*
X258800000Y-81001933D01*
X251100000Y-80601933D02*
X251600000Y-80101933D01*
X251100000Y-83151933D02*
X251100000Y-80601933D01*
X252217907Y-84269840D02*
X251100000Y-83151933D01*
X252705000Y-84269840D02*
X252217907Y-84269840D01*
X251600000Y-80101933D02*
X257900000Y-80101933D01*
X257384505Y-87761840D02*
X261595000Y-87761840D01*
X256699799Y-87077134D02*
X257384505Y-87761840D01*
X252626140Y-112301933D02*
X256125000Y-112301933D01*
X250650000Y-114278073D02*
X252626140Y-112301933D01*
X250650000Y-115956933D02*
X250650000Y-114278073D01*
X255062500Y-86464433D02*
X254900000Y-86626933D01*
X252238604Y-107465537D02*
X252227208Y-107476933D01*
X254100000Y-105604141D02*
X254001104Y-105703037D01*
X254001104Y-105703037D02*
X252238604Y-107465537D01*
X254100000Y-104751933D02*
X254100000Y-105604141D01*
X254100000Y-103426933D02*
X254100000Y-104751933D01*
X254100000Y-102301933D02*
X254100000Y-103426933D01*
X252444302Y-107896235D02*
X252413604Y-107926933D01*
X254550000Y-105790537D02*
X252444302Y-107896235D01*
X254550000Y-105776933D02*
X254550000Y-105790537D01*
X254550000Y-102751933D02*
X254550000Y-105776933D01*
X254550000Y-102076933D02*
X254550000Y-102751933D01*
X243850093Y-90301840D02*
X241975000Y-92176933D01*
X246355000Y-90301840D02*
X243850093Y-90301840D01*
X241540093Y-87761840D02*
X246355000Y-87761840D01*
X241225000Y-94701933D02*
X241225000Y-88076933D01*
X237923901Y-108153032D02*
X237923901Y-98003032D01*
X237475000Y-108601933D02*
X237923901Y-108153032D01*
X237923901Y-98003032D02*
X241225000Y-94701933D01*
X241225000Y-88076933D02*
X241540093Y-87761840D01*
X237775000Y-87501933D02*
X240055093Y-85221840D01*
X240055093Y-85221840D02*
X246355000Y-85221840D01*
X237775000Y-89401933D02*
X237775000Y-87501933D01*
X243925000Y-82401933D02*
X244204907Y-82681840D01*
X243925000Y-72551933D02*
X243925000Y-82401933D01*
X243175000Y-71801933D02*
X243925000Y-72551933D01*
X244204907Y-82681840D02*
X246355000Y-82681840D01*
X236325000Y-71801933D02*
X243175000Y-71801933D01*
X236325000Y-71801933D02*
X237050000Y-71801933D01*
X225550000Y-71801933D02*
X236325000Y-71801933D01*
X246355000Y-95381840D02*
X249104907Y-95381840D01*
X249530000Y-87671933D02*
X249530000Y-88079840D01*
X256197000Y-85221840D02*
X255245000Y-84269840D01*
X256580093Y-85221840D02*
X256305093Y-85221840D01*
X261595000Y-85221840D02*
X256580093Y-85221840D01*
X256580093Y-85221840D02*
X256197000Y-85221840D01*
X256305093Y-85221840D02*
X255062500Y-86464433D01*
X254100000Y-92001933D02*
X254150000Y-92001933D01*
X254150000Y-92001933D02*
X255850093Y-90301840D01*
X254100000Y-92001933D02*
X254100000Y-102301933D01*
X261595000Y-90301840D02*
X255850093Y-90301840D01*
X254550000Y-93876933D02*
X254550000Y-94401933D01*
X254550000Y-94401933D02*
X254550000Y-102076933D01*
X255585093Y-92841840D02*
X254550000Y-93876933D01*
X261595000Y-92841840D02*
X255585093Y-92841840D01*
X251985132Y-126372524D02*
X253512300Y-126372524D01*
X246805723Y-131551933D02*
X251985132Y-126372524D01*
X243750000Y-131551933D02*
X246805723Y-131551933D01*
X239849390Y-127651323D02*
X243750000Y-131551933D01*
X234300000Y-127651323D02*
X239849390Y-127651323D01*
X233194931Y-116132002D02*
X233237474Y-116132002D01*
X226479579Y-122847354D02*
X233194931Y-116132002D01*
X215759694Y-122847354D02*
X226479579Y-122847354D01*
X234075000Y-103326933D02*
X234075000Y-108601933D01*
X233875000Y-103126933D02*
X234075000Y-103326933D01*
X214725000Y-103501933D02*
X214725000Y-105251933D01*
X216900000Y-101326933D02*
X214725000Y-103501933D01*
X179650000Y-90576933D02*
X180600000Y-89626933D01*
X179650000Y-90576933D02*
X180650000Y-89576933D01*
X180600000Y-89626933D02*
X180600000Y-88551933D01*
X176925000Y-93301933D02*
X179650000Y-90576933D01*
X235925000Y-91251933D02*
X237775000Y-89401933D01*
X230575000Y-91251933D02*
X235925000Y-91251933D01*
X218500000Y-87076933D02*
X226400000Y-87076933D01*
X226400000Y-87076933D02*
X230575000Y-91251933D01*
X202575000Y-81726933D02*
X210050000Y-89201933D01*
X200000000Y-81726933D02*
X202575000Y-81726933D01*
X200000000Y-83201933D02*
X200000000Y-81726933D01*
X194375000Y-83976933D02*
X199225000Y-83976933D01*
X188775000Y-89576933D02*
X194375000Y-83976933D01*
X180650000Y-89576933D02*
X188775000Y-89576933D01*
X199225000Y-83976933D02*
X200000000Y-83201933D01*
X173225000Y-93301933D02*
X176925000Y-93301933D01*
X165850000Y-100676933D02*
X173225000Y-93301933D01*
X161125000Y-100676933D02*
X165850000Y-100676933D01*
X237300000Y-71551933D02*
X237300000Y-70076933D01*
X221525000Y-67776933D02*
X225550000Y-71801933D01*
X218300000Y-67776933D02*
X221525000Y-67776933D01*
X237050000Y-71801933D02*
X237300000Y-71551933D01*
X218300000Y-69476933D02*
X218300000Y-67776933D01*
X218600000Y-69776933D02*
X218300000Y-69476933D01*
X218225000Y-70151933D02*
X218600000Y-69776933D01*
X206950000Y-70151933D02*
X218225000Y-70151933D01*
X199600000Y-62801933D02*
X206950000Y-70151933D01*
X199525000Y-62801933D02*
X199600000Y-62801933D01*
X199525000Y-64776933D02*
X199525000Y-62801933D01*
X199300000Y-65001933D02*
X199525000Y-64776933D01*
X186775000Y-69101933D02*
X190875000Y-65001933D01*
X180250000Y-69101933D02*
X186775000Y-69101933D01*
X190875000Y-65001933D02*
X199300000Y-65001933D01*
X169650000Y-71701933D02*
X177650000Y-71701933D01*
X161525000Y-79826933D02*
X169650000Y-71701933D01*
X161525000Y-81351933D02*
X161525000Y-79826933D01*
X177650000Y-71701933D02*
X180250000Y-69101933D01*
X237475000Y-110301933D02*
X237475000Y-108601933D01*
X230375000Y-110776933D02*
X237000000Y-110776933D01*
X237000000Y-110776933D02*
X237475000Y-110301933D01*
X224850000Y-105251933D02*
X230375000Y-110776933D01*
X218125000Y-105251933D02*
X224850000Y-105251933D01*
X218125000Y-107226933D02*
X218125000Y-105251933D01*
X217475000Y-107876933D02*
X218125000Y-107226933D01*
X205300000Y-107876933D02*
X217475000Y-107876933D01*
X199425000Y-102001933D02*
X205300000Y-107876933D01*
X194075000Y-107351933D02*
X199425000Y-102001933D01*
X180250000Y-107351933D02*
X194075000Y-107351933D01*
X180250000Y-109176933D02*
X180250000Y-107351933D01*
X177125000Y-112301933D02*
X180250000Y-109176933D01*
X161325000Y-118676933D02*
X162500000Y-118676933D01*
X162500000Y-118676933D02*
X168875000Y-112301933D01*
X168875000Y-112301933D02*
X177125000Y-112301933D01*
M02*
