G04 #@! TF.GenerationSoftware,KiCad,Pcbnew,(6.0.9)*
G04 #@! TF.CreationDate,2023-01-13T03:11:41-03:00*
G04 #@! TF.ProjectId,pulso - bling mx,70756c73-6f20-42d2-9062-6c696e67206d,0.3*
G04 #@! TF.SameCoordinates,Original*
G04 #@! TF.FileFunction,Profile,NP*
%FSLAX46Y46*%
G04 Gerber Fmt 4.6, Leading zero omitted, Abs format (unit mm)*
G04 Created by KiCad (PCBNEW (6.0.9)) date 2023-01-13 03:11:41*
%MOMM*%
%LPD*%
G01*
G04 APERTURE LIST*
G04 #@! TA.AperFunction,Profile*
%ADD10C,0.050000*%
G04 #@! TD*
G04 #@! TA.AperFunction,Profile*
%ADD11C,0.120000*%
G04 #@! TD*
G04 APERTURE END LIST*
D10*
X96979781Y-44604442D02*
X100955008Y-44608938D01*
X150033001Y-117665932D02*
X150032758Y-116065938D01*
X150030038Y-110980765D02*
X149640538Y-110980765D01*
X150032758Y-116065938D02*
X149643258Y-116065938D01*
X147365007Y-117683937D02*
X147346039Y-116060765D01*
X150030038Y-66305748D02*
X150040859Y-63360253D01*
X150030038Y-66305748D02*
X149640538Y-66305748D01*
X149640538Y-71385749D02*
X150013008Y-71390938D01*
X147346039Y-66305748D02*
X147357149Y-63378258D01*
X96979781Y-44604442D02*
G75*
G03*
X52794763Y-53933408I7292600J-143841917D01*
G01*
X147357149Y-63378258D02*
G75*
G03*
X145930008Y-61363938I-3872149J-1230685D01*
G01*
X147346039Y-110980765D02*
X147346039Y-71385748D01*
X33911008Y-108869438D02*
X33911008Y-77756938D01*
X51365008Y-77009855D02*
G75*
G03*
X52365008Y-76009855I13J999987D01*
G01*
X52360008Y-54613938D02*
X52365008Y-76009855D01*
X145930008Y-61363938D02*
G75*
G03*
X100955008Y-44608938I-44975001J-51985099D01*
G01*
X145055008Y-119615509D02*
G75*
G03*
X75025301Y-128525075I279938J-281873894D01*
G01*
X47113008Y-138840203D02*
G75*
G03*
X49845008Y-139438938I1662000J1051265D01*
G01*
X34661008Y-77006938D02*
X51365008Y-77009855D01*
X33899008Y-111388938D02*
G75*
G03*
X35661329Y-118754595I16818230J130305D01*
G01*
X47113008Y-138840203D02*
X35661329Y-118754595D01*
X145330006Y-119614855D02*
X145055008Y-119615509D01*
X145330006Y-119614856D02*
G75*
G03*
X147365007Y-117683937I35000J2000920D01*
G01*
X75025301Y-128525074D02*
G75*
G03*
X49845008Y-139438938I21549714J-84223881D01*
G01*
X52794763Y-53933407D02*
G75*
G03*
X52360008Y-54613938I315245J-680530D01*
G01*
X34661008Y-77006938D02*
G75*
G03*
X33911008Y-77756938I0J-750000D01*
G01*
X33899008Y-111388938D02*
X33911008Y-108869438D01*
X263487000Y-77738933D02*
G75*
G03*
X262737000Y-76988933I-750000J0D01*
G01*
X245033000Y-75991850D02*
X245038000Y-54595933D01*
X152343000Y-119597504D02*
X152068002Y-119596850D01*
X247553000Y-139420933D02*
G75*
G03*
X222372707Y-128507070I-46730007J-73310017D01*
G01*
X196443000Y-44590933D02*
G75*
G03*
X151468000Y-61345933I1J-68740099D01*
G01*
X263487000Y-108851433D02*
X263499000Y-111370933D01*
X261736679Y-118736590D02*
G75*
G03*
X263499000Y-111370933I-15055909J7495962D01*
G01*
X244603245Y-53915403D02*
G75*
G03*
X200418227Y-44586437I-51477618J-134512951D01*
G01*
X245037999Y-54595933D02*
G75*
G03*
X244603245Y-53915403I-749999J1D01*
G01*
X150033002Y-117665932D02*
G75*
G03*
X152068002Y-119596850I2000000J70001D01*
G01*
X246033000Y-76991850D02*
X262737000Y-76988933D01*
X151468000Y-61345933D02*
G75*
G03*
X150040859Y-63360253I2445008J-3245005D01*
G01*
X222372707Y-128507070D02*
G75*
G03*
X152343000Y-119597504I-70309645J-272964328D01*
G01*
X261736679Y-118736590D02*
X250285000Y-138822198D01*
X247553000Y-139420933D02*
G75*
G03*
X250285000Y-138822198I1070000J1650000D01*
G01*
X263487000Y-77738933D02*
X263487000Y-108851433D01*
X245033000Y-75991850D02*
G75*
G03*
X246033000Y-76991850I999987J-13D01*
G01*
X150013008Y-71390938D02*
X150030038Y-110980765D01*
X200418227Y-44586437D02*
X196443000Y-44590933D01*
X147735539Y-66305748D02*
X147346039Y-66305748D01*
X147735539Y-110980765D02*
X147346039Y-110980765D01*
X149640453Y-116060800D02*
G75*
G03*
X147735540Y-116060765I-952464J-380965D01*
G01*
X147735539Y-71385748D02*
X147346039Y-71385748D01*
X147735625Y-66305713D02*
G75*
G03*
X149640538Y-66305748I952464J380938D01*
G01*
X147735539Y-116060765D02*
X147346039Y-116060765D01*
X149640453Y-71385783D02*
G75*
G03*
X147735540Y-71385748I-952464J-380992D01*
G01*
X147735625Y-110980730D02*
G75*
G03*
X149640538Y-110980765I952464J380965D01*
G01*
D11*
X42001000Y-83811107D02*
X42001000Y-82134707D01*
X38826000Y-89526107D02*
X38826000Y-88484707D01*
X42686800Y-84496907D02*
X44363200Y-84496907D01*
X39511800Y-87798907D02*
X41112000Y-87798907D01*
X42686800Y-81448907D02*
X44363200Y-81448907D01*
X41112000Y-90211907D02*
X39511800Y-90211907D01*
X41493000Y-88179907D02*
X41493000Y-89830907D01*
X45049000Y-83811107D02*
X45049000Y-82134707D01*
X41493000Y-88179907D02*
G75*
G03*
X41112000Y-87798907I-380999J1D01*
G01*
X38826000Y-88484707D02*
G75*
G03*
X39511800Y-87798907I247753J438047D01*
G01*
X42001000Y-82134707D02*
G75*
G03*
X42686800Y-81448907I247753J438047D01*
G01*
X44363200Y-81448907D02*
G75*
G03*
X45049000Y-82134707I438050J-247750D01*
G01*
X39511800Y-90211907D02*
G75*
G03*
X38826000Y-89526107I-438047J247753D01*
G01*
X42686800Y-84496907D02*
G75*
G03*
X42001000Y-83811107I-438047J247753D01*
G01*
X41112000Y-90211907D02*
G75*
G03*
X41493000Y-89830907I1J380999D01*
G01*
X45049000Y-83811107D02*
G75*
G03*
X44363200Y-84496907I-247753J-438047D01*
G01*
X252451000Y-83838040D02*
X252451000Y-82161640D01*
X251943000Y-88206840D02*
X251943000Y-89857840D01*
X251562000Y-90238840D02*
X249961800Y-90238840D01*
X253136800Y-81475840D02*
X254813200Y-81475840D01*
X253136800Y-84523840D02*
X254813200Y-84523840D01*
X255499000Y-83838040D02*
X255499000Y-82161640D01*
X249961800Y-87825840D02*
X251562000Y-87825840D01*
X249276000Y-89553040D02*
X249276000Y-88511640D01*
X254813200Y-81475840D02*
G75*
G03*
X255499000Y-82161640I438050J-247750D01*
G01*
X251943000Y-88206840D02*
G75*
G03*
X251562000Y-87825840I-380999J1D01*
G01*
X249276000Y-88511640D02*
G75*
G03*
X249961800Y-87825840I247753J438047D01*
G01*
X253136800Y-84523840D02*
G75*
G03*
X252451000Y-83838040I-438047J247753D01*
G01*
X249961800Y-90238840D02*
G75*
G03*
X249276000Y-89553040I-438047J247753D01*
G01*
X251562000Y-90238840D02*
G75*
G03*
X251943000Y-89857840I1J380999D01*
G01*
X255499000Y-83838040D02*
G75*
G03*
X254813200Y-84523840I-247753J-438047D01*
G01*
X252451000Y-82161640D02*
G75*
G03*
X253136800Y-81475840I247753J438047D01*
G01*
M02*
