G04 #@! TF.GenerationSoftware,KiCad,Pcbnew,(6.0.9)*
G04 #@! TF.CreationDate,2023-01-13T03:11:41-03:00*
G04 #@! TF.ProjectId,pulso - bling mx,70756c73-6f20-42d2-9062-6c696e67206d,0.3*
G04 #@! TF.SameCoordinates,Original*
G04 #@! TF.FileFunction,Other,ECO2*
%FSLAX46Y46*%
G04 Gerber Fmt 4.6, Leading zero omitted, Abs format (unit mm)*
G04 Created by KiCad (PCBNEW (6.0.9)) date 2023-01-13 03:11:41*
%MOMM*%
%LPD*%
G01*
G04 APERTURE LIST*
%ADD10C,0.150000*%
G04 APERTURE END LIST*
D10*
X217396260Y-124289970D02*
X220967963Y-110960193D01*
X234297740Y-114531896D02*
X220967963Y-110960193D01*
X217396260Y-124289970D02*
X230726037Y-127861673D01*
X234297740Y-114531896D02*
X230726037Y-127861673D01*
X236099425Y-130152508D02*
X248050575Y-137052508D01*
X254950575Y-125101358D02*
X242999425Y-118201358D01*
X236099425Y-130152508D02*
X242999425Y-118201358D01*
X254950575Y-125101358D02*
X248050575Y-137052508D01*
X80001748Y-124307975D02*
X76430045Y-110978198D01*
X63100268Y-114549901D02*
X76430045Y-110978198D01*
X80001748Y-124307975D02*
X66671971Y-127879678D01*
X63100268Y-114549901D02*
X66671971Y-127879678D01*
X42447433Y-125119363D02*
X49347433Y-137070513D01*
X61298583Y-130170513D02*
X54398583Y-118219363D01*
X42447433Y-125119363D02*
X54398583Y-118219363D01*
X61298583Y-130170513D02*
X49347433Y-137070513D01*
X54923008Y-68040938D02*
X54923008Y-54240938D01*
X54923008Y-68040938D02*
X68723008Y-68040938D01*
X68723008Y-54240938D02*
X68723008Y-68040938D01*
X68723008Y-54240938D02*
X54923008Y-54240938D01*
X73923008Y-103508938D02*
X73923008Y-89708938D01*
X73923008Y-103508938D02*
X87723008Y-103508938D01*
X87723008Y-89708938D02*
X87723008Y-103508938D01*
X87723008Y-89708938D02*
X73923008Y-89708938D01*
X54943008Y-106048938D02*
X54943008Y-92248938D01*
X54943008Y-106048938D02*
X68743008Y-106048938D01*
X68743008Y-92248938D02*
X68743008Y-106048938D01*
X68743008Y-92248938D02*
X54943008Y-92248938D01*
X54943008Y-87030938D02*
X54943008Y-73230938D01*
X54943008Y-87030938D02*
X68743008Y-87030938D01*
X68743008Y-73230938D02*
X68743008Y-87030938D01*
X68743008Y-73230938D02*
X54943008Y-73230938D01*
X73929008Y-65472938D02*
X73929008Y-51672938D01*
X73929008Y-65472938D02*
X87729008Y-65472938D01*
X87729008Y-51672938D02*
X87729008Y-65472938D01*
X87729008Y-51672938D02*
X73929008Y-51672938D01*
X144723008Y-65240938D02*
X130923008Y-65240938D01*
X144723008Y-65240938D02*
X144723008Y-79040938D01*
X130923008Y-79040938D02*
X144723008Y-79040938D01*
X130923008Y-79040938D02*
X130923008Y-65240938D01*
X73923008Y-84490938D02*
X73923008Y-70690938D01*
X73923008Y-84490938D02*
X87723008Y-84490938D01*
X87723008Y-70690938D02*
X87723008Y-84490938D01*
X87723008Y-70690938D02*
X73923008Y-70690938D01*
X92923008Y-98936938D02*
X92923008Y-85136938D01*
X92923008Y-98936938D02*
X106723008Y-98936938D01*
X106723008Y-85136938D02*
X106723008Y-98936938D01*
X106723008Y-85136938D02*
X92923008Y-85136938D01*
X92923008Y-79918938D02*
X92923008Y-66118938D01*
X92923008Y-79918938D02*
X106723008Y-79918938D01*
X106723008Y-66118938D02*
X106723008Y-79918938D01*
X106723008Y-66118938D02*
X92923008Y-66118938D01*
X125715008Y-91364938D02*
X111915008Y-91364938D01*
X125715008Y-91364938D02*
X125715008Y-105164938D01*
X111915008Y-105164938D02*
X125715008Y-105164938D01*
X111915008Y-105164938D02*
X111915008Y-91364938D01*
X144723008Y-84240938D02*
X130923008Y-84240938D01*
X144723008Y-84240938D02*
X144723008Y-98040938D01*
X130923008Y-98040938D02*
X144723008Y-98040938D01*
X130923008Y-98040938D02*
X130923008Y-84240938D01*
X125723008Y-72314938D02*
X111923008Y-72314938D01*
X125723008Y-72314938D02*
X125723008Y-86114938D01*
X111923008Y-86114938D02*
X125723008Y-86114938D01*
X111923008Y-86114938D02*
X111923008Y-72314938D01*
X144723008Y-103240938D02*
X130923008Y-103240938D01*
X144723008Y-103240938D02*
X144723008Y-117040938D01*
X130923008Y-117040938D02*
X144723008Y-117040938D01*
X130923008Y-117040938D02*
X130923008Y-103240938D01*
X92923008Y-60900938D02*
X92923008Y-47100938D01*
X92923008Y-60900938D02*
X106723008Y-60900938D01*
X106723008Y-47100938D02*
X106723008Y-60900938D01*
X106723008Y-47100938D02*
X92923008Y-47100938D01*
X125723008Y-53240938D02*
X111923008Y-53240938D01*
X125723008Y-53240938D02*
X125723008Y-67040938D01*
X111923008Y-67040938D02*
X125723008Y-67040938D01*
X111923008Y-67040938D02*
X111923008Y-53240938D01*
X242455000Y-92230933D02*
X228655000Y-92230933D01*
X242455000Y-92230933D02*
X242455000Y-106030933D01*
X228655000Y-106030933D02*
X242455000Y-106030933D01*
X228655000Y-106030933D02*
X228655000Y-92230933D01*
X242455000Y-73212933D02*
X228655000Y-73212933D01*
X242455000Y-73212933D02*
X242455000Y-87012933D01*
X228655000Y-87012933D02*
X242455000Y-87012933D01*
X228655000Y-87012933D02*
X228655000Y-73212933D01*
X242475000Y-54222933D02*
X228675000Y-54222933D01*
X242475000Y-54222933D02*
X242475000Y-68022933D01*
X228675000Y-68022933D02*
X242475000Y-68022933D01*
X228675000Y-68022933D02*
X228675000Y-54222933D01*
X223475000Y-89690933D02*
X209675000Y-89690933D01*
X223475000Y-89690933D02*
X223475000Y-103490933D01*
X209675000Y-103490933D02*
X223475000Y-103490933D01*
X209675000Y-103490933D02*
X209675000Y-89690933D01*
X223475000Y-70672933D02*
X209675000Y-70672933D01*
X223475000Y-70672933D02*
X223475000Y-84472933D01*
X209675000Y-84472933D02*
X223475000Y-84472933D01*
X209675000Y-84472933D02*
X209675000Y-70672933D01*
X223469000Y-51654933D02*
X209669000Y-51654933D01*
X223469000Y-51654933D02*
X223469000Y-65454933D01*
X209669000Y-65454933D02*
X223469000Y-65454933D01*
X209669000Y-65454933D02*
X209669000Y-51654933D01*
X204475000Y-85118933D02*
X190675000Y-85118933D01*
X204475000Y-85118933D02*
X204475000Y-98918933D01*
X190675000Y-98918933D02*
X204475000Y-98918933D01*
X190675000Y-98918933D02*
X190675000Y-85118933D01*
X204475000Y-66100933D02*
X190675000Y-66100933D01*
X204475000Y-66100933D02*
X204475000Y-79900933D01*
X190675000Y-79900933D02*
X204475000Y-79900933D01*
X190675000Y-79900933D02*
X190675000Y-66100933D01*
X204475000Y-47082933D02*
X190675000Y-47082933D01*
X204475000Y-47082933D02*
X204475000Y-60882933D01*
X190675000Y-60882933D02*
X204475000Y-60882933D01*
X190675000Y-60882933D02*
X190675000Y-47082933D01*
X185483000Y-91346933D02*
X171683000Y-91346933D01*
X185483000Y-91346933D02*
X185483000Y-105146933D01*
X171683000Y-105146933D02*
X185483000Y-105146933D01*
X171683000Y-105146933D02*
X171683000Y-91346933D01*
X185475000Y-72296933D02*
X171675000Y-72296933D01*
X185475000Y-72296933D02*
X185475000Y-86096933D01*
X171675000Y-86096933D02*
X185475000Y-86096933D01*
X171675000Y-86096933D02*
X171675000Y-72296933D01*
X185475000Y-53222933D02*
X171675000Y-53222933D01*
X185475000Y-53222933D02*
X185475000Y-67022933D01*
X171675000Y-67022933D02*
X185475000Y-67022933D01*
X171675000Y-67022933D02*
X171675000Y-53222933D01*
X166475000Y-103222933D02*
X152675000Y-103222933D01*
X166475000Y-103222933D02*
X166475000Y-117022933D01*
X152675000Y-117022933D02*
X166475000Y-117022933D01*
X152675000Y-117022933D02*
X152675000Y-103222933D01*
X166475000Y-84222933D02*
X152675000Y-84222933D01*
X166475000Y-84222933D02*
X166475000Y-98022933D01*
X152675000Y-98022933D02*
X166475000Y-98022933D01*
X152675000Y-98022933D02*
X152675000Y-84222933D01*
X166475000Y-65222933D02*
X152675000Y-65222933D01*
X166475000Y-65222933D02*
X166475000Y-79022933D01*
X152675000Y-79022933D02*
X166475000Y-79022933D01*
X152675000Y-79022933D02*
X152675000Y-65222933D01*
M02*
