M48
; DRILL file {KiCad (6.0.9)} date Fri Jan 13 03:11:39 2023
; FORMAT={-:-/ absolute / inch / decimal}
; #@! TF.CreationDate,2023-01-13T03:11:39-03:00
; #@! TF.GenerationSoftware,Kicad,Pcbnew,(6.0.9)
; #@! TF.FileFunction,NonPlated,1,2,NPTH
FMAT,2
INCH
; #@! TA.AperFunction,NonPlated,NPTH,ComponentDrill
T1C0.0197
; #@! TA.AperFunction,NonPlated,NPTH,ComponentDrill
T2C0.0276
; #@! TA.AperFunction,NonPlated,NPTH,ComponentDrill
T3C0.0472
; #@! TA.AperFunction,NonPlated,NPTH,ComponentDrill
T4C0.0670
; #@! TA.AperFunction,NonPlated,NPTH,ComponentDrill
T5C0.1181
; #@! TA.AperFunction,NonPlated,NPTH,ComponentDrill
T6C0.1260
; #@! TA.AperFunction,NonPlated,NPTH,ComponentDrill
T7C0.1570
%
G90
G05
T1
X5.8139Y-2.6313
X5.8139Y-2.6713
X5.8139Y-2.7113
X5.8139Y-2.7513
X5.8139Y-2.7913
X5.8139Y-4.3891
X5.8139Y-4.4291
X5.8139Y-4.4691
X5.8139Y-4.5091
X5.8139Y-4.5491
X5.8939Y-2.6313
X5.8939Y-2.6713
X5.8939Y-2.7113
X5.8939Y-2.7513
X5.8939Y-2.7913
X5.8939Y-4.3891
X5.8939Y-4.4291
X5.8939Y-4.4691
X5.8939Y-4.5091
X5.8939Y-4.5491
T2
X2.1363Y-2.6286
X2.1383Y-2.7467
X9.5689Y-2.629
X9.5709Y-2.7471
T3
X1.4928Y-4.4827
X1.7684Y-4.4827
X9.939Y-4.4826
X10.2146Y-4.4826
T4
X1.869Y-5.1254
X2.2154Y-4.9254
X2.234Y-2.4071
X2.2348Y-3.1548
X2.2348Y-3.9035
X2.6238Y-4.7537
X2.634Y-2.4071
X2.6348Y-3.1548
X2.6348Y-3.9035
X2.982Y-3.0548
X2.982Y-3.8035
X2.9822Y-2.306
X3.0102Y-4.6502
X3.382Y-3.0548
X3.382Y-3.8035
X3.3822Y-2.306
X3.73Y-2.126
X3.73Y-2.8748
X3.73Y-3.6235
X4.13Y-2.126
X4.13Y-2.8748
X4.13Y-3.6235
X4.4778Y-3.8687
X4.4781Y-2.3678
X4.4781Y-3.1187
X4.8778Y-3.8687
X4.8781Y-2.3678
X4.8781Y-3.1187
X5.2261Y-2.8402
X5.2261Y-3.5882
X5.2261Y-4.3363
X5.6261Y-2.8402
X5.6261Y-3.5882
X5.6261Y-4.3363
X6.0825Y-2.8395
X6.0825Y-3.5875
X6.0825Y-4.3355
X6.4825Y-2.8395
X6.4825Y-3.5875
X6.4825Y-4.3355
X6.8305Y-2.367
X6.8305Y-3.118
X6.8308Y-3.868
X7.2305Y-2.367
X7.2305Y-3.118
X7.2308Y-3.868
X7.5785Y-2.1253
X7.5785Y-2.8741
X7.5785Y-3.6228
X7.9785Y-2.1253
X7.9785Y-2.8741
X7.9785Y-3.6228
X8.3263Y-2.3053
X8.3266Y-3.0541
X8.3266Y-3.8028
X8.6984Y-4.6495
X8.7263Y-2.3053
X8.7266Y-3.0541
X8.7266Y-3.8028
X9.0738Y-3.1541
X9.0738Y-3.9028
X9.0746Y-2.4064
X9.0848Y-4.753
X9.4738Y-3.1541
X9.4738Y-3.9028
X9.4746Y-2.4064
X9.4931Y-4.9247
X9.8395Y-5.1247
T5
X1.8623Y-5.0138
X2.0288Y-4.8022
X2.284Y-2.3071
X2.2848Y-3.0548
X2.2848Y-3.8035
X2.534Y-2.2071
X2.5348Y-2.9548
X2.5348Y-3.7035
X2.6462Y-4.6442
X2.8618Y-4.4829
X3.032Y-2.9548
X3.032Y-3.7035
X3.0322Y-2.206
X3.282Y-2.8548
X3.282Y-3.6035
X3.2822Y-2.106
X3.78Y-2.026
X3.78Y-2.7748
X3.78Y-3.5235
X4.03Y-1.926
X4.03Y-2.6748
X4.03Y-3.4235
X4.5278Y-3.7687
X4.5281Y-2.2678
X4.5281Y-3.0187
X4.7778Y-3.6687
X4.7781Y-2.1678
X4.7781Y-2.9187
X5.2761Y-2.7402
X5.2761Y-3.4882
X5.2761Y-4.2363
X5.5261Y-2.6402
X5.5261Y-3.3882
X5.5261Y-4.1363
X6.1325Y-2.7395
X6.1325Y-3.4875
X6.1325Y-4.2355
X6.3825Y-2.6395
X6.3825Y-3.3875
X6.3825Y-4.1355
X6.8805Y-2.267
X6.8805Y-3.018
X6.8808Y-3.768
X7.1305Y-2.167
X7.1305Y-2.918
X7.1308Y-3.668
X7.6285Y-2.0253
X7.6285Y-2.7741
X7.6285Y-3.5228
X7.8785Y-1.9253
X7.8785Y-2.6741
X7.8785Y-3.4228
X8.3763Y-2.2053
X8.3766Y-2.9541
X8.3766Y-3.7028
X8.6263Y-2.1053
X8.6266Y-2.8541
X8.6266Y-3.6028
X8.7726Y-4.5658
X9.04Y-4.5339
X9.1238Y-3.0541
X9.1238Y-3.8028
X9.1246Y-2.3064
X9.3738Y-2.9541
X9.3738Y-3.7028
X9.3746Y-2.2064
X9.5864Y-4.8631
X9.8529Y-4.9015
T6
X1.7178Y-4.7387
X2.7578Y-2.0287
X4.9378Y-4.2787
X5.1428Y-2.4187
X6.5658Y-2.418
X6.7708Y-4.278
X8.9508Y-2.028
X9.9908Y-4.738
T7
X2.0422Y-5.0254
X2.434Y-2.4071
X2.4348Y-3.1548
X2.4348Y-3.9035
X2.817Y-4.7019
X3.182Y-3.0548
X3.182Y-3.8035
X3.1822Y-2.306
X3.93Y-2.126
X3.93Y-2.8748
X3.93Y-3.6235
X4.6778Y-3.8687
X4.6781Y-2.3678
X4.6781Y-3.1187
X5.4261Y-2.8402
X5.4261Y-3.5882
X5.4261Y-4.3363
X6.2825Y-2.8395
X6.2825Y-3.5875
X6.2825Y-4.3355
X7.0305Y-2.367
X7.0305Y-3.118
X7.0308Y-3.868
X7.7785Y-2.1253
X7.7785Y-2.8741
X7.7785Y-3.6228
X8.5263Y-2.3053
X8.5266Y-3.0541
X8.5266Y-3.8028
X8.8916Y-4.7012
X9.2738Y-3.1541
X9.2738Y-3.9028
X9.2746Y-2.4064
X9.6663Y-5.0247
T0
M30
