M48
; DRILL file {KiCad (6.0.9)} date Fri Jan 13 03:11:39 2023
; FORMAT={-:-/ absolute / inch / decimal}
; #@! TF.CreationDate,2023-01-13T03:11:39-03:00
; #@! TF.GenerationSoftware,Kicad,Pcbnew,(6.0.9)
; #@! TF.FileFunction,Plated,1,2,PTH
FMAT,2
INCH
; #@! TA.AperFunction,Plated,PTH,ComponentDrill
T1C0.0120
; #@! TA.AperFunction,Plated,PTH,ViaDrill
T2C0.0157
; #@! TA.AperFunction,Plated,PTH,ComponentDrill
T3C0.0320
; #@! TA.AperFunction,Plated,PTH,ComponentDrill
T4C0.0394
; #@! TA.AperFunction,Plated,PTH,ComponentDrill
T5C0.0400
; #@! TA.AperFunction,Plated,PTH,ComponentDrill
T6C0.0866
%
G90
G05
T1
X2.408Y-4.8925
X2.4345Y-4.9385
X3.2013Y-4.7191
X3.215Y-4.7704
X8.5057Y-4.7947
X8.5194Y-4.7434
X9.2461Y-4.9881
X9.2726Y-4.9421
T2
X1.5236Y-4.2136
X1.6634Y-4.1024
X1.7195Y-4.1966
X1.7345Y-5.0876
X1.748Y-4.6023
X1.75Y-4.2215
X1.8002Y-4.2628
X1.8435Y-4.1407
X1.8632Y-3.4827
X1.8947Y-4.1732
X2.0797Y-4.1703
X2.1363Y-2.3071
X2.1371Y-3.0548
X2.1371Y-3.8035
X2.1567Y-4.5805
X2.2092Y-2.5991
X2.3228Y-2.9665
X2.4213Y-3.2638
X2.4249Y-4.2868
X2.5036Y-4.6824
X2.8844Y-2.9548
X2.8844Y-3.7035
X2.8846Y-2.206
X3.6324Y-2.026
X3.6324Y-2.7748
X3.6324Y-3.5235
X4.3801Y-3.7687
X4.3804Y-2.2678
X4.3804Y-3.0187
X5.1285Y-2.7402
X5.1285Y-3.4882
X5.3327Y-4.5974
X5.9848Y-4.2355
X6.2096Y-3.9637
X6.2175Y-4.6723
X6.2254Y-3.2028
X6.3337Y-4.5621
X6.6437Y-4.5089
X6.9626Y-2.7205
X6.9626Y-4.2265
X6.9764Y-3.4863
X7.4577Y-4.3544
X7.7175Y-4.0158
X7.7215Y-2.4725
X7.7402Y-3.2176
X8.3435Y-4.1625
X8.4606Y-2.6684
X8.4685Y-3.4282
X8.5394Y-3.9892
X8.7313Y-3.4745
X8.7441Y-4.7442
X8.9075Y-2.9144
X9.1826Y-4.5721
X9.1969Y-4.8603
X9.2077Y-4.0601
X9.2274Y-3.5198
X9.2343Y-4.7501
X9.4035Y-4.5896
X9.4173Y-4.6871
X9.438Y-2.877
X9.442Y-4.8638
X9.4872Y-3.0719
X9.5699Y-2.6881
X9.5856Y-4.5434
X9.81Y-4.1398
X9.9808Y-4.9753
X10.0418Y-3.4041
X10.0837Y-4.4213
X10.1063Y-3.4282
X10.1644Y-3.3003
T3
X1.4778Y-3.0737
X1.9028Y-3.0737
X2.0213Y-4.3636
X2.0243Y-4.5998
X9.6811Y-4.3623
X9.69Y-4.6074
X9.8058Y-3.073
X10.2308Y-3.073
T4
X1.4136Y-3.2541
X1.4136Y-3.3541
X1.4136Y-3.4541
X1.4136Y-3.5541
X1.4136Y-3.6541
X1.4136Y-3.7541
X1.4136Y-3.8541
X2.0136Y-3.2541
X2.0136Y-3.3541
X2.0136Y-3.4541
X2.0136Y-3.5541
X2.0136Y-3.6541
X2.0136Y-3.7541
X2.0136Y-3.8541
X9.699Y-3.2552
X9.699Y-3.3552
X9.699Y-3.4552
X9.699Y-3.5552
X9.699Y-3.6552
X9.699Y-3.7552
X9.699Y-3.8552
X10.299Y-3.2552
X10.299Y-3.3552
X10.299Y-3.4552
X10.299Y-3.5552
X10.299Y-3.6552
X10.299Y-3.7552
X10.299Y-3.8552
T5
X1.5386Y-3.4666
X1.5386Y-3.5416
X1.6636Y-3.2166
X1.6636Y-3.3166
X1.7636Y-3.2166
X1.7636Y-3.3166
X9.824Y-3.4677
X9.824Y-3.5427
X9.949Y-3.2177
X9.949Y-3.3177
X10.049Y-3.2177
X10.049Y-3.3177
T6
X2.8078Y-3.2337
X3.5578Y-2.4837
X3.5578Y-3.9837
X4.3078Y-3.2337
X7.4008Y-3.233
X8.1508Y-2.483
X8.1508Y-3.983
X8.9008Y-3.233
T4
G00X1.5538Y-4.4
M15
G01X1.5735Y-4.4
M16
G05
G00X1.6719Y-4.4
M15
G01X1.6916Y-4.4
M16
G05
G00X1.8294Y-4.4
M15
G01X1.8491Y-4.4
M16
G05
G00X1.8885Y-4.5654
M15
G01X1.9081Y-4.5654
M16
G05
G00X9.8189Y-4.3999
M15
G01X9.7992Y-4.3999
M16
G05
G00X9.878Y-4.5652
M15
G01X9.8583Y-4.5652
M16
G05
G00X10.0354Y-4.5652
M15
G01X10.0157Y-4.5652
M16
G05
G00X10.1535Y-4.5652
M15
G01X10.1339Y-4.5652
M16
G05
T0
M30
