G04 #@! TF.GenerationSoftware,KiCad,Pcbnew,(6.0.9)*
G04 #@! TF.CreationDate,2023-01-13T03:11:41-03:00*
G04 #@! TF.ProjectId,pulso - bling mx,70756c73-6f20-42d2-9062-6c696e67206d,0.3*
G04 #@! TF.SameCoordinates,Original*
G04 #@! TF.FileFunction,OtherDrawing,Comment*
%FSLAX46Y46*%
G04 Gerber Fmt 4.6, Leading zero omitted, Abs format (unit mm)*
G04 Created by KiCad (PCBNEW (6.0.9)) date 2023-01-13 03:11:41*
%MOMM*%
%LPD*%
G01*
G04 APERTURE LIST*
%ADD10C,0.120000*%
%ADD11C,0.060000*%
%ADD12C,0.050000*%
%ADD13C,0.150000*%
G04 APERTURE END LIST*
D10*
X46875197Y-83489094D02*
X48653197Y-83489094D01*
X48653197Y-83489094D02*
X48653197Y-86156094D01*
X48653197Y-86156094D02*
X46875197Y-86156094D01*
X46875197Y-86156094D02*
X46875197Y-83489094D01*
X46875197Y-79425094D02*
X48653197Y-79425094D01*
X48653197Y-79425094D02*
X48653197Y-82092094D01*
X48653197Y-82092094D02*
X46875197Y-82092094D01*
X46875197Y-82092094D02*
X46875197Y-79425094D01*
X38239189Y-83489094D02*
X40017189Y-83489094D01*
X40017189Y-83489094D02*
X40017189Y-86156094D01*
X40017189Y-86156094D02*
X38239189Y-86156094D01*
X38239189Y-86156094D02*
X38239189Y-83489094D01*
X34635000Y-100774907D02*
X52415000Y-100774907D01*
X52415000Y-100774907D02*
X52415000Y-79774907D01*
X52415000Y-79774907D02*
X34635000Y-79774907D01*
X34635000Y-79774907D02*
X34635000Y-100774907D01*
X40017189Y-82092094D02*
X38239189Y-82092094D01*
X38239189Y-82092094D02*
X38239189Y-79425094D01*
X38239189Y-79425094D02*
X40017189Y-79425094D01*
X40017189Y-79425094D02*
X40017189Y-82092094D01*
D11*
X147418008Y-110975938D02*
X149958008Y-110975938D01*
X147418008Y-116055938D02*
X149958008Y-116055938D01*
X149958008Y-110975938D02*
X149958008Y-116055938D01*
X147418008Y-116055938D02*
X147418008Y-110975938D01*
D12*
X148748008Y-110594938D02*
G75*
G03*
X148748008Y-110594938I-60000J0D01*
G01*
X148748008Y-116436938D02*
G75*
G03*
X148748008Y-116436938I-60000J0D01*
G01*
D10*
X248689189Y-83516027D02*
X250467189Y-83516027D01*
X250467189Y-83516027D02*
X250467189Y-86183027D01*
X250467189Y-86183027D02*
X248689189Y-86183027D01*
X248689189Y-86183027D02*
X248689189Y-83516027D01*
X257325197Y-83516027D02*
X259103197Y-83516027D01*
X259103197Y-83516027D02*
X259103197Y-86183027D01*
X259103197Y-86183027D02*
X257325197Y-86183027D01*
X257325197Y-86183027D02*
X257325197Y-83516027D01*
X245085000Y-100801840D02*
X262865000Y-100801840D01*
X262865000Y-100801840D02*
X262865000Y-79801840D01*
X262865000Y-79801840D02*
X245085000Y-79801840D01*
X245085000Y-79801840D02*
X245085000Y-100801840D01*
X250467189Y-82119027D02*
X248689189Y-82119027D01*
X248689189Y-82119027D02*
X248689189Y-79452027D01*
X248689189Y-79452027D02*
X250467189Y-79452027D01*
X250467189Y-79452027D02*
X250467189Y-82119027D01*
X257325197Y-79452027D02*
X259103197Y-79452027D01*
X259103197Y-79452027D02*
X259103197Y-82119027D01*
X259103197Y-82119027D02*
X257325197Y-82119027D01*
X257325197Y-82119027D02*
X257325197Y-79452027D01*
D12*
X148748008Y-71786938D02*
G75*
G03*
X148748008Y-71786938I-60000J0D01*
G01*
X148748008Y-65944938D02*
G75*
G03*
X148748008Y-65944938I-60000J0D01*
G01*
D11*
X149958008Y-66325938D02*
X149958008Y-71405938D01*
X147418008Y-71405938D02*
X147418008Y-66325938D01*
X147418008Y-71405938D02*
X149958008Y-71405938D01*
X147418008Y-66325938D02*
X149958008Y-66325938D01*
D10*
X244650000Y-65026933D02*
X241750000Y-65026933D01*
X241750000Y-65026933D02*
X241750000Y-71776933D01*
X241750000Y-71776933D02*
X244650000Y-71776933D01*
X244650000Y-71776933D02*
X244650000Y-65026933D01*
D13*
X207400000Y-112126933D02*
G75*
G03*
X207400000Y-112126933I-10250000J0D01*
G01*
D10*
X52713008Y-71515938D02*
X55613008Y-71515938D01*
X55613008Y-71515938D02*
X55613008Y-64765938D01*
X55613008Y-64765938D02*
X52713008Y-64765938D01*
X52713008Y-64765938D02*
X52713008Y-71515938D01*
D13*
X110113008Y-111690938D02*
G75*
G03*
X110113008Y-111690938I-10250000J0D01*
G01*
M02*
