G04 #@! TF.GenerationSoftware,KiCad,Pcbnew,(6.0.9)*
G04 #@! TF.CreationDate,2023-01-13T03:11:41-03:00*
G04 #@! TF.ProjectId,pulso - bling mx,70756c73-6f20-42d2-9062-6c696e67206d,0.3*
G04 #@! TF.SameCoordinates,Original*
G04 #@! TF.FileFunction,Soldermask,Bot*
G04 #@! TF.FilePolarity,Negative*
%FSLAX46Y46*%
G04 Gerber Fmt 4.6, Leading zero omitted, Abs format (unit mm)*
G04 Created by KiCad (PCBNEW (6.0.9)) date 2023-01-13 03:11:41*
%MOMM*%
%LPD*%
G01*
G04 APERTURE LIST*
G04 Aperture macros list*
%AMRotRect*
0 Rectangle, with rotation*
0 The origin of the aperture is its center*
0 $1 length*
0 $2 width*
0 $3 Rotation angle, in degrees counterclockwise*
0 Add horizontal line*
21,1,$1,$2,0,0,$3*%
G04 Aperture macros list end*
%ADD10C,0.100000*%
%ADD11O,2.590000X1.790000*%
%ADD12O,2.580000X1.820000*%
%ADD13O,2.580000X1.810000*%
%ADD14O,2.580000X1.750000*%
%ADD15O,2.590000X1.780000*%
%ADD16O,2.580000X1.800000*%
%ADD17O,2.580000X1.830000*%
%ADD18O,2.490000X1.800000*%
%ADD19O,2.470000X1.810000*%
%ADD20O,2.450000X1.770000*%
%ADD21O,2.450000X1.730000*%
%ADD22O,2.430000X1.750000*%
%ADD23O,2.480000X1.800000*%
%ADD24O,2.490000X1.850000*%
%ADD25C,1.397000*%
%ADD26C,1.701800*%
%ADD27C,3.987800*%
%ADD28C,3.000000*%
%ADD29RotRect,2.550000X2.500000X345.000000*%
%ADD30RotRect,2.550000X2.500000X330.000000*%
%ADD31RotRect,2.550000X2.500000X195.000000*%
%ADD32RotRect,2.550000X2.500000X210.000000*%
%ADD33R,2.550000X2.500000*%
%ADD34C,3.200000*%
%ADD35C,4.400000*%
%ADD36C,0.500000*%
%ADD37C,1.200000*%
%ADD38O,2.500000X1.700000*%
%ADD39C,0.900000*%
%ADD40R,1.000000X0.700000*%
%ADD41R,2.800000X1.000000*%
%ADD42R,1.270000X5.080000*%
%ADD43R,3.960000X3.960000*%
G04 APERTURE END LIST*
G36*
X234968061Y-127344208D02*
G01*
X234368061Y-128383438D01*
X233631939Y-127958438D01*
X234231939Y-126919208D01*
X234968061Y-127344208D01*
G37*
D10*
X234968061Y-127344208D02*
X234368061Y-128383438D01*
X233631939Y-127958438D01*
X234231939Y-126919208D01*
X234968061Y-127344208D01*
G36*
X236743061Y-124269818D02*
G01*
X236143061Y-125309048D01*
X235406939Y-124884048D01*
X236006939Y-123844818D01*
X236743061Y-124269818D01*
G37*
X236743061Y-124269818D02*
X236143061Y-125309048D01*
X235406939Y-124884048D01*
X236006939Y-123844818D01*
X236743061Y-124269818D01*
G36*
X82513222Y-122700014D02*
G01*
X81692185Y-122920010D01*
X81381602Y-121760899D01*
X82202639Y-121540903D01*
X82513222Y-122700014D01*
G37*
X82513222Y-122700014D02*
X81692185Y-122920010D01*
X81381602Y-121760899D01*
X82202639Y-121540903D01*
X82513222Y-122700014D01*
G36*
X81594414Y-119270977D02*
G01*
X80773377Y-119490973D01*
X80462794Y-118331862D01*
X81283831Y-118111866D01*
X81594414Y-119270977D01*
G37*
X81594414Y-119270977D02*
X80773377Y-119490973D01*
X80462794Y-118331862D01*
X81283831Y-118111866D01*
X81594414Y-119270977D01*
G36*
X217244312Y-118948760D02*
G01*
X216933729Y-120107871D01*
X216112692Y-119887875D01*
X216423275Y-118728764D01*
X217244312Y-118948760D01*
G37*
X217244312Y-118948760D02*
X216933729Y-120107871D01*
X216112692Y-119887875D01*
X216423275Y-118728764D01*
X217244312Y-118948760D01*
G36*
X216325504Y-122377797D02*
G01*
X216014921Y-123536908D01*
X215193884Y-123316912D01*
X215504467Y-122157801D01*
X216325504Y-122377797D01*
G37*
X216325504Y-122377797D02*
X216014921Y-123536908D01*
X215193884Y-123316912D01*
X215504467Y-122157801D01*
X216325504Y-122377797D01*
G36*
X63056069Y-126698053D02*
G01*
X62319947Y-127123053D01*
X61719947Y-126083823D01*
X62456069Y-125658823D01*
X63056069Y-126698053D01*
G37*
X63056069Y-126698053D02*
X62319947Y-127123053D01*
X61719947Y-126083823D01*
X62456069Y-125658823D01*
X63056069Y-126698053D01*
G36*
X61281069Y-123623663D02*
G01*
X60544947Y-124048663D01*
X59944947Y-123009433D01*
X60681069Y-122584433D01*
X61281069Y-123623663D01*
G37*
X61281069Y-123623663D02*
X60544947Y-124048663D01*
X59944947Y-123009433D01*
X60681069Y-122584433D01*
X61281069Y-123623663D01*
D11*
X35510000Y-82649907D03*
D12*
X35515000Y-85204907D03*
D13*
X35515000Y-87739907D03*
D14*
X35515000Y-90249907D03*
D15*
X35510000Y-92804907D03*
D16*
X35515000Y-95354907D03*
D17*
X35515000Y-97909907D03*
D18*
X51490000Y-97894907D03*
D19*
X51480000Y-95359907D03*
D20*
X51470000Y-92799907D03*
D21*
X51470000Y-90239907D03*
D22*
X51460000Y-87709907D03*
D23*
X51485000Y-85194907D03*
D24*
X51490000Y-82679907D03*
D25*
X42255000Y-81702907D03*
X44795000Y-81702907D03*
X42255000Y-84242907D03*
X44795000Y-84242907D03*
X39080000Y-89957907D03*
X39080000Y-88052907D03*
X51417008Y-116835938D03*
X51342008Y-110835938D03*
X246125000Y-117026933D03*
X245900000Y-110801933D03*
D26*
X220940097Y-118096132D03*
D27*
X225847000Y-119410933D03*
D28*
X229615252Y-115161430D03*
X222824223Y-115971381D03*
D26*
X230753903Y-120725734D03*
D29*
X233237474Y-116132002D03*
X219202001Y-115000809D03*
D30*
X240247848Y-121647228D03*
X253512300Y-126372524D03*
D26*
X249924409Y-130166933D03*
X241125591Y-125086933D03*
D28*
X250264705Y-124497524D03*
D27*
X245525000Y-127626933D03*
D28*
X243495443Y-123522228D03*
D26*
X76457911Y-118114137D03*
D28*
X67213430Y-117961587D03*
D27*
X71551008Y-119428938D03*
D28*
X72689659Y-113864634D03*
D26*
X66644105Y-120743739D03*
D31*
X76311881Y-112894063D03*
X63591208Y-118932158D03*
D28*
X47303451Y-127350233D03*
X51532713Y-121975529D03*
D27*
X51873008Y-127644938D03*
D26*
X56272417Y-125104938D03*
X47473599Y-130184938D03*
D32*
X54780308Y-120100529D03*
X44055856Y-129225233D03*
D33*
X54263008Y-58600938D03*
X68113008Y-56060938D03*
D28*
X64363008Y-56060938D03*
D27*
X61823008Y-61140938D03*
D28*
X58013008Y-58600938D03*
D26*
X56743008Y-61140938D03*
X66903008Y-61140938D03*
D33*
X73263008Y-94068938D03*
X87113008Y-91528938D03*
D28*
X83363008Y-91528938D03*
D27*
X80823008Y-96608938D03*
D28*
X77013008Y-94068938D03*
D26*
X75743008Y-96608938D03*
X85903008Y-96608938D03*
D33*
X54283008Y-96608938D03*
X68133008Y-94068938D03*
D28*
X64383008Y-94068938D03*
D27*
X61843008Y-99148938D03*
D28*
X58033008Y-96608938D03*
D26*
X56763008Y-99148938D03*
X66923008Y-99148938D03*
D33*
X54283008Y-77590938D03*
X68133008Y-75050938D03*
D28*
X64383008Y-75050938D03*
D27*
X61843008Y-80130938D03*
D28*
X58033008Y-77590938D03*
D26*
X56763008Y-80130938D03*
X66923008Y-80130938D03*
D33*
X73269008Y-56032938D03*
X87119008Y-53492938D03*
D28*
X83369008Y-53492938D03*
D27*
X80829008Y-58572938D03*
D28*
X77019008Y-56032938D03*
D26*
X75749008Y-58572938D03*
X85909008Y-58572938D03*
X142903008Y-72140938D03*
X132743008Y-72140938D03*
D28*
X134013008Y-69600938D03*
D27*
X137823008Y-72140938D03*
D28*
X140363008Y-67060938D03*
D33*
X144113008Y-67060938D03*
X130263008Y-69600938D03*
X73263008Y-75050938D03*
X87113008Y-72510938D03*
D28*
X83363008Y-72510938D03*
D27*
X80823008Y-77590938D03*
D28*
X77013008Y-75050938D03*
D26*
X75743008Y-77590938D03*
X85903008Y-77590938D03*
D33*
X92263008Y-89496938D03*
X106113008Y-86956938D03*
D28*
X102363008Y-86956938D03*
D27*
X99823008Y-92036938D03*
D28*
X96013008Y-89496938D03*
D26*
X94743008Y-92036938D03*
X104903008Y-92036938D03*
D33*
X92263008Y-70478938D03*
X106113008Y-67938938D03*
D28*
X102363008Y-67938938D03*
D27*
X99823008Y-73018938D03*
D28*
X96013008Y-70478938D03*
D26*
X94743008Y-73018938D03*
X104903008Y-73018938D03*
X123895008Y-98264938D03*
X113735008Y-98264938D03*
D28*
X115005008Y-95724938D03*
D27*
X118815008Y-98264938D03*
D28*
X121355008Y-93184938D03*
D33*
X125105008Y-93184938D03*
X111255008Y-95724938D03*
D26*
X142903008Y-91140938D03*
X132743008Y-91140938D03*
D28*
X134013008Y-88600938D03*
D27*
X137823008Y-91140938D03*
D28*
X140363008Y-86060938D03*
D33*
X144113008Y-86060938D03*
X130263008Y-88600938D03*
D26*
X123903008Y-79214938D03*
X113743008Y-79214938D03*
D28*
X115013008Y-76674938D03*
D27*
X118823008Y-79214938D03*
D28*
X121363008Y-74134938D03*
D33*
X125113008Y-74134938D03*
X111263008Y-76674938D03*
D26*
X142903008Y-110140938D03*
X132743008Y-110140938D03*
D28*
X134013008Y-107600938D03*
D27*
X137823008Y-110140938D03*
D28*
X140363008Y-105060938D03*
D33*
X144113008Y-105060938D03*
X130263008Y-107600938D03*
X92263008Y-51460938D03*
X106113008Y-48920938D03*
D28*
X102363008Y-48920938D03*
D27*
X99823008Y-54000938D03*
D28*
X96013008Y-51460938D03*
D26*
X94743008Y-54000938D03*
X104903008Y-54000938D03*
X123903008Y-60140938D03*
X113743008Y-60140938D03*
D28*
X115013008Y-57600938D03*
D27*
X118823008Y-60140938D03*
D28*
X121363008Y-55060938D03*
D33*
X125113008Y-55060938D03*
X111263008Y-57600938D03*
D34*
X125419008Y-108678938D03*
X130626008Y-61434938D03*
X43631008Y-120362938D03*
D35*
X90367008Y-101185938D03*
X90367008Y-63085938D03*
X71317008Y-82135938D03*
X109417008Y-82135938D03*
D34*
X70047008Y-51528938D03*
D25*
X48330008Y-78071938D03*
X37535008Y-78071938D03*
D35*
X187981000Y-82117933D03*
X226081000Y-82117933D03*
X207031000Y-63067933D03*
X207031000Y-101167933D03*
D26*
X240635000Y-99130933D03*
X230475000Y-99130933D03*
D28*
X231745000Y-96590933D03*
D27*
X235555000Y-99130933D03*
D28*
X238095000Y-94050933D03*
D33*
X241845000Y-94050933D03*
X227995000Y-96590933D03*
D26*
X240635000Y-80112933D03*
X230475000Y-80112933D03*
D28*
X231745000Y-77572933D03*
D27*
X235555000Y-80112933D03*
D28*
X238095000Y-75032933D03*
D33*
X241845000Y-75032933D03*
X227995000Y-77572933D03*
D26*
X240655000Y-61122933D03*
X230495000Y-61122933D03*
D28*
X231765000Y-58582933D03*
D27*
X235575000Y-61122933D03*
D28*
X238115000Y-56042933D03*
D33*
X241865000Y-56042933D03*
X228015000Y-58582933D03*
D26*
X221655000Y-96590933D03*
X211495000Y-96590933D03*
D28*
X212765000Y-94050933D03*
D27*
X216575000Y-96590933D03*
D28*
X219115000Y-91510933D03*
D33*
X222865000Y-91510933D03*
X209015000Y-94050933D03*
D26*
X221655000Y-77572933D03*
X211495000Y-77572933D03*
D28*
X212765000Y-75032933D03*
D27*
X216575000Y-77572933D03*
D28*
X219115000Y-72492933D03*
D33*
X222865000Y-72492933D03*
X209015000Y-75032933D03*
D26*
X221649000Y-58554933D03*
X211489000Y-58554933D03*
D28*
X212759000Y-56014933D03*
D27*
X216569000Y-58554933D03*
D28*
X219109000Y-53474933D03*
D33*
X222859000Y-53474933D03*
X209009000Y-56014933D03*
D26*
X202655000Y-92018933D03*
X192495000Y-92018933D03*
D28*
X193765000Y-89478933D03*
D27*
X197575000Y-92018933D03*
D28*
X200115000Y-86938933D03*
D33*
X203865000Y-86938933D03*
X190015000Y-89478933D03*
D26*
X202655000Y-73000933D03*
X192495000Y-73000933D03*
D28*
X193765000Y-70460933D03*
D27*
X197575000Y-73000933D03*
D28*
X200115000Y-67920933D03*
D33*
X203865000Y-67920933D03*
X190015000Y-70460933D03*
D26*
X202655000Y-53982933D03*
X192495000Y-53982933D03*
D28*
X193765000Y-51442933D03*
D27*
X197575000Y-53982933D03*
D28*
X200115000Y-48902933D03*
D33*
X203865000Y-48902933D03*
X190015000Y-51442933D03*
D26*
X183663000Y-98246933D03*
X173503000Y-98246933D03*
D28*
X174773000Y-95706933D03*
D27*
X178583000Y-98246933D03*
D28*
X181123000Y-93166933D03*
D33*
X184873000Y-93166933D03*
X171023000Y-95706933D03*
D26*
X183655000Y-79196933D03*
X173495000Y-79196933D03*
D28*
X174765000Y-76656933D03*
D27*
X178575000Y-79196933D03*
D28*
X181115000Y-74116933D03*
D33*
X184865000Y-74116933D03*
X171015000Y-76656933D03*
D26*
X183655000Y-60122933D03*
X173495000Y-60122933D03*
D28*
X174765000Y-57582933D03*
D27*
X178575000Y-60122933D03*
D28*
X181115000Y-55042933D03*
D33*
X184865000Y-55042933D03*
X171015000Y-57582933D03*
D26*
X164655000Y-110122933D03*
X154495000Y-110122933D03*
D28*
X155765000Y-107582933D03*
D27*
X159575000Y-110122933D03*
D28*
X162115000Y-105042933D03*
D33*
X165865000Y-105042933D03*
X152015000Y-107582933D03*
D26*
X164655000Y-91122933D03*
X154495000Y-91122933D03*
D28*
X155765000Y-88582933D03*
D27*
X159575000Y-91122933D03*
D28*
X162115000Y-86042933D03*
D33*
X165865000Y-86042933D03*
X152015000Y-88582933D03*
D26*
X164655000Y-72122933D03*
X154495000Y-72122933D03*
D28*
X155765000Y-69582933D03*
D27*
X159575000Y-72122933D03*
D28*
X162115000Y-67042933D03*
D33*
X165865000Y-67042933D03*
X152015000Y-69582933D03*
D34*
X171979000Y-108660933D03*
X166772000Y-61416933D03*
X227351000Y-51510933D03*
X253767000Y-120344933D03*
D25*
X259863000Y-78053933D03*
X249068000Y-78053933D03*
D36*
X147672008Y-115547938D03*
X147672008Y-112499938D03*
X147672008Y-113515938D03*
X149704008Y-112499938D03*
X149704008Y-113515938D03*
X147672008Y-114531938D03*
X149704008Y-114531938D03*
X149704008Y-115547938D03*
X149704008Y-111483938D03*
X147672008Y-111483938D03*
D11*
X245960000Y-82676840D03*
D12*
X245965000Y-85231840D03*
D13*
X245965000Y-87766840D03*
D14*
X245965000Y-90276840D03*
D15*
X245960000Y-92831840D03*
D16*
X245965000Y-95381840D03*
D17*
X245965000Y-97936840D03*
D18*
X261940000Y-97921840D03*
D19*
X261930000Y-95386840D03*
D20*
X261920000Y-92826840D03*
D21*
X261920000Y-90266840D03*
D22*
X261910000Y-87736840D03*
D23*
X261935000Y-85221840D03*
D24*
X261940000Y-82706840D03*
D25*
X252705000Y-81729840D03*
X255245000Y-81729840D03*
X252705000Y-84269840D03*
X255245000Y-84269840D03*
X249530000Y-89984840D03*
X249530000Y-88079840D03*
D36*
X149704008Y-67849938D03*
X149704008Y-69881938D03*
X147672008Y-68865938D03*
X147672008Y-70897938D03*
X149704008Y-66833938D03*
X147672008Y-69881938D03*
X149704008Y-68865938D03*
X149704008Y-70897938D03*
X147672008Y-66833938D03*
X147672008Y-67849938D03*
D37*
X37917008Y-113860938D03*
X44917008Y-113860938D03*
D38*
X48217008Y-115960938D03*
X39717008Y-111760938D03*
X42717008Y-111760938D03*
X46717008Y-111760938D03*
D37*
X252450000Y-113856933D03*
X259450000Y-113856933D03*
D38*
X249150000Y-111756933D03*
X257650000Y-115956933D03*
X254650000Y-115956933D03*
X250650000Y-115956933D03*
D39*
X243050000Y-66776933D03*
X243100000Y-69776933D03*
D40*
X241250000Y-66026933D03*
X241250000Y-69026933D03*
X241250000Y-70526933D03*
D41*
X243150000Y-64426933D03*
X243150000Y-72376933D03*
D42*
X208135000Y-112126933D03*
X186165000Y-112126933D03*
D43*
X197150000Y-112126933D03*
D39*
X54313008Y-69765938D03*
X54263008Y-66765938D03*
D40*
X56113008Y-70515938D03*
X56113008Y-67515938D03*
X56113008Y-66015938D03*
D41*
X54213008Y-64165938D03*
X54213008Y-72115938D03*
D42*
X88878008Y-111690938D03*
X110848008Y-111690938D03*
D43*
X99863008Y-111690938D03*
M02*
