G04 #@! TF.GenerationSoftware,KiCad,Pcbnew,(6.0.9)*
G04 #@! TF.CreationDate,2022-12-28T10:52:42-03:00*
G04 #@! TF.ProjectId,pulso,70756c73-6f2e-46b6-9963-61645f706362,0.3*
G04 #@! TF.SameCoordinates,Original*
G04 #@! TF.FileFunction,Copper,L2,Bot*
G04 #@! TF.FilePolarity,Positive*
%FSLAX46Y46*%
G04 Gerber Fmt 4.6, Leading zero omitted, Abs format (unit mm)*
G04 Created by KiCad (PCBNEW (6.0.9)) date 2022-12-28 10:52:42*
%MOMM*%
%LPD*%
G01*
G04 APERTURE LIST*
G04 Aperture macros list*
%AMFreePoly0*
4,1,13,0.650001,0.228600,1.094000,0.228600,1.129355,0.213955,1.144000,0.178600,1.144000,-0.177000,1.129355,-0.212355,1.094000,-0.227000,0.650001,-0.227000,0.650000,-0.475000,-0.650000,-0.475000,-0.650000,0.475000,0.650000,0.475000,0.650001,0.228600,0.650001,0.228600,$1*%
%AMFreePoly1*
4,1,13,0.650000,-0.475000,-0.650000,-0.475000,-0.650000,-0.229000,-1.094000,-0.229000,-1.129356,-0.214355,-1.144000,-0.179000,-1.144000,0.176600,-1.129355,0.211955,-1.094000,0.226600,-0.650000,0.226599,-0.650000,0.475000,0.650000,0.475000,0.650000,-0.475000,0.650000,-0.475000,$1*%
G04 Aperture macros list end*
G04 #@! TA.AperFunction,ComponentPad*
%ADD10C,2.282000*%
G04 #@! TD*
G04 #@! TA.AperFunction,ComponentPad*
%ADD11O,2.500000X1.700000*%
G04 #@! TD*
G04 #@! TA.AperFunction,ComponentPad*
%ADD12C,2.500000*%
G04 #@! TD*
G04 #@! TA.AperFunction,ComponentPad*
%ADD13C,2.000000*%
G04 #@! TD*
G04 #@! TA.AperFunction,WasherPad*
%ADD14C,0.900000*%
G04 #@! TD*
G04 #@! TA.AperFunction,ComponentPad*
%ADD15O,2.750000X1.800000*%
G04 #@! TD*
G04 #@! TA.AperFunction,ComponentPad*
%ADD16C,1.397000*%
G04 #@! TD*
G04 #@! TA.AperFunction,ComponentPad*
%ADD17C,4.200000*%
G04 #@! TD*
G04 #@! TA.AperFunction,SMDPad,CuDef*
%ADD18FreePoly0,150.000000*%
G04 #@! TD*
G04 #@! TA.AperFunction,ComponentPad*
%ADD19C,0.457200*%
G04 #@! TD*
G04 #@! TA.AperFunction,SMDPad,CuDef*
%ADD20FreePoly1,150.000000*%
G04 #@! TD*
G04 #@! TA.AperFunction,SMDPad,CuDef*
%ADD21FreePoly0,195.000000*%
G04 #@! TD*
G04 #@! TA.AperFunction,SMDPad,CuDef*
%ADD22FreePoly1,195.000000*%
G04 #@! TD*
G04 #@! TA.AperFunction,ComponentPad*
%ADD23C,3.500000*%
G04 #@! TD*
G04 #@! TA.AperFunction,SMDPad,CuDef*
%ADD24FreePoly0,165.000000*%
G04 #@! TD*
G04 #@! TA.AperFunction,SMDPad,CuDef*
%ADD25FreePoly1,165.000000*%
G04 #@! TD*
G04 #@! TA.AperFunction,SMDPad,CuDef*
%ADD26FreePoly0,210.000000*%
G04 #@! TD*
G04 #@! TA.AperFunction,SMDPad,CuDef*
%ADD27FreePoly1,210.000000*%
G04 #@! TD*
G04 #@! TA.AperFunction,ComponentPad*
%ADD28C,3.000000*%
G04 #@! TD*
G04 #@! TA.AperFunction,ViaPad*
%ADD29C,0.800000*%
G04 #@! TD*
G04 #@! TA.AperFunction,ViaPad*
%ADD30C,0.450000*%
G04 #@! TD*
G04 #@! TA.AperFunction,Conductor*
%ADD31C,0.250000*%
G04 #@! TD*
G04 #@! TA.AperFunction,Conductor*
%ADD32C,0.200000*%
G04 #@! TD*
G04 APERTURE END LIST*
D10*
X143489900Y-109507000D03*
X138489900Y-107407000D03*
X228886719Y-114918602D03*
X232166846Y-119237255D03*
X100674888Y-63375312D03*
X95674888Y-61275312D03*
X82625489Y-91474809D03*
X77625489Y-89374809D03*
X64624400Y-63899199D03*
X59624400Y-61799199D03*
X64575000Y-97999199D03*
X59575000Y-95899199D03*
D11*
X30625000Y-98494199D03*
X22125000Y-94294199D03*
X25125000Y-94294199D03*
X29125000Y-94294199D03*
D10*
X215539900Y-83557000D03*
X210539900Y-81457000D03*
D12*
X27873000Y-103653199D03*
X237680900Y-103367000D03*
D10*
X46624400Y-66349199D03*
X41624400Y-64249199D03*
X143515500Y-75550032D03*
X138515500Y-73450032D03*
D13*
X226630900Y-93592000D03*
X226630900Y-100092000D03*
D14*
X235980900Y-67817000D03*
X232980900Y-67767000D03*
D10*
X64599400Y-80949199D03*
X59599400Y-78849199D03*
X197490500Y-81007000D03*
X192490500Y-78907000D03*
X197490500Y-64007000D03*
X192490500Y-61907000D03*
D15*
X226235900Y-73596907D03*
X226235900Y-76136907D03*
X226235900Y-78676907D03*
X226235900Y-81216907D03*
X226235900Y-83756907D03*
X226235900Y-86296907D03*
X226235900Y-88836907D03*
X242425900Y-88836907D03*
X242425900Y-86296907D03*
X242425900Y-83756907D03*
X242425900Y-81216907D03*
X242425900Y-78676907D03*
X242425900Y-76136907D03*
X242425900Y-73596907D03*
D16*
X233060900Y-72644907D03*
X235600900Y-72644907D03*
X233060900Y-75184907D03*
X235600900Y-75184907D03*
X229885900Y-80899907D03*
X229885900Y-78994907D03*
D10*
X161514900Y-63457000D03*
X156514900Y-61357000D03*
D14*
X29250000Y-67699199D03*
X26250000Y-67649199D03*
D10*
X82674889Y-57374809D03*
X77674889Y-55274809D03*
X46599400Y-83399199D03*
X41599400Y-81299199D03*
X161489900Y-80507000D03*
X156489900Y-78407000D03*
D17*
X152499755Y-95150030D03*
X220780910Y-106259963D03*
D18*
X225042767Y-124904172D03*
D19*
X224089793Y-124353972D03*
D20*
X221968377Y-123129172D03*
D19*
X222921551Y-123679026D03*
D10*
X33238525Y-114843880D03*
X38618652Y-114162533D03*
D21*
X57539518Y-116389795D03*
D19*
X56476614Y-116674600D03*
X55173283Y-117023412D03*
D22*
X54110482Y-117308603D03*
D23*
X237760931Y-114297934D03*
D12*
X22948000Y-103553199D03*
D10*
X161465500Y-97557000D03*
X156465500Y-95457000D03*
X118674889Y-75375310D03*
X113674889Y-73275310D03*
X118649889Y-92425310D03*
X113649889Y-90325310D03*
D17*
X188499755Y-95149529D03*
X206498754Y-66649534D03*
D10*
X100625488Y-97475312D03*
X95625488Y-95375312D03*
X208891932Y-106683038D03*
X213178042Y-110005577D03*
D19*
X206826612Y-116935697D03*
D24*
X207889516Y-117220502D03*
D25*
X204460480Y-116301694D03*
D19*
X205523488Y-116586112D03*
D23*
X226874580Y-64400157D03*
D10*
X179490500Y-74532000D03*
X174490500Y-72432000D03*
D11*
X231530900Y-94567000D03*
X240030900Y-98767000D03*
X237030900Y-98767000D03*
X233030900Y-98767000D03*
D17*
X152032753Y-60798530D03*
D19*
X38959221Y-123686899D03*
D26*
X39912195Y-123136699D03*
D19*
X37790579Y-124361153D03*
D27*
X36837805Y-124911699D03*
D10*
X82649889Y-74424809D03*
X77649889Y-72324809D03*
X179439900Y-91582000D03*
X174439900Y-89482000D03*
D28*
X188715792Y-58842072D03*
X206742685Y-78862965D03*
X186721792Y-96889858D03*
D10*
X46575000Y-100449199D03*
X41575000Y-98349199D03*
X143464900Y-92532000D03*
X138464900Y-90432000D03*
D13*
X35300000Y-93074199D03*
X35300000Y-99574199D03*
D10*
X215515500Y-66582000D03*
X210515500Y-64482000D03*
D28*
X75653239Y-96846982D03*
X55632346Y-78820089D03*
X73659239Y-58799196D03*
D12*
X232680900Y-103367000D03*
D10*
X100649888Y-80425312D03*
X95649888Y-78325312D03*
X197440500Y-98057000D03*
X192440500Y-95957000D03*
X53199416Y-106575548D03*
X58572565Y-107309897D03*
D23*
X241655902Y-64399700D03*
D10*
X179515500Y-57557000D03*
X174515500Y-55457000D03*
X215515500Y-100582000D03*
X210515500Y-98482000D03*
D15*
X20055000Y-73554106D03*
X20055000Y-76094106D03*
X20055000Y-78634106D03*
X20055000Y-81174106D03*
X20055000Y-83714106D03*
X20055000Y-86254106D03*
X20055000Y-88794106D03*
X36245000Y-88794106D03*
X36245000Y-86254106D03*
X36245000Y-83714106D03*
X36245000Y-81174106D03*
X36245000Y-78634106D03*
X36245000Y-76094106D03*
X36245000Y-73554106D03*
D16*
X26880000Y-72602106D03*
X29420000Y-72602106D03*
X26880000Y-75142106D03*
X29420000Y-75142106D03*
X23705000Y-80857106D03*
X23705000Y-78952106D03*
D10*
X118625489Y-109475310D03*
X113625489Y-107375310D03*
D17*
X73625489Y-95074807D03*
D23*
X20469342Y-64324978D03*
D17*
X41344334Y-106185241D03*
X110092491Y-60723808D03*
X109625489Y-95075308D03*
D23*
X24364313Y-114223212D03*
X35250664Y-64325435D03*
X109625489Y-92575308D03*
D17*
X55626490Y-66574812D03*
D29*
X223625000Y-70775000D03*
X214500000Y-87375000D03*
X217400000Y-87875000D03*
X197575000Y-95125000D03*
X205125000Y-110225000D03*
X36700000Y-96974199D03*
X43050000Y-76124199D03*
X43275000Y-96799199D03*
D30*
X44675000Y-87274199D03*
X48350000Y-87099199D03*
X115300000Y-103199199D03*
X116200000Y-107749199D03*
D29*
X21325000Y-91824199D03*
D30*
X39725000Y-119349199D03*
D29*
X156775000Y-115625000D03*
X230800000Y-109775000D03*
X170975000Y-43950000D03*
X227825000Y-112350000D03*
X200650000Y-113050000D03*
X226900000Y-69500000D03*
X211530900Y-48892000D03*
X210600000Y-115075000D03*
X21875000Y-69874199D03*
X234925000Y-78525000D03*
X235325000Y-87375000D03*
X236525000Y-79825000D03*
X194350000Y-113775000D03*
X237500000Y-91300000D03*
X224650000Y-104400000D03*
X222600000Y-102550000D03*
X185866718Y-49756599D03*
X212925000Y-59250000D03*
X194975000Y-56025000D03*
X183775000Y-54950000D03*
X221000000Y-82575000D03*
X240225000Y-87100000D03*
X240975000Y-90575000D03*
X36075000Y-103424199D03*
X27750000Y-111299199D03*
D30*
X46074900Y-86174199D03*
D29*
X23275000Y-90049199D03*
D30*
X104300000Y-95099199D03*
X104325000Y-69149199D03*
X104325000Y-71874199D03*
X28850000Y-108624199D03*
X45050000Y-104874199D03*
X103575000Y-97549199D03*
D29*
X24575500Y-87374199D03*
D30*
X68600000Y-85474199D03*
X38525000Y-83899199D03*
D29*
X239175000Y-84125000D03*
X22075000Y-72674199D03*
X25075000Y-98799199D03*
X32675000Y-95549199D03*
X26500000Y-105952699D03*
X33350000Y-103974199D03*
X29100000Y-100024199D03*
X30375000Y-102698699D03*
X61950000Y-103224199D03*
X30335201Y-92059400D03*
D31*
X226710900Y-73596907D02*
X226446907Y-73596907D01*
X226446907Y-73596907D02*
X223625000Y-70775000D01*
D32*
X214500000Y-87375000D02*
X205350000Y-87375000D01*
X205350000Y-87375000D02*
X199530001Y-93194999D01*
X199530001Y-93194999D02*
X199505001Y-93194999D01*
X199505001Y-93194999D02*
X197575000Y-95125000D01*
X216900000Y-87375000D02*
X217400000Y-87875000D01*
X214500000Y-87375000D02*
X216900000Y-87375000D01*
X221400000Y-88650000D02*
X222075000Y-87975000D01*
X226543993Y-81050000D02*
X226710900Y-81216907D01*
X205125000Y-97874169D02*
X214349169Y-88650000D01*
X205125000Y-110225000D02*
X205125000Y-97874169D01*
X222075000Y-87975000D02*
X222075000Y-81050000D01*
X222075000Y-81050000D02*
X226543993Y-81050000D01*
X214349169Y-88650000D02*
X221400000Y-88650000D01*
X42500000Y-82999199D02*
X38682537Y-82999199D01*
X38682537Y-82999199D02*
X37950000Y-83731736D01*
X37950000Y-95724199D02*
X36700000Y-96974199D01*
X43050000Y-76124199D02*
X43250000Y-76324199D01*
X43250000Y-82249199D02*
X42500000Y-82999199D01*
X43250000Y-76324199D02*
X43250000Y-82249199D01*
X37950000Y-83731736D02*
X37950000Y-95724199D01*
X44675000Y-87274199D02*
X48175000Y-87274199D01*
D31*
X43275000Y-96799199D02*
X43275000Y-88674199D01*
D32*
X48175000Y-87274199D02*
X48350000Y-87099199D01*
D31*
X43275000Y-88674199D02*
X44675000Y-87274199D01*
D32*
X116200000Y-107749199D02*
X116200000Y-104099199D01*
X116200000Y-104099199D02*
X115300000Y-103199199D01*
X32953363Y-112520836D02*
X34296637Y-112520836D01*
D31*
X26650000Y-110749199D02*
X26650000Y-112974199D01*
D32*
X32828363Y-112395836D02*
X32953363Y-112520836D01*
D31*
X29700000Y-113799199D02*
X31675000Y-111824199D01*
D32*
X34296637Y-112520836D02*
X36412500Y-114636699D01*
D31*
X18875000Y-94274199D02*
X18875000Y-102974199D01*
X18875000Y-102974199D02*
X26650000Y-110749199D01*
X21325000Y-91824199D02*
X18875000Y-94274199D01*
X27475000Y-113799199D02*
X29700000Y-113799199D01*
X32256726Y-111824199D02*
X32828363Y-112395836D01*
D32*
X36412500Y-116036699D02*
X39725000Y-119349199D01*
X36412500Y-114636699D02*
X36412500Y-116036699D01*
D31*
X31675000Y-111824199D02*
X32256726Y-111824199D01*
D32*
X32595000Y-112162473D02*
X32828363Y-112395836D01*
D31*
X26650000Y-112974199D02*
X27475000Y-113799199D01*
D32*
X160975000Y-47975000D02*
X166325000Y-47975000D01*
X157425000Y-54448569D02*
X157425000Y-53500000D01*
D31*
X227825000Y-112350000D02*
X228225000Y-112350000D01*
D32*
X158500000Y-52425000D02*
X158500000Y-50450000D01*
X219167584Y-60532416D02*
X226460169Y-67825000D01*
X228125000Y-68275000D02*
X226900000Y-69500000D01*
X211530900Y-51269100D02*
X216969100Y-51269100D01*
X220200000Y-54500000D02*
X219890199Y-54809801D01*
X226460169Y-67825000D02*
X228125000Y-67825000D01*
X219167584Y-58832416D02*
X219167584Y-60532416D01*
X168500000Y-45800000D02*
X168500000Y-45100000D01*
X155300000Y-114150000D02*
X155300000Y-104800000D01*
X169650000Y-43950000D02*
X170975000Y-43950000D01*
X211530900Y-48892000D02*
X211530900Y-51269100D01*
X168500000Y-45100000D02*
X169650000Y-43950000D01*
X200650000Y-113050000D02*
X202046501Y-114446501D01*
X219890199Y-58109801D02*
X219167584Y-58832416D01*
D31*
X228225000Y-112350000D02*
X230800000Y-109775000D01*
D32*
X228125000Y-67825000D02*
X228125000Y-68275000D01*
X158500000Y-50450000D02*
X160975000Y-47975000D01*
X202046501Y-114446501D02*
X209971501Y-114446501D01*
X155300000Y-104800000D02*
X146925000Y-96425000D01*
X156775000Y-115625000D02*
X155300000Y-114150000D01*
X166325000Y-47975000D02*
X168500000Y-45800000D01*
X157425000Y-53500000D02*
X158500000Y-52425000D01*
X150801470Y-58398530D02*
X153475039Y-58398530D01*
X216969100Y-51269100D02*
X220200000Y-54500000D01*
X219890199Y-54809801D02*
X219890199Y-58109801D01*
X146925000Y-62275000D02*
X150801470Y-58398530D01*
X209971501Y-114446501D02*
X210600000Y-115075000D01*
X146925000Y-96425000D02*
X146925000Y-62275000D01*
X153475039Y-58398530D02*
X157425000Y-54448569D01*
D31*
X33300000Y-89287803D02*
X33300000Y-91850366D01*
X26921141Y-97369200D02*
X26676140Y-97124199D01*
X33800000Y-88787803D02*
X33300000Y-89287803D01*
X25200000Y-76074199D02*
X27600000Y-78474199D01*
X25200000Y-73199199D02*
X25200000Y-76074199D01*
X33625000Y-92175366D02*
X33625000Y-93573894D01*
X25724695Y-97124199D02*
X24050000Y-98798894D01*
X33800000Y-78474199D02*
X33800000Y-88787803D01*
X27600000Y-78474199D02*
X33800000Y-78474199D01*
X31779696Y-95419198D02*
X31779696Y-97080493D01*
X27973860Y-97124199D02*
X27728859Y-97369200D01*
X31735990Y-97124199D02*
X27973860Y-97124199D01*
X26676140Y-97124199D02*
X25724695Y-97124199D01*
X33625000Y-93573894D02*
X31779696Y-95419198D01*
X24050000Y-98798894D02*
X24050000Y-99830199D01*
X24050000Y-99830199D02*
X27873000Y-103653199D01*
X31779696Y-97080493D02*
X31735990Y-97124199D01*
X27728859Y-97369200D02*
X26921141Y-97369200D01*
X21875000Y-69874199D02*
X25200000Y-73199199D01*
X33300000Y-91850366D02*
X33625000Y-92175366D01*
X229885900Y-80913026D02*
X230261781Y-81288907D01*
X230261781Y-81288907D02*
X232161093Y-81288907D01*
X232161093Y-81288907D02*
X234925000Y-78525000D01*
X229885900Y-80899907D02*
X229885900Y-80913026D01*
X236525000Y-79825000D02*
X236525000Y-86175000D01*
X236525000Y-86175000D02*
X235325000Y-87375000D01*
X231825000Y-77275000D02*
X231625000Y-77075000D01*
X224650000Y-104400000D02*
X224650000Y-110425000D01*
X237175000Y-76759007D02*
X235600900Y-75184907D01*
X237500000Y-91300000D02*
X237500000Y-80587807D01*
X237500000Y-80587807D02*
X241950900Y-76136907D01*
X237175000Y-77275000D02*
X237175000Y-76759007D01*
X238313093Y-76136907D02*
X237175000Y-77275000D01*
X241950900Y-76136907D02*
X238313093Y-76136907D01*
X229885900Y-78814100D02*
X229885900Y-78994907D01*
X202850000Y-119425000D02*
X202600000Y-119175000D01*
X231625000Y-77075000D02*
X229885900Y-78814100D01*
X197925000Y-114500000D02*
X194975000Y-114500000D01*
X224650000Y-110425000D02*
X215650000Y-119425000D01*
X202600000Y-119175000D02*
X197925000Y-114500000D01*
X194975000Y-114500000D02*
X194350000Y-113875000D01*
X194350000Y-113875000D02*
X194350000Y-113775000D01*
X215650000Y-119425000D02*
X202850000Y-119425000D01*
X237175000Y-77275000D02*
X231825000Y-77275000D01*
X34250000Y-88974199D02*
X33750000Y-89474199D01*
X33750000Y-89474199D02*
X33750000Y-91524199D01*
X29762092Y-78024199D02*
X34250000Y-78024199D01*
X27270348Y-75532454D02*
X29762092Y-78024199D01*
X34250000Y-78024199D02*
X34250000Y-88974199D01*
X33750000Y-91524199D02*
X35300000Y-93074199D01*
X190924755Y-106024755D02*
X203560225Y-118660225D01*
X214644042Y-115755958D02*
X214644042Y-108967363D01*
X221061405Y-102550000D02*
X222600000Y-102550000D01*
X185866718Y-49756599D02*
X186890792Y-50780673D01*
X190924755Y-92849755D02*
X190924755Y-106024755D01*
X214644042Y-108967363D02*
X221061405Y-102550000D01*
X211739775Y-118660225D02*
X214644042Y-115755958D01*
X186890792Y-50780673D02*
X186890792Y-88815792D01*
X186890792Y-88815792D02*
X190924755Y-92849755D01*
X203560225Y-118660225D02*
X211739775Y-118660225D01*
X228862400Y-73912400D02*
X217721501Y-62771501D01*
X173900000Y-48875000D02*
X161514900Y-61260100D01*
X228862400Y-84145407D02*
X228862400Y-73912400D01*
X161514900Y-61260100D02*
X161514900Y-63457000D01*
X189600000Y-53850000D02*
X189600000Y-51090708D01*
X187384292Y-48875000D02*
X173900000Y-48875000D01*
X189600000Y-51090708D02*
X187384292Y-48875000D01*
X198521501Y-62771501D02*
X189600000Y-53850000D01*
X217721501Y-62771501D02*
X198521501Y-62771501D01*
X226710900Y-86296907D02*
X228862400Y-84145407D01*
X212842099Y-59332901D02*
X212925000Y-59250000D01*
X183775000Y-54950000D02*
X181168000Y-57557000D01*
X198356000Y-56017499D02*
X201671402Y-59332901D01*
X194982501Y-56017499D02*
X198356000Y-56017499D01*
X181168000Y-57557000D02*
X179515500Y-57557000D01*
X194975000Y-56025000D02*
X194982501Y-56017499D01*
X201671402Y-59332901D02*
X212842099Y-59332901D01*
X218552000Y-85023000D02*
X201506500Y-85023000D01*
X201506500Y-85023000D02*
X197490500Y-81007000D01*
X221000000Y-82575000D02*
X218552000Y-85023000D01*
X240225000Y-87100000D02*
X240225000Y-89825000D01*
X240225000Y-89825000D02*
X240975000Y-90575000D01*
X27750000Y-111299199D02*
X30964244Y-111299199D01*
D32*
X106150000Y-95124199D02*
X106150000Y-96749199D01*
X110250000Y-98474199D02*
X110675000Y-98049199D01*
X46074900Y-86174199D02*
X52685399Y-79563700D01*
D31*
X21507547Y-84691652D02*
X20530000Y-83714106D01*
D32*
X104795881Y-93770080D02*
X106150000Y-95124199D01*
D31*
X36075000Y-106188443D02*
X36075000Y-103424199D01*
D32*
X113681373Y-92425310D02*
X118649889Y-92425310D01*
X106150000Y-96749199D02*
X107875000Y-98474199D01*
D31*
X21755000Y-84939106D02*
X21507547Y-84691652D01*
D32*
X81184489Y-92071691D02*
X82752611Y-93639813D01*
X104795881Y-93639813D02*
X104795881Y-93770080D01*
X52685399Y-79563700D02*
X53832346Y-79563700D01*
D31*
X30964244Y-111299199D02*
X36075000Y-106188443D01*
D32*
X111150000Y-98049199D02*
X112025489Y-97173710D01*
X112025489Y-97173710D02*
X112025489Y-94081195D01*
D31*
X23275000Y-90049199D02*
X23275000Y-86459105D01*
D32*
X110675000Y-98049199D02*
X111150000Y-98049199D01*
X58640580Y-84373908D02*
X77622919Y-84373908D01*
X53832346Y-79565674D02*
X58640580Y-84373908D01*
X82752611Y-93639813D02*
X104795881Y-93639813D01*
X53832346Y-79563700D02*
X53832346Y-79565674D01*
X107875000Y-98474199D02*
X110250000Y-98474199D01*
X77622919Y-84373908D02*
X81184489Y-87935478D01*
X112025489Y-94081195D02*
X113681373Y-92425310D01*
D31*
X23275000Y-86459105D02*
X21507547Y-84691652D01*
D32*
X81184489Y-87935478D02*
X81184489Y-92071691D01*
X25550000Y-106049199D02*
X24325000Y-106049199D01*
X104200000Y-71999199D02*
X104325000Y-71874199D01*
D31*
X24575500Y-91349699D02*
X24875000Y-91649199D01*
D32*
X24125000Y-106249199D02*
X23075000Y-106249199D01*
X28125000Y-108624199D02*
X25550000Y-106049199D01*
X103575000Y-95824199D02*
X104300000Y-95099199D01*
D31*
X19349999Y-95007499D02*
X19349999Y-97149200D01*
D32*
X19349999Y-97374198D02*
X19349999Y-97149200D01*
D31*
X21408299Y-92949199D02*
X19349999Y-95007499D01*
D32*
X21200000Y-102824199D02*
X22225000Y-101799199D01*
X93226601Y-104874199D02*
X100625488Y-97475312D01*
X103575000Y-97549199D02*
X103575000Y-95824199D01*
X22225000Y-101799199D02*
X22523000Y-101799199D01*
X45050000Y-104874199D02*
X93226601Y-104874199D01*
X28850000Y-108624199D02*
X28125000Y-108624199D01*
D31*
X24875000Y-91649199D02*
X23575000Y-92949199D01*
D32*
X24325000Y-106049199D02*
X24125000Y-106249199D01*
D31*
X23575000Y-92949199D02*
X21408299Y-92949199D01*
D32*
X21200000Y-104374199D02*
X21200000Y-102824199D01*
D31*
X24575500Y-87374199D02*
X24575500Y-91349699D01*
D32*
X23075000Y-106249199D02*
X21200000Y-104374199D01*
X22523000Y-100547199D02*
X19349999Y-97374198D01*
X22523000Y-101799199D02*
X22523000Y-100547199D01*
X104325000Y-69149199D02*
X104325000Y-71874199D01*
X59525000Y-55899199D02*
X76360392Y-55899199D01*
X76360392Y-55899199D02*
X77836002Y-57374809D01*
X38525000Y-74227167D02*
X38525000Y-81324199D01*
X40713984Y-72038183D02*
X44559899Y-68192268D01*
X84714390Y-59414310D02*
X84714390Y-72360308D01*
X77836002Y-57374809D02*
X82674889Y-57374809D01*
X84689990Y-76464910D02*
X84689990Y-89410308D01*
X38525000Y-81324199D02*
X38600000Y-81399199D01*
X44559899Y-68192268D02*
X47231931Y-68192268D01*
X38600000Y-81399199D02*
X35995093Y-81399199D01*
X82649889Y-74424809D02*
X84689990Y-76464910D01*
X84689990Y-89410308D02*
X82625489Y-91474809D01*
X40713984Y-72038183D02*
X38525000Y-74227167D01*
X84714390Y-72360308D02*
X82649889Y-74424809D01*
X35995093Y-81399199D02*
X35770000Y-81174106D01*
X82674889Y-57374809D02*
X84714390Y-59414310D01*
X47231931Y-68192268D02*
X59525000Y-55899199D01*
D31*
X52965714Y-63899199D02*
X53525000Y-63899199D01*
X39873499Y-76991414D02*
X52965714Y-63899199D01*
X38506497Y-82574199D02*
X40550000Y-82574199D01*
D32*
X53525000Y-63899199D02*
X64624400Y-63899199D01*
X68600000Y-85474199D02*
X68600000Y-92949199D01*
X53001069Y-63899199D02*
X53525000Y-63899199D01*
X66663901Y-65938700D02*
X64624400Y-63899199D01*
D31*
X39775000Y-80774199D02*
X40650000Y-79899199D01*
X40650000Y-79899199D02*
X40650000Y-78783485D01*
D32*
X67450000Y-95124199D02*
X64575000Y-97999199D01*
D31*
X40550000Y-82574199D02*
X39775000Y-81799199D01*
X39873499Y-78006984D02*
X39873499Y-76991414D01*
D32*
X68600000Y-92949199D02*
X67450000Y-94099199D01*
D31*
X37525000Y-83555696D02*
X38506497Y-82574199D01*
D32*
X64599400Y-80949199D02*
X66663901Y-78884698D01*
D31*
X35770000Y-83714106D02*
X37525000Y-83714106D01*
D32*
X66663901Y-78884698D02*
X66663901Y-65938700D01*
D31*
X37525000Y-83714106D02*
X37525000Y-83555696D01*
X40650000Y-78783485D02*
X39873499Y-78006984D01*
D32*
X67450000Y-94099199D02*
X67450000Y-95124199D01*
D31*
X39775000Y-81799199D02*
X39775000Y-80774199D01*
D32*
X38525000Y-83899199D02*
X39025000Y-83399199D01*
X39025000Y-83399199D02*
X46599400Y-83399199D01*
D31*
X239175000Y-81452807D02*
X241950900Y-78676907D01*
X239175000Y-84125000D02*
X239175000Y-81452807D01*
X23682907Y-80857106D02*
X22075000Y-79249199D01*
X23705000Y-80857106D02*
X23682907Y-80857106D01*
X22075000Y-79249199D02*
X22075000Y-72674199D01*
X25425000Y-98799199D02*
X30049500Y-103423699D01*
X32675000Y-101424004D02*
X32675000Y-95549199D01*
X30675305Y-103423699D02*
X32675000Y-101424004D01*
X25075000Y-98799199D02*
X25425000Y-98799199D01*
X30049500Y-103423699D02*
X30675305Y-103423699D01*
X27246500Y-106699199D02*
X30625000Y-106699199D01*
X29100000Y-100024199D02*
X30375000Y-101299199D01*
X26500000Y-105952699D02*
X27246500Y-106699199D01*
X30375000Y-101299199D02*
X30375000Y-102698699D01*
X30625000Y-106699199D02*
X33350000Y-103974199D01*
X23705000Y-72904199D02*
X21025000Y-70224199D01*
X20675000Y-70224199D02*
X20675000Y-68749199D01*
X27359799Y-92059400D02*
X25125000Y-94294199D01*
X29646000Y-105228199D02*
X35300000Y-99574199D01*
X61950000Y-103224199D02*
X38050000Y-103224199D01*
X22948000Y-96471199D02*
X22948000Y-103553199D01*
X30335201Y-92059400D02*
X27359799Y-92059400D01*
X21025000Y-70224199D02*
X20675000Y-70224199D01*
X29420000Y-75142106D02*
X30372000Y-76094106D01*
X31600000Y-71224199D02*
X31600000Y-72962106D01*
X24650000Y-71224199D02*
X31600000Y-71224199D01*
X21950000Y-68524199D02*
X24650000Y-71224199D01*
X35375000Y-99949199D02*
X35375000Y-95249199D01*
X35075000Y-100249199D02*
X35375000Y-99949199D01*
X22948000Y-103553199D02*
X24623000Y-105228199D01*
X31600000Y-72962106D02*
X29810249Y-74751857D01*
X38050000Y-103224199D02*
X35075000Y-100249199D01*
X20675000Y-68749199D02*
X20900000Y-68524199D01*
X30372000Y-76094106D02*
X35770000Y-76094106D01*
X25125000Y-94294199D02*
X22948000Y-96471199D01*
X24623000Y-105228199D02*
X29646000Y-105228199D01*
X20900000Y-68524199D02*
X21950000Y-68524199D01*
X23705000Y-78952106D02*
X23705000Y-72904199D01*
M02*
