G04 #@! TF.GenerationSoftware,KiCad,Pcbnew,(6.0.9)*
G04 #@! TF.CreationDate,2023-01-06T00:22:53-03:00*
G04 #@! TF.ProjectId,pulso - hybrid -rev2,70756c73-6f20-42d2-9068-796272696420,0.3*
G04 #@! TF.SameCoordinates,Original*
G04 #@! TF.FileFunction,Paste,Bot*
G04 #@! TF.FilePolarity,Positive*
%FSLAX46Y46*%
G04 Gerber Fmt 4.6, Leading zero omitted, Abs format (unit mm)*
G04 Created by KiCad (PCBNEW (6.0.9)) date 2023-01-06 00:22:53*
%MOMM*%
%LPD*%
G01*
G04 APERTURE LIST*
G04 Aperture macros list*
%AMRotRect*
0 Rectangle, with rotation*
0 The origin of the aperture is its center*
0 $1 length*
0 $2 width*
0 $3 Rotation angle, in degrees counterclockwise*
0 Add horizontal line*
21,1,$1,$2,0,0,$3*%
G04 Aperture macros list end*
%ADD10R,1.990000X2.470000*%
%ADD11R,1.730000X2.000000*%
%ADD12R,1.690000X2.020000*%
%ADD13R,1.970000X2.460000*%
%ADD14RotRect,1.990000X2.470000X150.000000*%
%ADD15RotRect,1.730000X2.000000X150.000000*%
%ADD16RotRect,1.970000X2.460000X150.000000*%
%ADD17RotRect,1.690000X2.020000X150.000000*%
%ADD18RotRect,1.990000X2.470000X165.000000*%
%ADD19RotRect,1.730000X2.000000X165.000000*%
%ADD20RotRect,1.970000X2.460000X165.000000*%
%ADD21RotRect,1.690000X2.020000X165.000000*%
%ADD22R,1.700000X0.900000*%
%ADD23R,0.700000X1.000000*%
%ADD24R,1.000000X2.800000*%
%ADD25R,1.270000X5.080000*%
%ADD26R,3.960000X3.960000*%
%ADD27RotRect,1.990000X2.470000X15.000000*%
%ADD28RotRect,1.730000X2.000000X15.000000*%
%ADD29RotRect,1.970000X2.460000X15.000000*%
%ADD30RotRect,1.690000X2.020000X15.000000*%
%ADD31RotRect,1.990000X2.470000X30.000000*%
%ADD32RotRect,1.730000X2.000000X30.000000*%
%ADD33RotRect,1.970000X2.460000X30.000000*%
%ADD34RotRect,1.690000X2.020000X30.000000*%
G04 APERTURE END LIST*
D10*
X154980000Y-70170000D03*
D11*
X153660000Y-76425000D03*
D12*
X164320000Y-78635000D03*
D13*
X167110000Y-67675000D03*
D10*
X212005000Y-75695000D03*
D11*
X210685000Y-81950000D03*
D13*
X224135000Y-73200000D03*
D12*
X221345000Y-84160000D03*
D11*
X153660000Y-114425000D03*
D10*
X154980000Y-108170000D03*
D12*
X164320000Y-116635000D03*
D13*
X167110000Y-105675000D03*
D11*
X55975000Y-84433000D03*
D10*
X57295000Y-78178000D03*
D12*
X66635000Y-86643000D03*
D13*
X69425000Y-75683000D03*
D10*
X212005000Y-56695000D03*
D11*
X210685000Y-62950000D03*
D12*
X221345000Y-65160000D03*
D13*
X224135000Y-54200000D03*
D10*
X230960000Y-97178000D03*
D11*
X229640000Y-103433000D03*
D12*
X240300000Y-105643000D03*
D13*
X243090000Y-94683000D03*
D10*
X95275000Y-52070000D03*
D11*
X93955000Y-58325000D03*
D12*
X104615000Y-60535000D03*
D13*
X107405000Y-49575000D03*
D11*
X74955000Y-62893000D03*
D10*
X76275000Y-56638000D03*
D13*
X88405000Y-54143000D03*
D12*
X85615000Y-65103000D03*
D11*
X93955000Y-96325000D03*
D10*
X95275000Y-90070000D03*
D13*
X107405000Y-87575000D03*
D12*
X104615000Y-98535000D03*
D11*
X172662500Y-64587500D03*
D10*
X173982500Y-58332500D03*
D13*
X186112500Y-55837500D03*
D12*
X183322500Y-66797500D03*
D14*
X243097761Y-122693805D03*
D15*
X238827108Y-127450794D03*
D16*
X254850149Y-126598072D03*
D17*
X246953938Y-134694710D03*
D18*
X222132634Y-115812960D03*
D19*
X219238699Y-121513184D03*
D20*
X234495068Y-116542450D03*
D21*
X228963478Y-126406892D03*
D11*
X191660000Y-77325000D03*
D10*
X192980000Y-71070000D03*
D13*
X205110000Y-68575000D03*
D12*
X202320000Y-79535000D03*
D11*
X55975000Y-103433000D03*
D10*
X57295000Y-97178000D03*
D12*
X66635000Y-105643000D03*
D13*
X69425000Y-94683000D03*
D10*
X133275000Y-70170000D03*
D11*
X131955000Y-76425000D03*
D12*
X142615000Y-78635000D03*
D13*
X145405000Y-67675000D03*
D11*
X172662500Y-83587500D03*
D10*
X173982500Y-77332500D03*
D12*
X183322500Y-85797500D03*
D13*
X186112500Y-74837500D03*
D11*
X112955000Y-102550000D03*
D10*
X114275000Y-96295000D03*
D13*
X126405000Y-93800000D03*
D12*
X123615000Y-104760000D03*
D11*
X131955000Y-114425000D03*
D10*
X133275000Y-108170000D03*
D13*
X145405000Y-105675000D03*
D12*
X142615000Y-116635000D03*
D10*
X133275000Y-89170000D03*
D11*
X131955000Y-95425000D03*
D12*
X142615000Y-97635000D03*
D13*
X145405000Y-86675000D03*
D10*
X212005000Y-94695000D03*
D11*
X210685000Y-100950000D03*
D13*
X224135000Y-92200000D03*
D12*
X221345000Y-103160000D03*
D11*
X93955000Y-77325000D03*
D10*
X95275000Y-71070000D03*
D12*
X104615000Y-79535000D03*
D13*
X107405000Y-68575000D03*
D11*
X191660000Y-96325000D03*
D10*
X192980000Y-90070000D03*
D13*
X205110000Y-87575000D03*
D12*
X202320000Y-98535000D03*
D10*
X114275000Y-77295000D03*
D11*
X112955000Y-83550000D03*
D12*
X123615000Y-85760000D03*
D13*
X126405000Y-74800000D03*
D10*
X230960000Y-59178000D03*
D11*
X229640000Y-65433000D03*
D13*
X243090000Y-56683000D03*
D12*
X240300000Y-67643000D03*
D10*
X57295000Y-59178000D03*
D11*
X55975000Y-65433000D03*
D13*
X69425000Y-56683000D03*
D12*
X66635000Y-67643000D03*
D11*
X74955000Y-81893000D03*
D10*
X76275000Y-75638000D03*
D12*
X85615000Y-84103000D03*
D13*
X88405000Y-73143000D03*
D10*
X76230000Y-94645000D03*
D11*
X74910000Y-100900000D03*
D13*
X88360000Y-92150000D03*
D12*
X85570000Y-103110000D03*
D11*
X229640000Y-84433000D03*
D10*
X230960000Y-78178000D03*
D12*
X240300000Y-86643000D03*
D13*
X243090000Y-75683000D03*
D11*
X153660000Y-95425000D03*
D10*
X154980000Y-89170000D03*
D13*
X167110000Y-86675000D03*
D12*
X164320000Y-97635000D03*
D10*
X192980000Y-52070000D03*
D11*
X191660000Y-58325000D03*
D13*
X205110000Y-49575000D03*
D12*
X202320000Y-60535000D03*
D10*
X173982500Y-96332500D03*
D11*
X172662500Y-102587500D03*
D13*
X186112500Y-93837500D03*
D12*
X183322500Y-104797500D03*
D11*
X112955000Y-64550000D03*
D10*
X114275000Y-58295000D03*
D12*
X123615000Y-66760000D03*
D13*
X126405000Y-55800000D03*
D22*
X248914000Y-112783000D03*
X248914000Y-116183000D03*
D23*
X254125000Y-81080000D03*
X257125000Y-81080000D03*
X258625000Y-81080000D03*
D24*
X252525000Y-79180000D03*
X260475000Y-79180000D03*
D25*
X210485000Y-112950000D03*
X188515000Y-112950000D03*
D26*
X199500000Y-112950000D03*
D23*
X43350000Y-81075000D03*
X46350000Y-81075000D03*
X47850000Y-81075000D03*
D24*
X49700000Y-79175000D03*
X41750000Y-79175000D03*
D27*
X66555893Y-119257841D03*
D28*
X66899784Y-125641348D03*
D29*
X77626820Y-113708381D03*
D30*
X77768543Y-125017033D03*
D31*
X46937761Y-129338805D03*
D32*
X48922108Y-135415794D03*
D33*
X56195149Y-121113072D03*
D34*
X59258938Y-131999710D03*
D25*
X90915000Y-112800000D03*
X112885000Y-112800000D03*
D26*
X101900000Y-112800000D03*
D22*
X52629000Y-112783000D03*
X52629000Y-116183000D03*
M02*
