G04 #@! TF.GenerationSoftware,KiCad,Pcbnew,(6.0.9)*
G04 #@! TF.CreationDate,2023-01-06T00:22:53-03:00*
G04 #@! TF.ProjectId,pulso - hybrid -rev2,70756c73-6f20-42d2-9068-796272696420,0.3*
G04 #@! TF.SameCoordinates,Original*
G04 #@! TF.FileFunction,Paste,Top*
G04 #@! TF.FilePolarity,Positive*
%FSLAX46Y46*%
G04 Gerber Fmt 4.6, Leading zero omitted, Abs format (unit mm)*
G04 Created by KiCad (PCBNEW (6.0.9)) date 2023-01-06 00:22:53*
%MOMM*%
%LPD*%
G01*
G04 APERTURE LIST*
%ADD10R,1.800000X1.500000*%
%ADD11R,1.700000X0.900000*%
G04 APERTURE END LIST*
D10*
X65575000Y-89725000D03*
X62175000Y-89725000D03*
X220350000Y-69675000D03*
X216950000Y-69675000D03*
X103825000Y-101675000D03*
X100425000Y-101675000D03*
X122375000Y-70775000D03*
X118975000Y-70775000D03*
X65675000Y-71100000D03*
X62275000Y-71100000D03*
X239425000Y-70850000D03*
X236025000Y-70850000D03*
X103775000Y-83225000D03*
X100375000Y-83225000D03*
D11*
X52631000Y-112783000D03*
X52631000Y-116183000D03*
D10*
X182325000Y-71275000D03*
X178925000Y-71275000D03*
X201425000Y-82325000D03*
X198025000Y-82325000D03*
X220325000Y-88550000D03*
X216925000Y-88550000D03*
X65925000Y-109200000D03*
X62525000Y-109200000D03*
X141450000Y-82850000D03*
X138050000Y-82850000D03*
X122525000Y-89725000D03*
X119125000Y-89725000D03*
X141525000Y-63975000D03*
X138125000Y-63975000D03*
X182250000Y-90275000D03*
X178850000Y-90275000D03*
D11*
X248916000Y-112783000D03*
X248916000Y-116183000D03*
D10*
X201375000Y-63900000D03*
X197975000Y-63900000D03*
X201450000Y-101100000D03*
X198050000Y-101100000D03*
X141450000Y-101775000D03*
X138050000Y-101775000D03*
X163600000Y-63675000D03*
X160200000Y-63675000D03*
X182725000Y-52225000D03*
X179325000Y-52225000D03*
X239425000Y-89450000D03*
X236025000Y-89450000D03*
X239400000Y-108300000D03*
X236000000Y-108300000D03*
X163400000Y-83175000D03*
X160000000Y-83175000D03*
X103625000Y-64250000D03*
X100225000Y-64250000D03*
X84725000Y-88025000D03*
X81325000Y-88025000D03*
X220175000Y-50775000D03*
X216775000Y-50775000D03*
X84725000Y-50325000D03*
X81325000Y-50325000D03*
X122025000Y-52275000D03*
X118625000Y-52275000D03*
X163600000Y-102075000D03*
X160200000Y-102075000D03*
X84625000Y-69200000D03*
X81225000Y-69200000D03*
M02*
