G04 #@! TF.GenerationSoftware,KiCad,Pcbnew,(6.0.9)*
G04 #@! TF.CreationDate,2023-01-06T00:22:53-03:00*
G04 #@! TF.ProjectId,pulso - hybrid -rev2,70756c73-6f20-42d2-9068-796272696420,0.3*
G04 #@! TF.SameCoordinates,Original*
G04 #@! TF.FileFunction,Profile,NP*
%FSLAX46Y46*%
G04 Gerber Fmt 4.6, Leading zero omitted, Abs format (unit mm)*
G04 Created by KiCad (PCBNEW (6.0.9)) date 2023-01-06 00:22:53*
%MOMM*%
%LPD*%
G01*
G04 APERTURE LIST*
G04 #@! TA.AperFunction,Profile*
%ADD10C,0.050000*%
G04 #@! TD*
G04 #@! TA.AperFunction,Profile*
%ADD11C,0.120000*%
G04 #@! TD*
G04 APERTURE END LIST*
D10*
X152083750Y-113919873D02*
X152083001Y-118267999D01*
X152083750Y-113919873D02*
X151766250Y-113919873D01*
X246653241Y-54517480D02*
G75*
G03*
X202468227Y-45188504I-51477641J-134512920D01*
G01*
X148027000Y-61947999D02*
G75*
G03*
X103052000Y-45193000I-44975000J-51985101D01*
G01*
X247082983Y-76593917D02*
G75*
G03*
X248083000Y-77593917I1000017J17D01*
G01*
X154393000Y-120199571D02*
X154118002Y-120198917D01*
X248083000Y-77593917D02*
X264787000Y-77591000D01*
X149471750Y-66420000D02*
X149454141Y-63962320D01*
X152083750Y-66420000D02*
X151766250Y-66420000D01*
X149454141Y-63962320D02*
G75*
G03*
X148027000Y-61948000I-3872141J-1230680D01*
G01*
X247083000Y-76593917D02*
X247088000Y-55198000D01*
X265537000Y-78341000D02*
G75*
G03*
X264787000Y-77591000I-750000J0D01*
G01*
X198493000Y-45193001D02*
G75*
G03*
X153518000Y-61948000I0J-68740099D01*
G01*
X35996000Y-111973000D02*
X36008000Y-109453500D01*
X152083750Y-71500000D02*
X152083750Y-108839873D01*
X149471750Y-113919873D02*
X149461999Y-118267999D01*
X54457000Y-55198000D02*
X54462000Y-76593917D01*
X263786679Y-119338657D02*
X252335000Y-139424265D01*
X149861250Y-108839873D02*
X149471750Y-108839873D01*
X149471750Y-108839873D02*
X149471750Y-71500000D01*
X36758000Y-77591000D02*
G75*
G03*
X36008000Y-78341000I0J-750000D01*
G01*
X99076773Y-45188505D02*
G75*
G03*
X54891755Y-54517470I7292597J-143841915D01*
G01*
X247088000Y-55198000D02*
G75*
G03*
X246653245Y-54517470I-750000J0D01*
G01*
X149861250Y-66420000D02*
X149471750Y-66420000D01*
X151766164Y-71500035D02*
G75*
G03*
X149861251Y-71500000I-952464J-380965D01*
G01*
X152083750Y-108839873D02*
X151766250Y-108839873D01*
X35995999Y-111973000D02*
G75*
G03*
X37758321Y-119338657I16818201J130300D01*
G01*
X152083002Y-118267999D02*
G75*
G03*
X154118002Y-120198917I1999998J69999D01*
G01*
X49210000Y-139424265D02*
X37758321Y-119338657D01*
X49210000Y-139424265D02*
G75*
G03*
X51942000Y-140023000I1662000J1051265D01*
G01*
X265537000Y-78341000D02*
X265537000Y-109453500D01*
X149861250Y-113919873D02*
X149471750Y-113919873D01*
X149861336Y-108839838D02*
G75*
G03*
X151766249Y-108839873I952464J380938D01*
G01*
X149861250Y-71500000D02*
X149471750Y-71500000D01*
X249603000Y-140023000D02*
G75*
G03*
X252335000Y-139424265I1070000J1650000D01*
G01*
X263786678Y-119338657D02*
G75*
G03*
X265549000Y-111973000I-15055878J7495957D01*
G01*
X202468227Y-45188504D02*
X198493000Y-45193000D01*
X249603000Y-140023000D02*
G75*
G03*
X224422707Y-129109137I-46730000J-73310000D01*
G01*
X152083750Y-66420000D02*
X152090859Y-63962320D01*
X36008000Y-109453500D02*
X36008000Y-78341000D01*
X152083750Y-71500000D02*
X151766250Y-71500000D01*
X153518000Y-61948000D02*
G75*
G03*
X152090859Y-63962320I2445000J-3245000D01*
G01*
X151766164Y-113919908D02*
G75*
G03*
X149861251Y-113919873I-952464J-380992D01*
G01*
X103052000Y-45193000D02*
X99076773Y-45188504D01*
X147152000Y-120199571D02*
G75*
G03*
X77122293Y-129109137I279940J-281873899D01*
G01*
X147426998Y-120198917D02*
X147152000Y-120199571D01*
X149861336Y-66419965D02*
G75*
G03*
X151766249Y-66420000I952464J380965D01*
G01*
X36758000Y-77591000D02*
X53462000Y-77593917D01*
X224422710Y-129109127D02*
G75*
G03*
X154393000Y-120199571I-70309610J-272964373D01*
G01*
X77122293Y-129109137D02*
G75*
G03*
X51942000Y-140023000I21549707J-84223863D01*
G01*
X265537000Y-109453500D02*
X265549000Y-111973000D01*
X147426998Y-120198918D02*
G75*
G03*
X149461999Y-118267999I35002J2000918D01*
G01*
X54891755Y-54517470D02*
G75*
G03*
X54457000Y-55198000I315245J-680530D01*
G01*
X53462000Y-77593900D02*
G75*
G03*
X54462000Y-76593917I0J1000000D01*
G01*
D11*
X254551000Y-85786200D02*
X254551000Y-84109800D01*
X254043000Y-90155000D02*
X254043000Y-91806000D01*
X253662000Y-92187000D02*
X252061800Y-92187000D01*
X255236800Y-83424000D02*
X256913200Y-83424000D01*
X255236800Y-86472000D02*
X256913200Y-86472000D01*
X257599000Y-85786200D02*
X257599000Y-84109800D01*
X252061800Y-89774000D02*
X253662000Y-89774000D01*
X251376000Y-91501200D02*
X251376000Y-90459800D01*
X256913200Y-83424000D02*
G75*
G03*
X257599000Y-84109800I438050J-247750D01*
G01*
X254043000Y-90155000D02*
G75*
G03*
X253662000Y-89774000I-380999J1D01*
G01*
X251376000Y-90459800D02*
G75*
G03*
X252061800Y-89774000I247753J438047D01*
G01*
X255236800Y-86472000D02*
G75*
G03*
X254551000Y-85786200I-438047J247753D01*
G01*
X252061800Y-92187000D02*
G75*
G03*
X251376000Y-91501200I-438047J247753D01*
G01*
X253662000Y-92187000D02*
G75*
G03*
X254043000Y-91806000I1J380999D01*
G01*
X257599000Y-85786200D02*
G75*
G03*
X256913200Y-86472000I-247753J-438047D01*
G01*
X254551000Y-84109800D02*
G75*
G03*
X255236800Y-83424000I247753J438047D01*
G01*
X44251000Y-85111107D02*
X44251000Y-83434707D01*
X41076000Y-90826107D02*
X41076000Y-89784707D01*
X44936800Y-85796907D02*
X46613200Y-85796907D01*
X41761800Y-89098907D02*
X43362000Y-89098907D01*
X44936800Y-82748907D02*
X46613200Y-82748907D01*
X43362000Y-91511907D02*
X41761800Y-91511907D01*
X43743000Y-89479907D02*
X43743000Y-91130907D01*
X47299000Y-85111107D02*
X47299000Y-83434707D01*
X43743000Y-89479907D02*
G75*
G03*
X43362000Y-89098907I-380999J1D01*
G01*
X41076000Y-89784707D02*
G75*
G03*
X41761800Y-89098907I247753J438047D01*
G01*
X44251000Y-83434707D02*
G75*
G03*
X44936800Y-82748907I247753J438047D01*
G01*
X46613200Y-82748907D02*
G75*
G03*
X47299000Y-83434707I438050J-247750D01*
G01*
X41761800Y-91511907D02*
G75*
G03*
X41076000Y-90826107I-438047J247753D01*
G01*
X44936800Y-85796907D02*
G75*
G03*
X44251000Y-85111107I-438047J247753D01*
G01*
X43362000Y-91511907D02*
G75*
G03*
X43743000Y-91130907I1J380999D01*
G01*
X47299000Y-85111107D02*
G75*
G03*
X46613200Y-85796907I-247753J-438047D01*
G01*
M02*
