G04 #@! TF.GenerationSoftware,KiCad,Pcbnew,(6.0.9)*
G04 #@! TF.CreationDate,2023-01-06T00:22:53-03:00*
G04 #@! TF.ProjectId,pulso - hybrid -rev2,70756c73-6f20-42d2-9068-796272696420,0.3*
G04 #@! TF.SameCoordinates,Original*
G04 #@! TF.FileFunction,OtherDrawing,Comment*
%FSLAX46Y46*%
G04 Gerber Fmt 4.6, Leading zero omitted, Abs format (unit mm)*
G04 Created by KiCad (PCBNEW (6.0.9)) date 2023-01-06 00:22:53*
%MOMM*%
%LPD*%
G01*
G04 APERTURE LIST*
%ADD10C,0.060000*%
%ADD11C,0.050000*%
%ADD12C,0.120000*%
%ADD13C,0.150000*%
G04 APERTURE END LIST*
D10*
X149530000Y-66410000D02*
X152070000Y-66410000D01*
X149530000Y-71490000D02*
X152070000Y-71490000D01*
X152070000Y-66410000D02*
X152070000Y-71490000D01*
X149530000Y-71490000D02*
X149530000Y-66410000D01*
D11*
X150860000Y-66029000D02*
G75*
G03*
X150860000Y-66029000I-60000J0D01*
G01*
X150860000Y-71871000D02*
G75*
G03*
X150860000Y-71871000I-60000J0D01*
G01*
D12*
X250789189Y-85464187D02*
X252567189Y-85464187D01*
X252567189Y-85464187D02*
X252567189Y-88131187D01*
X252567189Y-88131187D02*
X250789189Y-88131187D01*
X250789189Y-88131187D02*
X250789189Y-85464187D01*
X259425197Y-85464187D02*
X261203197Y-85464187D01*
X261203197Y-85464187D02*
X261203197Y-88131187D01*
X261203197Y-88131187D02*
X259425197Y-88131187D01*
X259425197Y-88131187D02*
X259425197Y-85464187D01*
X247185000Y-102750000D02*
X264965000Y-102750000D01*
X264965000Y-102750000D02*
X264965000Y-81750000D01*
X264965000Y-81750000D02*
X247185000Y-81750000D01*
X247185000Y-81750000D02*
X247185000Y-102750000D01*
X252567189Y-84067187D02*
X250789189Y-84067187D01*
X250789189Y-84067187D02*
X250789189Y-81400187D01*
X250789189Y-81400187D02*
X252567189Y-81400187D01*
X252567189Y-81400187D02*
X252567189Y-84067187D01*
X259425197Y-81400187D02*
X261203197Y-81400187D01*
X261203197Y-81400187D02*
X261203197Y-84067187D01*
X261203197Y-84067187D02*
X259425197Y-84067187D01*
X259425197Y-84067187D02*
X259425197Y-81400187D01*
D10*
X149555000Y-108835000D02*
X152095000Y-108835000D01*
X149555000Y-113915000D02*
X152095000Y-113915000D01*
X149555000Y-113915000D02*
X149555000Y-108835000D01*
X152095000Y-108835000D02*
X152095000Y-113915000D01*
D11*
X150885000Y-108454000D02*
G75*
G03*
X150885000Y-108454000I-60000J0D01*
G01*
X150885000Y-114296000D02*
G75*
G03*
X150885000Y-114296000I-60000J0D01*
G01*
D12*
X49125197Y-84789094D02*
X50903197Y-84789094D01*
X50903197Y-84789094D02*
X50903197Y-87456094D01*
X50903197Y-87456094D02*
X49125197Y-87456094D01*
X49125197Y-87456094D02*
X49125197Y-84789094D01*
X49125197Y-80725094D02*
X50903197Y-80725094D01*
X50903197Y-80725094D02*
X50903197Y-83392094D01*
X50903197Y-83392094D02*
X49125197Y-83392094D01*
X49125197Y-83392094D02*
X49125197Y-80725094D01*
X40489189Y-84789094D02*
X42267189Y-84789094D01*
X42267189Y-84789094D02*
X42267189Y-87456094D01*
X42267189Y-87456094D02*
X40489189Y-87456094D01*
X40489189Y-87456094D02*
X40489189Y-84789094D01*
X36885000Y-102074907D02*
X54665000Y-102074907D01*
X54665000Y-102074907D02*
X54665000Y-81074907D01*
X54665000Y-81074907D02*
X36885000Y-81074907D01*
X36885000Y-81074907D02*
X36885000Y-102074907D01*
X42267189Y-83392094D02*
X40489189Y-83392094D01*
X40489189Y-83392094D02*
X40489189Y-80725094D01*
X40489189Y-80725094D02*
X42267189Y-80725094D01*
X42267189Y-80725094D02*
X42267189Y-83392094D01*
X253125000Y-77680000D02*
X259875000Y-77680000D01*
X259875000Y-77680000D02*
X259875000Y-80580000D01*
X259875000Y-80580000D02*
X253125000Y-80580000D01*
X253125000Y-80580000D02*
X253125000Y-77680000D01*
D13*
X209750000Y-112950000D02*
G75*
G03*
X209750000Y-112950000I-10250000J0D01*
G01*
D12*
X42350000Y-77675000D02*
X49100000Y-77675000D01*
X49100000Y-77675000D02*
X49100000Y-80575000D01*
X49100000Y-80575000D02*
X42350000Y-80575000D01*
X42350000Y-80575000D02*
X42350000Y-77675000D01*
D13*
X112150000Y-112800000D02*
G75*
G03*
X112150000Y-112800000I-10250000J0D01*
G01*
M02*
