G04 #@! TF.GenerationSoftware,KiCad,Pcbnew,(6.0.9)*
G04 #@! TF.CreationDate,2023-01-06T00:22:53-03:00*
G04 #@! TF.ProjectId,pulso - hybrid -rev2,70756c73-6f20-42d2-9068-796272696420,0.3*
G04 #@! TF.SameCoordinates,Original*
G04 #@! TF.FileFunction,Copper,L1,Top*
G04 #@! TF.FilePolarity,Positive*
%FSLAX46Y46*%
G04 Gerber Fmt 4.6, Leading zero omitted, Abs format (unit mm)*
G04 Created by KiCad (PCBNEW (6.0.9)) date 2023-01-06 00:22:53*
%MOMM*%
%LPD*%
G01*
G04 APERTURE LIST*
G04 Aperture macros list*
%AMFreePoly0*
4,1,13,0.650000,0.228200,1.094200,0.228200,1.129555,0.213555,1.144200,0.178200,1.144200,-0.177400,1.129555,-0.212755,1.094200,-0.227400,0.650000,-0.227400,0.650000,-0.475000,-0.650000,-0.475000,-0.650000,0.475000,0.650000,0.475000,0.650000,0.228200,0.650000,0.228200,$1*%
%AMFreePoly1*
4,1,13,0.650000,-0.475000,-0.650000,-0.475000,-0.650001,-0.228600,-1.094200,-0.228600,-1.129555,-0.213955,-1.144200,-0.178600,-1.144200,0.177000,-1.129555,0.212355,-1.094200,0.227000,-0.650001,0.227000,-0.650000,0.475000,0.650000,0.475000,0.650000,-0.475000,0.650000,-0.475000,$1*%
G04 Aperture macros list end*
G04 #@! TA.AperFunction,SMDPad,CuDef*
%ADD10R,1.800000X1.500000*%
G04 #@! TD*
G04 #@! TA.AperFunction,ComponentPad*
%ADD11C,2.500000*%
G04 #@! TD*
G04 #@! TA.AperFunction,ComponentPad*
%ADD12O,2.590000X1.790000*%
G04 #@! TD*
G04 #@! TA.AperFunction,ComponentPad*
%ADD13O,2.580000X1.820000*%
G04 #@! TD*
G04 #@! TA.AperFunction,ComponentPad*
%ADD14O,2.580000X1.810000*%
G04 #@! TD*
G04 #@! TA.AperFunction,ComponentPad*
%ADD15O,2.580000X1.750000*%
G04 #@! TD*
G04 #@! TA.AperFunction,ComponentPad*
%ADD16O,2.590000X1.780000*%
G04 #@! TD*
G04 #@! TA.AperFunction,ComponentPad*
%ADD17O,2.580000X1.800000*%
G04 #@! TD*
G04 #@! TA.AperFunction,ComponentPad*
%ADD18O,2.580000X1.830000*%
G04 #@! TD*
G04 #@! TA.AperFunction,ComponentPad*
%ADD19O,2.490000X1.800000*%
G04 #@! TD*
G04 #@! TA.AperFunction,ComponentPad*
%ADD20O,2.470000X1.810000*%
G04 #@! TD*
G04 #@! TA.AperFunction,ComponentPad*
%ADD21O,2.450000X1.770000*%
G04 #@! TD*
G04 #@! TA.AperFunction,ComponentPad*
%ADD22O,2.450000X1.730000*%
G04 #@! TD*
G04 #@! TA.AperFunction,ComponentPad*
%ADD23O,2.430000X1.750000*%
G04 #@! TD*
G04 #@! TA.AperFunction,ComponentPad*
%ADD24O,2.480000X1.800000*%
G04 #@! TD*
G04 #@! TA.AperFunction,ComponentPad*
%ADD25O,2.490000X1.850000*%
G04 #@! TD*
G04 #@! TA.AperFunction,ComponentPad*
%ADD26C,1.397000*%
G04 #@! TD*
G04 #@! TA.AperFunction,SMDPad,CuDef*
%ADD27R,1.700000X0.900000*%
G04 #@! TD*
G04 #@! TA.AperFunction,ComponentPad*
%ADD28O,2.500000X1.700000*%
G04 #@! TD*
G04 #@! TA.AperFunction,ComponentPad*
%ADD29C,0.457200*%
G04 #@! TD*
G04 #@! TA.AperFunction,SMDPad,CuDef*
%ADD30FreePoly0,240.000000*%
G04 #@! TD*
G04 #@! TA.AperFunction,SMDPad,CuDef*
%ADD31FreePoly1,240.000000*%
G04 #@! TD*
G04 #@! TA.AperFunction,SMDPad,CuDef*
%ADD32FreePoly0,285.000000*%
G04 #@! TD*
G04 #@! TA.AperFunction,SMDPad,CuDef*
%ADD33FreePoly1,285.000000*%
G04 #@! TD*
G04 #@! TA.AperFunction,SMDPad,CuDef*
%ADD34FreePoly0,255.000000*%
G04 #@! TD*
G04 #@! TA.AperFunction,SMDPad,CuDef*
%ADD35FreePoly1,255.000000*%
G04 #@! TD*
G04 #@! TA.AperFunction,SMDPad,CuDef*
%ADD36FreePoly0,300.000000*%
G04 #@! TD*
G04 #@! TA.AperFunction,SMDPad,CuDef*
%ADD37FreePoly1,300.000000*%
G04 #@! TD*
G04 #@! TA.AperFunction,WasherPad*
%ADD38C,0.900000*%
G04 #@! TD*
G04 #@! TA.AperFunction,ViaPad*
%ADD39C,0.800000*%
G04 #@! TD*
G04 #@! TA.AperFunction,Conductor*
%ADD40C,0.250000*%
G04 #@! TD*
G04 #@! TA.AperFunction,Conductor*
%ADD41C,0.200000*%
G04 #@! TD*
G04 APERTURE END LIST*
D10*
X65575000Y-89725000D03*
X62175000Y-89725000D03*
X220350000Y-69675000D03*
X216950000Y-69675000D03*
D11*
X53500000Y-79400000D03*
D10*
X103825000Y-101675000D03*
X100425000Y-101675000D03*
D12*
X248060000Y-84625000D03*
D13*
X248065000Y-87180000D03*
D14*
X248065000Y-89715000D03*
D15*
X248065000Y-92225000D03*
D16*
X248060000Y-94780000D03*
D17*
X248065000Y-97330000D03*
D18*
X248065000Y-99885000D03*
D19*
X264040000Y-99870000D03*
D20*
X264030000Y-97335000D03*
D21*
X264020000Y-94775000D03*
D22*
X264020000Y-92215000D03*
D23*
X264010000Y-89685000D03*
D24*
X264035000Y-87170000D03*
D25*
X264040000Y-84655000D03*
D26*
X254805000Y-83678000D03*
X257345000Y-83678000D03*
X254805000Y-86218000D03*
X257345000Y-86218000D03*
X251630000Y-91933000D03*
X251630000Y-90028000D03*
D10*
X122375000Y-70775000D03*
X118975000Y-70775000D03*
X65675000Y-71100000D03*
X62275000Y-71100000D03*
X239425000Y-70850000D03*
X236025000Y-70850000D03*
X103775000Y-83225000D03*
X100375000Y-83225000D03*
D27*
X52631000Y-112783000D03*
X52631000Y-116183000D03*
D10*
X182325000Y-71275000D03*
X178925000Y-71275000D03*
X201425000Y-82325000D03*
X198025000Y-82325000D03*
D28*
X49600000Y-116525000D03*
X41100000Y-112325000D03*
X44100000Y-112325000D03*
X48100000Y-112325000D03*
D10*
X220325000Y-88550000D03*
X216925000Y-88550000D03*
D29*
X239011972Y-121866108D03*
D30*
X239562172Y-120913134D03*
D31*
X237787172Y-123987524D03*
D29*
X238337026Y-123034350D03*
D10*
X65925000Y-109200000D03*
X62525000Y-109200000D03*
D28*
X251925000Y-112450000D03*
X260425000Y-116650000D03*
X257425000Y-116650000D03*
X253425000Y-116650000D03*
D32*
X81040596Y-115285482D03*
D29*
X81325401Y-116348386D03*
D33*
X81959404Y-118714518D03*
D29*
X81674213Y-117651717D03*
D10*
X141450000Y-82850000D03*
X138050000Y-82850000D03*
D11*
X38225000Y-79350000D03*
D10*
X122525000Y-89725000D03*
X119125000Y-89725000D03*
X141525000Y-63975000D03*
X138125000Y-63975000D03*
X182250000Y-90275000D03*
X178850000Y-90275000D03*
D27*
X248916000Y-112783000D03*
X248916000Y-116183000D03*
D29*
X217818697Y-116554289D03*
D34*
X218103502Y-115491385D03*
D35*
X217184694Y-118920421D03*
D29*
X217469112Y-117857413D03*
D10*
X201375000Y-63900000D03*
X197975000Y-63900000D03*
X201450000Y-101100000D03*
X198050000Y-101100000D03*
X141450000Y-101775000D03*
X138050000Y-101775000D03*
X163600000Y-63675000D03*
X160200000Y-63675000D03*
D29*
X60162700Y-122290779D03*
D36*
X59612500Y-121337805D03*
D37*
X61387500Y-124412195D03*
D29*
X60836954Y-123459421D03*
D11*
X263700000Y-79325000D03*
D10*
X182725000Y-52225000D03*
X179325000Y-52225000D03*
X239425000Y-89450000D03*
X236025000Y-89450000D03*
X239400000Y-108300000D03*
X236000000Y-108300000D03*
D11*
X248925000Y-79800000D03*
D10*
X163400000Y-83175000D03*
X160000000Y-83175000D03*
X103625000Y-64250000D03*
X100225000Y-64250000D03*
X84725000Y-88025000D03*
X81325000Y-88025000D03*
X220175000Y-50775000D03*
X216775000Y-50775000D03*
X84725000Y-50325000D03*
X81325000Y-50325000D03*
X122025000Y-52275000D03*
X118625000Y-52275000D03*
D12*
X37760000Y-83949907D03*
D13*
X37765000Y-86504907D03*
D14*
X37765000Y-89039907D03*
D15*
X37765000Y-91549907D03*
D16*
X37760000Y-94104907D03*
D17*
X37765000Y-96654907D03*
D18*
X37765000Y-99209907D03*
D19*
X53740000Y-99194907D03*
D20*
X53730000Y-96659907D03*
D21*
X53720000Y-94099907D03*
D22*
X53720000Y-91539907D03*
D23*
X53710000Y-89009907D03*
D24*
X53735000Y-86494907D03*
D25*
X53740000Y-83979907D03*
D26*
X44505000Y-83002907D03*
X47045000Y-83002907D03*
X44505000Y-85542907D03*
X47045000Y-85542907D03*
X41330000Y-91257907D03*
X41330000Y-89352907D03*
D10*
X163600000Y-102075000D03*
X160200000Y-102075000D03*
X84625000Y-69200000D03*
X81225000Y-69200000D03*
D38*
X254875000Y-79280000D03*
X257875000Y-79230000D03*
X44100000Y-79275000D03*
X47100000Y-79225000D03*
D39*
X159900000Y-66450000D03*
X184050000Y-59950000D03*
X197300000Y-59775000D03*
X216250000Y-53125000D03*
X238575000Y-65675000D03*
X164487500Y-91112500D03*
X185037500Y-77587500D03*
X197625000Y-77275000D03*
X215625000Y-72875000D03*
X235575000Y-84550000D03*
X166275000Y-108300000D03*
X183575000Y-98975000D03*
X202320000Y-95220000D03*
X221975000Y-96575000D03*
X240300000Y-102775000D03*
X230700000Y-123050000D03*
X249149324Y-132499324D03*
X139000000Y-69600000D03*
X118250000Y-56100000D03*
X97325000Y-62800000D03*
X80875000Y-54575000D03*
X61025000Y-63425000D03*
X138400000Y-85900000D03*
X118850000Y-72800000D03*
X99850000Y-80475000D03*
X78650000Y-70025000D03*
X62400000Y-83675000D03*
X65675000Y-111375000D03*
X64125000Y-113400000D03*
X137125000Y-112650000D03*
X118825000Y-92325000D03*
X99100000Y-99150000D03*
X81250000Y-90300000D03*
X61525000Y-105700000D03*
X75350000Y-122575000D03*
X51425000Y-131700000D03*
X259850000Y-84900000D03*
X213125000Y-112425000D03*
X240425000Y-112800000D03*
X258750000Y-94175000D03*
X246800000Y-110825000D03*
X256125000Y-99925000D03*
X55700000Y-106325000D03*
X49825000Y-84000000D03*
X50200000Y-96900000D03*
X84225000Y-111050000D03*
X248325000Y-103600000D03*
X240225000Y-111050000D03*
X250925000Y-107450000D03*
X213000000Y-109975000D03*
X245125000Y-89975000D03*
X245800000Y-94825000D03*
X244842563Y-92151904D03*
X214075000Y-86250000D03*
X232250000Y-90625000D03*
X227550000Y-86225000D03*
X177300000Y-81425000D03*
X212225000Y-88000000D03*
X222150000Y-87349500D03*
X230600000Y-89025000D03*
X195450000Y-87050000D03*
X250650000Y-78300000D03*
X254025000Y-109150000D03*
X146075000Y-118525000D03*
X58250000Y-118100000D03*
X82550000Y-107600000D03*
X68825000Y-111650000D03*
X67925000Y-91000000D03*
X123615000Y-82240000D03*
X44500000Y-96750000D03*
X57100000Y-89550000D03*
X57225000Y-82200000D03*
X68275000Y-72250000D03*
X107405000Y-65180000D03*
X73000000Y-104400000D03*
X259250000Y-108950000D03*
X252000000Y-109100000D03*
X252225000Y-101100000D03*
X44500000Y-98650000D03*
X49475000Y-99125000D03*
X41700000Y-99225000D03*
X44075000Y-117075000D03*
X40075000Y-116700000D03*
X47525000Y-90700000D03*
X48025000Y-110250000D03*
X53325000Y-108525000D03*
X45650000Y-108725000D03*
D40*
X239425000Y-70850000D02*
X243600000Y-70850000D01*
X163600000Y-60575000D02*
X172950000Y-51225000D01*
X204025000Y-61250000D02*
X201375000Y-63900000D01*
X182725000Y-52225000D02*
X190150000Y-52225000D01*
X182725000Y-51825000D02*
X182725000Y-52225000D01*
X213850000Y-54125000D02*
X216825000Y-54125000D01*
X234925000Y-63425000D02*
X236000000Y-64500000D01*
X220175000Y-50775000D02*
X222500000Y-50775000D01*
X209500000Y-63900000D02*
X211600000Y-61800000D01*
X204025000Y-55678686D02*
X204025000Y-61250000D01*
X244625000Y-80600000D02*
X244850000Y-80600000D01*
X201375000Y-63900000D02*
X209500000Y-63900000D01*
X211600000Y-61800000D02*
X211600000Y-56375000D01*
X163600000Y-63675000D02*
X163600000Y-60575000D01*
X236000000Y-64500000D02*
X239925000Y-64500000D01*
X203479099Y-55132785D02*
X204025000Y-55678686D01*
X243600000Y-70850000D02*
X244625000Y-71875000D01*
X203479099Y-54304099D02*
X203479099Y-55132785D01*
X180475000Y-49575000D02*
X182725000Y-51825000D01*
X222500000Y-50775000D02*
X228375000Y-56650000D01*
X228375000Y-56650000D02*
X228375000Y-62875000D01*
X175575000Y-51225000D02*
X177225000Y-49575000D01*
X239925000Y-64500000D02*
X239925000Y-70350000D01*
X229057999Y-63557999D02*
X234792001Y-63557999D01*
X239925000Y-70350000D02*
X239425000Y-70850000D01*
X194700000Y-47675000D02*
X196850000Y-47675000D01*
X190150000Y-52225000D02*
X194700000Y-47675000D01*
X211600000Y-56375000D02*
X213850000Y-54125000D01*
X234792001Y-63557999D02*
X234925000Y-63425000D01*
X244625000Y-71875000D02*
X244625000Y-80600000D01*
X216825000Y-54125000D02*
X220175000Y-50775000D01*
X172950000Y-51225000D02*
X175575000Y-51225000D01*
X244850000Y-80600000D02*
X246050000Y-81800000D01*
X196850000Y-47675000D02*
X203479099Y-54304099D01*
X177225000Y-49575000D02*
X180475000Y-49575000D01*
X228375000Y-62875000D02*
X229057999Y-63557999D01*
X248650000Y-84825000D02*
X248455000Y-84630000D01*
X246050000Y-82225000D02*
X248455000Y-84630000D01*
X246050000Y-81800000D02*
X246050000Y-82225000D01*
X160200000Y-66150000D02*
X160200000Y-63675000D01*
X159900000Y-66450000D02*
X160200000Y-66150000D01*
X179325000Y-55225000D02*
X184050000Y-59950000D01*
X179325000Y-52225000D02*
X179325000Y-55225000D01*
X197300000Y-63225000D02*
X197975000Y-63900000D01*
X197300000Y-59775000D02*
X197300000Y-63225000D01*
X216250000Y-53125000D02*
X216775000Y-52600000D01*
X216775000Y-52600000D02*
X216775000Y-50775000D01*
X235075000Y-65675000D02*
X238575000Y-65675000D01*
X235000000Y-65750000D02*
X235075000Y-65675000D01*
X236025000Y-70850000D02*
X235000000Y-69825000D01*
X235000000Y-69825000D02*
X235000000Y-65750000D01*
X233000000Y-82600000D02*
X232475000Y-82075000D01*
X188000000Y-76550000D02*
X186250000Y-76550000D01*
X232475000Y-82075000D02*
X228550000Y-82075000D01*
X215850000Y-79675000D02*
X215700000Y-79825000D01*
X185825000Y-72100000D02*
X185000000Y-71275000D01*
X186250000Y-76550000D02*
X185825000Y-76125000D01*
X228550000Y-82075000D02*
X228475000Y-82150000D01*
X188650000Y-83200000D02*
X188650000Y-77200000D01*
X182325000Y-71275000D02*
X180475000Y-69425000D01*
X236113241Y-82600000D02*
X233000000Y-82600000D01*
X238213241Y-84700000D02*
X236113241Y-82600000D01*
X210625000Y-79825000D02*
X208600000Y-81850000D01*
X188650000Y-77200000D02*
X188000000Y-76550000D01*
X189850000Y-84400000D02*
X188650000Y-83200000D01*
X201425000Y-83875000D02*
X200900000Y-84400000D01*
X185000000Y-71275000D02*
X182325000Y-71275000D01*
X215700000Y-79825000D02*
X210625000Y-79825000D01*
X201425000Y-82325000D02*
X201425000Y-83875000D01*
X217150000Y-73925000D02*
X217150000Y-76391241D01*
X220350000Y-69675000D02*
X220350000Y-70725000D01*
X223625000Y-74300000D02*
X223625000Y-71900000D01*
X167325000Y-83175000D02*
X163400000Y-83175000D01*
X208600000Y-81850000D02*
X208600000Y-82150000D01*
X169650000Y-80650000D02*
X169750000Y-80750000D01*
X228475000Y-82150000D02*
X228475000Y-79150000D01*
X245225000Y-86475000D02*
X245225000Y-83000000D01*
X217150000Y-76391241D02*
X215850000Y-77691241D01*
X180475000Y-69425000D02*
X171375000Y-69425000D01*
X215850000Y-77691241D02*
X215850000Y-79675000D01*
X220350000Y-70725000D02*
X217150000Y-73925000D01*
X245775000Y-87025000D02*
X245225000Y-86475000D01*
X248455000Y-87170000D02*
X248310000Y-87025000D01*
X169750000Y-80750000D02*
X167325000Y-83175000D01*
X223625000Y-71900000D02*
X221400000Y-69675000D01*
X185825000Y-76125000D02*
X185825000Y-72100000D01*
X239600000Y-84700000D02*
X238213241Y-84700000D01*
X239600000Y-85000000D02*
X239600000Y-84700000D01*
X248310000Y-87025000D02*
X245775000Y-87025000D01*
X169650000Y-71150000D02*
X169650000Y-80650000D01*
X239600000Y-89275000D02*
X239600000Y-85000000D01*
X171375000Y-69425000D02*
X169650000Y-71150000D01*
X239425000Y-89450000D02*
X239600000Y-89275000D01*
X245225000Y-83000000D02*
X241600000Y-83000000D01*
X241600000Y-83000000D02*
X239600000Y-85000000D01*
X208600000Y-82150000D02*
X208425000Y-82325000D01*
X221400000Y-69675000D02*
X220350000Y-69675000D01*
X228475000Y-79150000D02*
X223625000Y-74300000D01*
X200900000Y-84400000D02*
X189850000Y-84400000D01*
X208425000Y-82325000D02*
X201425000Y-82325000D01*
X160000000Y-86625000D02*
X164487500Y-91112500D01*
X160000000Y-83175000D02*
X160000000Y-86625000D01*
X179275000Y-76400000D02*
X180498759Y-76400000D01*
X178925000Y-71275000D02*
X178925000Y-76050000D01*
X178925000Y-76050000D02*
X179275000Y-76400000D01*
X181686259Y-77587500D02*
X185037500Y-77587500D01*
X180498759Y-76400000D02*
X181686259Y-77587500D01*
X197625000Y-81925000D02*
X197625000Y-77275000D01*
X198025000Y-82325000D02*
X197625000Y-81925000D01*
X216950000Y-71550000D02*
X215625000Y-72875000D01*
X216950000Y-69675000D02*
X216950000Y-71550000D01*
X235575000Y-89000000D02*
X235575000Y-84550000D01*
X236025000Y-89450000D02*
X235575000Y-89000000D01*
X222600000Y-88550000D02*
X225925000Y-91875000D01*
X201450000Y-103675000D02*
X201450000Y-101100000D01*
X190500000Y-90275000D02*
X191250000Y-91025000D01*
X247060000Y-89710000D02*
X246175000Y-88825000D01*
X231125000Y-91700000D02*
X229987500Y-90562500D01*
X207675000Y-101100000D02*
X210700000Y-98075000D01*
X248455000Y-89710000D02*
X247060000Y-89710000D01*
X215125000Y-89125000D02*
X215125000Y-86125000D01*
X229987500Y-90562500D02*
X230950000Y-91525000D01*
X230775000Y-111450000D02*
X238550000Y-111450000D01*
X225925000Y-91875000D02*
X228675000Y-91875000D01*
X182100000Y-87600000D02*
X182250000Y-87750000D01*
X246175000Y-87925000D02*
X244475000Y-87925000D01*
X230950000Y-91525000D02*
X230450000Y-92025000D01*
X191900000Y-104275000D02*
X201700000Y-104275000D01*
X239400000Y-110300000D02*
X239400000Y-108300000D01*
X163600000Y-102075000D02*
X170250000Y-102075000D01*
X181775000Y-87925000D02*
X182100000Y-87600000D01*
X220325000Y-88550000D02*
X222600000Y-88550000D01*
X201700000Y-104275000D02*
X201875000Y-104100000D01*
X182250000Y-87750000D02*
X182250000Y-90275000D01*
X244200000Y-89200000D02*
X241700000Y-91700000D01*
X191250000Y-103625000D02*
X191900000Y-104275000D01*
X173775000Y-87925000D02*
X181775000Y-87925000D01*
X220325000Y-86800000D02*
X220325000Y-88550000D01*
X220650000Y-86125000D02*
X220825000Y-86300000D01*
X173775000Y-98550000D02*
X173775000Y-87925000D01*
X220825000Y-86300000D02*
X220325000Y-86800000D01*
X230450000Y-111125000D02*
X230775000Y-111450000D01*
X201450000Y-101100000D02*
X207675000Y-101100000D01*
X228675000Y-91875000D02*
X229987500Y-90562500D01*
X238550000Y-111450000D02*
X238550000Y-111150000D01*
X210700000Y-98075000D02*
X210700000Y-93550000D01*
X201875000Y-104100000D02*
X201450000Y-103675000D01*
X238550000Y-111150000D02*
X239400000Y-110300000D01*
X191250000Y-91025000D02*
X191250000Y-103625000D01*
X241700000Y-91700000D02*
X231125000Y-91700000D01*
X210700000Y-93550000D02*
X215125000Y-89125000D01*
X246175000Y-88825000D02*
X246175000Y-87925000D01*
X230450000Y-92025000D02*
X230450000Y-111125000D01*
X215125000Y-86125000D02*
X220650000Y-86125000D01*
X182250000Y-90275000D02*
X190500000Y-90275000D01*
X244475000Y-87925000D02*
X244200000Y-88200000D01*
X170250000Y-102075000D02*
X173775000Y-98550000D01*
X244200000Y-88200000D02*
X244200000Y-89200000D01*
X160200000Y-104331652D02*
X160200000Y-102075000D01*
X164168348Y-108300000D02*
X160200000Y-104331652D01*
X166275000Y-108300000D02*
X164168348Y-108300000D01*
X178850000Y-93751241D02*
X183575000Y-98476241D01*
X183575000Y-98476241D02*
X183575000Y-98975000D01*
X178850000Y-90275000D02*
X178850000Y-93751241D01*
X196875000Y-95800000D02*
X197455000Y-95220000D01*
X196875000Y-99925000D02*
X196875000Y-95800000D01*
X198050000Y-101100000D02*
X196875000Y-99925000D01*
X197455000Y-95220000D02*
X202320000Y-95220000D01*
X216925000Y-91525000D02*
X221975000Y-96575000D01*
X216925000Y-88550000D02*
X216925000Y-91525000D01*
X235075000Y-106325000D02*
X235075000Y-103150000D01*
X235450000Y-102775000D02*
X240300000Y-102775000D01*
X236000000Y-107250000D02*
X235075000Y-106325000D01*
X236000000Y-108300000D02*
X236000000Y-107250000D01*
X235075000Y-103150000D02*
X235450000Y-102775000D01*
X246000000Y-92250000D02*
X245025000Y-93225000D01*
X248455000Y-92250000D02*
X246000000Y-92250000D01*
X244450000Y-93225000D02*
X245025000Y-93225000D01*
X225225000Y-112775000D02*
X225875000Y-113425000D01*
X243075000Y-94600000D02*
X244450000Y-93225000D01*
X225875000Y-113425000D02*
X237825000Y-113425000D01*
X240100000Y-120375306D02*
X239562172Y-120913134D01*
X218103502Y-115491385D02*
X218103502Y-113521498D01*
X218850000Y-112775000D02*
X225225000Y-112775000D01*
X240100000Y-115700000D02*
X240100000Y-120375306D01*
X218103502Y-113521498D02*
X218850000Y-112775000D01*
X244430001Y-95955001D02*
X243075000Y-94600000D01*
X244430001Y-111369999D02*
X244430001Y-95955001D01*
X237825000Y-113425000D02*
X240100000Y-115700000D01*
X240100000Y-115700000D02*
X244430001Y-111369999D01*
X218188373Y-119924100D02*
X224454517Y-119924100D01*
X227580417Y-123050000D02*
X230700000Y-123050000D01*
X217184694Y-118920421D02*
X218188373Y-119924100D01*
X224454517Y-119924100D02*
X227580417Y-123050000D01*
X237787172Y-123987524D02*
X239100755Y-123987524D01*
X247612555Y-132499324D02*
X249149324Y-132499324D01*
X239100755Y-123987524D02*
X247612555Y-132499324D01*
X79750000Y-48150000D02*
X75012500Y-52887500D01*
X84425000Y-48150000D02*
X79750000Y-48150000D01*
X39875000Y-81625000D02*
X40325000Y-81175000D01*
X84725000Y-50325000D02*
X88900000Y-50325000D01*
X75012500Y-53112500D02*
X72200000Y-55925000D01*
X112800000Y-62075000D02*
X112800000Y-52350000D01*
X65675000Y-72625000D02*
X65675000Y-71100000D01*
X141525000Y-63975000D02*
X141525000Y-63825000D01*
X84725000Y-48450000D02*
X84425000Y-48150000D01*
X37800000Y-83599907D02*
X38155000Y-83954907D01*
X88900000Y-50325000D02*
X93300000Y-54725000D01*
X141525000Y-63825000D02*
X135450000Y-57750000D01*
X55750000Y-80850000D02*
X55750000Y-73350000D01*
X94300000Y-63525000D02*
X96775000Y-66000000D01*
X123325000Y-52275000D02*
X122025000Y-52275000D01*
X103575000Y-66000000D02*
X103625000Y-66050000D01*
X55425000Y-81175000D02*
X55750000Y-80850000D01*
X39875000Y-81625000D02*
X39300000Y-82200000D01*
X84725000Y-50325000D02*
X84725000Y-48450000D01*
X93300000Y-54725000D02*
X93700000Y-55125000D01*
X55750000Y-73350000D02*
X56475000Y-72625000D01*
X67050000Y-71100000D02*
X65675000Y-71100000D01*
X103625000Y-66050000D02*
X103625000Y-64250000D01*
X112800000Y-52350000D02*
X115800000Y-49350000D01*
X128800000Y-57750000D02*
X123325000Y-52275000D01*
X72200000Y-55925000D02*
X72200000Y-65950000D01*
X103625000Y-64250000D02*
X110625000Y-64250000D01*
X40167453Y-81332547D02*
X39875000Y-81625000D01*
X40325000Y-81175000D02*
X53025000Y-81175000D01*
X53050000Y-81150000D02*
X53075000Y-81175000D01*
X119100000Y-49350000D02*
X122025000Y-52275000D01*
X115800000Y-49350000D02*
X119100000Y-49350000D01*
X94300000Y-57150000D02*
X94300000Y-63525000D01*
X110625000Y-64250000D02*
X112800000Y-62075000D01*
X93700000Y-56550000D02*
X94300000Y-57150000D01*
X39300000Y-82200000D02*
X37800000Y-82200000D01*
X72200000Y-65950000D02*
X67050000Y-71100000D01*
X135450000Y-57750000D02*
X128800000Y-57750000D01*
X53025000Y-81175000D02*
X53050000Y-81150000D01*
X56475000Y-72625000D02*
X65675000Y-72625000D01*
X75012500Y-52887500D02*
X75012500Y-53112500D01*
X53075000Y-81175000D02*
X55425000Y-81175000D01*
X37800000Y-82200000D02*
X37800000Y-83599907D01*
X96775000Y-66000000D02*
X103575000Y-66000000D01*
X93700000Y-55125000D02*
X93700000Y-56550000D01*
X138125000Y-68150000D02*
X138350000Y-68375000D01*
X139000000Y-69025000D02*
X139000000Y-69600000D01*
X138350000Y-68375000D02*
X139000000Y-69025000D01*
X138125000Y-63975000D02*
X138125000Y-68150000D01*
X118625000Y-52275000D02*
X118625000Y-55725000D01*
X118625000Y-55725000D02*
X118250000Y-56100000D01*
D41*
X97325000Y-62800000D02*
X98775000Y-64250000D01*
X98775000Y-64250000D02*
X100225000Y-64250000D01*
X80875000Y-54575000D02*
X81325000Y-54125000D01*
X81325000Y-54125000D02*
X81325000Y-50325000D01*
D40*
X62064999Y-70889999D02*
X62064999Y-64464999D01*
X62275000Y-71100000D02*
X62064999Y-70889999D01*
X62064999Y-64464999D02*
X61025000Y-63425000D01*
X40500000Y-83525000D02*
X40500000Y-86525000D01*
X75250000Y-76825000D02*
X75250000Y-76400000D01*
X42400000Y-81625000D02*
X41412500Y-82612500D01*
X94750000Y-74975000D02*
X95075000Y-75300000D01*
X62675000Y-73575000D02*
X63475000Y-74375000D01*
X104650000Y-78550000D02*
X104650000Y-82350000D01*
X114675000Y-75500000D02*
X116175000Y-74000000D01*
X95075000Y-75300000D02*
X97546652Y-75300000D01*
X95175000Y-70950000D02*
X95175000Y-71600000D01*
X65575000Y-89725000D02*
X70850000Y-89725000D01*
X63475000Y-74375000D02*
X63475000Y-75299652D01*
X95175000Y-71600000D02*
X94750000Y-72025000D01*
X110025000Y-83225000D02*
X114675000Y-78575000D01*
X116175000Y-74000000D02*
X120775000Y-74000000D01*
X79600000Y-71600000D02*
X83750000Y-71600000D01*
X40500000Y-86525000D02*
X38185093Y-86525000D01*
X97546652Y-75300000D02*
X99071652Y-76825000D01*
X56275000Y-81425000D02*
X56275000Y-81500000D01*
X94750000Y-72025000D02*
X94750000Y-74975000D01*
X114675000Y-78575000D02*
X114675000Y-75500000D01*
X75250000Y-76400000D02*
X78725000Y-72925000D01*
X83750000Y-71600000D02*
X84625000Y-70725000D01*
X56275000Y-81425000D02*
X56275000Y-74225000D01*
X68949826Y-78249826D02*
X69600000Y-78900000D01*
X56150000Y-81625000D02*
X42400000Y-81625000D01*
X126975000Y-74325000D02*
X138161241Y-74325000D01*
X122375000Y-72400000D02*
X122375000Y-70775000D01*
X103775000Y-83225000D02*
X110025000Y-83225000D01*
X56275000Y-74225000D02*
X56925000Y-73575000D01*
X69600000Y-78900000D02*
X73175000Y-78900000D01*
X56275000Y-80500000D02*
X56275000Y-81425000D01*
X63475000Y-75299652D02*
X66425174Y-78249826D01*
X56925000Y-73575000D02*
X62675000Y-73575000D01*
X123425000Y-70775000D02*
X126975000Y-74325000D01*
X41412500Y-82612500D02*
X40925000Y-83100000D01*
X84625000Y-69200000D02*
X93425000Y-69200000D01*
X138161241Y-74325000D02*
X140536241Y-76700000D01*
X84625000Y-70725000D02*
X84625000Y-69200000D01*
X102925000Y-76825000D02*
X104650000Y-78550000D01*
X75250000Y-85325000D02*
X75250000Y-76825000D01*
X78725000Y-72925000D02*
X78725000Y-72475000D01*
X41412500Y-82612500D02*
X40500000Y-83525000D01*
X122375000Y-70775000D02*
X123425000Y-70775000D01*
X73175000Y-78900000D02*
X75250000Y-76825000D01*
X140536241Y-76700000D02*
X142325000Y-76700000D01*
X78725000Y-72475000D02*
X79600000Y-71600000D01*
X38185093Y-86525000D02*
X38155000Y-86494907D01*
X120775000Y-74000000D02*
X122375000Y-72400000D01*
X93425000Y-69200000D02*
X95175000Y-70950000D01*
X142325000Y-76700000D02*
X142325000Y-81975000D01*
X142325000Y-81975000D02*
X141450000Y-82850000D01*
X70850000Y-89725000D02*
X75250000Y-85325000D01*
X99071652Y-76825000D02*
X102925000Y-76825000D01*
X66425174Y-78249826D02*
X68949826Y-78249826D01*
X56275000Y-81500000D02*
X56150000Y-81625000D01*
X104650000Y-82350000D02*
X103775000Y-83225000D01*
D41*
X138050000Y-85550000D02*
X138050000Y-82850000D01*
X138400000Y-85900000D02*
X138050000Y-85550000D01*
D40*
X118975000Y-72675000D02*
X118850000Y-72800000D01*
X118975000Y-70775000D02*
X118975000Y-72675000D01*
D41*
X99850000Y-80475000D02*
X100375000Y-81000000D01*
X100375000Y-81000000D02*
X100375000Y-83225000D01*
X79475000Y-69200000D02*
X81225000Y-69200000D01*
X78650000Y-70025000D02*
X79475000Y-69200000D01*
D40*
X61850000Y-85825000D02*
X62400000Y-85275000D01*
X61850000Y-87650000D02*
X61850000Y-85825000D01*
X62175000Y-89725000D02*
X62175000Y-87975000D01*
X62400000Y-85275000D02*
X62400000Y-83675000D01*
X62175000Y-87975000D02*
X61850000Y-87650000D01*
X76575000Y-92850000D02*
X76575000Y-94750000D01*
X138850000Y-94950000D02*
X137050000Y-93150000D01*
X39300000Y-112850000D02*
X39300000Y-110050000D01*
X70600000Y-109200000D02*
X65925000Y-109200000D01*
X52250000Y-120050000D02*
X48225000Y-120050000D01*
X64125000Y-113400000D02*
X60875000Y-116650000D01*
X46125000Y-101460000D02*
X46125000Y-89900000D01*
X98550000Y-94100000D02*
X88725000Y-94100000D01*
X38155000Y-89034907D02*
X38590093Y-89034907D01*
X112850000Y-102300000D02*
X112700000Y-102150000D01*
X45150000Y-88925000D02*
X45350000Y-89125000D01*
X45350000Y-89075000D02*
X45350000Y-89125000D01*
X55650000Y-116650000D02*
X52250000Y-120050000D01*
X143900000Y-94950000D02*
X138850000Y-94950000D01*
X103825000Y-100425000D02*
X104700000Y-99550000D01*
X114000000Y-101150000D02*
X112850000Y-102300000D01*
X75600000Y-95600000D02*
X75125000Y-96075000D01*
X103875000Y-95750000D02*
X100200000Y-95750000D01*
X39300000Y-110050000D02*
X42520000Y-106830000D01*
X45175000Y-88900000D02*
X45150000Y-88925000D01*
X44050000Y-87775000D02*
X45350000Y-89075000D01*
X44055000Y-106830000D02*
X44055000Y-103530000D01*
X60875000Y-116650000D02*
X55650000Y-116650000D01*
X65675000Y-111375000D02*
X65675000Y-109450000D01*
X103825000Y-101675000D02*
X103825000Y-100425000D01*
X122525000Y-89725000D02*
X122525000Y-90825000D01*
X125950000Y-93150000D02*
X122525000Y-89725000D01*
X104700000Y-99550000D02*
X104700000Y-96575000D01*
X137050000Y-93150000D02*
X125950000Y-93150000D01*
X104700000Y-96575000D02*
X103875000Y-95750000D01*
X42520000Y-106830000D02*
X44055000Y-106830000D01*
X141450000Y-101775000D02*
X143900000Y-99325000D01*
X100200000Y-95750000D02*
X98550000Y-94100000D01*
X39850000Y-87775000D02*
X44050000Y-87775000D01*
X75125000Y-104675000D02*
X70600000Y-109200000D01*
X76950000Y-92475000D02*
X76575000Y-92850000D01*
X76575000Y-94750000D02*
X75725000Y-95600000D01*
X40775000Y-114325000D02*
X39300000Y-112850000D01*
X87925000Y-90425000D02*
X85525000Y-88025000D01*
X119075000Y-94275000D02*
X114325000Y-94275000D01*
X85525000Y-88025000D02*
X84725000Y-88025000D01*
X44055000Y-103530000D02*
X46125000Y-101460000D01*
X84725000Y-89325000D02*
X81575000Y-92475000D01*
X84725000Y-88025000D02*
X84725000Y-89325000D01*
X46450000Y-118275000D02*
X46450000Y-118125000D01*
X87925000Y-93300000D02*
X87925000Y-90425000D01*
X46450000Y-118125000D02*
X42650000Y-114325000D01*
X38590093Y-89034907D02*
X39850000Y-87775000D01*
X65675000Y-109450000D02*
X65925000Y-109200000D01*
X114325000Y-94275000D02*
X114000000Y-94600000D01*
X112700000Y-102150000D02*
X103725000Y-102150000D01*
X48225000Y-120050000D02*
X46450000Y-118275000D01*
X143900000Y-99325000D02*
X143900000Y-94950000D01*
X88725000Y-94100000D02*
X87925000Y-93300000D01*
X42650000Y-114325000D02*
X40775000Y-114325000D01*
X81575000Y-92475000D02*
X76950000Y-92475000D01*
X46125000Y-89900000D02*
X45350000Y-89125000D01*
X75725000Y-95600000D02*
X75600000Y-95600000D01*
X122525000Y-90825000D02*
X119075000Y-94275000D01*
X75125000Y-96075000D02*
X75125000Y-104675000D01*
X114000000Y-94600000D02*
X114000000Y-101150000D01*
X138725000Y-106900000D02*
X138725000Y-108561241D01*
X137125000Y-110161241D02*
X137125000Y-112650000D01*
X138725000Y-108561241D02*
X137125000Y-110161241D01*
X138050000Y-101775000D02*
X138050000Y-106225000D01*
X138050000Y-106225000D02*
X138725000Y-106900000D01*
D41*
X119125000Y-92025000D02*
X119125000Y-89725000D01*
X118825000Y-92325000D02*
X119125000Y-92025000D01*
X100000000Y-100050000D02*
X100325000Y-100375000D01*
D40*
X100425000Y-100475000D02*
X100000000Y-100050000D01*
X100425000Y-101675000D02*
X100425000Y-100475000D01*
D41*
X100325000Y-100375000D02*
X100325000Y-102150000D01*
X99100000Y-99150000D02*
X100000000Y-100050000D01*
X81325000Y-90225000D02*
X81325000Y-88025000D01*
X81250000Y-90300000D02*
X81325000Y-90225000D01*
X61525000Y-108200000D02*
X62525000Y-109200000D01*
X61525000Y-105700000D02*
X61525000Y-108200000D01*
D40*
X44800000Y-94600000D02*
X41600000Y-94600000D01*
X45550000Y-95350000D02*
X44800000Y-94600000D01*
X39450000Y-118350000D02*
X39150000Y-118350000D01*
X60162195Y-121337805D02*
X67950000Y-113550000D01*
X59612500Y-121337805D02*
X60162195Y-121337805D01*
X55200000Y-125375000D02*
X51650000Y-125375000D01*
X67950000Y-113550000D02*
X69200000Y-113550000D01*
X69200000Y-113550000D02*
X71825000Y-110925000D01*
X39150000Y-118350000D02*
X37725000Y-116925000D01*
X41720000Y-105355000D02*
X43605000Y-105355000D01*
X37725000Y-116925000D02*
X37725000Y-109350000D01*
X43605000Y-105355000D02*
X43605000Y-102845000D01*
X78725000Y-110925000D02*
X81040596Y-113240596D01*
X40975000Y-121875000D02*
X41975000Y-120875000D01*
X41975000Y-120875000D02*
X39450000Y-118350000D01*
X81040596Y-113240596D02*
X81040596Y-115285482D01*
X59612500Y-121337805D02*
X59237195Y-121337805D01*
X43605000Y-102845000D02*
X45550000Y-100900000D01*
X51350000Y-125675000D02*
X44375000Y-125675000D01*
X40975000Y-122275000D02*
X40975000Y-121875000D01*
X37725000Y-109350000D02*
X41720000Y-105355000D01*
X41600000Y-94600000D02*
X38574907Y-91574907D01*
X38574907Y-91574907D02*
X38155000Y-91574907D01*
X45550000Y-100900000D02*
X45550000Y-95350000D01*
X71825000Y-110925000D02*
X78725000Y-110925000D01*
X59237195Y-121337805D02*
X55200000Y-125375000D01*
X51650000Y-125375000D02*
X51350000Y-125675000D01*
X44375000Y-125675000D02*
X40975000Y-122275000D01*
X77175000Y-120750000D02*
X75350000Y-122575000D01*
X81959404Y-118714518D02*
X81959404Y-118890596D01*
X80100000Y-120750000D02*
X77175000Y-120750000D01*
X81959404Y-118890596D02*
X80100000Y-120750000D01*
X62825000Y-127550000D02*
X60056898Y-127550000D01*
X55906898Y-131700000D02*
X51425000Y-131700000D01*
X61387500Y-126112500D02*
X62825000Y-127550000D01*
X60056898Y-127550000D02*
X55906898Y-131700000D01*
X61387500Y-124412195D02*
X61387500Y-126112500D01*
X252175000Y-102400000D02*
X247750000Y-102400000D01*
X246800000Y-103350000D02*
X246800000Y-110825000D01*
X252175000Y-102400000D02*
X253650000Y-102400000D01*
X252739500Y-102400000D02*
X253650000Y-102400000D01*
X240425000Y-112800000D02*
X226325000Y-112800000D01*
X226325000Y-112800000D02*
X225375000Y-111850000D01*
X213700000Y-111850000D02*
X213125000Y-112425000D01*
X258750000Y-86000000D02*
X259850000Y-84900000D01*
X258750000Y-94175000D02*
X258750000Y-86000000D01*
X253650000Y-102400000D02*
X256125000Y-99925000D01*
X252739500Y-102400000D02*
X252175000Y-102400000D01*
X247750000Y-102400000D02*
X246800000Y-103350000D01*
X225375000Y-111850000D02*
X213700000Y-111850000D01*
X50200000Y-96900000D02*
X50200000Y-84375000D01*
X67050000Y-112225000D02*
X61900000Y-112225000D01*
X54900000Y-116200000D02*
X54900000Y-107125000D01*
X84225000Y-111050000D02*
X83625000Y-110450000D01*
X54900000Y-107125000D02*
X55700000Y-106325000D01*
X57925000Y-116200000D02*
X54900000Y-116200000D01*
X83625000Y-110450000D02*
X68825000Y-110450000D01*
X68825000Y-110450000D02*
X67050000Y-112225000D01*
X61900000Y-112225000D02*
X57925000Y-116200000D01*
X50200000Y-84375000D02*
X49825000Y-84000000D01*
X247741000Y-115160000D02*
X247710000Y-115160000D01*
X246525000Y-113975000D02*
X246525000Y-112925000D01*
X247741000Y-104184000D02*
X248325000Y-103600000D01*
X247741000Y-111709000D02*
X247741000Y-104184000D01*
X248916000Y-116335000D02*
X247741000Y-115160000D01*
X246525000Y-112925000D02*
X247741000Y-111709000D01*
X247710000Y-115160000D02*
X246525000Y-113975000D01*
X213000000Y-109975000D02*
X227375000Y-109975000D01*
X251525001Y-115525001D02*
X251525001Y-117799999D01*
X251525001Y-117799999D02*
X252425002Y-118700000D01*
X248916000Y-109459000D02*
X250925000Y-107450000D01*
X252025000Y-84700000D02*
X249725000Y-82400000D01*
X257595000Y-87670000D02*
X257345000Y-87420000D01*
X257345000Y-87420000D02*
X257345000Y-86218000D01*
X248916000Y-112783000D02*
X248916000Y-109459000D01*
X229300000Y-111900000D02*
X239525000Y-111900000D01*
X240225000Y-111200000D02*
X240225000Y-111050000D01*
X249725000Y-82400000D02*
X249725000Y-80600000D01*
X251625000Y-88425000D02*
X252025000Y-88025000D01*
X239525000Y-111900000D02*
X239700000Y-111725000D01*
X251400000Y-107450000D02*
X257125000Y-107450000D01*
X248916000Y-112783000D02*
X248916000Y-112916000D01*
X256775000Y-118700000D02*
X257425000Y-118050000D01*
X228450000Y-111050000D02*
X229300000Y-111900000D01*
X251630000Y-88430000D02*
X251625000Y-88425000D01*
X239700000Y-111725000D02*
X240225000Y-111200000D01*
X251630000Y-90028000D02*
X251630000Y-88430000D01*
X252425002Y-118700000D02*
X256775000Y-118700000D01*
X249725000Y-80600000D02*
X248925000Y-79800000D01*
X257595000Y-106980000D02*
X257595000Y-87670000D01*
X227375000Y-109975000D02*
X228450000Y-111050000D01*
X249725000Y-80150000D02*
X248975000Y-79400000D01*
X250925000Y-107450000D02*
X251400000Y-107450000D01*
X252025000Y-88025000D02*
X252025000Y-84700000D01*
X248916000Y-112916000D02*
X251525001Y-115525001D01*
X257125000Y-107450000D02*
X257595000Y-106980000D01*
X257425000Y-118050000D02*
X257425000Y-116650000D01*
X44450000Y-114925000D02*
X44450000Y-114525000D01*
X52631000Y-116339044D02*
X52631000Y-116819000D01*
X48850000Y-119050000D02*
X44725000Y-114925000D01*
X46125000Y-110925000D02*
X46900000Y-110150000D01*
X44725000Y-114925000D02*
X44450000Y-114925000D01*
X46575000Y-101875000D02*
X46575000Y-88575000D01*
X46575000Y-88575000D02*
X44505000Y-86505000D01*
X50400000Y-119050000D02*
X48850000Y-119050000D01*
X52631000Y-116819000D02*
X50400000Y-119050000D01*
X46900000Y-102200000D02*
X46575000Y-101875000D01*
X44450000Y-114525000D02*
X46125000Y-112850000D01*
X46125000Y-112850000D02*
X46125000Y-110925000D01*
X44505000Y-86505000D02*
X44505000Y-85542907D01*
X46900000Y-110150000D02*
X46900000Y-102200000D01*
X244842563Y-92151904D02*
X244842563Y-90257437D01*
X245800000Y-94825000D02*
X248420000Y-94825000D01*
X248420000Y-94825000D02*
X248455000Y-94790000D01*
X244842563Y-90257437D02*
X245125000Y-89975000D01*
X245650000Y-94825000D02*
X245800000Y-94825000D01*
X179000000Y-83125000D02*
X177300000Y-81425000D01*
X231575000Y-88699695D02*
X231575000Y-89300305D01*
X182925000Y-82500000D02*
X180300000Y-82500000D01*
X180300000Y-82500000D02*
X179675000Y-83125000D01*
X232250000Y-89725000D02*
X232250000Y-90625000D01*
X209125000Y-86250000D02*
X208075000Y-85200000D01*
X232250000Y-88275000D02*
X231999695Y-88275000D01*
X231575000Y-89300305D02*
X231999695Y-89725000D01*
X231999695Y-88275000D02*
X231575000Y-88699695D01*
X214075000Y-86250000D02*
X209125000Y-86250000D01*
X232250000Y-87825500D02*
X232250000Y-88275000D01*
X186350000Y-85925000D02*
X182925000Y-82500000D01*
X191275000Y-85925000D02*
X186350000Y-85925000D01*
X231999695Y-89725000D02*
X232250000Y-89725000D01*
X229150500Y-87825500D02*
X232250000Y-87825500D01*
X208075000Y-85200000D02*
X192000000Y-85200000D01*
X192000000Y-85200000D02*
X191275000Y-85925000D01*
X179675000Y-83125000D02*
X179000000Y-83125000D01*
X227550000Y-86225000D02*
X229150500Y-87825500D01*
X261200000Y-78300000D02*
X261225000Y-78275000D01*
X199175000Y-89550000D02*
X197950000Y-89550000D01*
X230600000Y-89025000D02*
X224875000Y-89025000D01*
X261250000Y-78300000D02*
X261250000Y-80800000D01*
X223199500Y-87349500D02*
X222150000Y-87349500D01*
X212225000Y-88000000D02*
X207596314Y-88000000D01*
X261225000Y-78275000D02*
X261250000Y-78300000D01*
X207596314Y-88000000D02*
X206046314Y-89550000D01*
X260700000Y-81350000D02*
X260700000Y-92400000D01*
X261250000Y-80800000D02*
X260700000Y-81350000D01*
X206046314Y-89550000D02*
X199175000Y-89550000D01*
X260700000Y-92400000D02*
X263545000Y-92400000D01*
X250650000Y-78300000D02*
X261200000Y-78300000D01*
X263545000Y-92400000D02*
X263695000Y-92250000D01*
X224875000Y-89025000D02*
X223525000Y-87675000D01*
X223525000Y-87675000D02*
X223199500Y-87349500D01*
X197950000Y-89550000D02*
X195450000Y-87050000D01*
X255000000Y-108325000D02*
X254175000Y-109150000D01*
X258425000Y-107450000D02*
X257550000Y-108325000D01*
X261175000Y-99850000D02*
X261075000Y-99950000D01*
X258425000Y-102850000D02*
X258425000Y-107450000D01*
X261175000Y-99850000D02*
X261175000Y-100100000D01*
X257550000Y-108325000D02*
X255000000Y-108325000D01*
X261175000Y-100100000D02*
X258425000Y-102850000D01*
X254175000Y-109150000D02*
X254025000Y-109150000D01*
X263695000Y-97330000D02*
X261175000Y-99850000D01*
X62375000Y-118100000D02*
X68825000Y-111650000D01*
X129325000Y-117600000D02*
X130250000Y-118525000D01*
X82550000Y-107600000D02*
X119325000Y-107600000D01*
X58250000Y-118100000D02*
X62375000Y-118100000D01*
X119325000Y-107600000D02*
X129325000Y-117600000D01*
X130250000Y-118525000D02*
X146075000Y-118525000D01*
X91800000Y-86550000D02*
X92680001Y-85669999D01*
X91700000Y-86450000D02*
X91800000Y-86550000D01*
X118348349Y-85669999D02*
X121778348Y-82240000D01*
X92680001Y-85669999D02*
X118348349Y-85669999D01*
X121778348Y-82240000D02*
X123615000Y-82240000D01*
X38250093Y-96750000D02*
X38155000Y-96654907D01*
X75475000Y-91000000D02*
X80025000Y-86450000D01*
X67925000Y-91000000D02*
X75475000Y-91000000D01*
X44500000Y-96750000D02*
X38250093Y-96750000D01*
X80025000Y-86450000D02*
X91700000Y-86450000D01*
X79125000Y-67000000D02*
X103353348Y-67000000D01*
X57064999Y-82360001D02*
X57225000Y-82200000D01*
X73875000Y-72250000D02*
X79125000Y-67000000D01*
X103353348Y-67000000D02*
X105173348Y-65180000D01*
X105173348Y-65180000D02*
X107405000Y-65180000D01*
X57064999Y-89514999D02*
X57064999Y-82360001D01*
X68275000Y-72250000D02*
X73875000Y-72250000D01*
X57100000Y-89550000D02*
X57064999Y-89514999D01*
X57285093Y-92014907D02*
X57285093Y-91039907D01*
X63300000Y-92200000D02*
X66678652Y-92200000D01*
X57285093Y-91039907D02*
X62139907Y-91039907D01*
X62139907Y-91039907D02*
X63300000Y-92200000D01*
X73000000Y-98521348D02*
X73000000Y-104400000D01*
X53395000Y-94114907D02*
X55185093Y-94114907D01*
X55185093Y-94114907D02*
X57285093Y-92014907D01*
X66678652Y-92200000D02*
X73000000Y-98521348D01*
X254503860Y-116650000D02*
X259250000Y-111903860D01*
X253425000Y-116650000D02*
X254503860Y-116650000D01*
X259250000Y-111903860D02*
X259250000Y-108950000D01*
X263700000Y-112500000D02*
X263700000Y-99875000D01*
X260425000Y-113950000D02*
X261875000Y-112500000D01*
X263700000Y-99875000D02*
X263695000Y-99870000D01*
X261875000Y-112500000D02*
X263700000Y-112500000D01*
X260425000Y-116650000D02*
X260425000Y-113950000D01*
X251925000Y-112450000D02*
X251925000Y-109175000D01*
X252225000Y-101100000D02*
X250995000Y-99870000D01*
X250995000Y-99870000D02*
X248455000Y-99870000D01*
X251925000Y-109175000D02*
X252000000Y-109100000D01*
X43925000Y-99225000D02*
X44500000Y-98650000D01*
X49475000Y-99125000D02*
X53325093Y-99125000D01*
X53325093Y-99125000D02*
X53395000Y-99194907D01*
X41700000Y-99225000D02*
X43925000Y-99225000D01*
X40075000Y-116700000D02*
X43700000Y-116700000D01*
X43700000Y-116700000D02*
X44075000Y-117075000D01*
X48025000Y-91200000D02*
X47525000Y-90700000D01*
X48025000Y-110250000D02*
X48025000Y-91200000D01*
X48687500Y-100087500D02*
X48575000Y-100200000D01*
X44100000Y-112325000D02*
X44100000Y-110275000D01*
X51300000Y-112783000D02*
X51300000Y-111300000D01*
X51300000Y-111300000D02*
X53325000Y-109275000D01*
X52750000Y-105875000D02*
X53325000Y-106450000D01*
X48575000Y-101700000D02*
X52750000Y-105875000D01*
X44100000Y-110275000D02*
X45650000Y-108725000D01*
X52631000Y-112783000D02*
X51300000Y-112783000D01*
X53325000Y-108525000D02*
X53325000Y-108725000D01*
X48575000Y-100200000D02*
X48575000Y-101700000D01*
X47045000Y-88145000D02*
X47045000Y-85542907D01*
X48687500Y-89787500D02*
X48687500Y-100087500D01*
X53325000Y-106450000D02*
X53325000Y-106850000D01*
X53325000Y-109275000D02*
X53325000Y-108725000D01*
X48687500Y-89787500D02*
X47045000Y-88145000D01*
X53325000Y-108725000D02*
X53325000Y-106850000D01*
X53325000Y-106450000D02*
X53325000Y-108525000D01*
M02*
