G04 #@! TF.GenerationSoftware,KiCad,Pcbnew,(6.0.9)*
G04 #@! TF.CreationDate,2023-01-06T00:22:53-03:00*
G04 #@! TF.ProjectId,pulso - hybrid -rev2,70756c73-6f20-42d2-9068-796272696420,0.3*
G04 #@! TF.SameCoordinates,Original*
G04 #@! TF.FileFunction,Soldermask,Top*
G04 #@! TF.FilePolarity,Negative*
%FSLAX46Y46*%
G04 Gerber Fmt 4.6, Leading zero omitted, Abs format (unit mm)*
G04 Created by KiCad (PCBNEW (6.0.9)) date 2023-01-06 00:22:53*
%MOMM*%
%LPD*%
G01*
G04 APERTURE LIST*
%ADD10C,0.100000*%
%ADD11C,3.000000*%
%ADD12C,1.701800*%
%ADD13C,4.000000*%
%ADD14C,0.100000*%
%ADD15C,1.900000*%
%ADD16C,1.700000*%
%ADD17C,3.987800*%
%ADD18R,1.800000X1.500000*%
%ADD19C,0.500000*%
%ADD20C,2.500000*%
%ADD21C,3.200000*%
%ADD22O,2.590000X1.790000*%
%ADD23O,2.580000X1.820000*%
%ADD24O,2.580000X1.810000*%
%ADD25O,2.580000X1.750000*%
%ADD26O,2.590000X1.780000*%
%ADD27O,2.580000X1.800000*%
%ADD28O,2.580000X1.830000*%
%ADD29O,2.490000X1.800000*%
%ADD30O,2.470000X1.810000*%
%ADD31O,2.450000X1.770000*%
%ADD32O,2.450000X1.730000*%
%ADD33O,2.430000X1.750000*%
%ADD34O,2.480000X1.800000*%
%ADD35O,2.490000X1.850000*%
%ADD36C,1.397000*%
%ADD37R,1.700000X0.900000*%
%ADD38C,1.200000*%
%ADD39C,0.900000*%
G04 APERTURE END LIST*
G36*
X238455233Y-123680409D02*
G01*
X237855233Y-124719639D01*
X237119111Y-124294639D01*
X237719111Y-123255409D01*
X238455233Y-123680409D01*
G37*
D10*
X238455233Y-123680409D02*
X237855233Y-124719639D01*
X237119111Y-124294639D01*
X237719111Y-123255409D01*
X238455233Y-123680409D01*
G36*
X240230233Y-120606019D02*
G01*
X239630233Y-121645249D01*
X238894111Y-121220249D01*
X239494111Y-120181019D01*
X240230233Y-120606019D01*
G37*
X240230233Y-120606019D02*
X239630233Y-121645249D01*
X238894111Y-121220249D01*
X239494111Y-120181019D01*
X240230233Y-120606019D01*
G36*
X81606406Y-115755039D02*
G01*
X80785369Y-115975035D01*
X80474786Y-114815924D01*
X81295823Y-114595928D01*
X81606406Y-115755039D01*
G37*
X81606406Y-115755039D02*
X80785369Y-115975035D01*
X80474786Y-114815924D01*
X81295823Y-114595928D01*
X81606406Y-115755039D01*
G36*
X82525214Y-119184076D02*
G01*
X81704177Y-119404072D01*
X81393594Y-118244961D01*
X82214631Y-118024965D01*
X82525214Y-119184076D01*
G37*
X82525214Y-119184076D02*
X81704177Y-119404072D01*
X81393594Y-118244961D01*
X82214631Y-118024965D01*
X82525214Y-119184076D01*
G36*
X218669312Y-115021827D02*
G01*
X218358729Y-116180938D01*
X217537692Y-115960942D01*
X217848275Y-114801831D01*
X218669312Y-115021827D01*
G37*
X218669312Y-115021827D02*
X218358729Y-116180938D01*
X217537692Y-115960942D01*
X217848275Y-114801831D01*
X218669312Y-115021827D01*
G36*
X217750504Y-118450864D02*
G01*
X217439921Y-119609975D01*
X216618884Y-119389979D01*
X216929467Y-118230868D01*
X217750504Y-118450864D01*
G37*
X217750504Y-118450864D02*
X217439921Y-119609975D01*
X216618884Y-119389979D01*
X216929467Y-118230868D01*
X217750504Y-118450864D01*
G36*
X60280561Y-121644920D02*
G01*
X59544439Y-122069920D01*
X58944439Y-121030690D01*
X59680561Y-120605690D01*
X60280561Y-121644920D01*
G37*
X60280561Y-121644920D02*
X59544439Y-122069920D01*
X58944439Y-121030690D01*
X59680561Y-120605690D01*
X60280561Y-121644920D01*
G36*
X62055561Y-124719310D02*
G01*
X61319439Y-125144310D01*
X60719439Y-124105080D01*
X61455561Y-123680080D01*
X62055561Y-124719310D01*
G37*
X62055561Y-124719310D02*
X61319439Y-125144310D01*
X60719439Y-124105080D01*
X61455561Y-123680080D01*
X62055561Y-124719310D01*
D11*
X164165000Y-67645000D03*
X157815000Y-70184999D03*
X161625000Y-78625000D03*
D12*
X166705000Y-72725000D03*
D13*
X161625000Y-72725000D03*
D14*
X157800000Y-70145000D03*
D15*
X167125000Y-72725000D03*
D16*
X156545000Y-72725000D03*
D15*
X156125000Y-72725000D03*
D17*
X161625000Y-72725000D03*
D16*
X166705000Y-72725000D03*
D12*
X156545000Y-72725000D03*
D11*
X156625000Y-76425000D03*
D16*
X223730000Y-78250000D03*
D15*
X213150000Y-78250000D03*
X224150000Y-78250000D03*
D17*
X218650000Y-78250000D03*
D16*
X213570000Y-78250000D03*
D11*
X214840000Y-75709999D03*
X213650000Y-81950000D03*
D14*
X214825000Y-75670000D03*
D12*
X213570000Y-78250000D03*
D11*
X221190000Y-73170000D03*
D12*
X223730000Y-78250000D03*
D11*
X218650000Y-84150000D03*
D13*
X218650000Y-78250000D03*
D18*
X65575000Y-89725000D03*
X62175000Y-89725000D03*
D15*
X156125000Y-110725000D03*
D11*
X164165000Y-105645000D03*
X161625000Y-116625000D03*
D12*
X156545000Y-110725000D03*
D11*
X156625000Y-114425000D03*
D14*
X157800000Y-108145000D03*
D15*
X167125000Y-110725000D03*
D11*
X157815000Y-108184999D03*
D16*
X156545000Y-110725000D03*
D12*
X166705000Y-110725000D03*
D13*
X161625000Y-110725000D03*
D17*
X161625000Y-110725000D03*
D16*
X166705000Y-110725000D03*
D18*
X220350000Y-69675000D03*
X216950000Y-69675000D03*
D19*
X149784000Y-70982000D03*
X149784000Y-67934000D03*
X149784000Y-68950000D03*
X151816000Y-67934000D03*
X151816000Y-68950000D03*
X149784000Y-69966000D03*
X151816000Y-69966000D03*
X151816000Y-70982000D03*
X151816000Y-66918000D03*
X149784000Y-66918000D03*
D17*
X63940000Y-80733000D03*
D11*
X58940000Y-84433000D03*
D12*
X58860000Y-80733000D03*
D15*
X58440000Y-80733000D03*
D13*
X63940000Y-80733000D03*
D15*
X69440000Y-80733000D03*
D12*
X69020000Y-80733000D03*
D11*
X60130000Y-78192999D03*
D16*
X58860000Y-80733000D03*
D14*
X60115000Y-78153000D03*
D11*
X63940000Y-86633000D03*
D16*
X69020000Y-80733000D03*
D11*
X66480000Y-75653000D03*
D20*
X53500000Y-79400000D03*
D18*
X103825000Y-101675000D03*
X100425000Y-101675000D03*
D12*
X223730000Y-59250000D03*
D11*
X218650000Y-65150000D03*
D14*
X214825000Y-56670000D03*
D16*
X223730000Y-59250000D03*
D15*
X224150000Y-59250000D03*
D17*
X218650000Y-59250000D03*
D12*
X213570000Y-59250000D03*
D11*
X213650000Y-62950000D03*
D16*
X213570000Y-59250000D03*
D13*
X218650000Y-59250000D03*
D15*
X213150000Y-59250000D03*
D11*
X221190000Y-54170000D03*
X214840000Y-56709999D03*
D21*
X174029000Y-109263000D03*
D22*
X248060000Y-84625000D03*
D23*
X248065000Y-87180000D03*
D24*
X248065000Y-89715000D03*
D25*
X248065000Y-92225000D03*
D26*
X248060000Y-94780000D03*
D27*
X248065000Y-97330000D03*
D28*
X248065000Y-99885000D03*
D29*
X264040000Y-99870000D03*
D30*
X264030000Y-97335000D03*
D31*
X264020000Y-94775000D03*
D32*
X264020000Y-92215000D03*
D33*
X264010000Y-89685000D03*
D34*
X264035000Y-87170000D03*
D35*
X264040000Y-84655000D03*
D36*
X254805000Y-83678000D03*
X257345000Y-83678000D03*
X254805000Y-86218000D03*
X257345000Y-86218000D03*
X251630000Y-91933000D03*
X251630000Y-90028000D03*
D18*
X122375000Y-70775000D03*
X118975000Y-70775000D03*
D11*
X233795000Y-97192999D03*
D16*
X242685000Y-99733000D03*
X232525000Y-99733000D03*
D14*
X233780000Y-97153000D03*
D13*
X237605000Y-99733000D03*
D11*
X237605000Y-105633000D03*
D15*
X232105000Y-99733000D03*
D12*
X232525000Y-99733000D03*
D15*
X243105000Y-99733000D03*
D11*
X240145000Y-94653000D03*
X232605000Y-103433000D03*
D17*
X237605000Y-99733000D03*
D12*
X242685000Y-99733000D03*
D11*
X101920000Y-60525000D03*
D13*
X101920000Y-54625000D03*
D16*
X107000000Y-54625000D03*
D15*
X107420000Y-54625000D03*
D14*
X98095000Y-52045000D03*
D17*
X101920000Y-54625000D03*
D11*
X98110000Y-52084999D03*
D15*
X96420000Y-54625000D03*
D11*
X104460000Y-49545000D03*
D12*
X96840000Y-54625000D03*
D11*
X96920000Y-58325000D03*
D12*
X107000000Y-54625000D03*
D16*
X96840000Y-54625000D03*
D18*
X65675000Y-71100000D03*
X62275000Y-71100000D03*
X239425000Y-70850000D03*
X236025000Y-70850000D03*
D13*
X82920000Y-59193000D03*
D11*
X85460000Y-54113000D03*
D16*
X77840000Y-59193000D03*
D17*
X82920000Y-59193000D03*
D11*
X77920000Y-62893000D03*
X79110000Y-56652999D03*
D12*
X88000000Y-59193000D03*
D16*
X88000000Y-59193000D03*
D15*
X77420000Y-59193000D03*
D14*
X79095000Y-56613000D03*
D15*
X88420000Y-59193000D03*
D11*
X82920000Y-65093000D03*
D12*
X77840000Y-59193000D03*
D18*
X103775000Y-83225000D03*
X100375000Y-83225000D03*
D15*
X96420000Y-92625000D03*
X107420000Y-92625000D03*
D11*
X98110000Y-90084999D03*
X96920000Y-96325000D03*
D16*
X107000000Y-92625000D03*
D12*
X107000000Y-92625000D03*
D14*
X98095000Y-90045000D03*
D12*
X96840000Y-92625000D03*
D16*
X96840000Y-92625000D03*
D11*
X104460000Y-87545000D03*
D17*
X101920000Y-92625000D03*
D13*
X101920000Y-92625000D03*
D11*
X101920000Y-98525000D03*
X183167500Y-55807500D03*
D17*
X180627500Y-60887500D03*
D12*
X185707500Y-60887500D03*
D11*
X180627500Y-66787500D03*
D16*
X175547500Y-60887500D03*
D11*
X175627500Y-64587500D03*
X176817500Y-58347499D03*
D12*
X175547500Y-60887500D03*
D13*
X180627500Y-60887500D03*
D15*
X186127500Y-60887500D03*
D16*
X185707500Y-60887500D03*
D15*
X175127500Y-60887500D03*
D14*
X176802500Y-58307500D03*
D15*
X242811860Y-125479000D03*
D11*
X241394873Y-128933294D03*
X245545444Y-124124295D03*
X244625000Y-133338550D03*
D17*
X247575000Y-128229000D03*
D16*
X243175591Y-125689000D03*
D15*
X252338140Y-130979000D03*
D16*
X251974409Y-130769000D03*
D13*
X247575000Y-128229000D03*
D12*
X243175591Y-125689000D03*
X243175591Y-125689000D03*
X251974409Y-130769000D03*
X251974409Y-130769000D03*
D11*
X252314705Y-125099591D03*
D14*
X245552453Y-124082154D03*
D17*
X247575000Y-128229000D03*
D21*
X255817000Y-120947000D03*
D14*
X224863016Y-116518681D03*
D12*
X222990097Y-118698199D03*
D15*
X233202521Y-121424257D03*
D11*
X222102669Y-122280583D03*
X224867152Y-116561199D03*
D12*
X222983026Y-118685952D03*
X232796832Y-121315553D03*
D16*
X222983026Y-118685952D03*
D11*
X226362897Y-125699715D03*
D15*
X222577337Y-118577248D03*
D13*
X227889929Y-120000753D03*
D17*
X227897000Y-120013000D03*
D16*
X232796832Y-121315553D03*
D11*
X231658181Y-115751250D03*
D17*
X227889929Y-120000753D03*
D12*
X232803903Y-121327801D03*
D37*
X52631000Y-112783000D03*
X52631000Y-116183000D03*
D18*
X182325000Y-71275000D03*
X178925000Y-71275000D03*
D16*
X204705000Y-73625000D03*
D14*
X195800000Y-71045000D03*
D15*
X194125000Y-73625000D03*
D11*
X199625000Y-79525000D03*
D12*
X204705000Y-73625000D03*
D11*
X195815000Y-71084999D03*
D12*
X194545000Y-73625000D03*
D11*
X202165000Y-68545000D03*
D16*
X194545000Y-73625000D03*
D11*
X194625000Y-77325000D03*
D13*
X199625000Y-73625000D03*
D17*
X199625000Y-73625000D03*
D15*
X205125000Y-73625000D03*
D11*
X58940000Y-103433000D03*
X66480000Y-94653000D03*
D12*
X69020000Y-99733000D03*
D13*
X63940000Y-99733000D03*
D12*
X58860000Y-99733000D03*
D15*
X69440000Y-99733000D03*
D11*
X60130000Y-97192999D03*
D15*
X58440000Y-99733000D03*
D17*
X63940000Y-99733000D03*
D14*
X60115000Y-97153000D03*
D16*
X69020000Y-99733000D03*
D11*
X63940000Y-105633000D03*
D16*
X58860000Y-99733000D03*
D12*
X145000000Y-72725000D03*
D16*
X134840000Y-72725000D03*
X145000000Y-72725000D03*
D11*
X142460000Y-67645000D03*
D17*
X139920000Y-72725000D03*
D11*
X136110000Y-70184999D03*
X134920000Y-76425000D03*
X139920000Y-78625000D03*
D15*
X145420000Y-72725000D03*
D12*
X134840000Y-72725000D03*
D14*
X136095000Y-70145000D03*
D15*
X134420000Y-72725000D03*
D13*
X139920000Y-72725000D03*
D18*
X201425000Y-82325000D03*
X198025000Y-82325000D03*
D21*
X229401000Y-52113000D03*
D19*
X149809000Y-110359000D03*
X149809000Y-109343000D03*
X151841000Y-113407000D03*
X151841000Y-111375000D03*
X149809000Y-112391000D03*
X151841000Y-109343000D03*
X149809000Y-113407000D03*
X149809000Y-111375000D03*
X151841000Y-112391000D03*
X151841000Y-110359000D03*
D38*
X39300000Y-114425000D03*
X46300000Y-114425000D03*
D14*
X176802500Y-77307500D03*
D15*
X175127500Y-79887500D03*
D12*
X185707500Y-79887500D03*
X175547500Y-79887500D03*
D16*
X185707500Y-79887500D03*
D11*
X183167500Y-74807500D03*
X180627500Y-85787500D03*
D15*
X186127500Y-79887500D03*
D16*
X175547500Y-79887500D03*
D13*
X180627500Y-79887500D03*
D11*
X175627500Y-83587500D03*
X176817500Y-77347499D03*
D17*
X180627500Y-79887500D03*
D18*
X220325000Y-88550000D03*
X216925000Y-88550000D03*
D15*
X115420000Y-98850000D03*
D11*
X115920000Y-102550000D03*
D16*
X115840000Y-98850000D03*
D12*
X126000000Y-98850000D03*
D17*
X120920000Y-98850000D03*
D11*
X117110000Y-96309999D03*
X123460000Y-93770000D03*
D12*
X115840000Y-98850000D03*
D15*
X126420000Y-98850000D03*
D13*
X120920000Y-98850000D03*
D11*
X120920000Y-104750000D03*
D14*
X117095000Y-96270000D03*
D16*
X126000000Y-98850000D03*
D18*
X65925000Y-109200000D03*
X62525000Y-109200000D03*
D38*
X255225000Y-114550000D03*
X262225000Y-114550000D03*
D21*
X168822000Y-62019000D03*
D18*
X141450000Y-82850000D03*
X138050000Y-82850000D03*
D20*
X38225000Y-79350000D03*
D18*
X122525000Y-89725000D03*
X119125000Y-89725000D03*
X141525000Y-63975000D03*
X138125000Y-63975000D03*
X182250000Y-90275000D03*
X178850000Y-90275000D03*
D13*
X139920000Y-110725000D03*
D11*
X134920000Y-114425000D03*
X136110000Y-108184999D03*
D16*
X134840000Y-110725000D03*
D17*
X139920000Y-110725000D03*
D12*
X145000000Y-110725000D03*
D11*
X139920000Y-116625000D03*
D15*
X134420000Y-110725000D03*
X145420000Y-110725000D03*
D14*
X136095000Y-108145000D03*
D12*
X134840000Y-110725000D03*
D16*
X145000000Y-110725000D03*
D11*
X142460000Y-105645000D03*
D37*
X248916000Y-112783000D03*
X248916000Y-116183000D03*
D11*
X142460000Y-86645000D03*
X134920000Y-95425000D03*
D15*
X145420000Y-91725000D03*
D17*
X139920000Y-91725000D03*
D16*
X145000000Y-91725000D03*
D11*
X136110000Y-89184999D03*
D16*
X134840000Y-91725000D03*
D13*
X139920000Y-91725000D03*
D11*
X139920000Y-97625000D03*
D12*
X145000000Y-91725000D03*
D14*
X136095000Y-89145000D03*
D15*
X134420000Y-91725000D03*
D12*
X134840000Y-91725000D03*
D18*
X201375000Y-63900000D03*
X197975000Y-63900000D03*
D11*
X213650000Y-100950000D03*
D16*
X223730000Y-97250000D03*
D11*
X214840000Y-94709999D03*
X221190000Y-92170000D03*
X218650000Y-103150000D03*
D12*
X223730000Y-97250000D03*
D16*
X213570000Y-97250000D03*
D17*
X218650000Y-97250000D03*
D14*
X214825000Y-94670000D03*
D15*
X224150000Y-97250000D03*
X213150000Y-97250000D03*
D13*
X218650000Y-97250000D03*
D12*
X213570000Y-97250000D03*
D18*
X201450000Y-101100000D03*
X198050000Y-101100000D03*
X141450000Y-101775000D03*
X138050000Y-101775000D03*
D14*
X98095000Y-71045000D03*
D12*
X96840000Y-73625000D03*
D11*
X104460000Y-68545000D03*
D12*
X107000000Y-73625000D03*
D13*
X101920000Y-73625000D03*
D11*
X96920000Y-77325000D03*
X101920000Y-79525000D03*
D17*
X101920000Y-73625000D03*
D11*
X98110000Y-71084999D03*
D15*
X107420000Y-73625000D03*
D16*
X107000000Y-73625000D03*
D15*
X96420000Y-73625000D03*
D16*
X96840000Y-73625000D03*
D12*
X194545000Y-92625000D03*
D11*
X202165000Y-87545000D03*
X194625000Y-96325000D03*
D15*
X205125000Y-92625000D03*
D17*
X199625000Y-92625000D03*
D16*
X194545000Y-92625000D03*
D14*
X195800000Y-90045000D03*
D16*
X204705000Y-92625000D03*
D13*
X199625000Y-92625000D03*
D11*
X199625000Y-98525000D03*
D12*
X204705000Y-92625000D03*
D15*
X194125000Y-92625000D03*
D11*
X195815000Y-90084999D03*
D15*
X126420000Y-79850000D03*
D12*
X126000000Y-79850000D03*
D11*
X117110000Y-77309999D03*
D12*
X115840000Y-79850000D03*
D13*
X120920000Y-79850000D03*
D15*
X115420000Y-79850000D03*
D16*
X115840000Y-79850000D03*
D11*
X115920000Y-83550000D03*
X120920000Y-85750000D03*
X123460000Y-74770000D03*
D14*
X117095000Y-77270000D03*
D16*
X126000000Y-79850000D03*
D17*
X120920000Y-79850000D03*
D14*
X233780000Y-59153000D03*
D13*
X237605000Y-61733000D03*
D11*
X233795000Y-59192999D03*
D15*
X243105000Y-61733000D03*
D17*
X237605000Y-61733000D03*
D11*
X240145000Y-56653000D03*
X237605000Y-67633000D03*
X232605000Y-65433000D03*
D12*
X242685000Y-61733000D03*
X232525000Y-61733000D03*
D16*
X242685000Y-61733000D03*
X232525000Y-61733000D03*
D15*
X232105000Y-61733000D03*
D18*
X163600000Y-63675000D03*
X160200000Y-63675000D03*
D15*
X58440000Y-61733000D03*
D17*
X63940000Y-61733000D03*
D11*
X63940000Y-67633000D03*
D16*
X58860000Y-61733000D03*
X69020000Y-61733000D03*
D11*
X58940000Y-65433000D03*
X66480000Y-56653000D03*
D13*
X63940000Y-61733000D03*
D15*
X69440000Y-61733000D03*
D11*
X60130000Y-59192999D03*
D12*
X58860000Y-61733000D03*
X69020000Y-61733000D03*
D14*
X60115000Y-59153000D03*
D20*
X263700000Y-79325000D03*
D18*
X182725000Y-52225000D03*
X179325000Y-52225000D03*
X239425000Y-89450000D03*
X236025000Y-89450000D03*
X239400000Y-108300000D03*
X236000000Y-108300000D03*
D11*
X85460000Y-73113000D03*
X77920000Y-81893000D03*
D16*
X88000000Y-78193000D03*
D12*
X88000000Y-78193000D03*
D14*
X79095000Y-75613000D03*
D11*
X82920000Y-84093000D03*
D17*
X82920000Y-78193000D03*
D15*
X77420000Y-78193000D03*
D13*
X82920000Y-78193000D03*
D16*
X77840000Y-78193000D03*
D11*
X79110000Y-75652999D03*
D12*
X77840000Y-78193000D03*
D15*
X88420000Y-78193000D03*
D13*
X82875000Y-97200000D03*
D15*
X77375000Y-97200000D03*
D16*
X77795000Y-97200000D03*
D12*
X77795000Y-97200000D03*
D11*
X82875000Y-103100000D03*
X85415000Y-92120000D03*
D16*
X87955000Y-97200000D03*
D14*
X79050000Y-94620000D03*
D11*
X77875000Y-100900000D03*
D15*
X88375000Y-97200000D03*
D17*
X82875000Y-97200000D03*
D11*
X79065000Y-94659999D03*
D12*
X87955000Y-97200000D03*
D16*
X242685000Y-80733000D03*
D17*
X237605000Y-80733000D03*
D12*
X232525000Y-80733000D03*
D11*
X233795000Y-78192999D03*
D14*
X233780000Y-78153000D03*
D15*
X232105000Y-80733000D03*
D12*
X242685000Y-80733000D03*
D11*
X240145000Y-75653000D03*
D13*
X237605000Y-80733000D03*
D11*
X237605000Y-86633000D03*
X232605000Y-84433000D03*
D16*
X232525000Y-80733000D03*
D15*
X243105000Y-80733000D03*
D20*
X248925000Y-79800000D03*
D11*
X156625000Y-95425000D03*
D16*
X156545000Y-91725000D03*
D15*
X167125000Y-91725000D03*
D11*
X164165000Y-86645000D03*
D12*
X156545000Y-91725000D03*
D14*
X157800000Y-89145000D03*
D11*
X161625000Y-97625000D03*
D15*
X156125000Y-91725000D03*
D17*
X161625000Y-91725000D03*
D11*
X157815000Y-89184999D03*
D12*
X166705000Y-91725000D03*
D16*
X166705000Y-91725000D03*
D13*
X161625000Y-91725000D03*
D15*
X205125000Y-54625000D03*
D11*
X195815000Y-52084999D03*
D17*
X199625000Y-54625000D03*
D13*
X199625000Y-54625000D03*
D11*
X202165000Y-49545000D03*
X194625000Y-58325000D03*
D12*
X194545000Y-54625000D03*
D14*
X195800000Y-52045000D03*
D15*
X194125000Y-54625000D03*
D11*
X199625000Y-60525000D03*
D16*
X204705000Y-54625000D03*
X194545000Y-54625000D03*
D12*
X204705000Y-54625000D03*
D18*
X163400000Y-83175000D03*
X160000000Y-83175000D03*
X103625000Y-64250000D03*
X100225000Y-64250000D03*
D11*
X175627500Y-102587500D03*
D17*
X180627500Y-98887500D03*
D12*
X175547500Y-98887500D03*
D16*
X175547500Y-98887500D03*
D14*
X176802500Y-96307500D03*
D11*
X180627500Y-104787500D03*
D15*
X175127500Y-98887500D03*
D16*
X185707500Y-98887500D03*
D15*
X186127500Y-98887500D03*
D11*
X183167500Y-93807500D03*
D13*
X180627500Y-98887500D03*
D12*
X185707500Y-98887500D03*
D11*
X176817500Y-96347499D03*
D18*
X84725000Y-88025000D03*
X81325000Y-88025000D03*
X220175000Y-50775000D03*
X216775000Y-50775000D03*
D15*
X126420000Y-60850000D03*
D12*
X126000000Y-60850000D03*
D11*
X115920000Y-64550000D03*
D13*
X120920000Y-60850000D03*
D14*
X117095000Y-58270000D03*
D17*
X120920000Y-60850000D03*
D11*
X117110000Y-58309999D03*
X120920000Y-66750000D03*
X123460000Y-55770000D03*
D12*
X115840000Y-60850000D03*
D15*
X115420000Y-60850000D03*
D16*
X115840000Y-60850000D03*
X126000000Y-60850000D03*
D18*
X84725000Y-50325000D03*
X81325000Y-50325000D03*
X122025000Y-52275000D03*
X118625000Y-52275000D03*
D22*
X37760000Y-83949907D03*
D23*
X37765000Y-86504907D03*
D24*
X37765000Y-89039907D03*
D25*
X37765000Y-91549907D03*
D26*
X37760000Y-94104907D03*
D27*
X37765000Y-96654907D03*
D28*
X37765000Y-99209907D03*
D29*
X53740000Y-99194907D03*
D30*
X53730000Y-96659907D03*
D31*
X53720000Y-94099907D03*
D32*
X53720000Y-91539907D03*
D33*
X53710000Y-89009907D03*
D34*
X53735000Y-86494907D03*
D35*
X53740000Y-83979907D03*
D36*
X44505000Y-83002907D03*
X47045000Y-83002907D03*
X44505000Y-85542907D03*
X47045000Y-85542907D03*
X41330000Y-91257907D03*
X41330000Y-89352907D03*
D18*
X163600000Y-102075000D03*
X160200000Y-102075000D03*
X84625000Y-69200000D03*
X81225000Y-69200000D03*
D39*
X254875000Y-79280000D03*
X257875000Y-79230000D03*
X44100000Y-79275000D03*
X47100000Y-79225000D03*
D21*
X72144000Y-52113000D03*
X45728000Y-120947000D03*
D13*
X73635753Y-120005929D03*
D17*
X73648000Y-120013000D03*
D15*
X78948345Y-118582424D03*
D16*
X78542656Y-118691128D03*
D12*
X68741097Y-121327801D03*
X78554903Y-118698199D03*
D15*
X68323161Y-121429434D03*
D12*
X78542656Y-118691128D03*
D16*
X68728849Y-121320730D03*
D14*
X69273333Y-118503823D03*
D12*
X68728849Y-121320730D03*
D11*
X74774403Y-114441625D03*
X69298175Y-118538577D03*
D17*
X73635753Y-120005929D03*
D11*
X75162785Y-125704891D03*
X69763754Y-124873950D03*
D21*
X127516000Y-109263000D03*
D11*
X56920000Y-133338550D03*
D12*
X49570591Y-130769000D03*
D17*
X53970000Y-128229000D03*
D12*
X49570591Y-130769000D03*
D17*
X53970000Y-128229000D03*
D15*
X58733140Y-125479000D03*
D16*
X58369409Y-125689000D03*
X49570591Y-130769000D03*
D11*
X49400443Y-127934295D03*
D12*
X58369409Y-125689000D03*
D11*
X53629705Y-122559591D03*
D14*
X49367453Y-127907154D03*
D12*
X58369409Y-125689000D03*
D13*
X53970000Y-128229000D03*
D15*
X49206860Y-130979000D03*
D11*
X51489873Y-133933294D03*
D21*
X132723000Y-62019000D03*
M02*
