M48
; DRILL file {KiCad (6.0.9)} date Fri Jan  6 00:22:51 2023
; FORMAT={-:-/ absolute / inch / decimal}
; #@! TF.CreationDate,2023-01-06T00:22:51-03:00
; #@! TF.GenerationSoftware,Kicad,Pcbnew,(6.0.9)
; #@! TF.FileFunction,NonPlated,1,2,NPTH
FMAT,2
INCH
; #@! TA.AperFunction,NonPlated,NPTH,ComponentDrill
T1C0.0039
; #@! TA.AperFunction,NonPlated,NPTH,ComponentDrill
T2C0.0197
; #@! TA.AperFunction,NonPlated,NPTH,ComponentDrill
T3C0.0276
; #@! TA.AperFunction,NonPlated,NPTH,ComponentDrill
T4C0.0472
; #@! TA.AperFunction,NonPlated,NPTH,ComponentDrill
T5C0.0669
; #@! TA.AperFunction,NonPlated,NPTH,ComponentDrill
T6C0.0670
; #@! TA.AperFunction,NonPlated,NPTH,ComponentDrill
T7C0.0748
; #@! TA.AperFunction,NonPlated,NPTH,ComponentDrill
T8C0.1181
; #@! TA.AperFunction,NonPlated,NPTH,ComponentDrill
T9C0.1260
; #@! TA.AperFunction,NonPlated,NPTH,ComponentDrill
T10C0.1570
; #@! TA.AperFunction,NonPlated,NPTH,ComponentDrill
T11C0.1575
%
G90
G05
T1
X1.9436Y-5.0357
X2.3667Y-2.3289
X2.3667Y-3.0769
X2.3667Y-3.8249
X2.7273Y-4.6655
X3.1122Y-3.7252
X3.114Y-2.2289
X3.114Y-2.9769
X3.862Y-2.049
X3.862Y-2.797
X3.862Y-3.5451
X4.61Y-2.2941
X4.61Y-3.0421
X4.61Y-3.7902
X5.3581Y-2.7616
X5.3581Y-3.5096
X5.3581Y-4.2577
X6.2126Y-2.7616
X6.2126Y-3.5096
X6.2126Y-4.2577
X6.9607Y-2.2956
X6.9607Y-3.0436
X6.9607Y-3.7916
X7.7087Y-2.049
X7.7087Y-2.797
X7.7087Y-3.5451
X8.4577Y-2.2311
X8.4577Y-2.9791
X8.4577Y-3.7272
X8.8529Y-4.5873
X9.2039Y-2.3289
X9.2039Y-3.0769
X9.2039Y-3.8249
X9.6674Y-4.8851
T2
X5.897Y-2.6346
X5.897Y-2.6746
X5.897Y-2.7146
X5.897Y-2.7546
X5.897Y-2.7946
X5.898Y-4.3048
X5.898Y-4.3448
X5.898Y-4.3848
X5.898Y-4.4248
X5.898Y-4.4648
X5.977Y-2.6346
X5.977Y-2.6746
X5.977Y-2.7146
X5.977Y-2.7546
X5.977Y-2.7946
X5.978Y-4.3048
X5.978Y-4.3448
X5.978Y-4.3848
X5.978Y-4.4248
X5.978Y-4.4648
T3
X1.7362Y-3.1211
X1.8543Y-3.1191
X10.0344Y-3.1213
X10.1526Y-3.1193
T4
X1.5472Y-4.5049
X1.8228Y-4.5049
X10.0482Y-4.5098
X10.3238Y-4.5098
T5
X1.9516Y-5.1484
X2.298Y-4.9484
X2.3173Y-2.4304
X2.3173Y-3.1785
X2.3173Y-3.9265
X2.7059Y-4.7764
X2.7173Y-2.4304
X2.7173Y-3.1785
X2.7173Y-3.9265
X3.0628Y-3.8268
X3.0646Y-2.3304
X3.0646Y-3.0785
X3.0922Y-4.6729
X3.4628Y-3.8268
X3.4646Y-2.3304
X3.4646Y-3.0785
X3.8126Y-2.1506
X3.8126Y-2.8986
X3.8126Y-3.6467
X4.2126Y-2.1506
X4.2126Y-2.8986
X4.2126Y-3.6467
X4.5606Y-2.3957
X4.5606Y-3.1437
X4.5606Y-3.8917
X4.9606Y-2.3957
X4.9606Y-3.1437
X4.9606Y-3.8917
X5.3087Y-2.8632
X5.3087Y-3.6112
X5.3087Y-4.3593
X5.7087Y-2.8632
X5.7087Y-3.6112
X5.7087Y-4.3593
X6.1632Y-2.8632
X6.1632Y-3.6112
X6.1632Y-4.3593
X6.5632Y-2.8632
X6.5632Y-3.6112
X6.5632Y-4.3593
X6.9113Y-2.3971
X6.9113Y-3.1452
X6.9113Y-3.8932
X7.3113Y-2.3971
X7.3113Y-3.1452
X7.3113Y-3.8932
X7.6593Y-2.1506
X7.6593Y-2.8986
X7.6593Y-3.6467
X8.0593Y-2.1506
X8.0593Y-2.8986
X8.0593Y-3.6467
X8.4083Y-2.3327
X8.4083Y-3.0807
X8.4083Y-3.8287
X8.7789Y-4.6727
X8.8083Y-2.3327
X8.8083Y-3.0807
X8.8083Y-3.8287
X9.1545Y-2.4304
X9.1545Y-3.1785
X9.1545Y-3.9265
X9.1652Y-4.7762
X9.5545Y-2.4304
X9.5545Y-3.1785
X9.5545Y-3.9265
X9.5738Y-4.9484
X9.9203Y-5.1484
T6
X1.9516Y-5.1484
X1.9516Y-5.1484
X2.298Y-4.9484
X2.298Y-4.9484
X2.3173Y-2.4304
X2.3173Y-3.1785
X2.3173Y-3.9265
X2.7059Y-4.7764
X2.7063Y-4.7767
X2.7173Y-2.4304
X2.7173Y-3.1785
X2.7173Y-3.9265
X3.0628Y-3.8268
X3.0646Y-2.3304
X3.0646Y-3.0785
X3.0922Y-4.6729
X3.0927Y-4.6732
X3.4628Y-3.8268
X3.4646Y-2.3304
X3.4646Y-3.0785
X3.8126Y-2.1506
X3.8126Y-2.8986
X3.8126Y-3.6467
X4.2126Y-2.1506
X4.2126Y-2.8986
X4.2126Y-3.6467
X4.5606Y-2.3957
X4.5606Y-3.1437
X4.5606Y-3.8917
X4.9606Y-2.3957
X4.9606Y-3.1437
X4.9606Y-3.8917
X5.3087Y-2.8632
X5.3087Y-3.6112
X5.3087Y-4.3593
X5.7087Y-2.8632
X5.7087Y-3.6112
X5.7087Y-4.3593
X6.1632Y-2.8632
X6.1632Y-3.6112
X6.1632Y-4.3593
X6.5632Y-2.8632
X6.5632Y-3.6112
X6.5632Y-4.3593
X6.9113Y-2.3971
X6.9113Y-3.1452
X6.9113Y-3.8932
X7.3113Y-2.3971
X7.3113Y-3.1452
X7.3113Y-3.8932
X7.6593Y-2.1506
X7.6593Y-2.8986
X7.6593Y-3.6467
X8.0593Y-2.1506
X8.0593Y-2.8986
X8.0593Y-3.6467
X8.4083Y-2.3327
X8.4083Y-3.0807
X8.4083Y-3.8287
X8.7789Y-4.6727
X8.7791Y-4.6732
X8.8083Y-2.3327
X8.8083Y-3.0807
X8.8083Y-3.8287
X9.1545Y-2.4304
X9.1545Y-3.1785
X9.1545Y-3.9265
X9.1652Y-4.7762
X9.1655Y-4.7767
X9.5545Y-2.4304
X9.5545Y-3.1785
X9.5545Y-3.9265
X9.5738Y-4.9484
X9.5738Y-4.9484
X9.9203Y-5.1484
X9.9203Y-5.1484
T7
X1.9373Y-5.1567
X2.3008Y-2.4304
X2.3008Y-3.1785
X2.3008Y-3.9265
X2.3123Y-4.9401
X2.6899Y-4.7807
X2.7339Y-2.4304
X2.7339Y-3.1785
X2.7339Y-3.9265
X3.0463Y-3.8268
X3.048Y-2.3304
X3.048Y-3.0785
X3.1082Y-4.6686
X3.4793Y-3.8268
X3.4811Y-2.3304
X3.4811Y-3.0785
X3.7961Y-2.1506
X3.7961Y-2.8986
X3.7961Y-3.6467
X4.2291Y-2.1506
X4.2291Y-2.8986
X4.2291Y-3.6467
X4.5441Y-2.3957
X4.5441Y-3.1437
X4.5441Y-3.8917
X4.9772Y-2.3957
X4.9772Y-3.1437
X4.9772Y-3.8917
X5.2921Y-2.8632
X5.2921Y-3.6112
X5.2921Y-4.3593
X5.7252Y-2.8632
X5.7252Y-3.6112
X5.7252Y-4.3593
X6.1467Y-2.8632
X6.1467Y-3.6112
X6.1467Y-4.3593
X6.5797Y-2.8632
X6.5797Y-3.6112
X6.5797Y-4.3593
X6.8948Y-2.3971
X6.8948Y-3.1452
X6.8948Y-3.8932
X7.3279Y-2.3971
X7.3279Y-3.1452
X7.3279Y-3.8932
X7.6427Y-2.1506
X7.6427Y-2.8986
X7.6427Y-3.6467
X8.0758Y-2.1506
X8.0758Y-2.8986
X8.0758Y-3.6467
X8.3917Y-2.3327
X8.3917Y-3.0807
X8.3917Y-3.8287
X8.7629Y-4.6684
X8.8248Y-2.3327
X8.8248Y-3.0807
X8.8248Y-3.8287
X9.138Y-2.4304
X9.138Y-3.1785
X9.138Y-3.9265
X9.1812Y-4.7805
X9.5595Y-4.9401
X9.5711Y-2.4304
X9.5711Y-3.1785
X9.5711Y-3.9265
X9.9346Y-5.1567
T8
X1.9449Y-5.0368
X2.0272Y-5.273
X2.1114Y-4.8252
X2.2409Y-5.2495
X2.3205Y-2.5761
X2.3205Y-3.3241
X2.3205Y-4.0722
X2.3673Y-2.3304
X2.3673Y-3.0785
X2.3673Y-3.8265
X2.5173Y-2.6627
X2.5173Y-3.4107
X2.5173Y-4.1588
X2.6173Y-2.2304
X2.6173Y-2.9785
X2.6173Y-3.7265
X2.7283Y-4.6669
X2.7466Y-4.9163
X2.9439Y-4.5056
X2.9592Y-4.949
X3.0659Y-3.9724
X3.0677Y-2.4761
X3.0677Y-3.2241
X3.1128Y-3.7268
X3.1146Y-2.2304
X3.1146Y-2.9785
X3.2628Y-4.0591
X3.2646Y-2.5627
X3.2646Y-3.3107
X3.3628Y-3.6268
X3.3646Y-2.1304
X3.3646Y-2.8785
X3.8157Y-2.2963
X3.8157Y-3.0443
X3.8157Y-3.7923
X3.8626Y-2.0506
X3.8626Y-2.7986
X3.8626Y-3.5467
X4.0126Y-2.3829
X4.0126Y-3.1309
X4.0126Y-3.8789
X4.1126Y-1.9506
X4.1126Y-2.6986
X4.1126Y-3.4467
X4.5638Y-2.5413
X4.5638Y-3.2894
X4.5638Y-4.0374
X4.6106Y-2.2957
X4.6106Y-3.0437
X4.6106Y-3.7917
X4.7606Y-2.628
X4.7606Y-3.376
X4.7606Y-4.124
X4.8606Y-2.1957
X4.8606Y-2.9437
X4.8606Y-3.6917
X5.3118Y-3.0089
X5.3118Y-3.7569
X5.3118Y-4.5049
X5.3587Y-2.7632
X5.3587Y-3.5112
X5.3587Y-4.2593
X5.5087Y-3.0955
X5.5087Y-3.8435
X5.5087Y-4.5915
X5.6087Y-2.6632
X5.6087Y-3.4112
X5.6087Y-4.1593
X6.1663Y-3.0089
X6.1663Y-3.7569
X6.1663Y-4.5049
X6.2132Y-2.7632
X6.2132Y-3.5112
X6.2132Y-4.2593
X6.3632Y-3.0955
X6.3632Y-3.8435
X6.3632Y-4.5915
X6.4632Y-2.6632
X6.4632Y-3.4112
X6.4632Y-4.1593
X6.9145Y-2.5428
X6.9145Y-3.2908
X6.9145Y-4.0389
X6.9613Y-2.2971
X6.9613Y-3.0452
X6.9613Y-3.7932
X7.1113Y-2.6294
X7.1113Y-3.3775
X7.1113Y-4.1255
X7.2113Y-2.1971
X7.2113Y-2.9452
X7.2113Y-3.6932
X7.6624Y-2.2963
X7.6624Y-3.0443
X7.6624Y-3.7923
X7.7093Y-2.0506
X7.7093Y-2.7986
X7.7093Y-3.5467
X7.8593Y-2.3829
X7.8593Y-3.1309
X7.8593Y-3.8789
X7.9593Y-1.9506
X7.9593Y-2.6986
X7.9593Y-3.4467
X8.4114Y-2.4783
X8.4114Y-3.2264
X8.4114Y-3.9744
X8.4583Y-2.2327
X8.4583Y-2.9807
X8.4583Y-3.7287
X8.6083Y-2.565
X8.6083Y-3.313
X8.6083Y-4.061
X8.7083Y-2.1327
X8.7083Y-2.8807
X8.7083Y-3.6287
X8.7442Y-4.8142
X8.853Y-4.589
X8.9119Y-4.9488
X9.1204Y-4.5571
X9.1577Y-2.5761
X9.1577Y-3.3241
X9.1577Y-4.0722
X9.2045Y-2.3304
X9.2045Y-3.0785
X9.2045Y-3.8265
X9.3545Y-2.6627
X9.3545Y-3.4107
X9.3545Y-4.1588
X9.4545Y-2.2304
X9.4545Y-2.9785
X9.4545Y-3.7265
X9.5037Y-5.0761
X9.6309Y-5.2495
X9.6671Y-4.8868
X9.9336Y-4.9252
T9
X1.8003Y-4.7617
X2.8403Y-2.0517
X5.0203Y-4.3017
X5.2253Y-2.4417
X6.6465Y-2.4417
X6.8515Y-4.3017
X9.0315Y-2.0517
X10.0715Y-4.7617
T10
X2.1248Y-5.0484
X2.1248Y-5.0484
X2.5173Y-2.4304
X2.5173Y-3.1785
X2.5173Y-3.9265
X2.899Y-4.7246
X2.8995Y-4.7249
X3.2628Y-3.8268
X3.2646Y-2.3304
X3.2646Y-3.0785
X4.0126Y-2.1506
X4.0126Y-2.8986
X4.0126Y-3.6467
X4.7606Y-2.3957
X4.7606Y-3.1437
X4.7606Y-3.8917
X5.5087Y-2.8632
X5.5087Y-3.6112
X5.5087Y-4.3593
X6.3632Y-2.8632
X6.3632Y-3.6112
X6.3632Y-4.3593
X7.1113Y-2.3971
X7.1113Y-3.1452
X7.1113Y-3.8932
X7.8593Y-2.1506
X7.8593Y-2.8986
X7.8593Y-3.6467
X8.6083Y-2.3327
X8.6083Y-3.0807
X8.6083Y-3.8287
X8.972Y-4.7244
X8.9723Y-4.7249
X9.3545Y-2.4304
X9.3545Y-3.1785
X9.3545Y-3.9265
X9.747Y-5.0484
X9.747Y-5.0484
T11
X2.1248Y-5.0484
X2.5173Y-2.4304
X2.5173Y-3.1785
X2.5173Y-3.9265
X2.899Y-4.7246
X3.2628Y-3.8268
X3.2646Y-2.3304
X3.2646Y-3.0785
X4.0126Y-2.1506
X4.0126Y-2.8986
X4.0126Y-3.6467
X4.7606Y-2.3957
X4.7606Y-3.1437
X4.7606Y-3.8917
X5.5087Y-2.8632
X5.5087Y-3.6112
X5.5087Y-4.3593
X6.3632Y-2.8632
X6.3632Y-3.6112
X6.3632Y-4.3593
X7.1113Y-2.3971
X7.1113Y-3.1452
X7.1113Y-3.8932
X7.8593Y-2.1506
X7.8593Y-2.8986
X7.8593Y-3.6467
X8.6083Y-2.3327
X8.6083Y-3.0807
X8.6083Y-3.8287
X8.972Y-4.7244
X9.3545Y-2.4304
X9.3545Y-3.1785
X9.3545Y-3.9265
X9.747Y-5.0484
T0
M30
