M48
; DRILL file {KiCad (6.0.9)} date Fri Jan  6 00:22:51 2023
; FORMAT={-:-/ absolute / inch / decimal}
; #@! TF.CreationDate,2023-01-06T00:22:51-03:00
; #@! TF.GenerationSoftware,Kicad,Pcbnew,(6.0.9)
; #@! TF.FileFunction,Plated,1,2,PTH
FMAT,2
INCH
; #@! TA.AperFunction,Plated,PTH,ComponentDrill
T1C0.0120
; #@! TA.AperFunction,Plated,PTH,ViaDrill
T2C0.0157
; #@! TA.AperFunction,Plated,PTH,ComponentDrill
T3C0.0394
; #@! TA.AperFunction,Plated,PTH,ComponentDrill
T4C0.0400
; #@! TA.AperFunction,Plated,PTH,ComponentDrill
T5C0.0492
%
G90
G05
T1
X2.3686Y-4.8146
X2.3952Y-4.8606
X3.2018Y-4.5806
X3.2155Y-4.632
X8.5618Y-4.6401
X8.5755Y-4.5888
X9.3833Y-4.8439
X9.4099Y-4.7979
T2
X1.5778Y-4.5945
X1.6417Y-3.9065
X1.7352Y-4.6093
X1.752Y-3.8091
X1.752Y-3.8839
X1.7972Y-4.2805
X1.8711Y-3.5709
X1.8907Y-4.3406
X1.9478Y-3.9026
X1.9616Y-3.3071
X1.9764Y-3.815
X2.0246Y-5.185
X2.0994Y-4.2726
X2.1929Y-4.186
X2.248Y-3.5256
X2.253Y-3.2362
X2.2933Y-4.6496
X2.4026Y-2.497
X2.4222Y-4.1614
X2.4567Y-3.2943
X2.5246Y-4.4646
X2.5856Y-4.3848
X2.6742Y-3.5827
X2.688Y-2.8445
X2.7096Y-4.3957
X2.874Y-4.1102
X2.9665Y-4.8258
X3.0965Y-2.7569
X3.1841Y-2.1486
X3.1988Y-3.5551
X3.25Y-4.2362
X3.3159Y-4.372
X3.8317Y-2.4724
X3.9016Y-3.9035
X3.9311Y-3.1683
X4.2285Y-2.5661
X4.6555Y-2.2087
X4.6781Y-3.6348
X4.6791Y-2.8661
X4.8667Y-3.2378
X5.3986Y-4.435
X5.4488Y-3.3819
X5.4724Y-2.7402
X5.751Y-4.6663
X6.2953Y-2.6161
X6.4759Y-3.5871
X6.5463Y-4.2638
X6.9803Y-3.2057
X7.2274Y-3.8967
X7.2461Y-2.3602
X7.2849Y-3.0546
X7.6949Y-3.4272
X7.7677Y-2.3533
X7.7805Y-3.0423
X7.9654Y-3.7488
X8.3553Y-3.4646
X8.3858Y-4.3297
X8.3907Y-4.4262
X8.4281Y-3.3957
X8.4892Y-2.8691
X8.5138Y-2.0915
X8.7392Y-3.8022
X8.7461Y-3.439
X8.9587Y-3.3947
X9.0787Y-3.5049
X9.0827Y-4.8445
X9.1437Y-3.5679
X9.2746Y-3.3287
X9.3927Y-2.5856
X9.4577Y-4.372
X9.4606Y-4.0463
X9.4656Y-4.4409
X9.6395Y-3.628
X9.6506Y-3.5423
X9.6772Y-3.7333
X9.7165Y-4.3632
X9.7766Y-4.0787
X9.809Y-5.2165
X9.8681Y-3.0827
X9.8789Y-4.2303
X9.9213Y-4.2953
X9.9301Y-3.9803
X10.001Y-4.2972
X10.0837Y-3.9341
X10.187Y-3.7077
X10.2067Y-4.2894
X10.2303Y-3.3425
T3
X1.5022Y-3.3053
X1.5022Y-3.4053
X1.5022Y-3.5053
X1.5022Y-3.6053
X1.5022Y-3.7053
X1.5022Y-3.8053
X1.5022Y-3.9053
X2.1022Y-3.3053
X2.1022Y-3.4053
X2.1022Y-3.5053
X2.1022Y-3.6053
X2.1022Y-3.7053
X2.1022Y-3.8053
X2.1022Y-3.9053
X9.7817Y-3.3319
X9.7817Y-3.4319
X9.7817Y-3.5319
X9.7817Y-3.6319
X9.7817Y-3.7319
X9.7817Y-3.8319
X9.7817Y-3.9319
X10.3817Y-3.3319
X10.3817Y-3.4319
X10.3817Y-3.5319
X10.3817Y-3.6319
X10.3817Y-3.7319
X10.3817Y-3.8319
X10.3817Y-3.9319
T4
X1.6272Y-3.5178
X1.6272Y-3.5928
X1.7522Y-3.2678
X1.7522Y-3.3678
X1.8522Y-3.2678
X1.8522Y-3.3678
X9.9067Y-3.5444
X9.9067Y-3.6194
X10.0317Y-3.2944
X10.0317Y-3.3944
X10.1317Y-3.2944
X10.1317Y-3.3944
T5
X1.5049Y-3.124
X2.1063Y-3.126
X9.8002Y-3.1417
X10.3819Y-3.123
T3
G00X1.6083Y-4.4222
M15
G01X1.628Y-4.4222
M16
G05
G00X1.7264Y-4.4222
M15
G01X1.7461Y-4.4222
M16
G05
G00X1.8839Y-4.4222
M15
G01X1.9035Y-4.4222
M16
G05
G00X1.9429Y-4.5876
M15
G01X1.9626Y-4.5876
M16
G05
G00X9.9281Y-4.4272
M15
G01X9.9085Y-4.4272
M16
G05
G00X9.9872Y-4.5925
M15
G01X9.9675Y-4.5925
M16
G05
G00X10.1447Y-4.5925
M15
G01X10.125Y-4.5925
M16
G05
G00X10.2628Y-4.5925
M15
G01X10.2431Y-4.5925
M16
G05
T0
M30
